<svg xmlns="http://www.w3.org/2000/svg" width="24" height="48" viewBox="0 0 24 48">
  <g id="그룹_343" data-name="그룹 343" transform="translate(-1060 -3297)">
    <path id="사각형_196" data-name="사각형 196" d="M24,0h0a0,0,0,0,1,0,0V48a0,0,0,0,1,0,0h0A24,24,0,0,1,0,24v0A24,24,0,0,1,24,0Z" transform="translate(1060 3297)" fill="#fff"/>
    <g id="right-chevron" transform="translate(1069 3312.458)">
      <g id="그룹_24" data-name="그룹 24" transform="translate(0 0)">
        <path id="패스_36" data-name="패스 36" d="M.772,17.083a.8.8,0,0,0,.464-.155L11.655,9.153a.774.774,0,0,0,0-1.238L1.237.154A.774.774,0,0,0,.308,1.391L9.9,8.547.308,15.7a.767.767,0,0,0,.464,1.38Z" transform="translate(0 0)" fill="#5b53c7"/>
      </g>
    </g>
  </g>
</svg>
