<svg id="map-point-pointer" xmlns="http://www.w3.org/2000/svg" width="9.241" height="13" viewBox="0 0 9.241 13">
  <g id="그룹_63" data-name="그룹 63">
    <path id="차집합" d="M2.043,4.086A2.043,2.043,0,1,1,4.087,2.042,2.046,2.046,0,0,1,2.043,4.086Zm0-3.172A1.128,1.128,0,1,0,3.172,2.042,1.129,1.129,0,0,0,2.044.914Z" transform="translate(2.577 3.08)" fill="#fff"/>
    <path id="차집합-2" data-name="차집합" d="M4.75,13a.441.441,0,0,1-.336-.159C3.963,12.331,0,7.773,0,4.757A4.487,4.487,0,0,1,4.483,0,4.566,4.566,0,0,1,8.014,1.525,4.928,4.928,0,0,1,9.241,4.75,10.324,10.324,0,0,1,7.152,10.2a22.826,22.826,0,0,1-2.059,2.646A.492.492,0,0,1,4.75,13ZM4.491.916A3.564,3.564,0,0,0,.923,4.751c0,2.225,2.688,5.69,3.843,7.076,1.069-1.251,3.56-4.444,3.56-7.076A3.756,3.756,0,0,0,4.491.916Z" fill="#fff"/>
  </g>
</svg>
