<svg xmlns="http://www.w3.org/2000/svg" width="48" height="48" viewBox="0 0 48 48">
  <g id="그룹_178" data-name="그룹 178" transform="translate(-980 -3258.201)">
    <g id="타원_2" data-name="타원 2" transform="translate(980 3258.201)" fill="#fff" stroke-miterlimit="10">
      <path d="M 24 47.5 C 20.82729911804199 47.5 17.74976921081543 46.87873077392578 14.8528995513916 45.65346145629883 C 12.05459976196289 44.46987152099609 9.541359901428223 42.77536010742188 7.382999897003174 40.61700057983398 C 5.224629878997803 38.45864105224609 3.530129909515381 35.94540023803711 2.346539974212646 33.14709854125977 C 1.121269941329956 30.25021934509277 0.5 27.17268943786621 0.5 24 C 0.5 20.82729911804199 1.121269941329956 17.74976921081543 2.346539974212646 14.8528995513916 C 3.530129909515381 12.05459976196289 5.224629878997803 9.541359901428223 7.382999897003174 7.382999897003174 C 9.541359901428223 5.224629878997803 12.05459976196289 3.530129909515381 14.8528995513916 2.346539974212646 C 17.74976921081543 1.121269941329956 20.82729911804199 0.5 24 0.5 C 27.17268943786621 0.5 30.25021934509277 1.121269941329956 33.14709854125977 2.346539974212646 C 35.94540023803711 3.530129909515381 38.45864105224609 5.224629878997803 40.61700057983398 7.382999897003174 C 42.77536010742188 9.541359901428223 44.46987152099609 12.05459976196289 45.65346145629883 14.8528995513916 C 46.87873077392578 17.74976921081543 47.5 20.82729911804199 47.5 24 C 47.5 27.17268943786621 46.87873077392578 30.25021934509277 45.65346145629883 33.14709854125977 C 44.46987152099609 35.94540023803711 42.77536010742188 38.45864105224609 40.61700057983398 40.61700057983398 C 38.45864105224609 42.77536010742188 35.94540023803711 44.46987152099609 33.14709854125977 45.65346145629883 C 30.25021934509277 46.87873077392578 27.17268943786621 47.5 24 47.5 Z" stroke="none"/>
      <path d="M 24 1 C 20.89459037780762 1 17.88258934020996 1.607978820800781 15.04767990112305 2.807048797607422 C 12.30897903442383 3.965419769287109 9.849159240722656 5.623950958251953 7.736549377441406 7.736549377441406 C 5.623950958251953 9.849159240722656 3.965419769287109 12.30897903442383 2.807048797607422 15.04767990112305 C 1.607978820800781 17.88258934020996 1 20.89459037780762 1 24 C 1 27.10540962219238 1.607978820800781 30.11741065979004 2.807048797607422 32.95232009887695 C 3.965419769287109 35.69102096557617 5.623950958251953 38.15084075927734 7.736549377441406 40.26345062255859 C 9.849159240722656 42.37604904174805 12.30897903442383 44.03458023071289 15.04767990112305 45.19295120239258 C 17.88258934020996 46.39202117919922 20.89459037780762 47 24 47 C 27.10540962219238 47 30.11741065979004 46.39202117919922 32.95232009887695 45.19295120239258 C 35.69102096557617 44.03458023071289 38.15084075927734 42.37604904174805 40.26345062255859 40.26345062255859 C 42.37604904174805 38.15084075927734 44.03458023071289 35.69102096557617 45.19295120239258 32.95232009887695 C 46.39202117919922 30.11741065979004 47 27.10540962219238 47 24 C 47 20.89459037780762 46.39202117919922 17.88258934020996 45.19295120239258 15.04767990112305 C 44.03458023071289 12.30897903442383 42.37604904174805 9.849159240722656 40.26345062255859 7.736549377441406 C 38.15084075927734 5.623950958251953 35.69102096557617 3.965419769287109 32.95232009887695 2.807048797607422 C 30.11741065979004 1.607978820800781 27.10540962219238 1 24 1 M 24 0 C 37.25481033325195 0 48 10.74518966674805 48 24 C 48 37.25481033325195 37.25481033325195 48 24 48 C 10.74518966674805 48 0 37.25481033325195 0 24 C 0 10.74518966674805 10.74518966674805 0 24 0 Z" stroke="none" fill="#8491d7"/>
    </g>
    <g id="right-chevron" transform="translate(996 3270.201)">
      <g id="그룹_24" data-name="그룹 24">
        <path id="패스_36" data-name="패스 36" d="M1.074,23.757a1.114,1.114,0,0,0,.645-.215L16.208,12.729a1.076,1.076,0,0,0,0-1.721L1.72.213A1.076,1.076,0,0,0,.429,1.935l13.341,9.952L.429,21.838a1.06,1.06,0,0,0-.215,1.488,1.07,1.07,0,0,0,.861.43Z" fill="#5b53c7"/>
      </g>
    </g>
  </g>
</svg>
