<svg id="그룹_344" data-name="그룹 344" xmlns="http://www.w3.org/2000/svg" width="24" height="48" viewBox="0 0 24 48">
  <path id="사각형_196" data-name="사각형 196" d="M0,0H0A24,24,0,0,1,24,24v0A24,24,0,0,1,0,48H0a0,0,0,0,1,0,0V0A0,0,0,0,1,0,0Z" fill="#fff"/>
  <g id="right-chevron" transform="translate(3.036 15.458)">
    <g id="그룹_24" data-name="그룹 24">
      <path id="패스_36" data-name="패스 36" d="M11.192,17.083a.8.8,0,0,1-.464-.155L.309,9.153a.774.774,0,0,1,0-1.238L10.728.154a.774.774,0,0,1,.928,1.238L2.063,8.547,11.656,15.7a.767.767,0,0,1-.464,1.38Z" transform="translate(0 0)" fill="#5b53c7"/>
    </g>
  </g>
</svg>
