<svg id="map-point-pointer" xmlns="http://www.w3.org/2000/svg" width="11.374" height="16" viewBox="0 0 11.374 16">
  <g id="그룹_63" data-name="그룹 63" transform="translate(0 0)">
    <path id="차집합" d="M2.392,4.786A2.393,2.393,0,1,1,4.786,2.392,2.4,2.4,0,0,1,2.392,4.786Zm0-3.714A1.321,1.321,0,1,0,3.714,2.392,1.323,1.323,0,0,0,2.394,1.072Z" transform="translate(3.294 3.874)" fill="#aaa"/>
    <path id="차집합-2" data-name="차집합" d="M5.847,16a.542.542,0,0,1-.413-.2C4.877,15.177,0,9.567,0,5.855,0,2.946,1.9,0,5.518,0A5.62,5.62,0,0,1,9.863,1.876a6.066,6.066,0,0,1,1.511,3.97c0,1.9-.865,4.159-2.571,6.709a28.1,28.1,0,0,1-2.534,3.257A.6.6,0,0,1,5.847,16ZM5.528,1.128c-3.018,0-4.392,2.447-4.392,4.72,0,2.739,3.308,7,4.73,8.709,1.316-1.539,4.382-5.47,4.382-8.709A4.623,4.623,0,0,0,5.528,1.128Z" fill="#aaa"/>
  </g>
</svg>
