<svg xmlns="http://www.w3.org/2000/svg" width="30.857" height="30" viewBox="0 0 30.857 30">
  <g id="그룹_1130" data-name="그룹 1130" transform="translate(-842.5 -1518.603)">
    <path id="타원_206" data-name="타원 206" d="M15.429,0A15.219,15.219,0,0,1,30.857,15,15.219,15.219,0,0,1,15.429,30,15.219,15.219,0,0,1,0,15,15.219,15.219,0,0,1,15.429,0Z" transform="translate(842.5 1518.603)" fill="#d7dce8"/>
    <g id="그룹_316" data-name="그룹 316" transform="translate(849.895 1523.147)">
      <path id="차집합" d="M15.22,20.911H.847A.848.848,0,0,1,0,20.063a14.086,14.086,0,0,1,1.433-6.314A9.062,9.062,0,0,1,5.111,9.743a5.316,5.316,0,1,1,5.859,0,9.071,9.071,0,0,1,3.666,4.006,14.107,14.107,0,0,1,1.432,6.314A.849.849,0,0,1,15.22,20.911ZM8.034,1.694a3.614,3.614,0,1,0,3.614,3.614A3.619,3.619,0,0,0,8.034,1.694Z" transform="translate(0 0)" fill="#fff"/>
      <path id="패스_646" data-name="패스 646" d="M0,8.556C.3,3.77,3.007,0,6.311,0s6.015,3.77,6.311,8.556Z" transform="translate(1.723 10.66)" fill="#d7dce8"/>
    </g>
  </g>
</svg>
