<svg xmlns="http://www.w3.org/2000/svg" width="15.822" height="9.958" viewBox="0 0 15.822 9.958">
  <g id="그룹_1129" data-name="그룹 1129" transform="translate(-987.5 -1539.603)">
    <path id="차집합" d="M7.911,9.958a8.472,8.472,0,0,1-6.07-2.45A8.572,8.572,0,0,1,.05,5.04a.525.525,0,0,1-.009-.427,7.194,7.194,0,0,1,1.7-2.329A8.674,8.674,0,0,1,7.855,0a8.835,8.835,0,0,1,6.172,2.274,7.562,7.562,0,0,1,1.744,2.32.527.527,0,0,1,0,.445l-.016.033a8.89,8.89,0,0,1-1.775,2.436A8.522,8.522,0,0,1,7.911,9.958ZM7.827,1.151a2.71,2.71,0,1,0,2.71,2.71A2.713,2.713,0,0,0,7.827,1.151Z" transform="translate(987.501 1539.603)" fill="#aaa"/>
    <path id="패스_647" data-name="패스 647" d="M6.655,6.014A3.817,3.817,0,0,0,9.782,0a7.055,7.055,0,0,1,3.666,3.156,8.406,8.406,0,0,1-1.466,1.93A7.271,7.271,0,0,1,6.729,7.193,7.317,7.317,0,0,1,1.476,5.077,8.437,8.437,0,0,1,0,3.137,6.8,6.8,0,0,1,3.508.019,3.791,3.791,0,0,0,2.831,2.19,3.83,3.83,0,0,0,6.655,6.014Z" transform="translate(988.674 1541.273)" fill="#aaa"/>
  </g>
</svg>
