<svg xmlns="http://www.w3.org/2000/svg" xmlns:xlink="http://www.w3.org/1999/xlink" width="484.436" height="389.88" viewBox="0 0 484.436 389.88">
  <defs>
    <linearGradient id="linear-gradient" x1="8.6" y1="-5.149" x2="2.646" y2="-11.68" gradientUnits="objectBoundingBox">
      <stop offset="0" stop-color="#6885c5"/>
      <stop offset="1" stop-color="#8ca4d9"/>
    </linearGradient>
  </defs>
  <g id="그룹_304" data-name="그룹 304" transform="translate(1721.554 -1726.321)">
    <path id="패스_2326" data-name="패스 2326" d="M-1498.974,2019.964l2.389.8-.6,1.791-2.587,1.194-.2,2.588.6,2.388,1.791,5.175,2.19,2.588,2.986-1.393,3.185-4.379-2.389-5.374-3.384-5.772-2.986-1.592Z" fill="url(#linear-gradient)"/>
    <path id="패스_2327" data-name="패스 2327" d="M-1436.077,2038.475h4.18l2.986-.2a25.8,25.8,0,0,1,2.985,1.792,31.052,31.052,0,0,1,3.384,4.18c.757,1.053,1.791,3.546,2.787,4.378.752.631,3.383,1.394,3.383,1.991s1.2,3.2,2.19,3.384c.57.1,1.416-1.282,1.99-1.2.739.114,1.592,1.792,1.792,2.389s3.184,2.189,3.184,2.189l2.19,2.787,2.388,1.393-.6,4.379,3.384,1.194.8,3.981,4.578,2.588.995,5.573s-.649,6.716-2.189,8.16c-.371.348-1.513.226-1.991.4-.586.213-1.586,1.352-2.189,1.194-1.817-.476-3.981-6.37-3.981-6.37l-5.573-3.383-2.389-5.175-2.189-1.593s-3.782-9.952-4.976-9.952h-2.389s1.212-3.725.995-4.976a10.135,10.135,0,0,0-2.985-4.976c-.751-.511-3.583-.6-3.583-.6l-.8-2.985-3.185-3.782-3.781-2.588Z" fill="url(#linear-gradient)"/>
    <path id="패스_2328" data-name="패스 2328" d="M-1389.1,2090.89c-1.633-.259-5.55-2.545-6.5-1.194-.419.595,1.58,1.8,1.459,2.52-.109.65-2.06,1.071-1.99,1.726.09.826,2.1,1.432,2.92,1.592a13.342,13.342,0,0,0,1.724-.133c.531,0,2.963,1.166,3.981,1.46,1.195.344,4.909.8,4.909.8l4.379,1.46,6.237,2.255,4.91-.4,2.388-.265,4.247,1.061,1.46-1.061h3.051l-1.725-2.123a10.352,10.352,0,0,1-3.184.266c-.555-.192-1.159-1.439-1.725-1.593-.754-.205-2.371,1.045-3.052.664-.705-.4-1.45-2.344-1.062-3.052.345-.628,2.429-.044,2.786-.664a1.43,1.43,0,0,0-.4-1.327c-1.067-.691-3.772.743-5.041.664a15.812,15.812,0,0,1-3.053-.8c-.716-.245-2.055-1.392-2.786-1.194-.916.248-1.355,2.755-2.257,3.052-.847.28-2.567-.785-3.449-.928a11.345,11.345,0,0,1-2.256-.133c-.659-.309-1.343-1.791-1.99-2.124C-1386.015,2090.962-1388.111,2091.047-1389.1,2090.89Z" fill="url(#linear-gradient)"/>
    <path id="패스_2329" data-name="패스 2329" d="M-1353.806,2100.046c.184.515-.342,1.609-.532,2.122-.1.279-.53,1.063-.53,1.063a8.253,8.253,0,0,0,1.724-.4,4.845,4.845,0,0,0,1.727-1.725,1.931,1.931,0,0,0-.266-1.592c-.518-.417-2.46-.5-2.655.133C-1354.386,2099.806-1353.862,2099.89-1353.806,2100.046Z" fill="url(#linear-gradient)"/>
    <path id="패스_2330" data-name="패스 2330" d="M-1348.631,2100.974a3.272,3.272,0,0,0-1.726.531c-.356.341-.907,1.429-.662,1.858s1.481.4,1.99.4c.644,0,2.241.05,2.521-.53.225-.468-.537-1.518-.929-1.859A2.487,2.487,0,0,0-1348.631,2100.974Z" fill="url(#linear-gradient)"/>
    <path id="패스_2331" data-name="패스 2331" d="M-1346.774,2099.382c-.3.37.1,1.491.4,1.858a4.157,4.157,0,0,0,1.858.8,3.762,3.762,0,0,0,2.123,0c.381-.262.864-1.308.664-1.725-.332-.69-2.163-.811-2.919-.929C-1345.176,2099.3-1346.44,2098.97-1346.774,2099.382Z" fill="url(#linear-gradient)"/>
    <path id="패스_2332" data-name="패스 2332" d="M-1341.731,2106.149c.535.313,1.825.406,2.388.664.544.249,1.4,1.4,1.991,1.327.489-.06,1.4-.972,1.326-1.46-.084-.574-1.459-.961-1.99-1.194a10.682,10.682,0,0,0-2.255-.663c-.66-.079-2.415-.488-2.655.132C-1343.078,2105.349-1342.1,2105.937-1341.731,2106.149Z" fill="url(#linear-gradient)"/>
    <path id="패스_2333" data-name="패스 2333" d="M-1339.741,2101.372a1.2,1.2,0,0,0,.4.929c.813.577,2.984.233,3.981.266,1.326.044,5.307,0,5.307,0v-1.593l-2.653-.4s-1.5-.143-1.99-.265c-.55-.138-1.56-.855-2.124-.8C-1337.682,2099.6-1339.486,2100.546-1339.741,2101.372Z" fill="url(#linear-gradient)"/>
    <path id="패스_2334" data-name="패스 2334" d="M-1324.746,2105.353l-1.46,3.052.928.663,5.573-3.185,9.156-4.246-1.99-1.194-2.653-.929-1.858,1.459-2.521,3.451-2.522.132Z" fill="url(#linear-gradient)"/>
    <path id="패스_2335" data-name="패스 2335" d="M-1328.86,2101.24l1.328.663-.266-1.459Z" fill="url(#linear-gradient)"/>
    <path id="패스_2336" data-name="패스 2336" d="M-1324.746,2100.444l1.857-.266-1.326,1.062h-1.46Z" fill="url(#linear-gradient)"/>
    <path id="패스_2337" data-name="패스 2337" d="M-1321.429,2099.78l.4.664,1.46-.266-.4-.928Z" fill="url(#linear-gradient)"/>
    <path id="패스_2338" data-name="패스 2338" d="M-1350.091,2030.713c-2.62.091-3.342,7.774-5.772,8.758-.425.172-1.352-.527-1.792-.4-.472.139-.982,1.122-1.393,1.394a18.953,18.953,0,0,1-2.687,1.094l-1.692,3.285-1.094,3.881h-2.588l-2.986.8-1.691.9-1.593,4.976-5.175-1.592-1.592.9v1.095l-1.891,2.687.9,3.085.4,6.17,1.492.5h1.394l.2,4.777,1.294.995.3,2.09,4.578,1.493.2-1.194,1.194,2.289,2.986-.7,1.592-2.289,1.991,1.294v1.294s.2.5,1.393.4-.4-2.787,1.194-1.294.9,3.384,1.891,4.279,2.289-1.094,2.289-1.094l1.692-.3.2-1.194,1.99.6v-4.08l.7-5.673,1.592-1.991,3.484-1.691s-1.493-2.588-.3-4.578a9.26,9.26,0,0,1,2.886-2.986s2.687.7,2.19-.2a21.249,21.249,0,0,0-2.588-2.886l-1.095-1.294s1.792-2.388.2-3.384a13.41,13.41,0,0,1-1.99-1.393l.3-4.18s1.791-3.383,2.687-2.886,1.094-1.891,1.094-1.891l2.886-1.293-1.791-2.688a17.1,17.1,0,0,1-3.682-.6,7.784,7.784,0,0,1-1.991-1.791C-1348.9,2033.421-1349.113,2030.679-1350.091,2030.713Z" fill="url(#linear-gradient)"/>
    <path id="패스_2339" data-name="패스 2339" d="M-1386.449,1972.66l-2.786,3.316,1.194,2.389,1.592,1.725h2.255a6.817,6.817,0,0,0,2.124-.929c.989-1.176,2.017-4.539,1.459-5.971a3.427,3.427,0,0,0-1.991-1.327C-1383.566,1971.676-1386.449,1972.66-1386.449,1972.66Z" fill="url(#linear-gradient)"/>
    <path id="패스_2340" data-name="패스 2340" d="M-1345.446,1949.305c-.768.423-1.726,3.052-1.726,3.052v1.991s-.929.663-.929,1.459,1.209,3.08,1.593,4.114c.294.792,1.326,4.909,2.388,2.388a44.99,44.99,0,0,0,1.858-5.839l.133-2.52s3.316-3.185,1.326-3.849S-1344.415,1948.737-1345.446,1949.305Z" fill="url(#linear-gradient)"/>
    <path id="패스_2341" data-name="패스 2341" d="M-1341.2,1978.763c-.292-.086-1.194-.4-1.194.266s.786,2.668.93,3.583c.157,1.016-.021,3.085,0,4.113.015.863.83,2.942.132,3.45-.543.395-2.521-.929-2.521-.929a21.863,21.863,0,0,0,.663,4.246c.321.736,1.918,1.722,1.99,2.522.045.491-1.061,1.99.664,1.857s1.779-.954,2.388-.8c.468.121.632,1.385.531,1.858-.053.254-.773.561-.663.8.3.631,2.1.111,2.787,0,.518-.084,1.483-.8,1.99-.664.863.228,2.389,2.655,2.389,2.655l1.326-.4s2.418,1.139,3.185,1.592c.555.327,2.122,1.459,2.122,1.459l-1.592-2.919s.272-1.39,0-1.725c-.513-.631-2.438-.34-3.185-.664-.371-.16-.94-.807-1.326-.928-.538-.17-1.732.209-2.256,0a6.432,6.432,0,0,1-2.653-2.522c-.639-1.53-.254-5.021.132-6.634.232-.967,1.636-2.593,1.725-3.583a10.088,10.088,0,0,0-1.061-3.848c-.342-.7-1.112-2.285-1.858-2.521-.4-.127-1.173.516-1.593.53A13.2,13.2,0,0,1-1341.2,1978.763Z" fill="url(#linear-gradient)"/>
    <path id="패스_2342" data-name="패스 2342" d="M-1340.139,2002.516a9.056,9.056,0,0,0,1.326,1.99l1.195,2.389s2.537.431,3.052-.133c.448-.492.174-2.065-.132-2.654a9.478,9.478,0,0,0-2.388-1.858l-2.921-.928A4.51,4.51,0,0,0-1340.139,2002.516Z" fill="url(#linear-gradient)"/>
    <path id="패스_2343" data-name="패스 2343" d="M-1342,2012.733c.183-.2.86-.45,1.062-.265.471.431-.092,1.961-.4,2.52-.383.7-1.841,1.542-2.389,2.124-.662.706-1.8,2.279-2.388,3.052a29.076,29.076,0,0,1-2.123,2.919,18.919,18.919,0,0,1-2.256,1.459s1.486-1.994,1.99-2.653c.459-.6,1.411-1.778,1.859-2.389.76-1.039,1.9-3.457,2.918-4.246.308-.237,1.216-.228,1.46-.531C-1341.948,2014.332-1342.332,2013.107-1342,2012.733Z" fill="url(#linear-gradient)"/>
    <path id="패스_2344" data-name="패스 2344" d="M-1331.63,2009.515a8.534,8.534,0,0,0-.448,1.841c.02.365.448,1.244.448,1.393s-.561,1.7-.249,2.14a2.4,2.4,0,0,0,2.09.448c.773-.334,1.544-2.067,1.742-2.886a2.132,2.132,0,0,0-.1-1.393c-.249-.291-1.493-.349-1.493-.349Z" fill="url(#linear-gradient)"/>
    <path id="패스_2345" data-name="패스 2345" d="M-1328.545,2004.34c-.236.116.246.752.348.995.314.743,1.443,2.886,1.443,2.886l.946-.1,1.343,1.045-.348-1.543a17.356,17.356,0,0,1-2.587-1.543C-1327.777,2005.721-1328.078,2004.109-1328.545,2004.34Z" fill="url(#linear-gradient)"/>
    <path id="패스_2346" data-name="패스 2346" d="M-1323.32,2005.683s.97.153,1.294.2c.36.053,1.087.12,1.443.2a2.075,2.075,0,0,1,.8.249c.3.3.381,1.192.5,1.593.2.692.626,2.075.746,2.786.087.517.6,1.827.149,2.09-.5.294-1.611-.812-1.94-1.294-.26-.378-.147-1.408-.4-1.791a8.1,8.1,0,0,0-1.792-1.294l-1.493-2.09Z" fill="url(#linear-gradient)"/>
    <path id="패스_2347" data-name="패스 2347" d="M-1324.315,2011.7a8.919,8.919,0,0,0-1.244.7c-.234.2-.531.772-.747.995s-.995.8-.995.8l-.5,1.095a18.063,18.063,0,0,1-.8,2.239c-.116.209-.647.8-.448.846a4.787,4.787,0,0,1,1.145.946c.2.248,1.261.914,1.692.746.6-.232,1.012-1.642,1.244-2.239a38.5,38.5,0,0,0,.945-3.931Z" fill="url(#linear-gradient)"/>
    <path id="패스_2348" data-name="패스 2348" d="M-1322.524,2009.764c-.532.273.132,1.792.1,2.388-.014.251-.143.744-.15.995a2.686,2.686,0,0,0,.1.946,6.485,6.485,0,0,0,1.294,1.194s.448,1.244.6,1.493.647,1.592.8,1.592a13,13,0,0,0,1.493-1.144l-.647-1.891a13.266,13.266,0,0,0-.946-1.991c-.3-.383-1.234-.832-1.492-1.244-.246-.39-.2-1.4-.448-1.791C-1321.947,2010.125-1322.326,2009.663-1322.524,2009.764Z" fill="url(#linear-gradient)"/>
    <path id="패스_2349" data-name="패스 2349" d="M-1329.54,2026.135l1.493-.05,1.343-1.244c.324-.3.866-1.088,1.294-1.194a2.8,2.8,0,0,1,1.493.4c.372.219.766,1.2,1.194,1.244.563.064,1.519-.816,1.891-1.244a15.015,15.015,0,0,0,1.343-2.836l1.2.3.647-1.742.6-.995,1.1.846,1.293,2.438a32.992,32.992,0,0,1,1.841,4.927,15.448,15.448,0,0,1-.1,2.04c0,.249-.448,2.388-.448,2.388l-1.791-.845-.2.646-.349,1.543.15,1.592-.548,1.642-.5,1-2.389-.8a12.312,12.312,0,0,1-1.343-1.045c-.472-.522-1.055-1.837-1.493-2.388-.2-.247-.814-.589-.9-.9a4.991,4.991,0,0,1,.5-1.841s-.789-1.506-1.294-1.642c-.555-.149-1.58.977-2.14.846-.343-.08-.623-.9-.945-1.045a5.9,5.9,0,0,0-1.841,0s-.15,1.095-.15,1.294a5.228,5.228,0,0,1-.7,1.095l-1.294.1v-2.09l.995-1.144Z" fill="url(#linear-gradient)"/>
    <path id="패스_2350" data-name="패스 2350" d="M-1317.747,2054.7c-.575-.084-1.188,1.275-1.592,1.692s-1.072,1.377-1.592,1.592a8.274,8.274,0,0,1-2.489,0c-.671-.012-2.015-.087-2.687-.1a16.393,16.393,0,0,1-2.886,0c-.69-.18-1.814-1.159-2.488-1.393a3.787,3.787,0,0,0-1.891-.3c-.527.209-.926,1.469-1.393,1.791-.342.238-1.225.3-1.592.5a19.884,19.884,0,0,0-2.289,1.891l-1.194,3.782,1.094,1.393-.4,1.99-2.289,2.488s1.493,1.294,1.493,1.593a14.156,14.156,0,0,1-1.294,2.189l-1.094,1.792.7,2.388,1.394.4s.8.7.8.995v2.886l-.6,4.18,1.492,1.991,1.294-.1,1.393-3.284.1-5.971s-1.781-2.392-1.592-3.284c.087-.415.906-.925,1.293-1.095.551-.241,1.871-.6,2.389-.3.483.286.6,1.493.5,2.19s-.995,2.886-.6,3.085a12.064,12.064,0,0,1,1.493,2.587l.2,2.687,2.986-1.592,2.587-.2.5-1.791s-2.581-3.662-3.284-4.976c-.574-1.072-2.095-3.281-1.891-4.479.062-.364.693-.881.995-1.094.529-.373,1.851-.636,2.389-1,.5-.332,1.152-1.434,1.691-1.692.585-.277,2.887-.3,2.389-1s-2.3-.908-3.085-.8c-.389.056-1.1.435-1.493.5-.614.1-1.889-.17-2.488,0-.731.207-1.832,1.517-2.588,1.592-1.175.117-3.781-1.393-3.582-3.085s.916-3.891,1.99-4.479c.917-.5,3.135.021,4.18,0,1.32-.024,3.979-.448,5.275-.2.721.14,1.951,1.216,2.687,1.2a7.788,7.788,0,0,0,3.881-1.991,7.819,7.819,0,0,0,1.791-3.981C-1317.156,2055.558-1317.417,2054.746-1317.747,2054.7Z" fill="url(#linear-gradient)"/>
    <path id="패스_2351" data-name="패스 2351" d="M-1327.4,2084.155a4.36,4.36,0,0,0-.7,1.294,1.987,1.987,0,0,0,.4.9c.215.281.781,1.059,1.095.9s-.2-1.059-.1-1.393a4.556,4.556,0,0,1,.8-.995l-.7-1Z" fill="url(#linear-gradient)"/>
    <path id="패스_2352" data-name="패스 2352" d="M-1306.9,2060.768c-.716-.761-.066-3.136,0-4.18.037-.6-.129-1.965.3-2.388.321-.317,1.792-.2,1.792-.2l-.6,1.99,1.393.3.7-.8s1.281.6,1.492,1a2.77,2.77,0,0,1,0,2.189c-.287.358-1.791.4-1.791.4l-1.692,1.791S-1306.626,2061.059-1306.9,2060.768Z" fill="url(#linear-gradient)"/>
    <path id="패스_2353" data-name="패스 2353" d="M-1303.217,2050.816c-.219-.133-.807.257-.9.5-.073.2.3.584.3.8a3.858,3.858,0,0,1-.4.995l.9.7S-1302.579,2051.205-1303.217,2050.816Z" fill="url(#linear-gradient)"/>
    <path id="패스_2354" data-name="패스 2354" d="M-1319.14,2070.421c.292-.127.5.883.8,1,.543.206,1.711-.454,2.289-.4.557.053,1.546.924,2.09.8.429-.1,1.194-1.294,1.194-1.294l.9.9-1.095,1.492.3,1.394s-1.047.209-1.294,0c-.23-.2.012-.978-.2-1.2-.636-.653-2.729-.374-3.583-.7a3.112,3.112,0,0,1-1.194-.7C-1319.125,2071.445-1319.44,2070.554-1319.14,2070.421Z" fill="url(#linear-gradient)"/>
    <path id="패스_2355" data-name="패스 2355" d="M-1306.5,2063.853c-.61-.227-1.762,1.154-1.891,1.791-.085.427.7,1.593.7,1.593l2.189-.4.4-1.593s-1.079-.136-1.293-.4C-1306.56,2064.655-1306.266,2063.941-1306.5,2063.853Z" fill="url(#linear-gradient)"/>
    <path id="패스_2356" data-name="패스 2356" d="M-1307.2,2068.929a2.566,2.566,0,0,0-.1,1c.2.438,1.592,1.095,1.592,1.095l.4-1.394Z" fill="url(#linear-gradient)"/>
    <path id="패스_2357" data-name="패스 2357" d="M-1311.875,2077.089c.337-.17,1.091.312,1.46.4.493.117,1.508.559,1.99.4.423-.139,1.2-1.326,1.2-1.326a6.118,6.118,0,0,1,.53,1.858,3.8,3.8,0,0,1-1.858,2.123,5,5,0,0,1-3.449-.531,2.076,2.076,0,0,1-.532-1.194C-1312.55,2078.353-1312.287,2077.3-1311.875,2077.089Z" fill="url(#linear-gradient)"/>
    <path id="패스_2358" data-name="패스 2358" d="M-1295.156,2115.173a7.582,7.582,0,0,0-1.858-.8c-.449-.025-1.477.152-1.724.53a1.241,1.241,0,0,0,.132,1.194c.547.4,2.654-.53,2.654-.53Z" fill="url(#linear-gradient)"/>
    <path id="패스_2359" data-name="패스 2359" d="M-1331.58,1818.734l1.592,2.986-.2,2.388,2.588,3.583s2.035,2.412,2.985,2.786c.733.29,2.389,0,2.588,1.792s2.072,3.993,2.985,5.175c1.09,1.41,3.065,4.383,4.18,5.772a19.064,19.064,0,0,1,1.593,1.791c.648,1.168.995,3.384,2.388,4.777a59.14,59.14,0,0,1,3.981,4.976s.513-1.712.995-1.99c.692-.4,2.916.95,3.185.2.589-1.638-4.763-2.329-5.971-3.583-1.5-1.554-4.023-5.408-4.18-7.563a2.428,2.428,0,0,1,.6-1.593c.682-.5,3.167.621,3.383-.2.257-.974-2.495-1.712-3.383-2.189a24.232,24.232,0,0,1-3.185-1.393c-1.684-1.385-3.758-5.357-4.976-7.166-.763-1.133-1.86-3.8-2.986-4.578-.964-.664-4.577-.995-4.577-.995Z" fill="url(#linear-gradient)"/>
    <path id="패스_2360" data-name="패스 2360" d="M-1306.1,1858.144s4.046-.051,5.175.6c.863.5,1.49,2.757,2.389,3.185,1.169.557,4.016-.778,5.175-.2.7.352,1.018,2.44,1.791,2.587.7.135,1.714-1.834,2.389-1.592.978.352.687,3.074,1.194,3.981.3.53,1.975.787,1.99,1.393.014.568-1.791,1.393-1.791,1.393a8.739,8.739,0,0,0-2.389,0c-.56.214-1.253,1.331-1.791,1.593a5.821,5.821,0,0,1-2.189.4c-1.461-.1-4.115-1.9-5.574-1.791-.665.051-2.225.547-2.388,1.194-.252,1,2.477,2.352,2.388,3.383-.042.492-1.393,1.394-1.393,1.394s-.8-1.167-.995-1.593c-.268-.569-.52-1.822-.8-2.388-.394-.806-1.731-2.126-1.991-2.986-.172-.571-.452-2,0-2.388.5-.426,2.092.824,2.588.4s.183-1.967,0-2.588a19.779,19.779,0,0,0-2.19-3.383C-1304.917,1860.089-1306.1,1858.144-1306.1,1858.144Z" fill="url(#linear-gradient)"/>
    <path id="패스_2361" data-name="패스 2361" d="M-1297.942,1876.655s-1.047.636-1.195.995a5.935,5.935,0,0,0,.4,3.981c.219.337,1.192.449,1.393.8.275.474-.093,1.651,0,2.19.126.729.941,2.049.995,2.786a7.743,7.743,0,0,1-.4,1.991,8.734,8.734,0,0,1-.995,2.587c-.419.481-1.792.995-1.991,1.592s-.2,1-.995,1.195-1.721-1.233-2.388-1.195c-.739.043-1.747,1.492-1.991,2.19s.174,2.238.2,2.986c.022.646.419,2.094,0,2.587-.2.231-.891.2-1.194.2-.451-.007-.995-.2-1.791-.2a16.164,16.164,0,0,0-3.583.2,4.836,4.836,0,0,1-1.99.6c-1,0-2.787-.4-3.384.6s-.8,2.389-1.393,2.986-1.865,1.162-1.792,1.791c.1.863,2.588,1.593,3.185,1.394s2.4-2.05,3.384-2.389c1.175-.407,3.772.313,4.976,0,.5-.128,1.292-1.11,1.791-.995.592.137,1,1.525,1.393,1.99a12.745,12.745,0,0,0,2.389,2.389c.713.4,2.446,1.154,3.184.8.982-.476,1.8-2.889,1.792-3.981,0-.567-1.195-2.587-.6-2.189s3.352,3.591,4.578,2.985c.581-.287-.148-2.038.2-2.587a4.879,4.879,0,0,1,2.786-1.593c.254-.017.995.4.995-.2s3.675.839,4.379,0c.84-1-1.186-3.734-1.592-4.976a22.839,22.839,0,0,1-.995-3.582c0-.6.6-2.787-.4-2.986s-3.662-.752-3.782-1.791c-.109-.944,2.634-1.649,2.786-2.588.122-.748-1.194-2.189-1.194-2.786a11.888,11.888,0,0,0-.995-3.782,8.2,8.2,0,0,0-3.185-2.588,17.009,17.009,0,0,1-3.184-2.189Z" fill="url(#linear-gradient)"/>
    <path id="패스_2362" data-name="패스 2362" d="M-1309.487,1908.9c-.34.074-1.062-.108-1.393,0a4.821,4.821,0,0,0-2.189,1.592,3.3,3.3,0,0,0,0,2.189,3.606,3.606,0,0,0,2.189,1.593c.857,0,2.147-1.422,2.787-1.991.553-.491,1.99-2.189,1.99-2.189s-.219-2.138-.8-2.389C-1307.552,1907.422-1308.792,1908.747-1309.487,1908.9Z" fill="url(#linear-gradient)"/>
    <path id="패스_2363" data-name="패스 2363" d="M-1320.434,1910.293c-.9.184-2.7,1.68-2.587,2.587.088.686,1.89.915,2.388,1.394a9.682,9.682,0,0,1,1.393,2.189,2.91,2.91,0,0,1,.2,1.393c0,.8,1.515,2.6,2.389,2.986a3.354,3.354,0,0,0,2.189.2,3.861,3.861,0,0,0,1.2-2.587c-.028-1.068-1.863-2.721-1.991-3.782-.073-.611.9-1.852.6-2.389-.333-.589-1.945-.58-2.587-.8-.552-.185-1.645-.588-2.19-.8C-1319.689,1910.6-1320.171,1910.239-1320.434,1910.293Z" fill="url(#linear-gradient)"/>
    <path id="패스_2364" data-name="패스 2364" d="M-1273.129,1834.923c-.106.217.364.708.266.929-.12.272-1.07.234-1.062.531.015.5,1.427,1.06,1.858.8s.308-1.524.132-1.991a1.074,1.074,0,0,0-.53-.531A.82.82,0,0,0-1273.129,1834.923Z" fill="url(#linear-gradient)"/>
    <path id="패스_2365" data-name="패스 2365" d="M-1273.261,1839.3c-.247.271-.188,1.281.132,1.459.26.145.942-.258,1.062-.531a1.091,1.091,0,0,0-.266-.928A.978.978,0,0,0-1273.261,1839.3Z" fill="url(#linear-gradient)"/>
    <path id="패스_2366" data-name="패스 2366" d="M-1274.057,1846.335c-.2.3.175,1.286.53,1.327.4.047,1.116-.968.93-1.327C-1272.767,1846.011-1273.852,1846.032-1274.057,1846.335Z" fill="url(#linear-gradient)"/>
    <path id="패스_2367" data-name="패스 2367" d="M-1275.119,1850.847c-.046.277.517.831.8.8.457-.059,1.234-1.247.93-1.593-.168-.189-.7.292-.93.4C-1274.524,1850.542-1275.084,1850.626-1275.119,1850.847Z" fill="url(#linear-gradient)"/>
    <path id="패스_2368" data-name="패스 2368" d="M-1278.966,1854.561a1.589,1.589,0,0,0,.662,1.593c.252.062.714-.419.8-.663a1.4,1.4,0,0,0-.264-1.195A1.19,1.19,0,0,0-1278.966,1854.561Z" fill="url(#linear-gradient)"/>
    <path id="패스_2369" data-name="패스 2369" d="M-1283.479,1858.012c-.257.071-.39.7-.53.928-.126.2-.528.558-.531.8,0,.314.35,1.049.663,1.063.664.028,1.73-1.475,1.592-2.124A1.343,1.343,0,0,0-1283.479,1858.012Z" fill="url(#linear-gradient)"/>
    <path id="패스_2370" data-name="패스 2370" d="M-1287.062,1861.2a1.684,1.684,0,0,0,0,1.857c.319.223,1.216-.229,1.46-.531a1.1,1.1,0,0,0,.132-.928C-1285.7,1861.254-1286.738,1860.944-1287.062,1861.2Z" fill="url(#linear-gradient)"/>
    <path id="패스_2371" data-name="패스 2371" d="M-1404,1957.78h0l0,0Z" fill="url(#linear-gradient)"/>
    <path id="패스_2372" data-name="패스 2372" d="M-1404,1957.78h0l0,0Z" fill="url(#linear-gradient)"/>
    <path id="패스_2373" data-name="패스 2373" d="M-1404,1957.78h0l0,0Z" fill="url(#linear-gradient)"/>
    <path id="패스_2374" data-name="패스 2374" d="M-1404,1957.78h0l0,0Z" fill="url(#linear-gradient)"/>
    <path id="패스_2375" data-name="패스 2375" d="M-1404,1957.78h0l0,0Z" fill="url(#linear-gradient)"/>
    <path id="패스_2376" data-name="패스 2376" d="M-1404,1957.78h0l0,0Z" fill="url(#linear-gradient)"/>
    <path id="패스_2377" data-name="패스 2377" d="M-1404,1957.78h0l0,0Z" fill="url(#linear-gradient)"/>
    <path id="패스_2378" data-name="패스 2378" d="M-1404,1957.78h0l0,0Z" fill="url(#linear-gradient)"/>
    <path id="패스_2379" data-name="패스 2379" d="M-1404,1957.78h0l0,0Z" fill="url(#linear-gradient)"/>
    <path id="패스_2380" data-name="패스 2380" d="M-1404,1957.78h0l0,0Z" fill="url(#linear-gradient)"/>
    <path id="패스_2381" data-name="패스 2381" d="M-1404,1957.78h0l0,0Z" fill="url(#linear-gradient)"/>
    <path id="패스_2382" data-name="패스 2382" d="M-1404,1957.78h0l0,0Z" fill="url(#linear-gradient)"/>
    <path id="패스_2383" data-name="패스 2383" d="M-1404,1957.78h0l0,0Z" fill="url(#linear-gradient)"/>
    <path id="패스_2384" data-name="패스 2384" d="M-1404,1957.78h0l0,0Z" fill="url(#linear-gradient)"/>
    <path id="패스_2385" data-name="패스 2385" d="M-1404,1957.78h0l0,0Z" fill="url(#linear-gradient)"/>
    <path id="패스_2386" data-name="패스 2386" d="M-1404,1957.78h0l0,0Z" fill="url(#linear-gradient)"/>
    <path id="패스_2387" data-name="패스 2387" d="M-1404,1957.78h0l0,0Z" fill="url(#linear-gradient)"/>
    <path id="패스_2388" data-name="패스 2388" d="M-1404,1957.78h0l0,0Z" fill="url(#linear-gradient)"/>
    <path id="패스_2389" data-name="패스 2389" d="M-1404,1957.78h0l0,0Z" fill="url(#linear-gradient)"/>
    <path id="패스_2390" data-name="패스 2390" d="M-1404,1957.78h0l0,0Z" fill="url(#linear-gradient)"/>
    <path id="패스_2391" data-name="패스 2391" d="M-1404,1957.78h0l0,0Z" fill="url(#linear-gradient)"/>
    <path id="패스_2392" data-name="패스 2392" d="M-1404,1957.78h0l0,0Z" fill="url(#linear-gradient)"/>
    <path id="패스_2393" data-name="패스 2393" d="M-1674.749,1849.453a2.891,2.891,0,0,1,.285.39A2.868,2.868,0,0,0-1674.749,1849.453Z" fill="url(#linear-gradient)"/>
    <path id="패스_2394" data-name="패스 2394" d="M-1674.418,1849.918a.725.725,0,0,1,.108.4A.751.751,0,0,0-1674.418,1849.918Z" fill="url(#linear-gradient)"/>
    <path id="패스_2395" data-name="패스 2395" d="M-1404,1957.78h0l0,0Z" fill="url(#linear-gradient)"/>
    <path id="패스_2396" data-name="패스 2396" d="M-1674.464,1849.843c.014.025.034.05.046.075C-1674.43,1849.893-1674.45,1849.868-1674.464,1849.843Z" fill="url(#linear-gradient)"/>
    <path id="패스_2397" data-name="패스 2397" d="M-1674.749,1849.453Z" fill="url(#linear-gradient)"/>
    <path id="패스_2398" data-name="패스 2398" d="M-1404,1957.78h0l0,0Z" fill="url(#linear-gradient)"/>
    <path id="패스_2399" data-name="패스 2399" d="M-1404,1957.78h0l0,0Z" fill="url(#linear-gradient)"/>
    <path id="패스_2400" data-name="패스 2400" d="M-1404,1957.78h0l0,0Z" fill="url(#linear-gradient)"/>
    <path id="패스_2401" data-name="패스 2401" d="M-1404,1957.78h0l0,0Z" fill="url(#linear-gradient)"/>
    <path id="패스_2402" data-name="패스 2402" d="M-1700.158,1877.027l-.211-.206a17.26,17.26,0,0,0-2.289-.348c-.7.016-2.277.023-2.737.547-.328.374-.106,1.578-.448,1.941-.39.415-1.665.417-2.189.647-.465.2-1.254.9-1.742,1.045a14.746,14.746,0,0,1-2.936.05l-1.99-.448.163-.859c-.5-.067-1.2-.482-1.606-.435a3.653,3.653,0,0,0-1.014.426s1.365.907,1.354,1.392c0,.091-.222.169-.265.249a7.647,7.647,0,0,0-.766,4.14c.195.707,1.856,1.479,1.933,2.208.075.706-1.461,1.778-1.38,2.484.118,1.019,2.18,2.19,2.76,3.036.437.637.671,2.456,1.381,2.76.863.37,2.677-1.33,3.587-1.1.759.188,1.56,1.774,2.208,2.209.746.5,2.437,1.575,3.312,1.38,1-.224,1.79-2.708,2.76-3.037.731-.248,3.037.552,3.037.552l2.619,1.572.141.084.636.637a9.722,9.722,0,0,0,.636-1.771,9.313,9.313,0,0,0-.995-1.891s-.2-1.94.149-2.189.008-1.489-.248-1.891c-.434-.683-1.925-1.566-2.289-2.289-.344-.686-.08-2.362-.448-3.035a3.677,3.677,0,0,0-1.344-1.046c-.149,0-1.384-.992-1.343-1.492.028-.334.839-.6.995-.9a4.128,4.128,0,0,0,.3-2.239,8.376,8.376,0,0,0-1.73-2.183" fill="url(#linear-gradient)"/>
    <path id="패스_2403" data-name="패스 2403" d="M-1404,1957.78h0l0,0Z" fill="url(#linear-gradient)"/>
    <path id="패스_2404" data-name="패스 2404" d="M-1404,1957.78h0l0,0Z" fill="url(#linear-gradient)"/>
    <path id="패스_2405" data-name="패스 2405" d="M-1404,1957.78h0l0,0Z" fill="url(#linear-gradient)"/>
    <path id="패스_2406" data-name="패스 2406" d="M-1404,1957.78h0l0,0Z" fill="url(#linear-gradient)"/>
    <path id="패스_2407" data-name="패스 2407" d="M-1404,1957.78h0l0,0Z" fill="url(#linear-gradient)"/>
    <path id="패스_2408" data-name="패스 2408" d="M-1681.012,1925.487c.133-1.421,1.506-4.031,1.726-5.441a26.534,26.534,0,0,0,0-3.118v-2.256l.406-.328c-.392-.405-.64-.7-.64-.7l.047-.591-.445.193-1.891-.9-.631-.141a12.922,12.922,0,0,1,.383,1.982c-.188,1.919-1.165,5.964-2.588,7.265a1.572,1.572,0,0,1-.325.2l.708.642.132,1.062,1.062,1.393a10.115,10.115,0,0,1,1.06,1.526c0,.2.333,2.057.333,2.057l-.292,1.171.172.232c.005,0,.011,0,.016,0,.05.033.058.1.093.147l.94-2.215A13.316,13.316,0,0,1-1681.012,1925.487Z" fill="url(#linear-gradient)"/>
    <path id="패스_2409" data-name="패스 2409" d="M-1404,1957.78h0l0,0Z" fill="url(#linear-gradient)"/>
    <path id="패스_2410" data-name="패스 2410" d="M-1404,1957.78h0l0,0Z" fill="url(#linear-gradient)"/>
    <path id="패스_2411" data-name="패스 2411" d="M-1665.388,1917.543a2.31,2.31,0,0,0,.1-.748c-.089-.82-1.365-2.082-1.658-2.852a21.084,21.084,0,0,1-.653-2.946l-2.267.955s-4.191,2.8-5.474,3.881c-.379.322-.8.8-1.99-.1a13.631,13.631,0,0,1-1.55-1.39l-.406.328v2.256a26.534,26.534,0,0,1,0,3.118c-.22,1.41-1.593,4.02-1.726,5.441a13.316,13.316,0,0,0,.266,2.189l-.94,2.215,4.256.505s1.834-1.622,2.523-2.056c.589-.373,2.048-.682,2.52-1.195.759-.821,1.815-3.083,1.593-4.18-.109-.54-1.588-1.044-1.526-1.592.1-.868,2.123-1.562,2.919-1.924.846-.385,2.912-.351,3.583-.995a2.162,2.162,0,0,0,.43-.911" fill="url(#linear-gradient)"/>
    <path id="패스_2412" data-name="패스 2412" d="M-1404,1957.78h0l0,0Z" fill="url(#linear-gradient)"/>
    <path id="패스_2413" data-name="패스 2413" d="M-1633.591,1926.184l-1.144.547-.647,2.438-.807,1.825a6.406,6.406,0,0,1,2.483.066,4.077,4.077,0,0,1,1.459,1.526,4.583,4.583,0,0,0,2.124,1.062,5.8,5.8,0,0,0,1.1-.229l-.036-.087-.13-.528-1.664-2.783,1.242-2.761.413-.756-1.755-.669Z" fill="url(#linear-gradient)"/>
    <path id="패스_2414" data-name="패스 2414" d="M-1633.043,1921.837c-.361-.894.287-3.057-.265-3.848-.3-.426-1.427-.64-1.858-.929-.585-.392-1.541-1.458-2.123-1.857-.648-.445-2.248-.886-2.786-1.46a17.617,17.617,0,0,1-1.062-2.388c-.283-.46-1.2-1.46-1.593-1.46s-.4-2.123-.4-2.654a6.11,6.11,0,0,0-.8-2.255c-.373-.582-1.592-1.859-1.592-2.257s-1.194-.928-1.194-.928h-3.185l-.266-2.388-.662-2.124.8-2.653-.93-1.063-1.857.8-1.71-.967a2.484,2.484,0,0,1-.514,1.432,2.653,2.653,0,0,1-1.592.14l-.3,1.253-2.389,1.99a22.266,22.266,0,0,0-.8,2.588c-.2,1.429.749,4.483.1,5.772-.576,1.147-4.179,2.986-4.179,2.986L-1667.6,1911a21.084,21.084,0,0,0,.653,2.946c.293.77,1.569,2.032,1.658,2.852a2.31,2.31,0,0,1-.1.748,11,11,0,0,1,2.289.048,18.146,18.146,0,0,1,5.242,2.588c.521.4,1.2,1.588,1.725,1.99,1.216.939,4.176,1.953,5.508,2.721.673.388,1.959,1.266,2.587,1.724,1.028.753,2.906,2.5,3.981,3.185a12.421,12.421,0,0,0,2.787,1.393,16.265,16.265,0,0,0,2.985,0c.524-.007,1.3-.117,2.1-.2l.807-1.825.647-2.438,1.144-.547,2.637-.349,1.755.669.146-.267-1.2-1.082A18.093,18.093,0,0,1-1633.043,1921.837Z" fill="url(#linear-gradient)"/>
    <path id="패스_2415" data-name="패스 2415" d="M-1618.977,1941.609c-.535-.046-.673,1.469-.8,1.991-.092.388-.505,1.447-.134,1.592.509.2,1.209-1.194,1.328-1.725C-1618.475,1943-1618.5,1941.649-1618.977,1941.609Z" fill="url(#linear-gradient)"/>
    <path id="패스_2416" data-name="패스 2416" d="M-1618.314,1948.377s-.764,1.92-.531,2.52a3.121,3.121,0,0,0,1.859,1.327,2.339,2.339,0,0,0,.449,0,1.074,1.074,0,0,1-.415-.485c-.084-.346.471-.961.589-1.3a11.151,11.151,0,0,0,.552-3.037c-.036-.961-.1-3.3-.967-3.726-.471-.232-1.544.473-1.932.828-.607.558-1.119,2.208-1.551,2.91-.056.092-.133.288-.221.418l.177.8Z" fill="url(#linear-gradient)"/>
    <path id="패스_2417" data-name="패스 2417" d="M-1404,1957.78h0l0,0Z" fill="url(#linear-gradient)"/>
    <path id="패스_2418" data-name="패스 2418" d="M-1584.07,1960.244l-2.483-3.312-4.555-2.485s-1.908.667-2.485.415c-.866-.381-2.07-3.175-2.07-3.175l-2.208-3.725-1.242-3.865-1.241,2.07-2.76,4.279-1.8,1.932-4.83.552s-3.489-.057-4.651-.132l-.077,0c.233,1.758.787,5.1,1.726,6.065.675.692,2.791.784,3.716,1.062,2.331.7,7.3,1.513,9.288,2.919a2.922,2.922,0,0,1,.358.327l.77-.161h2.289s1.194,1.991,1.393,2.488a11.227,11.227,0,0,0,1.791,1.891l4.334,2.83.041-.035h1.379l.69-2.208s2.483-3.726,3.451-5.52A1.372,1.372,0,0,0-1584.07,1960.244Z" fill="url(#linear-gradient)"/>
    <path id="패스_2419" data-name="패스 2419" d="M-1612.038,1978.388c1.309-.856,2.825-2.231,3.809-2.81,2.557-1.5,9.183-2.708,10.615-5.307.644-1.168-.045-4.065-.53-5.308a6.62,6.62,0,0,0-1.235-1.8,2.922,2.922,0,0,0-.358-.327c-1.987-1.406-6.957-2.22-9.288-2.919-.925-.278-3.041-.37-3.716-1.062-.939-.963-1.493-4.307-1.726-6.065a5.308,5.308,0,0,1-1.344-.14,3.576,3.576,0,0,1-.726-.426,2.339,2.339,0,0,1-.449,0,3.121,3.121,0,0,1-1.859-1.327c-.233-.6.531-2.52.531-2.52l-1.991.265-.177-.8c-.05.07-.1.126-.16.123-.893-.06-1.656-3.175-1.656-3.175l.415-3.726-2.071-1.794-3.449-2.07-1.621-3.778a5.8,5.8,0,0,1-1.1.229,4.583,4.583,0,0,1-2.124-1.062,4.077,4.077,0,0,0-1.459-1.526,6.406,6.406,0,0,0-2.483-.066c-.793.081-1.571.191-2.1.2a16.265,16.265,0,0,1-2.985,0,12.421,12.421,0,0,1-2.787-1.393c-1.075-.687-2.953-2.432-3.981-3.185-.628-.458-1.914-1.336-2.587-1.724-1.332-.768-4.292-1.782-5.508-2.721-.521-.4-1.2-1.587-1.725-1.99a18.146,18.146,0,0,0-5.242-2.588,11,11,0,0,0-2.289-.048,2.162,2.162,0,0,1-.43.911c-.671.644-2.737.61-3.583.995-.8.362-2.821,1.056-2.919,1.924-.062.548,1.417,1.052,1.526,1.592.222,1.1-.834,3.359-1.593,4.18-.472.513-1.931.822-2.52,1.195-.689.434-2.523,2.056-2.523,2.056l-4.256-.505c.744.94-1.534,4.377-.507,5.1.341.238,1.129-.841,1.518-.691.98.381,1.141,2.948,1.656,3.864,1.428,2.547,6.763,9.523,6.763,9.523l1.517,4.554,4.417,3.036,2.622,9.661,2.621,4.968,3.312,1.519,1.243,2.621,2.9,4.279.691,2.622,5.105,7.038,2.182-1.523s-1.059-4.226,0-4.777c.718-.374,2.652,1.857,2.652,1.857s6.014-1.846,7.962-1.326c.911.242,2.92,2.388,2.92,2.388l5.574-1.062s2.438-3.645,3.714-4.246c2.162-1.018,7.283.473,9.554-.265a5.552,5.552,0,0,0,1.234-.641m.045-1.334c.02,0,.009.055.011.084v0C-1612.012,1977.14-1612.015,1977.058-1611.993,1977.054Z" fill="url(#linear-gradient)"/>
    <path id="패스_2420" data-name="패스 2420" d="M-1613.272,1979.029c-2.271.738-7.392-.753-9.554.265-1.276.6-3.714,4.246-3.714,4.246l-5.574,1.062s-2.009-2.146-2.92-2.388c-1.948-.52-7.962,1.326-7.962,1.326s-1.934-2.231-2.652-1.857c-1.059.551,0,4.777,0,4.777l-2.182,1.523-.725,2.175-.241.723,1.381,3.175,1.656,3.726,1.656,5.8,3.174,1.242,3.589-2.621,1.656-.691,4.416-.69,1.932-2.346,4.829.276,2.9-3.451,6.486-1.656,3.589-2.9.275-3.312,3.351-.863.377.034.126-.052-4.634-8.163A5.552,5.552,0,0,1-1613.272,1979.029Z" fill="url(#linear-gradient)"/>
    <path id="패스_2421" data-name="패스 2421" d="M-1589.831,1971.114l1.029-.9-4.334-2.83a11.227,11.227,0,0,1-1.791-1.891c-.2-.5-1.393-2.488-1.393-2.488h-2.289l-.77.161a6.62,6.62,0,0,1,1.235,1.8c.485,1.243,1.174,4.14.53,5.308-1.432,2.6-8.058,3.8-10.615,5.307-.984.579-2.5,1.954-3.809,2.81l4.634,8.163,3.6-1.466,3.865-.966s.712-2.453,1.379-2.9c.6-.4,2.284.249,2.9-.138.862-.543,1.095-3.008,1.933-3.588.63-.437,3.036-.414,3.036-.414l1.242-1.933-.829-1.656Z" fill="url(#linear-gradient)"/>
    <path id="패스_2422" data-name="패스 2422" d="M-1404,1957.78h0l0,0Z" fill="url(#linear-gradient)"/>
    <path id="패스_2423" data-name="패스 2423" d="M-1404,1957.78h0l0,0Z" fill="url(#linear-gradient)"/>
    <path id="패스_2424" data-name="패스 2424" d="M-1404,1957.78h0l0,0Z" fill="url(#linear-gradient)"/>
    <path id="패스_2425" data-name="패스 2425" d="M-1404,1957.78h0l0,0Z" fill="url(#linear-gradient)"/>
    <path id="패스_2426" data-name="패스 2426" d="M-1404,1957.78h0l0,0Z" fill="url(#linear-gradient)"/>
    <path id="패스_2427" data-name="패스 2427" d="M-1653.246,1876.324s-.611,3.54,0,4.478c.372.569,1.916.729,2.488,1.095.67.425,1.6,2.011,2.388,2.09.489.048,1.394-.8,1.792-.8s2.132,2.16,2.488,3.085c.157.406.2,1.393,1.493.9s2.771-2.152,3.682-2.886c.583-.469,2.488-1.592,2.886-.8a21.5,21.5,0,0,1,.8,3.782l1.081,1.012.511.481s1.593-2.09,1.593-3.384-.8-3.384.3-3.583,2.488-.2,1.692-1.293a42.662,42.662,0,0,0-4.279-3.981l-.6-1.294-1.244-.732a8.039,8.039,0,0,1-3.9,1.031c-.954-.082-2.32-1.713-3.185-2.124-.815-.387-2.617-.715-3.45-1.061-1.042-.433-2.887-1.85-3.981-2.123-.9-.226-2.837.3-3.715,0-1.031-.351-2.434-2.268-3.451-2.654-.871-.331-2.8-.111-3.715-.266a58.914,58.914,0,0,1-6.327-1.628l1.483,2.225,2.058,1.659,2.255,2.123-.066,3.251-.331.164,1.392.732,2.786-.9.311.842,1.083-1.041Z" fill="url(#linear-gradient)"/>
    <path id="패스_2428" data-name="패스 2428" d="M-1679.89,1901.119v.006a16.871,16.871,0,0,0,1.863-1.912,20.362,20.362,0,0,0,.2-2.089l1.493-1.095,2.19.995,2.687-.8,1.194-.5,2.587.4,2.687-.1,3.683-.8s2.911-.241,3.881-.3a6.25,6.25,0,0,1,.8.041,2.653,2.653,0,0,0,1.592-.14,2.484,2.484,0,0,0,.514-1.432c.039-.29.068-.567.084-.758.071-.872-.3-2.886-.3-3.483a5.917,5.917,0,0,0-1.095-2.687c-.318-.345-1.248-.676-1.592-.995a5.449,5.449,0,0,1-1.592-2.19c-.115-.931,1.393-3.483,1.393-3.483v-2.986l-.386-1.049-.311-.842-2.786.9-1.392-.732-5.575,2.755-2.786-.995-2.72.2-6.834-1.459-2.123-1.858-1.724.132-2.257-1.724-.928.8-4.578.53-4.446,1.527-3.687,2.03a8.376,8.376,0,0,1,1.73,2.183,4.128,4.128,0,0,1-.3,2.239c-.156.3-.967.562-.995.9-.041.5,1.194,1.492,1.343,1.492a3.677,3.677,0,0,1,1.344,1.046c.368.673.1,2.349.448,3.035.364.723,1.855,1.606,2.289,2.289.256.4.6,1.642.248,1.891s-.149,2.189-.149,2.189a9.313,9.313,0,0,1,.995,1.891,9.722,9.722,0,0,1-.636,1.771l1.3,1.3,4.416-.553s1.41-2.252,2.208-2.484c.966-.28,2.867,1.225,3.864,1.1.554-.066,1.445-1.371,1.933-1.1.914.5.2,4.17.2,4.17l.034.741" fill="url(#linear-gradient)"/>
    <path id="패스_2429" data-name="패스 2429" d="M-1679.639,1905.87l-.232.092a14.375,14.375,0,0,1-.544,3.452c-.321.681-1.795,1.516-2.012,2.236a1.352,1.352,0,0,0-.013.559l.631.141,1.891.9.445-.193.152-2,2.488-1.592s2.986-1.194,1.2-2.488a7,7,0,0,0-3.284-1.393l-.717.287" fill="url(#linear-gradient)"/>
    <path id="패스_2430" data-name="패스 2430" d="M-1661.307,1895.233l-3.683.8-2.687.1-2.587-.4-1.194.5-2.687.8-2.19-.995-1.493,1.095a20.362,20.362,0,0,1-.2,2.089,16.871,16.871,0,0,1-1.863,1.912l.042.88v3.1l.209.761.717-.287a7,7,0,0,1,3.284,1.393c1.791,1.294-1.2,2.488-1.2,2.488l-2.488,1.592-.152,2-.047.591s.248.295.64.7a13.631,13.631,0,0,0,1.55,1.39c1.194.9,1.611.421,1.99.1,1.283-1.082,5.474-3.881,5.474-3.881l2.267-.955,3.406-1.433s3.6-1.839,4.179-2.986c.65-1.289-.3-4.343-.1-5.772a22.266,22.266,0,0,1,.8-2.588l2.389-1.99.3-1.253a6.25,6.25,0,0,0-.8-.041C-1658.4,1894.992-1661.307,1895.233-1661.307,1895.233Z" fill="url(#linear-gradient)"/>
    <path id="패스_2431" data-name="패스 2431" d="M-1679.848,1905.109v.484s-.007.152-.023.369l.232-.092Z" fill="url(#linear-gradient)"/>
    <path id="패스_2432" data-name="패스 2432" d="M-1404,1957.78h0l0,0Z" fill="url(#linear-gradient)"/>
    <path id="패스_2433" data-name="패스 2433" d="M-1404,1957.78h0l0,0Z" fill="url(#linear-gradient)"/>
    <path id="패스_2434" data-name="패스 2434" d="M-1586.269,1943.7l-1.791-3.583-.8-1.592a13.294,13.294,0,0,0,2.189-2.886c.2-.8,1.592-.4,1.592-.4l-.8-3.682.1-3.484s-.9-2.189-1.095-2.886.8-1.194.8-1.194l-.7-1.891-4.081-.5-1.692,1.393-2.786-.5a4.15,4.15,0,0,1-3.981-.6c-1.692-1.493-5.275.6-5.275.6l-4.179,2.986-4.18.9-6.437,5.48c.332,1.035,1.164,3.452,1.91,4.091a7.909,7.909,0,0,0,2.483.691l4.693,3.588h2.484l3.864,1.794,4.554-1.1,3.174-.828,2.485,5.106,6.348,1.932.916.042-.5-1.585Z" fill="url(#linear-gradient)"/>
    <path id="패스_2435" data-name="패스 2435" d="M-1404,1957.78h0l0,0Z" fill="url(#linear-gradient)"/>
    <path id="패스_2436" data-name="패스 2436" d="M-1404,1957.78h0l0,0Z" fill="url(#linear-gradient)"/>
    <path id="패스_2437" data-name="패스 2437" d="M-1583.793,1902.337l-.087-1.73-.5-2.488-2.787-1.493-4.378-2.19-1.792-1.492-2.687-.5-3.782-1.294-2.985-1.094-2.289.1-3.782.3-1.095,1.791-1.891,2.189-.712.06c.129.4.215.67.215.67s-2.919,3.052-5.307,2.654a9.575,9.575,0,0,0-4.645.53l-2.653-2.122-3.185-3.451-1.99.531-3.518-4.544-.511-.481-.086,1.277,1.1,2.687-.2,2.289.7,2.189.995,2.19a8.68,8.68,0,0,0-.7,2.488,21.252,21.252,0,0,0,.7,3.384v3.781s1.294,3.384.7,5.175-1.287,3.67-2.382,4.565c1.1-.9,1.785-2.773,2.382-4.565s-.7-5.175-.7-5.175v-3.781a21.252,21.252,0,0,1-.7-3.384,8.68,8.68,0,0,1,.7-2.488l-.995-2.19-.7-2.189.2-2.289-1.1-2.687.086-1.277-1.081-1.012a21.5,21.5,0,0,0-.8-3.782c-.4-.8-2.3.327-2.886.8-.911.734-2.389,2.389-3.682,2.886s-1.336-.489-1.493-.9c-.356-.925-2.09-3.085-2.488-3.085s-1.3.844-1.792.8c-.788-.079-1.718-1.665-2.388-2.09-.572-.366-2.116-.526-2.488-1.095-.611-.938,0-4.478,0-4.478l-3.682-1.593-1.083,1.041.386,1.049v2.986s-1.508,2.552-1.393,3.483a5.449,5.449,0,0,0,1.592,2.19c.344.319,1.274.65,1.592.995a5.917,5.917,0,0,1,1.095,2.687c0,.6.37,2.611.3,3.483-.016.191-.045.468-.084.758l1.71.967,1.857-.8.93,1.063-.8,2.653.662,2.124.266,2.388h3.185s1.194.53,1.194.928,1.219,1.675,1.592,2.257a6.11,6.11,0,0,1,.8,2.255c0,.531,0,2.654.4,2.654s1.31,1,1.593,1.46a17.617,17.617,0,0,0,1.062,2.388c.538.574,2.138,1.015,2.786,1.46.582.4,1.538,1.465,2.123,1.857.431.289,1.561.5,1.858.929.552.791-.1,2.954.265,3.848a18.093,18.093,0,0,0,2.786,3.318l1.2,1.082h0l.545-1.184,3.036.551,2.208.691,3.589,4.278.144.8s.061.2.154.49l6.437-5.48,4.18-.9,4.179-2.986s3.583-2.09,5.275-.6a4.15,4.15,0,0,0,3.981.6l2.786.5,1.692-1.393,4.081.5.418,1.135,4.06-1.433-.2-4.081-1.592-4.478-1.2-1.791-1.293-2.588,1.592-4.279,1.194-1.991-.012-.26m-51.435-8.115c-.035,0,.045-.138.009-.139C-1635.183,1894.084-1635.263,1894.22-1635.228,1894.222Z" fill="url(#linear-gradient)"/>
    <path id="패스_2438" data-name="패스 2438" d="M-1404,1957.78h0l0,0Z" fill="url(#linear-gradient)"/>
    <path id="패스_2439" data-name="패스 2439" d="M-1404,1957.78h0l0,0Z" fill="url(#linear-gradient)"/>
    <path id="패스_2440" data-name="패스 2440" d="M-1573.463,1900.209l-.266-5.043h2.92l3-1.749.187-.109.8-1.327-10.616-5.307-5.307-3.451-4.777-6.9-6.37-1.062-3.981-5.042-2.92,1.061-4.777.266,1.593,4.511-4.91.133h-1.326l-2.522-2.654-4.245-2.256h-3.185s-1.019,2.274-1.809,1.493l-.447.895,3.714-.4,2.389,1.195,2.256,3.715-1.858,1.858-2.123-1.195s-1.858-.265-1.858,1.195.532,3.184,1.593,3.184,1.858,2.522,1.858,2.522l1.858.265a20.348,20.348,0,0,0,.662,4.247c.385,1.15,1.042,3.19,1.378,4.239l.712-.06,1.891-2.189,1.095-1.791,3.782-.3,2.289-.1,2.985,1.094,3.782,1.294,2.687.5,1.792,1.492,4.378,2.19,2.787,1.493.5,2.488.087,1.73,4.226,1.056Z" fill="url(#linear-gradient)"/>
    <path id="패스_2441" data-name="패스 2441" d="M-1567.811,1893.417h0l.187-.109Z" fill="url(#linear-gradient)"/>
    <path id="패스_2442" data-name="패스 2442" d="M-1570.809,1895.166l3-1.749h0Z" fill="url(#linear-gradient)"/>
    <path id="패스_2443" data-name="패스 2443" d="M-1404,1957.78h0l0,0Z" fill="url(#linear-gradient)"/>
    <path id="패스_2444" data-name="패스 2444" d="M-1622.958,1868.892c-.133-1.194-1.726-.132-2.654-.132s-1.99-2.388-1.99-3.052-1.195-1.46-2.521-1.46-1.858-2.123-1.858-2.123,1.8-1.777,2.388-2.389c.341-.356.868-1.28,1.327-1.459,1.231-.479,5.839.531,5.175-1.061a5.26,5.26,0,0,1-.4-3.053,4.011,4.011,0,0,0-2.122-3.051c-.928-.4-2.389.8-3.715.8s-1.858-1.725-3.185-2.124-2.786,2.92-2.786,2.92l-3.05.08a1.44,1.44,0,0,1,.129.716c-.2,1.347-3.141,2.643-3.98,3.716s-2.995,3.453-2.653,4.777c.155.606,1.662.9,2.122,1.326a10.68,10.68,0,0,1,1.593,2.124c.466.868.978,2.792,1.326,3.715a9.943,9.943,0,0,0,1.062,2.654c.655.689,3.457.642,3.451,1.592,0,.411-.369.778-.88,1.093l1.244.732.6,1.294a42.662,42.662,0,0,1,4.279,3.981c.8,1.094-.6,1.094-1.692,1.293s-.3,2.289-.3,3.583-1.593,3.384-1.593,3.384l3.518,4.544,1.99-.531,3.185,3.451,2.653,2.122a9.575,9.575,0,0,1,4.645-.53c2.388.4,5.307-2.654,5.307-2.654s-.086-.269-.215-.67c-.336-1.049-.993-3.089-1.378-4.239a20.348,20.348,0,0,1-.662-4.247l-1.858-.265s-.8-2.522-1.858-2.522-1.593-1.724-1.593-3.184,1.858-1.195,1.858-1.195l2.123,1.195,1.858-1.858-2.256-3.715-2.389-1.195-3.714.4.447-.895c-.015-.017-.034-.014-.049-.033C-1622.826,1871.812-1622.826,1870.087-1622.958,1868.892Z" fill="url(#linear-gradient)"/>
    <path id="패스_2445" data-name="패스 2445" d="M-1553.548,1880.9c.3.056.623.078.818.1a6.06,6.06,0,0,0,2.09,0,10.417,10.417,0,0,0,2.089-1.692l2.09-1.293-1.791-.4s-1.471-2.266-2.289-2.389c-.505-.077-1.28.952-1.791.995a4.815,4.815,0,0,1-1.692-.6c-.546-.25-2.039-.595-2.09-1.194-.045-.546,1.444-.9,1.692-1.393a1.881,1.881,0,0,0,.067-1.228c-.405.483-1.958-.151-2.521.133-2,1.006-3.5,6.529-5.707,6.9-.88.149-3.051-1.857-3.051-1.857l-4.247-.531-.53-1.99-1.592-1.593a28.876,28.876,0,0,0-1.991-4.246c-.926-1.217-3.155-3.635-4.644-3.981-1.168-.271-3.465.977-4.645,1.195-1.445.266-4.443,1.125-5.838.663s-3.077-3.114-4.246-3.981c-2.03-1.5-6.292-4.492-8.758-5.042a16.756,16.756,0,0,0-4.777.4c-.913.155-2.854.36-3.583.929a5.915,5.915,0,0,0-1.592,2.919c-.165,1.325,1.031,3.873,1.326,5.175.527,2.309,1.858,9.289,1.858,9.289l4.91-.133-1.593-4.511,4.777-.266,2.92-1.061,3.981,5.042,6.37,1.062,4.777,6.9,5.307,3.451,10.616,5.307-.8,1.327-.187.109,1.513.156s3.023.9,3.981,1.328a2.668,2.668,0,0,1,.368.21,4.009,4.009,0,0,1,.063-1.073c.245-.87,1.923-2.181,1.891-3.085-.014-.427-.789-1.018-1-1.393-.32-.588-.507-2.028-.995-2.488a7.784,7.784,0,0,0-2.388-.8s0-2.289.1-2.687,1.523.07,1.991-.1c.645-.234,1.393-1.592,1.99-1.891s.7-1.592.7-1.99a2.137,2.137,0,0,1,.8-1.294,4.031,4.031,0,0,1,1.592-.5,5.605,5.605,0,0,1,2.389.7,2.289,2.289,0,0,1,.7.9c.086.287-.272.949-.1,1.194a1.1,1.1,0,0,0,.675.295" fill="url(#linear-gradient)"/>
    <path id="패스_2446" data-name="패스 2446" d="M-1545.664,1884.883c0,.4-4.28-.6-4.678-1.2s-1.393,1.394-2.189,1.493.2-1.294-.3-1.592-2.587,1.094-2.587,1.094l-1.792-.3c-1.791-.3-.1-1.891.8-2.389a4.6,4.6,0,0,1,2.588-.1l.277-1a1.1,1.1,0,0,1-.675-.295c-.173-.245.185-.907.1-1.194a2.289,2.289,0,0,0-.7-.9,5.605,5.605,0,0,0-2.389-.7,4.031,4.031,0,0,0-1.592.5,2.137,2.137,0,0,0-.8,1.294c0,.4-.1,1.692-.7,1.99s-1.345,1.657-1.99,1.891c-.468.17-1.891-.3-1.991.1s-.1,2.687-.1,2.687a7.784,7.784,0,0,1,2.388.8c.488.46.675,1.9.995,2.488.207.375.982.966,1,1.393.032.9-1.646,2.215-1.891,3.085a4.009,4.009,0,0,0-.063,1.073c1,.645,2.423,2.111,3.347,1.913.883-.19,1.371-2.422,2.124-2.92s2.766-.233,3.449-.8c1.009-.831.826-4.622,2.124-4.777,1.081-.129,2.653,3.45,2.653,3.45l1.858,5.043,3.715-1.592,4.513-.531,1.323.514a9.66,9.66,0,0,1,1.827-2.073c1.194-.9-.7-1.991-.9-3.882s-2.588-1.592-2.588-1.592l-2.09-1.1-1.592-2.189S-1545.664,1884.484-1545.664,1884.883Z" fill="url(#linear-gradient)"/>
    <path id="패스_2447" data-name="패스 2447" d="M-1404,1957.78h0l0,0Z" fill="url(#linear-gradient)"/>
    <path id="패스_2448" data-name="패스 2448" d="M-1621.98,1872.774c.79.781,1.809-1.493,1.809-1.493h3.185l4.245,2.256,2.522,2.654h1.326s-1.331-6.98-1.858-9.289c-.3-1.3-1.491-3.85-1.326-5.175a5.915,5.915,0,0,1,1.592-2.919c.729-.569,2.67-.774,3.583-.929a16.756,16.756,0,0,1,4.777-.4c2.466.55,6.728,3.538,8.758,5.042,1.169.867,2.864,3.524,4.246,3.981s4.393-.4,5.838-.663c1.18-.218,3.477-1.466,4.645-1.195,1.489.346,3.718,2.764,4.644,3.981a28.876,28.876,0,0,1,1.991,4.246l1.592,1.593.53,1.99,4.247.531s2.171,2.006,3.051,1.857c2.208-.37,3.707-5.893,5.707-6.9.563-.284,2.116.35,2.521-.133-.249-.5,0,.561,0,0,0,.561-.249-.5,0,0,.343-.411-.6-1.71-.266-2.123.295-.36,1.393-.154,1.858-.133,1.008.048,3.981.664,3.981.664l2.918.133s-.707-2.245-.264-2.787c.4-.491,1.9-.369,2.521-.266.864.142,2.314,1.374,3.184,1.46.713.07,2.073-.615,2.787-.664a41.256,41.256,0,0,1,9.554.929,58.014,58.014,0,0,1,6.1,2.522h0a34.3,34.3,0,0,0,.134-4.114,15.557,15.557,0,0,0-1.328-4.644c-.5-.823-2.995-1.715-2.786-2.654.228-1.024,2.949-1.14,3.98-1.327.884-.16,2.963.513,3.583-.133.277-.287.079-1.2,0-1.592a22.575,22.575,0,0,0-1.326-3.185l.53-4.246,6.369,1.593,3.583-1.328-2.123-2.786,1.593-3.583.86-2.65c-.54-.832-1.061-1.82-1.656-1.994-.989-.289-2.981,1.307-3.981,1.061-1.048-.257-2.281-2.327-3.185-2.919-1.093-.716-3.639-1.48-4.777-2.123-.7-.4-1.846-1.811-2.654-1.858-.977-.057-2.516,2.154-3.449,1.858-.708-.224-.709-2.243-1.328-2.654a5.722,5.722,0,0,0-3.981-.265c-.778.342-1.277,2.574-2.123,2.653-1.217.115-2.9-2.268-3.715-3.184-.951-1.074-2.163-3.77-3.184-4.777-1.745-1.718-6.369-3.715-8.228-5.308-.606-.52-1.4-2.061-2.122-2.388a3.91,3.91,0,0,0-2.124,0c-1.517.526-3.435,3.975-5.042,3.981-.757,0-1.763-1.433-2.388-1.858-1.083-.735-3.213-2.5-4.513-2.654-.9-.1-2.609,1.391-3.449,1.061-1.356-.532-1.808-4.1-2.92-5.042a9.159,9.159,0,0,0-4.245-1.592,11.7,11.7,0,0,0-3.185,1.061c-1.356.529-3.978,1.8-5.309,2.389-1.521.673-4.446,2.8-6.1,2.654-.716-.064-1.677-1.5-2.389-1.592-2.85-.372-10.323.894-10.88,3.715-.274,1.383,4.483,2.325,4.245,3.715-.12.7-2.46.373-2.653,1.061-.09.32.852.735.8,1.063-.121.707-2.2.9-2.388,1.592-.153.573.619,1.727,1.06,2.122,1,.9,4.662.57,5.043,1.859.188.636-1,1.826-1.592,2.122-1.246.624-4.208.281-5.573,0-.991-.2-2.742-1.322-3.715-1.592a20.3,20.3,0,0,0-5.839-.8c-1.064.131-2.928,1.39-3.981,1.592a9.552,9.552,0,0,1-2.919,0c-1.36-.3-3.729-1.918-5.043-2.388-.773-.276-2.415-.511-3.184-.8-.695-.257-1.915-1.274-2.655-1.326a10.607,10.607,0,0,0-5.573,1.858c-.861.727-1.508,3.034-2.122,3.98-.413.635-1.1,2.325-1.859,2.389-1.076.091-2.116-3.086-3.184-2.92s-2.3,2.66-2.123,3.716c.129.788,2.345,1.326,2.389,2.123.049.891-2.442,1.763-2.389,2.654.042.7,1.763,1.251,2.123,1.857.312.527.082,1.974.531,2.389.688.637,2.866.134,3.715.531a10.8,10.8,0,0,1,2.655,2.388,11.448,11.448,0,0,1,1.727,2.469l3.05-.08s1.458-3.318,2.786-2.92,1.857,2.124,3.185,2.124,2.787-1.194,3.715-.8a4.011,4.011,0,0,1,2.122,3.051,5.26,5.26,0,0,0,.4,3.053c.664,1.592-3.944.582-5.175,1.061-.459.179-.986,1.1-1.327,1.459-.583.612-2.388,2.389-2.388,2.389s.53,2.123,1.858,2.123,2.521.8,2.521,1.46,1.062,3.052,1.99,3.052,2.521-1.062,2.654.132.132,2.92.929,3.849c.015.019.034.016.049.033" fill="url(#linear-gradient)"/>
    <path id="패스_2449" data-name="패스 2449" d="M-1540.987,1881.2c.5-.2,1.448.477,1.891.3.62-.249.557-2.193,1.194-2.389.789-.242,2.488,1.394,2.986,1.394s1.5-.991,1.791-1.493c.33-.56.8-2.19,1.393-2.19a13.913,13.913,0,0,1,2.289.5l3.683-2.687,2.587-1.194,1.194-1.891a58.014,58.014,0,0,0-6.1-2.522,41.256,41.256,0,0,0-9.554-.929c-.714.049-2.074.734-2.787.664-.87-.086-2.32-1.318-3.184-1.46-.625-.1-2.12-.225-2.521.266-.443.542.264,2.787.264,2.787l-2.918-.133s-2.973-.616-3.981-.664c-.465-.021-1.563-.227-1.858.133-.339.413.609,1.712.266,2.123a1.881,1.881,0,0,1-.067,1.228c-.248.489-1.737.847-1.692,1.393.051.6,1.544.944,2.09,1.194a4.815,4.815,0,0,0,1.692.6c.511-.043,1.286-1.072,1.791-.995.818.123,2.289,2.389,2.289,2.389l1.791.4-2.09,1.293a10.417,10.417,0,0,1-2.089,1.692,6.06,6.06,0,0,1-2.09,0c-.2-.025-.518-.047-.818-.1l-.277,1a4.6,4.6,0,0,0-2.588.1c-.9.5-2.587,2.09-.8,2.389l1.792.3s2.089-1.393,2.587-1.094-.5,1.692.3,1.592,1.791-2.09,2.189-1.493,4.678,1.593,4.678,1.2,3.483-.3,3.483-.3a11.971,11.971,0,0,1,.3-2.289A1.934,1.934,0,0,1-1540.987,1881.2Z" fill="url(#linear-gradient)"/>
    <path id="패스_2450" data-name="패스 2450" d="M-1404,1957.78h0l0,0Z" fill="url(#linear-gradient)"/>
    <path id="패스_2451" data-name="패스 2451" d="M-1476.681,1898.363c1.126-.208,2.9-1.028,3.069-1.538.2-.6-.954-2-1.393-2.588-.833-1.127-2.587-3.781-2.587-4.976s3.184-2.985,3.184-2.985l2.588.6,2.786-1.592-2.587-1.991.995-2.786,1.99-4.976,2.588.2,3.185-1.593-2.389-2.189,2.787-2.19-1.394-2.189-3.781-3.583-2.389-1.791-5.573-1.592-3.583-1.394h-4.578l-4.18-.4c-2.587.2-.6-2.388-.6-2.388l-3.98-7.365-5.972-3.384-4.777-.8-1.791-4.379-.045-.317c-.868.92-1.756,1.983-2.543,1.91-.457-.043-.864-.575-1.262-1.191l-.86,2.65-1.593,3.583,2.123,2.786-3.583,1.328-6.369-1.593-.53,4.246a22.575,22.575,0,0,1,1.326,3.185c.079.39.277,1.3,0,1.592-.62.646-2.7-.027-3.583.133-1.031.187-3.752.3-3.98,1.327-.209.939,2.289,1.831,2.786,2.654a15.557,15.557,0,0,1,1.328,4.644,34.3,34.3,0,0,1-.134,4.114l-1.194,1.891-2.587,1.194-3.683,2.687a13.913,13.913,0,0,0-2.289-.5c-.6,0-1.063,1.63-1.393,2.19-.3.5-1.294,1.493-1.791,1.493s-2.2-1.636-2.986-1.394c-.637.2-.574,2.14-1.194,2.389-.443.178-1.393-.5-1.891-.3a1.934,1.934,0,0,0-.9,1.1,11.971,11.971,0,0,0-.3,2.289l1.592,2.189,2.09,1.1s2.389-.3,2.588,1.592,2.089,2.986.9,3.882a9.66,9.66,0,0,0-1.827,2.073l3.454,1.343,3.715,2.655s3.652,4.1,5.307,3.98c1.421-.1,2.654-2.654,5.043-2.654a12.051,12.051,0,0,1,6.4,2.23l3.486-.969,1.99-.6,2.787-.995,1.393,1.592a12.244,12.244,0,0,1,2.787-1.393,11.144,11.144,0,0,1,2.786.6,16.549,16.549,0,0,1,2.787-.8c.557-.028,1.662.573,2.189.4.835-.279,1.644-2.119,2.389-2.588a6.155,6.155,0,0,1,2.587-.8c.8.033,2.182,1.2,2.986,1.194,1.026-.009,2.757-1.569,3.782-1.592,1.008-.023,2.776,1.359,3.782,1.393a2.479,2.479,0,0,0,.513-.054" fill="url(#linear-gradient)"/>
    <path id="패스_2452" data-name="패스 2452" d="M-1504.035,1839.206c.056-.039.113-.083.169-.115C-1503.922,1839.123-1503.979,1839.167-1504.035,1839.206Z" fill="url(#linear-gradient)"/>
    <path id="패스_2453" data-name="패스 2453" d="M-1505.1,1840.178c.086-.091.17-.175.255-.261C-1504.934,1840-1505.018,1840.087-1505.1,1840.178Z" fill="url(#linear-gradient)"/>
    <path id="패스_2454" data-name="패스 2454" d="M-1404,1957.78h0l0,0Z" fill="url(#linear-gradient)"/>
    <path id="패스_2455" data-name="패스 2455" d="M-1504.561,1839.635c.07-.066.14-.128.21-.187C-1504.421,1839.507-1504.491,1839.569-1504.561,1839.635Z" fill="url(#linear-gradient)"/>
    <path id="패스_2456" data-name="패스 2456" d="M-1402.371,1823.884a.671.671,0,0,1-.183-.638c.614-1.483,4.821-.382,6.369-.8,1.322-.354,3.676-2.158,5.043-2.124,1.987.05,5.482,2.395,7.166,3.451a91.529,91.529,0,0,1,9.023,7.165c1.821,1.624,4.787,5.682,6.9,6.9a14.173,14.173,0,0,0,3.981,1.062c.79.1,2.41-.183,3.185,0a20.665,20.665,0,0,1,3.184,1.592,30.1,30.1,0,0,1,4.247,2.123c1.067.856,2.119,3.926,3.449,4.247,1.762.425,4.838-2.687,6.635-2.92a23.463,23.463,0,0,1,5.043.8l.8,4.777,1.061,7.166-2.919,2.123s-3.118-.025-3.451.8c-.592,1.467,3.451,5.308,3.451,5.308l2.906,1.763,2.623,1.38,5.244,1.38,2.76-6.348,3.037-8.419s.619-5.686.689-7.59c.078-2.069.6-6.348-.137-8.28-.715-1.867-5.245-6.035-5.245-6.035l-.827-3.9-2.208-4-3.037-2.9-2.208-1.38-3.865-2.07-4.829-.69-1.1,2.622-2.485-1.242-2.484.414-2.76-4.14-5.106.414-.553-1.518,3.451-5.106-.138-3.175,2.069-2.346.691-3.174.829-2.76,2.621-.828,5.244-.966,4.831.552,4.14-.414,2.76,1.1.413-2.208,9.11,1.794.138,1.242,4,.276,1.381-.552.827-.138,4.555-1.38-2.9-1.657-.689-2.9-.552-4.14,1.793-.828,2.761.137,4.141-.276,2.208,1.8,1.794,1.1,2.07,1.241,1.656-.413,1.242-2.484,1.656-1.519-3.036-2.484,2.76-1.242,2.069,4.416,1.8,1.242.69,3.312-2.208,1.1.139,4.279.827,1.38-1.656,3.726-2.9,2.346,1.1,1.242.139,3.451,2.621,2.9,3.176,2.9s4.181,3.156,5.382,4.416c.919.964,2.239,3.33,3.173,4.279,1.159,1.174,3.98,2.943,5.245,4,1.293,1.081,3.291,4.71,4.969,4.553.687-.063,1.587-1.52,1.656-2.207.093-.952-1.445-2.517-1.656-3.451a28.967,28.967,0,0,1,0-4.83c0-1.035-.4-3.183,0-4.14.354-.856,2.564-1.7,2.621-2.622.055-.877-1.862-1.864-2.485-2.484-.723-.725-2.9-2.9-2.9-2.9s1.163-.809,1.24-1.241c.112-.616-1.034-2.278-1.034-2.278l-4.071-4.071h-3.45l-2.485-2.484-1.241-2.484v-2.347l3.1-.62,1.725-1.725,1.656,2.484h2.346l.966-2.76,2.483.413,3.728.552,2.069.828,2.761-1.517.758-3.52,1.311-1.311,2.624-2.622,3.035-1.518,1.1,1.1h3.864l1.518-1.242-2.07-2.07-3.587-1.518-3.728-1.38-3.932-1.725.9-.9,1.8-.966-.553-3.036h7.866l3.727,2.069,6.072,1.657,4.278,1.518,2.9-.138.552-2.485-2.692-2.414-1.311-1.311,4,.689-3.728-3.036-5.381-1.656-4.417-.276-6.486-.828-5.245-2.07-9.936-4.554h-10.073l-8.558-2.208-12.973-2.209-4.278-.276-4-.137-3.725-.691-.139,1.795,2.624,1.518,2.069.138v1.1l-5.8-1.1-6.072-.828-3.174.138-1.379-.966-12.008.552-5.934-.966-3.864-2.9-2.622-.139-2.346-.137-3.036-1.38-5.106.413-4.417.691-6.9-.276-6.072-2.623-4.968-.828-4.555-1.518-4.139.828-2.07-1.38-4.279.138-9.108-.828-4.416-1.242-1.933,2.484,1.933,1.933-3.726.137h-5.659l-4.693,1.1-3.312-1.1-3.312-.828,2.208,4.692-3.587-1.241-6.625-3.312-2.069-3.175-7.729-3.036-7.039,1.1-4.608-2.07-.567,2.139-1.036,1.035-7.728-1.518h-5.521l-5.657-.276-4.141-1.656h-6.9l-3.176-.69-2.208,2.208-3.035.828-4.623,1.173-1.311-1.311,3.726-3.588,3.864-2.07,2.346-2.347-5.106-2.483-6.9-1.38-6.073.137-4-1.1-6.694-1.035-1.863-1.863h-2.9l-5.176,1.035-1.034,1.035,1.38,2.208-6.073.828-4.277-.828-4.141,1.794h-4.278l-6.211.828-3.867,1.656-3.033,1.519,1.518.965.966,2.208h-6.763l-4.139.828h-4.83v2.071h1.1l1.379,1.932,4.83,2.484-.966.828-3.864-1.794-4.433-.414-2.743.138-2.622,1.38-2.07-.138-1.933-2.208-2.069-.69v2.346l-1.795.69.414,2.346,3.175,2.208v2.484l3.035,3.037h3.038l2.621-.69-1.794,1.794-1.863,1.863,2.692,2.691-2.072,4.693-3.312,1.793-3.864-.965-2.208-1.243h2.9l3.174-2.76V1761.1l-3.035-3.174-1.518-4-3.175-4.14-2.829-1.692.827-1.345-.343-2.76-2.83-.828-3.8-.69-4,2.07.413,1.656-1.1,2.622h-1.795l-1.1,2.623,2.071,1.241,1.656,3.589h2.208l5.382,1.794v3.174h-2.346l-14.491-6.21-7.866-.276-1.933,1.38,1.933,1.794-1.1,1.38-1.932-.414-2.209-1.656-3.45,1.379-4.416.277-5.659.966-2.622-1.656-3.864,1.794-5.107,2.208-4.553.414-.829,3.45h-4.416l-2.9-1.242-.137-2.07,3.587-1.932-2.346-1.794-6.9.276,1.243,2.484.275,2.9,2.485,3.45-1.52-.828-5.52.828-.965,1.656-1.518.139-2.76,1.517.552.967.965,2.552h-1.379l-4.141-1.311-2.76-1.517h-2.07v2.069l3.313,1.381.275,2.346h-.689l-4.141-1.794h-2.76l-.966-2.346-2.347-1.519,1.311-2-.9-.9s-7.957-.8-7.486-2.735c.437-1.8,7.349.94,7.349.94l2.9,1.656,8.7.691,5.8-3.451-.827-2.622-10.627-4.416-10.35-2.76-5.245-1.38-2.155-.308a38.516,38.516,0,0,0-4.441,2.7c-.638.561-2.048,1.807-2.123,2.654a4.329,4.329,0,0,0,1.592,2.919c.4.238,1.552-.349,1.859,0,.661.755-.532,3.981-.532,3.981l1.592,3.185.532,4.246s1.048,3.638,2.123,3.981c.424.135,1.177-.957,1.592-.8.861.334.886,2.638,1.326,3.449.433.793,2.32,2.039,2.125,2.92-.33,1.478-4.193,1.9-5.309,2.919-.88.809-2.855,2.8-2.653,3.981.168.981,2.695,1.522,3.185,2.389.326.58.7,2.146.264,2.653-.733.86-3.661-.479-4.511.265-1.576,1.38-1.849,6.149-1.593,8.228a12.285,12.285,0,0,0,1.859,3.981,17.518,17.518,0,0,0,1.668,2.024c.12.123.24.24.359.352l.087.077c.1.089.2.174.294.252.066.052.128.095.192.14s.135.1.2.141a2.233,2.233,0,0,0,.384.2c.933.351,2.984-.232,3.981-.265a3.767,3.767,0,0,1,1.327,0,6.815,6.815,0,0,1,1.858,2.388c.672,1.235.871,4.306,1.856,5.308.943.958,4.2.813,5.043,1.858a2.2,2.2,0,0,1,.266,1.858c-.544.779-3.237-.024-3.716.8a1.288,1.288,0,0,0-.136.41c-.007.052-.007.112-.014.168a2.969,2.969,0,0,0-.013.346c0,.076.012.154.02.233.011.113.023.228.045.345.015.09.034.18.054.271.025.11.055.22.086.329s.057.2.092.295.071.192.108.287.083.21.129.309c.036.076.077.146.114.218a3.688,3.688,0,0,0,.456.7,1.52,1.52,0,0,0,.387.335c1.379.765,4.581-2.005,6.1-1.592.905.245,2.081,1.911,2.655,2.653s1.034,2.771,1.856,3.185c.538.27,1.88-.584,2.389-.265.836.522.567,3.086,1.328,3.715.983.814,3.771.9,5.041.8.628-.053,1.768-.9,2.389-.8,1.31.213,2.963,2.844,4.246,3.185,1.034.275,3.445-1.239,4.247-.531.746.659.547,3.15,0,3.981-.278.422-1.74.305-1.858.8-.241,1.008,2.976,2.2,2.654,3.185-.34,1.04-3.841.045-4.247,1.061-.223.562.8,1.343,1.42,2.057h0a2.868,2.868,0,0,1,.285.39c.014.025.034.05.046.075a.751.751,0,0,1,.108.4c-.126,1.356-3.426,2.651-3.717,3.981-.222,1.025,1.787,3.038,1.328,3.981-.432.887-3.629.345-3.716,1.327-.14,1.6,4.138,2.467,5.573,3.185,1.413.707,4.309,1.992,5.8,2.511.322.113.72.241,1.141.372a58.914,58.914,0,0,0,6.327,1.628c.918.155,2.844-.065,3.715.266,1.017.386,2.42,2.3,3.451,2.654.878.3,2.814-.226,3.715,0,1.094.273,2.939,1.69,3.981,2.123.833.346,2.635.674,3.45,1.061.865.411,2.231,2.042,3.185,2.124a8.039,8.039,0,0,0,3.9-1.031c.511-.315.877-.682.88-1.093.006-.95-2.8-.9-3.451-1.592a9.943,9.943,0,0,1-1.062-2.654c-.348-.923-.86-2.847-1.326-3.715a10.68,10.68,0,0,0-1.593-2.124c-.46-.423-1.967-.72-2.122-1.326-.342-1.324,1.811-3.7,2.653-4.777s3.783-2.369,3.98-3.716a1.44,1.44,0,0,0-.129-.716,11.448,11.448,0,0,0-1.727-2.469,10.8,10.8,0,0,0-2.655-2.388c-.849-.4-3.027.106-3.715-.531-.449-.415-.219-1.862-.531-2.389-.36-.606-2.081-1.153-2.123-1.857-.053-.891,2.438-1.763,2.389-2.654-.044-.8-2.26-1.335-2.389-2.123-.173-1.056,1.067-3.55,2.123-3.716s2.108,3.011,3.184,2.92c.754-.064,1.446-1.754,1.859-2.389.614-.946,1.261-3.253,2.122-3.98a10.607,10.607,0,0,1,5.573-1.858c.74.052,1.96,1.069,2.655,1.326.769.286,2.411.521,3.184.8,1.314.47,3.683,2.083,5.043,2.388a9.552,9.552,0,0,0,2.919,0c1.053-.2,2.917-1.461,3.981-1.592a20.3,20.3,0,0,1,5.839.8c.973.27,2.724,1.389,3.715,1.592,1.365.281,4.327.624,5.573,0,.594-.3,1.78-1.486,1.592-2.122-.381-1.289-4.041-.962-5.043-1.859-.441-.4-1.213-1.549-1.06-2.122.183-.694,2.267-.885,2.388-1.592.056-.328-.886-.743-.8-1.063.193-.688,2.533-.356,2.653-1.061.238-1.39-4.519-2.332-4.245-3.715.557-2.821,8.03-4.087,10.88-3.715.712.092,1.673,1.528,2.389,1.592,1.657.148,4.582-1.981,6.1-2.654,1.331-.589,3.953-1.86,5.309-2.389a11.7,11.7,0,0,1,3.185-1.061,9.159,9.159,0,0,1,4.245,1.592c1.112.941,1.564,4.51,2.92,5.042.84.33,2.553-1.166,3.449-1.061,1.3.152,3.43,1.919,4.513,2.654.625.425,1.631,1.86,2.388,1.858,1.607-.006,3.525-3.455,5.042-3.981a3.91,3.91,0,0,1,2.124,0c.727.327,1.516,1.868,2.122,2.388,1.859,1.593,6.483,3.59,8.228,5.308,1.021,1.007,2.233,3.7,3.184,4.777.811.916,2.5,3.3,3.715,3.184.846-.079,1.345-2.311,2.123-2.653a5.722,5.722,0,0,1,3.981.265c.619.411.62,2.43,1.328,2.654.933.3,2.472-1.915,3.449-1.858.808.047,1.95,1.459,2.654,1.858,1.138.643,3.684,1.407,4.777,2.123.9.592,2.137,2.662,3.185,2.919,1,.246,2.992-1.35,3.981-1.061.6.174,1.116,1.162,1.656,1.994.4.616.805,1.148,1.262,1.191.787.073,1.675-.99,2.543-1.91h0c.086-.091.17-.175.255-.261s.193-.192.288-.282c.07-.066.14-.128.21-.187a3.635,3.635,0,0,1,.316-.242c.056-.039.113-.083.169-.115a1.4,1.4,0,0,1,.465-.187c.829-.135,2.406,1.373,3.185,1.061,1.185-.474,1.43-3.669,2.388-4.512a9.688,9.688,0,0,1,4.247-1.592c1.284-.1,3.785.779,5.041,1.062,1.666.375,4.976,1.194,6.636,1.593s4.931,1.521,6.635,1.592c.871.036,2.985.208,3.449-.531.48-.764-.81-2.584-1.061-3.45-.211-.727-.909-2.172-.8-2.919a4.988,4.988,0,0,1,1.857-2.92c2.27-1.018,7.585.5,9.82,1.592,1.138.557,2.624,2.8,3.715,3.451a25.728,25.728,0,0,0,7.165,2.388c1.448.2,4.391-.461,5.839-.266a45.551,45.551,0,0,1,10.616,3.451c1.233.618,3.165,2.882,4.511,3.185,1.512.34,4.58-.791,6.1-1.062,1.461-.26,4.627-.2,5.839-1.062.874-.618,1.135-3.3,2.122-3.715,1.65-.686,5.13,1.624,6.9,1.858,1.579.208,4.869.533,6.37,0,1.289-.458,3.834-2.146,4.245-3.451.435-1.381-1.281-4.157-1.592-5.573a24.674,24.674,0,0,0-.531-3.45c-.216-.5-1.231-1.159-1.675-1.75" fill="url(#linear-gradient)"/>
    <path id="패스_2457" data-name="패스 2457" d="M-1505.105,1840.179Z" fill="url(#linear-gradient)"/>
    <path id="패스_2458" data-name="패스 2458" d="M-1504.849,1839.917c.1-.1.193-.192.288-.282C-1504.656,1839.725-1504.752,1839.818-1504.849,1839.917Z" fill="url(#linear-gradient)"/>
    <path id="패스_2459" data-name="패스 2459" d="M-1503.866,1839.091a1.4,1.4,0,0,1,.465-.187A1.4,1.4,0,0,0-1503.866,1839.091Z" fill="url(#linear-gradient)"/>
    <path id="패스_2460" data-name="패스 2460" d="M-1504.351,1839.448a3.429,3.429,0,0,1,.316-.242A3.635,3.635,0,0,0-1504.351,1839.448Z" fill="url(#linear-gradient)"/>
    <path id="패스_2461" data-name="패스 2461" d="M-1404,1957.78h0l0,0Z" fill="url(#linear-gradient)"/>
    <path id="패스_2462" data-name="패스 2462" d="M-1333.309,1893.034l-3.451-3.174-4.693-4-2.208-2.485,2.623-3.588,1.931-3.588-.552-3.45,1.232-3-1.23-.194-6.1,2.256-.929,2.521s-1.858-1.592-2.92-1.592-2.255,2.389-2.255,2.389l-1.99,1.99-1.79,4.174.529.286,4.277,2.76-.413,4.692,2.9,2.07,3.588-.828,2.623,2.07-.277,3.312,2.347,2.485.137,3.864,2.485,4.14,7.591-2.07.827-2.9Z" fill="url(#linear-gradient)"/>
    <path id="패스_2463" data-name="패스 2463" d="M-1404,1957.78h0l0,0Z" fill="url(#linear-gradient)"/>
    <path id="패스_2464" data-name="패스 2464" d="M-1488.042,1976.043l-1.294.1s-1.095,1.294-1.393,1.294h-1.294s-.7.5-.7.9-.5.7-.5.7l-.8-.1s-.9,1.2-1.1,1.493-.375.132-.5.1c-.387-.1-1.492.1-1.592-.2s.114-1.4-.2-1.692c-.2-.187-.852.129-1.095,0a5.478,5.478,0,0,1-1.393-2.09c-.129-.275-.3-.995-.7-.995a1.814,1.814,0,0,1-1.293-.7,6.89,6.89,0,0,1,.2-2.488l-3.882.5s-2.3.166-2.786.7c-.322.353-.092,1.459-.3,1.891-.357.751-1.891,2.09-2.09,2.588s1.317-.189,1.593.1c.463.484-.608,1.923-.7,2.588a29.277,29.277,0,0,0,0,2.985l1.294,2.289a11.324,11.324,0,0,0-.2,2.787c.1,1.393.8.2.995.8s-1.1,1.095-1.1,1.095l-1.393.995s.6,1.99.9,2.588-1,.995-1,.995a9.549,9.549,0,0,0-.8,2.388,8.557,8.557,0,0,0,.3.9s-.538,2.507.1,2.787c.422.184,1.394-1.2,1.394-1.2l1.691-.3s1.219.769,1.394,1.194a4.906,4.906,0,0,1-.2,2.388c-.224.758-1.364,2.007-1.493,2.787-.1.6.774,1.914.4,2.389-.232.293-1.165-.081-1.493.1-.6.33-1.393,1.891-1.791,2.09s-.8-1.095-.8-1.493-2.687-.2-2.986-.2-.5-.4-.7-1.095a8.46,8.46,0,0,0-1.293-1.99l-2.389-.2-.224.616.563,1.854,3.105,4.417,2.139,7.866,4.279,4.14,2.76-2.347,3.864-2.621.552-4,2.345-1.518-1.241-5.935,2.345-5.519.277-4.555s-.69-2.208-1.381-4.14-.827-2.76-.413-4,1.1.828,2.346.552.827-1.932,1.518-3.036,1.242,0,2.621-.414.416-1.518.553-3.036,2.9-.69,4.554-1.932,1.656-2.208,1.656-2.208.821-.97,1.871-2.239a11.106,11.106,0,0,1-.849-1.1C-1486.251,1975.844-1488.042,1976.043-1488.042,1976.043Z" fill="url(#linear-gradient)"/>
    <path id="패스_2465" data-name="패스 2465" d="M-1404,1957.78h0l0,0Z" fill="url(#linear-gradient)"/>
    <path id="패스_2466" data-name="패스 2466" d="M-1404,1957.78h0l0,0Z" fill="url(#linear-gradient)"/>
    <path id="패스_2467" data-name="패스 2467" d="M-1505.558,1932.951c-.351-2.047,4.048-3.288,4.645-5.009-.6,1.721-7.35,3.659-7,5.706.428,2.489,6.837,3.365,9.288,3.98C-1501.075,1937.013-1505.129,1935.441-1505.558,1932.951Z" fill="url(#linear-gradient)"/>
    <path id="패스_2468" data-name="패스 2468" d="M-1486.73,1932.756l-6.461-4.469-6.461-6.907-4.775-3.656-1.732,1.356c-.843,3.512-7.052,6.047-6.555,10.223.6,5.082,6.326,8.292,9.784,9.547,2.1.761,6.455.948,8.615,1.083,1.029.064,3.116-.328,4.121,0,2.124.694,6.038,3.7,7.865,5.417,1.448,1.361,3.609,5.7,5.244,6.5,1.685.83,5.372-1.067,7.115-.541a3.144,3.144,0,0,1,.68.359,11.718,11.718,0,0,0,.116-3.067c-.281-.61.14-3.251.14-4.673a21.006,21.006,0,0,0-1.4-4.875l.053-1.727c-1.749-.361-3.7-.914-3.7-.914Z" fill="url(#linear-gradient)"/>
    <path id="패스_2469" data-name="패스 2469" d="M-1404,1957.78h0l0,0Z" fill="url(#linear-gradient)"/>
    <path id="패스_2470" data-name="패스 2470" d="M-1476,1961.513c.1-.7-.4-.2-.4-.2l-1.393-1.293-.2-1.294-.995-.6s-.5,0-1.692-.1.1-1.095,1.394-2.189a2.685,2.685,0,0,1,2.587-.6s1.991-1.394,2.389-1.692.3-.9.5-1.294a19.388,19.388,0,0,0,.2-3.185l-.559-.644a5.775,5.775,0,0,1-.834,1.672,8.912,8.912,0,0,1-3.715,1.858c-1.365.288-4.214-.577-5.573-.266-.81.187-2.088,1.6-2.919,1.593-1.367-.005-3.572-3.3-4.777-2.654-.7.376.3,2.618-.266,3.185-.516.52-2.335-.179-2.918.265a3.573,3.573,0,0,0-.8,2.123c-.021,1.049,1.567,2.96,1.326,3.981-.258,1.1-2.7,2.169-3.185,3.185-.546,1.144-.53,5.042-.53,5.042l-2.92,1.062-2.123-3.185-6.1-1.062h-2.389s-.343-1.633-.8-1.857c-.49-.244-2.124.531-2.124.531l-3.185,2.388v-1.858l-4.511-.53s-2.909-1.9-3.715-1.327c-1.085.764,0,5.308,0,5.308l-2.92,1.592-1.931,3.465.967,2.071,1.241,7.452,2.76,6.762s1.381,5.107,2.485,6.625,2.208,3.312,2.208,3.312l1.948,6.432.249.822.224-.616,2.389.2a8.46,8.46,0,0,1,1.293,1.99c.2.7.4,1.095.7,1.095s2.986-.2,2.986.2.4,1.692.8,1.493,1.188-1.76,1.791-2.09c.328-.18,1.261.194,1.493-.1.376-.475-.5-1.792-.4-2.389.129-.78,1.269-2.029,1.493-2.787a4.906,4.906,0,0,0,.2-2.388c-.175-.425-1.394-1.194-1.394-1.194l-1.691.3s-.972,1.379-1.394,1.2c-.637-.28-.1-2.787-.1-2.787a8.557,8.557,0,0,1-.3-.9,9.549,9.549,0,0,1,.8-2.388s1.294-.4,1-.995-.9-2.588-.9-2.588l1.393-.995s1.294-.5,1.1-1.095-.9.6-.995-.8a11.324,11.324,0,0,1,.2-2.787l-1.294-2.289a29.277,29.277,0,0,1,0-2.985c.089-.665,1.16-2.1.7-2.588-.276-.288-1.792.4-1.593-.1s1.733-1.837,2.09-2.588c.207-.432-.023-1.538.3-1.891.485-.53,2.786-.7,2.786-.7l3.882-.5a6.89,6.89,0,0,0-.2,2.488,1.814,1.814,0,0,0,1.293.7c.4,0,.568.72.7.995a5.478,5.478,0,0,0,1.393,2.09c.243.129.9-.187,1.095,0,.313.29.1,1.393.2,1.692s1.2.095,1.592.2c.123.032.3.2.5-.1s1.1-1.493,1.1-1.493l.8.1s.5-.3.5-.7.7-.9.7-.9h1.294c.3,0,1.393-1.294,1.393-1.294l1.294-.1s1.791-.2,2.289.6a11.106,11.106,0,0,0,.849,1.1l.151-.182c.95-1.152,2.062-2.512,2.946-3.651,1.933-2.484,4.278-2.623,5.659-4.279s-.413-1.794-.69-3.036c-.216-.975,1.085-1.519,1.661-1.711.157-.052.272-.083.272-.083l.362-.249-1.955-.349S-1476.1,1962.21-1476,1961.513Z" fill="url(#linear-gradient)"/>
    <path id="패스_2471" data-name="패스 2471" d="M-1476,1947.363Z" fill="url(#linear-gradient)"/>
    <path id="패스_2472" data-name="패스 2472" d="M-1526.224,1967.883s-1.085-4.544,0-5.308c.806-.569,3.715,1.327,3.715,1.327l4.511.53v1.858l3.185-2.388s1.634-.775,2.124-.531c.453.224.8,1.857.8,1.857h2.389l6.1,1.062,2.123,3.185,2.92-1.062s-.016-3.9.53-5.042c.485-1.016,2.927-2.089,3.185-3.185.241-1.021-1.347-2.932-1.326-3.981a3.573,3.573,0,0,1,.8-2.123c.583-.444,2.4.255,2.918-.265.563-.567-.438-2.809.266-3.185,1.2-.643,3.41,2.649,4.777,2.654.831,0,2.109-1.406,2.919-1.593,1.359-.311,4.208.554,5.573.266a8.912,8.912,0,0,0,3.715-1.858,5.775,5.775,0,0,0,.834-1.672l-1.431-1.645,1.431,1.645a34.081,34.081,0,0,0,1.024-3.635,18.21,18.21,0,0,0-1.642-.886c-.1.616-.216,1.184-.216,1.184s.118-.568.216-1.184a2.62,2.62,0,0,0-.48-.176c-1.236-.258-3.847.672-5.043.266-1.159-.4-2.69-2.519-3.715-3.185a23.491,23.491,0,0,0-5.573-2.654,21.866,21.866,0,0,0-2.92,0,40.485,40.485,0,0,1-6.1-.531c-2.451-.615-8.86-1.491-9.288-3.98-.351-2.047,6.4-3.985,7-5.706a.67.67,0,0,0-.1-.664c-.464-.619-1.9,1.748-2.655,1.593-1.443-.3-2.269-3.9-3.449-4.777-1.127-.842-4.049-1.231-5.309-1.859-1.069-.533-3.571-1.529-3.98-2.653-.4-1.1,1.413-3.339,1.328-4.512-.07-.947-1.667-2.5-1.593-3.45.056-.715,1.194-1.791,1.593-2.388.8-1.2,3.432-3.364,3.184-4.777a2.653,2.653,0,0,0-1.032-1.486l-.1.026.1-.026-.1.026.1-.026a12.051,12.051,0,0,0-6.4-2.23c-2.389,0-3.622,2.553-5.043,2.654-1.655.118-5.307-3.98-5.307-3.98l-3.715-2.655-3.454-1.343h0l-1.323-.514-4.513.531-3.715,1.592-1.858-5.043s-1.572-3.579-2.653-3.45c-1.3.155-1.115,3.946-2.124,4.777-.683.563-2.71.308-3.449.8s-1.241,2.73-2.124,2.92c-.924.2-2.351-1.268-3.347-1.913a2.668,2.668,0,0,0-.368-.21c-.958-.429-3.981-1.328-3.981-1.328l-1.513-.156-3,1.749h-2.92l.266,5.043-6.1,3.184-4.226-1.056.012.26-1.194,1.991-1.592,4.279,1.293,2.588,1.2,1.791,1.592,4.478.2,4.081-4.06,1.433.278.756s-.995.5-.8,1.194,1.095,2.886,1.095,2.886l-.1,3.484.8,3.682s-1.393-.4-1.592.4a13.294,13.294,0,0,1-2.189,2.886l.8,1.592,1.791,3.583-.7,1.891.5,1.585.712.032,1.409.064,7.59,1.242,7.315-.276,3.035-.552,6.9-.69s1.656-.138,3.035,3.312,1.933.967,3.312,3.312,1.243.276,3.174,1.1.139,1.795,2.072,3.037,2.9.552,2.9.552a8.494,8.494,0,0,1,3.035.552c1.1.552-.69,1.656-.69,1.656l-3.035.138c-3.037.138-1.381,1.1-1.381,1.1l2.76,1.932,3.451,3.588,1.656,1.242,4.416-2.07a2.168,2.168,0,0,0,.277-2.76c-.968-1.656.136-1.794.827-2.76s1.794,1.242,1.933,3.312-.552,1.518-.691,2.07,1.241,1.795,1.241,1.795l-.413,2.345.1.465.448,2.019,1.931-3.465Zm50.229-20.52Z" fill="url(#linear-gradient)"/>
    <path id="패스_2473" data-name="패스 2473" d="M-1404,1957.78h0l0,0Z" fill="url(#linear-gradient)"/>
    <path id="패스_2474" data-name="패스 2474" d="M-1361.02,1954.679a3.154,3.154,0,0,1,.4-.995,7.547,7.547,0,0,1-1.194-1.194c-.731-.863-.6-.4-1.592-1.062s-.8.6-.8.6h-4.115l-1.393-.133a2.512,2.512,0,0,1,.333-1.061,4.79,4.79,0,0,0,.463-.73,7.929,7.929,0,0,0-.4-1.326c-.2-.4-1.26-.664-1.26-.664l-3.318.664s-2.205-.445-2.72,0c-.43.372.226,2.138-.331,2.255-.572.121-1.129-1.791-1.328-1.924s-1.857,1.791-2.189,2.123.4,2.522.4,3.185a8.107,8.107,0,0,1-1.459,2.787c-.465.663-1.592,1.791-1.659,1.99s-.266,2.986-.266,2.986l-1.194,2.056-2.743,2.005,3.149,3.39-.277-4.278,4.554-.828,4-.828,1.656-1.633,1.379-1.541,1.518,1.518,2.623-1.1,1.1-.69,6.763-3.726.394-.343A2.208,2.208,0,0,1-1361.02,1954.679Z" fill="url(#linear-gradient)"/>
    <path id="패스_2475" data-name="패스 2475" d="M-1404,1957.78h0l0,0Z" fill="url(#linear-gradient)"/>
    <path id="패스_2476" data-name="패스 2476" d="M-1404,1957.78h0l0,0Z" fill="url(#linear-gradient)"/>
    <path id="패스_2477" data-name="패스 2477" d="M-1470.626,1936.434c.764-.193,2.2-1.033,2.986-.995.979.047,2.66,1.263,3.582,1.592a7.249,7.249,0,0,0,2.19.6,11.212,11.212,0,0,0,2.985-1.393c.87-.457,2.577-1.434,3.384-1.99.788-.543,2.137-1.95,2.986-2.389.644-.333,2.107-.546,2.786-.8.565-.208,1.591-1.049,2.19-1a5.647,5.647,0,0,1,2.587,1.791c.459.545.681,2.093,1.195,2.588a4.682,4.682,0,0,0,2.388.995,7.926,7.926,0,0,0,2.275-1l.412-1.286-.412,1.286a2.414,2.414,0,0,1,.512-.191,2.384,2.384,0,0,1,.676-.006l-.477-.591.477.591c.8.076,1.844.321,2.309.006.666-.451.767-2.306,1.194-2.986a8.156,8.156,0,0,1,1.357-1.244l-.626-.68.626.68c.443-.381.821-.771.833-1.144.043-1.275-2.493-2.911-3.185-3.981-1.244-1.925-2.71-6.4-4.18-8.161-.681-.818-2.323-2.487-3.383-2.587-1-.095-2.639,1.456-3.583,1.791-.865.306-2.693,1.023-3.583.8-1.025-.262-2.175-2.467-3.184-2.786-.905-.288-2.852.6-3.782.4-1.068-.228-2.74-1.862-3.782-2.19-1.095-.346-3.486-.036-4.578-.4-1.166-.387-3.043-2.119-4.18-2.587-.613-.253-1.954-.4-2.587-.6-1.232-.4-4.777-1.99-4.777-1.99l1.592-3.782-.8-2.985-.482-1.448a2.479,2.479,0,0,1-.513.054c-1.006-.034-2.774-1.416-3.782-1.393-1.025.023-2.756,1.583-3.782,1.592-.8.007-2.182-1.161-2.986-1.194a6.155,6.155,0,0,0-2.587.8c-.745.469-1.554,2.309-2.389,2.588-.527.175-1.632-.426-2.189-.4a16.549,16.549,0,0,0-2.787.8,11.144,11.144,0,0,0-2.786-.6,12.244,12.244,0,0,0-2.787,1.393l-1.393-1.592-2.787.995-1.99.6-3.486.969a2.653,2.653,0,0,1,1.032,1.486c.248,1.413-2.388,3.582-3.184,4.777-.4.6-1.537,1.673-1.593,2.388-.074.947,1.523,2.5,1.593,3.45.085,1.173-1.73,3.407-1.328,4.512.409,1.124,2.911,2.12,3.98,2.653,1.26.628,4.182,1.017,5.309,1.859,1.18.88,2.006,4.48,3.449,4.777.759.155,2.191-2.212,2.655-1.593a.67.67,0,0,1,.1.664l1.227-.664,3.384,1.792,4.578,3.383,4.578,2.19,8.956,1.791s1.386.271,2.625.448a11.765,11.765,0,0,0,1.555.149A19.828,19.828,0,0,0-1470.626,1936.434Z" fill="url(#linear-gradient)"/>
    <path id="패스_2478" data-name="패스 2478" d="M-1471.223,1942.8s.808.407,1.095.5c.387.122,1.343-.021,1.592.3s-.1,1.691.3,1.592,2-1.593,2.587-1.194c.62.418-.2,2.488-.2,2.985s-.7,1.394.3,1.394,1.547-.609,2.089-.7c.71-.115,2.08.577,2.787.7,1.109.186,4.478.4,4.478.4s.2-.6.2.4a9.667,9.667,0,0,1-.7,2.587,2.073,2.073,0,0,0,.3,1.692,4,4,0,0,1,.7,1.991,7.717,7.717,0,0,0,.3,2.388c.3.8,1.692,2.389,1.492,3.085a7.469,7.469,0,0,0-.2,2.19,2.369,2.369,0,0,0,.106.615c.765-.344,1.885-1.076,1.885-1.312v-1.891s-.1-1.99-.2-2.289a23.564,23.564,0,0,1-.1-3.185c0-1.393.4-.2.995-.2a4.341,4.341,0,0,0,1.195-.2l.3-1.492a13.672,13.672,0,0,0,1.2-.9c.177-.176.558-.551.6-.8.087-.537-.5-1.493-.6-2.09a4.676,4.676,0,0,1,1.393-2.488,1.887,1.887,0,0,0,1.095-1.194,3.774,3.774,0,0,0-.2-1.593c-.167-.618-.82-1.888-.6-2.488.193-.518,1.28-1.088,1.792-1.294a15.568,15.568,0,0,1,2.886-.4s1.294.3,1.592,0a7.4,7.4,0,0,0,.3-2.388l.895-1.592.484-1.5a7.926,7.926,0,0,1-2.275,1,4.682,4.682,0,0,1-2.388-.995c-.514-.495-.736-2.043-1.195-2.588a5.647,5.647,0,0,0-2.587-1.791c-.6-.054-1.625.787-2.19,1-.679.25-2.142.463-2.786.8-.849.439-2.2,1.846-2.986,2.389-.807.556-2.514,1.533-3.384,1.99a11.212,11.212,0,0,1-2.985,1.393,7.249,7.249,0,0,1-2.19-.6c-.922-.329-2.6-1.545-3.582-1.592-.786-.038-2.222.8-2.986.995a19.828,19.828,0,0,1-3.384.6,11.765,11.765,0,0,1-1.555-.149l-.037.846a8.1,8.1,0,0,1,.995,2.388c0,.57-.194,1.53-.158,2.028l.755-.037Z" fill="url(#linear-gradient)"/>
    <path id="패스_2479" data-name="패스 2479" d="M-1434.4,1931.259c-.427.68-.528,2.535-1.194,2.986-.465.315-1.51.07-2.309-.006l1.978,2.46.664,3.119s2.123,2.985,2.588,3.848-.93,2.852-1.129,3.118-1.725,3.185-2.454,4.246.928,3.185,1.99,2.787a5.136,5.136,0,0,1,2.255-.066,3.012,3.012,0,0,1,1.858,2.653c.2,1.858.929.6,1.327,1.261s.133,3.184.067,3.914,1.46,1.261,1.791,1.394.6-1.925,2.853,1.26,1.061,0,2.255-.53,1.46.8,2.986.862.731-1.061.664-1.393a8.958,8.958,0,0,1,.6-1.991s1.326-.265,1.923-.4,3.583-.995,4.247-.995a7.274,7.274,0,0,1,1.791.4l1.063-.663c1.06-.664,3.316-1.99,3.316-2.256s2.456-.465,3.715-1.526-1.326-1.062-1.326-1.062l-3.583-.8a17.325,17.325,0,0,1-2.189-1.791c0-.2-.73-.929-.73-1.659s.066-1.658.066-2.056-1.327-2.456-1.327-2.854a25.961,25.961,0,0,1,.6-2.587s-2.256-.066-2.52-.4a6.6,6.6,0,0,1-.067-2.256s-1.062-2.455-.863-2.588,3.119.332,3.782.332.6-2.388.6-2.388l-1.658-.266v-1.525a13.217,13.217,0,0,0-1.858-1.593,15.6,15.6,0,0,0-2.256.863c-.531.332,0,1.857-1.195,2.786s-1.525.929-1.525,1.459a8.46,8.46,0,0,0,.6,2.19c.331.995.53.73,1.127,1.924s-.729,2.323-.729,2.323l-2.189.862a21.252,21.252,0,0,1-2.521-1.26c-.664-.465-.2-2.257-.2-2.257a33.877,33.877,0,0,1-2.522-2.719,12.291,12.291,0,0,0-1.26-2.456,2.463,2.463,0,0,0-.863-.132s-1.46-.929-1.46-1.194v-1.792a4.4,4.4,0,0,0-.862-1.791l-2.388.2-.532,2.72-.995-1.194.266-1.792-.9-.978A8.156,8.156,0,0,0-1434.4,1931.259Z" fill="url(#linear-gradient)"/>
    <path id="패스_2480" data-name="패스 2480" d="M-1404,1957.78h0l0,0Z" fill="url(#linear-gradient)"/>
    <path id="패스_2481" data-name="패스 2481" d="M-1423.651,1969.835c.5-.171,1-.363,1.193-.46.4-.2,1.791-2.687,2.09-2.687a7.553,7.553,0,0,0,1.592-.9l-.305-1.259c-1.335-.174-1.645-1.336-2.78-.831-1.194.53,0,3.715-2.255.53s-2.522-1.127-2.853-1.26-1.858-.664-1.791-1.394.331-3.25-.067-3.914-1.128.6-1.327-1.261a3.012,3.012,0,0,0-1.858-2.653,5.136,5.136,0,0,0-2.255.066c-1.062.4-2.721-1.725-1.99-2.787s2.255-3.981,2.454-4.246,1.592-2.256,1.129-3.118-2.588-3.848-2.588-3.848l-.664-3.119-1.978-2.46a2.384,2.384,0,0,0-.676.006,2.414,2.414,0,0,0-.512.191l-.484,1.5-.895,1.592a7.4,7.4,0,0,1-.3,2.388c-.3.3-1.592,0-1.592,0a15.568,15.568,0,0,0-2.886.4c-.512.206-1.6.776-1.792,1.294-.222.6.431,1.87.6,2.488a3.774,3.774,0,0,1,.2,1.593,1.887,1.887,0,0,1-1.095,1.194,4.676,4.676,0,0,0-1.393,2.488c.1.6.684,1.553.6,2.09-.039.245-.42.62-.6.8a13.672,13.672,0,0,1-1.2.9l-.3,1.492a4.341,4.341,0,0,1-1.195.2c-.6,0-.995-1.194-.995.2a23.564,23.564,0,0,0,.1,3.185c.1.3.2,2.289.2,2.289v1.891c0,.236-1.12.968-1.885,1.312.232.825.77,1.777.691,2.171-.1.5-1.991.9-1.991,1.493,0-.6,1.891-.995,1.991-1.493.079-.394-.459-1.346-.691-2.171a2.369,2.369,0,0,1-.106-.615,7.469,7.469,0,0,1,.2-2.19c.2-.7-1.194-2.289-1.492-3.085a7.717,7.717,0,0,1-.3-2.388,4,4,0,0,0-.7-1.991,2.073,2.073,0,0,1-.3-1.692,9.667,9.667,0,0,0,.7-2.587c0-.995-.2-.4-.2-.4s-3.369-.212-4.478-.4c-.707-.12-2.077-.812-2.787-.7-.542.088-1.094.7-2.089.7s-.3-.9-.3-1.394.819-2.567.2-2.985c-.589-.4-2.189,1.094-2.587,1.194s-.049-1.274-.3-1.592-1.2-.177-1.592-.3c-.287-.091-1.095-.5-1.095-.5l-2.787-.7-.755.037a.582.582,0,0,0,.059.261,4,4,0,0,1-.083,1.5,18.21,18.21,0,0,1,1.642.886,34.081,34.081,0,0,1-1.024,3.635l.559.644a19.388,19.388,0,0,1-.2,3.185c-.2.4-.1.995-.5,1.294s-2.389,1.692-2.389,1.692a2.685,2.685,0,0,0-2.587.6c-1.294,1.094-2.588,2.09-1.394,2.189s1.692.1,1.692.1l.995.6.2,1.294,1.393,1.293s.5-.5.4.2-.5,2.687-.5,2.687l1.955.349,1.846-1.269,3.449-.552,4.279-.552,4.278-1.794,2.07.138,1.1,2.9,1.326,2.754.468.972,4,5.244.413-.276,1.933.691,5.1,10.9-1.1,5.935,3.589.276,2.208,1.1,2.347-1.8,1.518-1.38,1.656-3.036,3.312,5.935.138,2.345,2.345,5.935,2.485,6.072.162,6.672-.406,2.389,1.571-.594,1.393-2.389.5-4.677a6.37,6.37,0,0,1-.6-3.285c.3-1.393-.6-1.293-.8-1.89s-.7-2.09-.995-3.185-2.09-2.389-2.787-3.483.7-2.19,1-2.886a6.566,6.566,0,0,0,.3-1.991,18,18,0,0,1-.995-3.384c0-.8-.6-.895-2.19-1.89s-1.194-2.687-1.791-2.986-1.791-.6-2.189-1.194,1.791-2.19,2.388-2.886-.4-2.886-.6-3.683,2.986,0,2.986-.3.7-1.692.995-1.692,1.393-.6,1.493-1.1,1.194-.5,1.492-.5a6.649,6.649,0,0,0,1.2-.337" fill="url(#linear-gradient)"/>
    <path id="패스_2482" data-name="패스 2482" d="M-1420.965,1973.356l2.886,1.394s.1-.2,0,1.393-1.991,4.976-.8,5.673a3.509,3.509,0,0,1,1.492,2.786,12.2,12.2,0,0,0,2.787-2.488c0-.3.9-1.393,1.592-.7s2.389-.4,2.389-.4l1.99-1.691a6.171,6.171,0,0,1,2.886,1.89,33.16,33.16,0,0,1,2.19,4.479l.4,2.289,2.886,3.583a41.015,41.015,0,0,1,1.99,3.682,14.408,14.408,0,0,1-1.388,2.228l1.687.956s1.692,1.792,2.189.8.6-2.886,1.692-2.389a9.128,9.128,0,0,0,2.386.472c.3-1.635.8-3.358.8-3.358l-1.99-1.692s.6-2.687-.1-3.085-1.891-.9-2.09-1.891-2.289-1.791-2.289-1.791l-4.976-6.17-2.388-2.19a16.18,16.18,0,0,0-2.09.3c-.8.2-1-2.687-.7-2.886s2.389-1.792,2.389-1.792.9-1.493.5-2.289-.8-.2-.8-.2l-1.194-2.09a29.6,29.6,0,0,1-3.185.4,2.792,2.792,0,0,1-1.493-.5,8.166,8.166,0,0,1-1.194-.8l-1.692-2.688s-.3-1.691-.6-1.691-.8-.9-1.592-.9c-.42,0-.255-.554-.01-1.078-.586.122-1.217.248-1.217.248a8.958,8.958,0,0,0-.6,1.991c.067.332.863,1.459-.664,1.393-.075,0-.136-.022-.206-.031l.305,1.259a7.553,7.553,0,0,1-1.592.9c-.3,0-1.692,2.488-2.09,2.687-.193.1-.695.289-1.193.46,1.628,1.109,2.885,1.829,2.885,1.829Z" fill="url(#linear-gradient)"/>
    <path id="패스_2483" data-name="패스 2483" d="M-1391.709,1997.315a9.128,9.128,0,0,1-2.386-.472c-1.094-.5-1.194,1.393-1.692,2.389s-2.189-.8-2.189-.8l-1.687-.956c-.336.484-.6.857-.6.857a31.989,31.989,0,0,0-3.682-1.791,19.106,19.106,0,0,0-3.483,1.393c-1,.5-2.636-.808-3.285-.3-.825.648.4,4.18.4,4.18l-.7,1.393,1.294,1.493,1.195,4.807,1.38,1.657.276,2.484,2.07.276,1.465,2.4.053.087,1.7-.222,1.115-1.434,2.388-.6a11.5,11.5,0,0,0,3.683-.7c1.791-.7-1.991-1.692-1.891-2.886s1.393-.5,1.393-.5,1.095-.7,1.891-1.094a9.946,9.946,0,0,0,1.891-1.493l.3-2.588s-.1-4.08-.9-4.777C-1392.055,1999.821-1391.944,1998.595-1391.709,1997.315Z" fill="url(#linear-gradient)"/>
    <path id="패스_2484" data-name="패스 2484" d="M-1399.663,1997.479a14.408,14.408,0,0,0,1.388-2.228,41.015,41.015,0,0,0-1.99-3.682l-2.886-3.583-.4-2.289a33.16,33.16,0,0,0-2.19-4.479,6.171,6.171,0,0,0-2.886-1.89l-1.99,1.691s-1.692,1.095-2.389.4-1.592.4-1.592.7a12.2,12.2,0,0,1-2.787,2.488,3.509,3.509,0,0,0-1.492-2.786c-1.195-.7.7-4.081.8-5.673s0-1.393,0-1.393l-2.886-1.394.2-1.692s-1.257-.72-2.885-1.829a6.649,6.649,0,0,1-1.2.337c-.3,0-1.393,0-1.492.5s-1.2,1.1-1.493,1.1-.995,1.393-.995,1.692-3.185-.5-2.986.3,1.194,2.986.6,3.683-2.786,2.289-2.388,2.886,1.592.9,2.189,1.194.2,1.99,1.791,2.986,2.19,1.094,2.19,1.89a18,18,0,0,0,.995,3.384,6.566,6.566,0,0,1-.3,1.991c-.3.7-1.692,1.791-1,2.886s2.488,2.388,2.787,3.483.8,2.587.995,3.185,1.1.5.8,1.89a6.37,6.37,0,0,0,.6,3.285l-.5,4.677-1.393,2.389-1.571.594-.033.186.968,4-.552,1.656-.277,4.692,1.242,1.519,1.518.413,2.346,2.485,2.663,4.862.511.934a44.087,44.087,0,0,1,2.208,5.8c.131.713-.259,2.222,0,2.9.352.912,2.215,2.01,2.622,2.9.348.759.037,2.569.415,3.313a13.9,13.9,0,0,0,2.622,2.484l5.52,3.174,1.518.69.966-1.794-1.793-3.864-1.795-10.9-1.584-3.988-2.694-1.118-4.141-3.45-3.035-.966-.277-4.14-1.656-1.783-.552-3.462-2.76-1.1-1.242-5.106,2.623-4.969.137-3.173.276-5.521,3.174.138.277,3.864,4.416.138,2.224,2.107.4.377,1.242,2.07-1.195-4.807-1.294-1.493.7-1.393s-1.223-3.532-.4-4.18c.649-.509,2.289.8,3.285.3a19.106,19.106,0,0,1,3.483-1.393,31.989,31.989,0,0,1,3.682,1.791s.266-.373.6-.857" fill="url(#linear-gradient)"/>
    <path id="패스_2485" data-name="패스 2485" d="M-1404,1957.78h0l0,0Z" fill="url(#linear-gradient)"/>
    <path id="패스_2486" data-name="패스 2486" d="M-1373.693,1870.552l1.592-1.593,3.782-1.99s.8-1.991.6-2.588-2.437-1.576-3.184-2.189c-.546-.45-1.1-2.051-1.792-2.19-.829-.166-2.147,1.717-2.985,1.593-1.184-.177-3.109-2.22-3.384-3.384-.145-.613.533-1.817.8-2.388.243-.528,1.631-1.609,1.194-1.991-.2-.176-.995.8-.995-.4s2.375-2.785,1.991-3.782c-.2-.519-1.636-.333-2.19-.4-.718-.085-3.583-.2-2.787-.8s4.8-1.859,5.773-3.185c.331-.448.926-2.013.4-2.189-.3-.1-.2.4-.8-.995a20.831,20.831,0,0,0-1.593-2.986,22.791,22.791,0,0,1-1.592-2.986,21.769,21.769,0,0,0-2.588-4.976,8.444,8.444,0,0,0-2.786-1.791,17.872,17.872,0,0,0-1.792,0c-1.492-.227-4.62-.813-5.772-1.791-.339-.289-.434-1.333-.8-1.593a3.953,3.953,0,0,0-1.393-.2l-7.564-1.592-.812-.291c.444.591,1.459,1.248,1.675,1.75a24.674,24.674,0,0,1,.531,3.45c.311,1.416,2.027,4.192,1.592,5.573-.411,1.305-2.956,2.993-4.245,3.451-1.5.533-4.791.208-6.37,0-1.771-.234-5.251-2.544-6.9-1.858-.987.411-1.248,3.1-2.122,3.715-1.212.857-4.378.8-5.839,1.062-1.524.271-4.592,1.4-6.1,1.062-1.346-.3-3.278-2.567-4.511-3.185a45.551,45.551,0,0,0-10.616-3.451c-1.448-.195-4.391.467-5.839.266a25.728,25.728,0,0,1-7.165-2.388c-1.091-.647-2.577-2.894-3.715-3.451-2.235-1.091-7.55-2.61-9.82-1.592a4.988,4.988,0,0,0-1.857,2.92c-.113.747.585,2.192.8,2.919.251.866,1.541,2.686,1.061,3.45-.464.739-2.578.567-3.449.531-1.7-.071-4.976-1.194-6.635-1.592s-4.97-1.218-6.636-1.593c-1.256-.283-3.757-1.159-5.041-1.062a9.688,9.688,0,0,0-4.247,1.592c-.958.843-1.2,4.038-2.388,4.512-.779.312-2.356-1.2-3.185-1.061a1.4,1.4,0,0,0-.465.187c-.056.032-.113.076-.169.115a3.429,3.429,0,0,0-.316.242c-.07.059-.14.121-.21.187-.095.09-.191.183-.288.282s-.169.17-.255.261h0l.045.317,1.791,4.379,4.777.8,5.972,3.384,3.98,7.365s-1.99,2.587.6,2.388l4.18.4h4.578l3.583,1.394,5.573,1.592,2.389,1.791,3.781,3.583,1.394,2.189,1.99,1.593,1.393,3.184,2.588.8s2.171,2.584,3.185,2.985a7.632,7.632,0,0,0,3.383,0c.543-.128,1.467-1.181,1.991-.995.567.2.869,1.6,1,2.189.148.681-.491,2.294,0,2.787.669.669,2.916-.377,3.782,0,.937.407,1.886,2.505,2.786,2.986,1.38.734,4.981,2.008,6.171.995.493-.42-.427-2.1,0-2.588,1.027-1.168,4.865-1.643,6.17-.8.872.565,1.407,2.964,1.194,3.981-.173.83-2.308,1.748-2.189,2.587.175,1.244,3.019,2.306,4.179,2.787.705.291,2.269.342,2.986.6,1.008.357,3.1,1.17,3.782,1.991.636.76.606,2.982,1.194,3.781.759,1.031,4.578,3.185,4.976,1.2s-1.99-2.588-1.99-3.583a7.288,7.288,0,0,1,1.791-3.583,11.6,11.6,0,0,1,2.986-2.189c.468-.18,1.628.144,1.99-.2.476-.451.233-1.955.4-2.588a7.664,7.664,0,0,1,.6-1.592,13.847,13.847,0,0,1,2.986-3.185c1.415-.944,4.94-1.468,6.369-2.388.652-.419,2.126-1.419,2.19-2.19.071-.853-1.852-1.941-1.991-2.786-.107-.669.7-1.919.8-2.588.067-.443-.308-1.466,0-1.791.618-.652,2.728.069,3.583-.2.726-.227,1.834-1.506,2.588-1.593a5.991,5.991,0,0,1,2.388.8c1.086.546,2.928,2.181,3.981,2.787.619.355,1.975,1.557,2.588,1.194s-.311-2.31.2-2.786c.474-.441,1.99,0,2.587,0s4.18-.8,4.18-.8" fill="url(#linear-gradient)"/>
    <path id="패스_2487" data-name="패스 2487" d="M-1373.693,1870.552s-3.583.8-4.18.8-2.113-.441-2.587,0c-.51.476.4,2.431-.2,2.786s-1.969-.839-2.588-1.194c-1.053-.606-2.9-2.241-3.981-2.787a5.991,5.991,0,0,0-2.388-.8c-.754.087-1.862,1.366-2.588,1.593-.855.268-2.965-.453-3.583.2-.308.325.067,1.348,0,1.791-.1.669-.9,1.919-.8,2.588.139.845,2.062,1.933,1.991,2.786-.064.771-1.538,1.771-2.19,2.19-1.429.92-4.954,1.444-6.369,2.388a13.847,13.847,0,0,0-2.986,3.185,7.664,7.664,0,0,0-.6,1.592c-.165.633.078,2.137-.4,2.588-.362.343-1.522.019-1.99.2a11.6,11.6,0,0,0-2.986,2.189,7.288,7.288,0,0,0-1.791,3.583c0,.995,2.388,1.592,1.99,3.583s-4.217-.164-4.976-1.2c-.588-.8-.558-3.021-1.194-3.781-.684-.821-2.774-1.634-3.782-1.991-.717-.255-2.281-.306-2.986-.6-1.16-.481-4-1.543-4.179-2.787-.119-.839,2.016-1.757,2.189-2.587.213-1.017-.322-3.416-1.194-3.981-1.305-.847-5.143-.372-6.17.8-.427.485.493,2.168,0,2.588-1.19,1.013-4.791-.261-6.171-.995-.9-.481-1.849-2.579-2.786-2.986-.866-.377-3.113.669-3.782,0-.491-.493.148-2.106,0-2.787-.126-.587-.428-1.988-1-2.189-.524-.186-1.448.867-1.991.995a7.632,7.632,0,0,1-3.383,0c-1.014-.4-3.185-2.985-3.185-2.985l-2.588-.8-1.393-3.184-1.99-1.593-2.787,2.19,2.389,2.189-3.185,1.593-2.588-.2-1.99,4.976-.995,2.786,2.587,1.991-2.786,1.592-2.588-.6s-3.184,1.791-3.184,2.985,1.754,3.849,2.587,4.976c.439.591,1.592,1.991,1.393,2.588-.169.51-1.943,1.33-3.069,1.538l.482,1.448.8,2.985-1.592,3.782s3.545,1.595,4.777,1.99c.633.2,1.974.345,2.587.6,1.137.468,3.014,2.2,4.18,2.587,1.092.362,3.483.052,4.578.4,1.042.328,2.714,1.962,3.782,2.19.93.2,2.877-.686,3.782-.4,1.009.319,2.159,2.524,3.184,2.786.89.227,2.718-.49,3.583-.8.944-.335,2.586-1.886,3.583-1.791,1.06.1,2.7,1.769,3.383,2.587,1.47,1.76,2.936,6.236,4.18,8.161.692,1.07,3.228,2.706,3.185,3.981-.012.373-.39.763-.833,1.144l.9.978-.266,1.792.995,1.194.532-2.72,2.388-.2a4.4,4.4,0,0,1,.862,1.791v1.792c0,.265,1.46,1.194,1.46,1.194a2.463,2.463,0,0,1,.863.132,12.291,12.291,0,0,1,1.26,2.456,33.877,33.877,0,0,0,2.522,2.719s-.465,1.792.2,2.257a21.252,21.252,0,0,0,2.521,1.26l2.189-.862s1.326-1.128.729-2.323-.8-.929-1.127-1.924a8.46,8.46,0,0,1-.6-2.19c0-.53.331-.53,1.525-1.459s.664-2.454,1.195-2.786a15.6,15.6,0,0,1,2.256-.863,13.217,13.217,0,0,1,1.858,1.593v1.525l1.658.266s.067,2.388-.6,2.388-3.583-.464-3.782-.332.863,2.588.863,2.588a6.6,6.6,0,0,0,.067,2.256c.264.332,2.52.4,2.52.4a25.961,25.961,0,0,0-.6,2.587c0,.4,1.327,2.456,1.327,2.854s-.066,1.326-.066,2.056.73,1.459.73,1.659a17.325,17.325,0,0,0,2.189,1.791l3.583.8s2.587,0,1.326,1.062-3.715,1.26-3.715,1.526-2.256,1.592-3.316,2.256l-1.063.663a7.274,7.274,0,0,0-1.791-.4c-.664,0-3.65.862-4.247.995-.185.041-.441.1-.706.15-.245.524-.41,1.078.01,1.078.8,0,1.293.9,1.592.9s.6,1.691.6,1.691l1.692,2.688a8.166,8.166,0,0,0,1.194.8,2.792,2.792,0,0,0,1.493.5,29.6,29.6,0,0,0,3.185-.4l1.194,2.09s.4-.6.8.2-.5,2.289-.5,2.289-2.09,1.592-2.389,1.792-.1,3.085.7,2.886a16.18,16.18,0,0,1,2.09-.3l2.388,2.19,4.976,6.17s2.09.8,2.289,1.791,1.393,1.493,2.09,1.891.1,3.085.1,3.085l1.99,1.692s-1.592,5.474-.8,6.17.9,4.777.9,4.777l-.3,2.588a9.946,9.946,0,0,1-1.891,1.493c-.8.4-1.891,1.094-1.891,1.094s-1.294-.7-1.393.5,3.682,2.189,1.891,2.886a11.5,11.5,0,0,1-3.683.7l-2.388.6-1.115,1.434,1.473-.192.276,3.174.276,4.14,2.208-.967,1.519-2.206,2.208-.967.966-2.346v-2.208l2.346.69,4.555-3.174,2.07-2.209-.552-3.863,1.241-1.657-2.209-4.692-.689-4.278-6.485-9.109-2.9-2.9-2.485-3.174-2.208-1.932-.966-4.555,1.656-3.312.691-2.208,2.208-1.794,1.941-1.757.956-.865h2.346l2.456,1.432.857.5.44.474,2.743-2.005,1.194-2.056s.2-2.787.266-2.986,1.194-1.327,1.659-1.99a8.107,8.107,0,0,0,1.459-2.787c0-.663-.73-2.853-.4-3.185s1.99-2.255,2.189-2.123.756,2.045,1.328,1.924c.557-.117-.1-1.883.331-2.255.515-.445,2.72,0,2.72,0l3.318-.664s1.061.266,1.26.664a7.929,7.929,0,0,1,.4,1.326,4.79,4.79,0,0,1-.463.73,2.512,2.512,0,0,0-.333,1.061l1.393.133h4.115s-.2-1.26.8-.6.861.2,1.592,1.062a7.547,7.547,0,0,0,1.194,1.194,3.154,3.154,0,0,0-.4.995,2.208,2.208,0,0,0,.5,1.5l.724-.631,3.16-2.753,2.07-3.036,2.069-2.9.416-3.588,2.069-6.624,1.518-3.313.829-4.968-2.208-2.761h-2.76l2.621-2.9-2.208-5.521-2.9-2.345-3.312-4.969-3.313-3.726-4-3.727,2.485-3.449,2.621-3.174,2.622-.967-.137-1.656-4.97-1.38-3.587,1.932-4.278-1.242-1.656-3.312-3.45.276-2.9-2.484.552-1.794,2.623-.276,2.207-1.656-.275-2.208.653-.2,2.107-.632.913-1.523-3.681-3.68ZM-1404,1957.78l-.005,0,.005,0Z" fill="url(#linear-gradient)"/>
    <path id="패스_2488" data-name="패스 2488" d="M-1342.842,1859.6c.333-.821,3.451-.8,3.451-.8l2.919-2.123-1.061-7.166-.8-4.777a23.463,23.463,0,0,0-5.043-.8c-1.8.233-4.873,3.345-6.635,2.92-1.33-.321-2.382-3.391-3.449-4.247a30.1,30.1,0,0,0-4.247-2.123,20.665,20.665,0,0,0-3.184-1.592c-.775-.183-2.4.1-3.185,0a14.173,14.173,0,0,1-3.981-1.062c-2.113-1.218-5.079-5.276-6.9-6.9a91.529,91.529,0,0,0-9.023-7.165c-1.684-1.056-5.179-3.4-7.166-3.451-1.367-.034-3.721,1.77-5.043,2.124-1.548.414-5.755-.687-6.369.8a.671.671,0,0,0,.183.638l.812.291,7.564,1.592a3.953,3.953,0,0,1,1.393.2c.362.26.457,1.3.8,1.593,1.152.978,4.28,1.564,5.772,1.791a17.872,17.872,0,0,1,1.792,0,8.444,8.444,0,0,1,2.786,1.791,21.769,21.769,0,0,1,2.588,4.976,22.791,22.791,0,0,0,1.592,2.986,20.831,20.831,0,0,1,1.593,2.986c.6,1.393.494.894.8.995.528.176-.067,1.741-.4,2.189-.978,1.326-4.976,2.588-5.773,3.185s2.069.711,2.787.8c.554.065,1.99-.121,2.19.4.384,1-1.991,2.588-1.991,3.782s.8.222.995.4c.437.382-.951,1.463-1.194,1.991-.263.571-.941,1.775-.8,2.388.275,1.164,2.2,3.207,3.384,3.384.838.124,2.156-1.759,2.985-1.593.694.139,1.246,1.74,1.792,2.19.747.613,2.985,1.592,3.184,2.189s-.6,2.588-.6,2.588l-3.782,1.99-1.592,1.593-.2,4.445,3.681,3.68.743-1.237,2.346.137,1.38,2.347.552,2.484-.414,2.484,2.9.276,3.725-4,2.534-.306.8.435,1.79-4.174,1.99-1.99s1.194-2.389,2.255-2.389,2.92,1.592,2.92,1.592l.929-2.521,6.1-2.256,1.23.194.5-1.219.208-.388,1.233-1.468-2.906-1.763S-1343.434,1861.071-1342.842,1859.6Z" fill="url(#linear-gradient)"/>
  </g>
</svg>
