<svg id="그룹_1052" data-name="그룹 1052" xmlns="http://www.w3.org/2000/svg" xmlns:xlink="http://www.w3.org/1999/xlink" width="1235.062" height="600.149" viewBox="0 0 1235.062 600.149">
  <defs>
    <linearGradient id="linear-gradient" x1="-23.586" y1="27.189" x2="-6.389" y2="-16.952" gradientUnits="objectBoundingBox">
      <stop offset="0" stop-color="#44994c"/>
      <stop offset="1" stop-color="#6cb774"/>
    </linearGradient>
    <clipPath id="clip-path">
      <rect id="사각형_575" data-name="사각형 575" width="1235.062" height="600.149" fill="url(#linear-gradient)"/>
    </clipPath>
    <clipPath id="clip-path-2">
      <path id="패스_2483" data-name="패스 2483" d="M1088.273,408.166c.4.8-.8,1.46-.8,1.46l.53,1.99-1.326,2.655-.266,2.255-1.46,2.388.93,2.124-2.388,2.521-1.329,5.043-1.194,2.653-1.725.8-3.45-.264a10.509,10.509,0,0,0-1.592-2.125c-.663-.53-3.715-1.724-4.113-2.652s-3.184-1.726-3.184-1.726-.531-3.317-1.991-3.716-3.053-.132-3.053-1.326,1.991-3.319,1.991-3.319-.929-2.52.8-2.652,3.849-4.645,3.849-4.645l-.665-1.991-2.388.4-1.459-1.326-2.522,1.194-4.245-1.726-2.787-.53-1.592-2.124-2.256.4.8,1.725s1.593,1.459.53,2.256a10.723,10.723,0,0,1-3.582,1.194s-.663-1.858-2.123-1.062a26.727,26.727,0,0,0-3.583,2.654v1.857c0,.4-1.624,1.178-1.99,1.726-.188.28-.1,1.032-.267,1.327-.2.346-.938.753-1.193,1.062-.371.446-1.4,1.447-1.2,1.99.235.619,2.29.177,2.523.8.175.474-.609,1.5-1.062,1.724-.627.313-2.094-.169-2.787-.266-.734-.1-2.388-.013-2.919-.53-.342-.331-.108-1.481-.4-1.858-.409-.527-1.847-.8-2.389-1.194-.57-.41-1.287-2.006-1.99-1.991-.493.013-.837,1.414-1.328,1.46-.33.033-.749-.682-1.06-.8a10.166,10.166,0,0,0-2.257-.132l-.664,1.857-2.254.265v1.2l.132,2.655s-2.256-.532-3.185.132a1.9,1.9,0,0,0-.663,1.858l.795,2.123-2.122.132-1.859.531-.132,2.389,1.327.8-1.2,1.194-1.724-.531s-.717-3.026-1.592-3.186c-.624-.111-1.429,1.26-1.859,1.727a8.768,8.768,0,0,0-1.856,2.388c-.143.517.269,1.588.264,2.123,0,.469.05,1.51-.264,1.858-.276.305-1.254.168-1.592.4-.944.641-2.655,3.714-2.655,3.714l-1.99,2.123-3.451,1.99-2.919-.928L993,443.994l-3.449.663-2.124,1.991-4.777.4-2.786,1.594-1.593,2.256-3.715,1.724-1.46,1.99-1.326-1.062-.267,2.389s.532,1.858-.132,2.654-2.786,2.655-2.786,4.379v4.246a3.436,3.436,0,0,1,.8,3.186c-.4,2.122-1.171,3.643-1.99,3.184-.783-.439.754-2.937.132-3.582a1.936,1.936,0,0,0-1.991,0c-.507.578.4,2.282.4,3.051,0,.934-.4,2.919.4,3.716s.933,3.107,1.328,4.113c.34.871,1.326,1.991,1.06,3.583a22.582,22.582,0,0,0-.265,5.97c.265,1.593,1.2,3.982,1.2,5.442a8.56,8.56,0,0,1-1.46,3.583l-1.327,3.583-1.592,1.592s-2.388.4-2.522,1.592a3.674,3.674,0,0,0,.93,2.388s1.194-.265,1.194.663,1.856,2.92,2.653,3.052,3.716.8,5.042-.132,6.5-4.115,7.3-4.777a7.524,7.524,0,0,1,5.175-1.328c1.858.4,6.369.93,6.369.93s5.175-.8,5.309-1.858,2.388-3.184,3.05-2.919,3.717-.664,3.717-.664,2.521-2.122,3.981-2.122,5.041-.4,5.041-.4a51.152,51.152,0,0,1,5.043-1.726c1.326-.265,1.326-.8,1.326-.8l.266-.53,5.84-.132s3.98-.665,4.777.53a6.324,6.324,0,0,0,3.582,2.388c.8,0,4.643,1.46,4.643,2.257s1.2,2.786,1.2,4.113-1.2,4.51-.4,4.777,1.719.746,2.257.53c.418-.166.745-1.137,1.062-1.459,1.01-1.026,3.185-2.388,4.511-3.582s4.511-4.645,4.644-3.319-1.166,3.689-1.99,4.645c-1.044,1.21-4.114,3.583-4.247,4.777s1.314.876,1.726.664a32.524,32.524,0,0,0,3.848-3.053s-1.4,2.684-1.858,3.583c-.169.331-.849,1.007-.663,1.327.283.489,2.255.133,2.255.133a10.254,10.254,0,0,1,.8,4.245c0,2.655-1.724,4.38-.53,5.309s3.451,2.521,3.451,2.521l2.918,1.326,5.175.532,2.521-2.124,1.726-.264,1.458-.93.665,2.256,1.724,1.327,1.062.664s5.7-1.461,5.972-3.185,2.256-1.858,2.256-1.858,3.714.133,4.643-.4,5.839-2.918,5.573-4.244,3.98-6.106,3.98-6.106,5.574-3.714,4.778-5.175,4.911-4.643,4.911-4.643l4.112-3.716,2.521-3.317s3.318-.664,3.185-2.256,1.726-5.041,1.726-5.041l1.99-4.513,2.787-5.837s-.4-2.125-.8-2.125,1.99-6.235,1.99-6.235l-.133-2.655s-3.571-5.26-4.91-6.9c-.43-.526-1.681-1.334-1.858-1.99-.2-.723.963-2.233.664-2.92-.367-.844-2.648-1.107-3.184-1.857-.869-1.211-.4-4.579-1.2-5.839-.266-.42-1.57-.7-1.593-1.195-.038-.9,2.521-2.256-.131-3.582s-4.513-4.247-6.238-4.379-.8-6.767-.8-6.767.53-4.247,0-4.512-1.594-4.91-.929-6.1-1.727-2.255-1.727-2.255-.8-3.185-1.724-2.523l-.928.665s-.4,1.326-1.461.266,0-4.379,0-4.379l-1.592-8.891-1.326-2.654s-3.981,5.44-3.582,6.236" fill="url(#linear-gradient)"/>
    </clipPath>
    <clipPath id="clip-path-3">
      <path id="패스_2484" data-name="패스 2484" d="M1061.6,318.5c-.21.108-.257.711-.166.929a1.1,1.1,0,0,0,.763.53c.186-.016.53-.53.53-.53a5.26,5.26,0,0,0-.564-.664,1.193,1.193,0,0,0-.5-.278.128.128,0,0,0-.059.013" fill="url(#linear-gradient)"/>
    </clipPath>
    <clipPath id="clip-path-4">
      <path id="패스_2485" data-name="패스 2485" d="M1037.98,366.235a.988.988,0,0,1-.189-.021c-.135-.023-.286-.044-.341.021-.238.286.187,1.1.266,1.46.115.537.264,1.061,1.99.929a6.806,6.806,0,0,1,2.521,0,9.819,9.819,0,0,1,2.521.8c.5.34.532.664,2.388.266s.134-1.062.134-1.062a14.946,14.946,0,0,0-2.787-1.858,9.885,9.885,0,0,0-2.388,0c-.465.017-1.43.315-1.858.133-.238-.1-.425-.7-.664-.8a.8.8,0,0,0-.3-.048c-.41,0-.981.168-1.292.18" fill="url(#linear-gradient)"/>
    </clipPath>
    <clipPath id="clip-path-5">
      <path id="패스_2486" data-name="패스 2486" d="M1054.038,355.222a14.765,14.765,0,0,0-2.655.8l-2.123,1.46-.929-.531-.929.664a7.755,7.755,0,0,0,.929,1.856c.4.4,2.124.665,3.848,1.062s.928,1.062,1.991,2.123c.643.645,1.481.313,2.515-.018a6.074,6.074,0,0,1,2.261-.379c2.123.132-.505,2.123-1.062,2.521-.651.467-2.918,1.99-2.786,1.592s-1.784-.321-1.991.133c-.569,1.256,1.6,3.88,2.523,4.909a2.27,2.27,0,0,0,1.724.665c.53-.134-.132-.93.8-2.257s1.724.133,2.786.4,2.853,2.68,3.981,3.318c.917.519,3.179.44,4.113.928.479.251,1.085,1.277,1.592,1.46.874.316,2.786-.133,3.717-.133s2.357,3.565,2.786,4.91c.389,1.22,2.223,3.092,1.458,4.91-.183.438-1.374.474-1.724.8-.645.594-2.166,2.294-1.725,3.052.175.3,0,0-.4,1.327s.438,1.223.8,1.194c.231-.018.557-.012.918,0,.94.017,2.108.034,2.4-.394s-.363-1.736,0-2.123c.7-.752,3.211-.763,4.113-.265.729.4,1.012,2.324,1.592,2.918a14.466,14.466,0,0,0,2.522,1.46,11.784,11.784,0,0,0,2.255,1.327c1.528.354,5.175-.4,6.237-.663s1.46-3.051,1.46-3.051l1.326-2.124,2.123-1.726,3.451,1.726,3.714,1.459s2.257,3.052,1.727,4.777,3.317,4.114,5.041,4.114,3.319-.133,4.379-.133a2.606,2.606,0,0,1,1.726.663,19.917,19.917,0,0,0,2.786,1.46l2.389-.8-1.592-2.123-1.461-1.459-1.592.132-.53-3.317a19.808,19.808,0,0,1-2.92,0c-1.061-.134-1.2-2.256-1.2-2.256s-.263-1.46-1.194-.928-1.06-1.858-1.06-1.858l-1.859-1.593a8.819,8.819,0,0,1,0-2.786c.267-1.2,1.725-.665,3.053-1.327s-.645-2.011-1.194-2.389-1.726-1.194-2.523-.929-.8-1.195-1.458-1.326a12.845,12.845,0,0,0-2.256.131c-.664,0-1.461-1.325-.4-1.724s-.4-2.389-.4-2.389-1.858-1.99-2.786-1.99-1.724-1.99-1.724-1.99l-2.523-.8s-1.592-1.859-3.184-1.593-4.113-1.858-4.113-1.858l-3.053-1.326a7.684,7.684,0,0,1-1.592-.133c-.423-.157-1.06-.854-1.459-1.061a63.393,63.393,0,0,0-6.635-2.257,30.024,30.024,0,0,0-3.451-1.194,14.875,14.875,0,0,0-2.254,0c-.683.025-1.859.133-1.329,2.388s-1.7.22-2.254.134a3.092,3.092,0,0,0-1.859.662c-.963.9-1.724,3.982-4.112,3.318s-1.117-1.011-1.062-1.459c.1-.838-2.135-1.583-2.389-2.389-.283-.9.882-2.8.664-3.715-.078-.323-.6-.793-.8-1.061-.308-.427-.756-1.438-1.195-1.726-1.18-.775-4-1.2-5.617-1.2-.125,0-.244,0-.353.008" fill="url(#linear-gradient)"/>
    </clipPath>
    <clipPath id="clip-path-6">
      <path id="패스_2487" data-name="패스 2487" d="M1059.079,538.473c-.471.539-1.521,1.674-1.593,2.388-.078.783,1.42,2.163,1.2,2.918-.184.618-1.823.89-2.123,1.461a4.917,4.917,0,0,0,0,3.051,3.846,3.846,0,0,0,1.724,1.726c1.277.366,5.176-1.194,5.176-1.194l4.378-4.38s6.1-7.033,4.248-7.164a16.153,16.153,0,0,0-5.044,1.06s-3.316-.265-4.245-.4-.958-1.339-1.46-1.459a.5.5,0,0,0-.115-.013c-.72,0-1.671,1.467-2.141,2" fill="url(#linear-gradient)"/>
    </clipPath>
    <clipPath id="clip-path-7">
      <path id="패스_2488" data-name="패스 2488" d="M1158.733,539s-1.31,1.867-1.99,2.122a2.624,2.624,0,0,1-1.306-.138,2.441,2.441,0,0,0-1.349-.126c-1.084.487-2.015,2.944-2.786,3.847a14.638,14.638,0,0,1-2.257,2.256c-1.34.866-4.418,2.627-5.971,2.257-.745-.178-1.458-1.592-3.051.264s-5.839,2.654-5.839,2.654.928,2.787-2.388,3.451-9.024,4.511-9.024,4.511-1.061.929,0,1.461a26.949,26.949,0,0,0,3.582,1.194s2.257-.664,2.389.132,2.786-.266,2.786-.266,5.286-2.263,6.768-3.449c1.689-1.352,3.849-4.645,6.5-5.707s7.564-1.06,8.226-1.592,7.166-6.768,7.166-6.768,3.716-.928,4.645-3.184,3.052-4.91,1.592-4.643-1.991,2.786-3.185,2.52-.664-1.99-.664-1.99l-1.326-.665Z" fill="url(#linear-gradient)"/>
    </clipPath>
    <clipPath id="clip-path-8">
      <path id="패스_2489" data-name="패스 2489" d="M1179.832,509.676l-.8,1.593.53,7.165a6.1,6.1,0,0,1-.664,4.778c-1.458,2.522-2.122,4.645-3.184,5.175s-4.379,1.328-4.379,2.786,1.46,1.726,1.726,2.786-2.655,4.247-2.655,4.247-3.582,2.787-1.459,2.787a20.1,20.1,0,0,0,4.776-.8l6.9-6.5,1.725-3.053s.132-1.724,2.787-1.724,1.592-1.727,3.184-2.125,5.175-4.245,3.981-3.98-4.113,2.388-4.909,1.857l-2.388-1.592s1.06-3.184-.135-3.184-2.652.8-2.786-.266,2.256-5.041,2.256-5.041,1.327-1.461-.132-2.124-3.053-3.185-3.053-3.185Z" fill="url(#linear-gradient)"/>
    </clipPath>
    <clipPath id="clip-path-9">
      <path id="패스_2490" data-name="패스 2490" d="M1131.4,373.6l-2.189,1.493-.995,2.489-2.489.9-.8-.8s-2.011.335-2.688.4a23.241,23.241,0,0,1-2.388.1c-.552-.026-1.791-.683-2.19-.3-.415.4-.058,1.837.3,2.289.44.555,1.993.754,2.687.9a20.633,20.633,0,0,0,2.488.2c.871.035,3.484,0,3.484,0l1.492-1.294,2.29-1.394,2.387-3.682.6-1.99-2.588-.8Z" fill="url(#linear-gradient)"/>
    </clipPath>
    <clipPath id="clip-path-10">
      <path id="패스_2491" data-name="패스 2491" d="M1128.014,365.539c-.352.3.056,1.486.4,1.791a1.678,1.678,0,0,0,1.041.142,2.273,2.273,0,0,1,.85.057,13.522,13.522,0,0,1,2.388,2.089c.63.566,2.488,2.29,2.488,2.29s-.295,1.875.1,2.289a1.111,1.111,0,0,0,1.094.1c.451-.429-.1-2.489-.1-2.489s-1.127-1.11-1.493-1.493c-.56-.584-1.581-1.852-2.19-2.388a12.58,12.58,0,0,0-1.692-1.194c-.577-.318-1.808-1.307-2.538-1.307a.521.521,0,0,0-.347.113" fill="url(#linear-gradient)"/>
    </clipPath>
    <clipPath id="clip-path-11">
      <path id="패스_2492" data-name="패스 2492" d="M1142.146,377.381c-.087.449.693,1.183.9,1.593.252.509.618,1.594.9,2.09a12.649,12.649,0,0,0,1.692,2.388c.357.334,1.791,1.1,1.891.5s.476-1.373.3-1.792c-.159-.375-1.011-.7-1.295-.995-.506-.527-1.17-1.874-1.691-2.388-.281-.277-1.063-.578-1.294-.9-.2-.273-.075-1.194-.4-1.294a.273.273,0,0,0-.072-.01,1.349,1.349,0,0,0-.922.806" fill="url(#linear-gradient)"/>
    </clipPath>
    <clipPath id="clip-path-12">
      <path id="패스_2493" data-name="패스 2493" d="M1217.948,342.912c-.333.235-.361,1.137-.507,1.508-.182.464-.663,1.356-.821,1.825a11.459,11.459,0,0,0-.566,2.459c-.011.411.309,1.695.742,1.373s1.136-.6,1.3-.967c.149-.326-.124-1.01-.1-1.354.052-.618.532-1.842.566-2.458a10.743,10.743,0,0,1-.156-1.292c.06-.284.713-.8.6-1.042-.058-.12-.284-.174-.519-.174a1.047,1.047,0,0,0-.541.122" fill="url(#linear-gradient)"/>
    </clipPath>
    <clipPath id="clip-path-13">
      <path id="패스_2494" data-name="패스 2494" d="M1150.007,384.049c-.055.347.733.761,1,1,.238.213.995.8.995.8l.9-.8s-1.293-1.431-1.891-1.494l-.046,0c-.3,0-.906.24-.95.5" fill="url(#linear-gradient)"/>
    </clipPath>
    <clipPath id="clip-path-14">
      <path id="패스_2495" data-name="패스 2495" d="M1218.909,350.511c-.056.348.733.76.995,1,.238.213.995.8.995.8l.9-.8s-1.291-1.431-1.891-1.493a.323.323,0,0,0-.045,0c-.3,0-.908.239-.95.5" fill="url(#linear-gradient)"/>
    </clipPath>
    <clipPath id="clip-path-15">
      <path id="패스_2496" data-name="패스 2496" d="M1149.411,388.926a1.244,1.244,0,0,0,.3,1.293c.2.1.8-.4.8-.4v-1a4.657,4.657,0,0,0-.523-.033c-.243,0-.494.027-.571.133" fill="url(#linear-gradient)"/>
    </clipPath>
    <clipPath id="clip-path-16">
      <path id="패스_2497" data-name="패스 2497" d="M1152.695,389.822l.4.6s1.268.9,1.692,1.2c.322.226.92,1.02,1.294.895.3-.1.508-.9.4-1.194-.184-.491-1.353-.806-1.791-1.1s-1.692-1.194-1.692-1.194Z" fill="url(#linear-gradient)"/>
    </clipPath>
    <clipPath id="clip-path-17">
      <path id="패스_2498" data-name="패스 2498" d="M1158.069,387.035c-.195.012-.387.437-.5.6-.144.212-.6.661-.5.9.15.356,1.148.226,1.492.4.509.252,1.295,1.118,1.792,1.393a16.766,16.766,0,0,0,1.891.7,5.477,5.477,0,0,0-.5-1.493c-.418-.491-1.762-.822-2.289-1.194-.384-.27-.9-1.294-1.373-1.294h-.02" fill="url(#linear-gradient)"/>
    </clipPath>
    <clipPath id="clip-path-18">
      <path id="패스_2499" data-name="패스 2499" d="M1163.045,394.9c-.466.224-1.541.7-1.692,1.194a2.006,2.006,0,0,0,.5,1.294,8.5,8.5,0,0,0,1.891,1.1l1.3-.6-.9-1.991s.552-1.142.3-1.393a.29.29,0,0,0-.21-.071,3.667,3.667,0,0,0-1.183.469" fill="url(#linear-gradient)"/>
    </clipPath>
    <clipPath id="clip-path-19">
      <path id="패스_2500" data-name="패스 2500" d="M1165.036,391.812c-.062,1.047,1.592,3.881,1.592,3.881l1.194.9.5-1s-1.019-1.159-1.294-1.592c-.46-.721-.636-3.06-1.493-3.085h0c-.256,0-.478.642-.493.9" fill="url(#linear-gradient)"/>
    </clipPath>
    <clipPath id="clip-path-20">
      <path id="패스_2501" data-name="패스 2501" d="M1167.722,400.172a4.938,4.938,0,0,0,.7,1.393c.3.244,1.18.624,1.493.4s.1-1.592.1-1.592l-1.792-.4Z" fill="url(#linear-gradient)"/>
    </clipPath>
    <clipPath id="clip-path-21">
      <path id="패스_2502" data-name="패스 2502" d="M1223.4,355.954l-.141.891s1.041,1.031,1.407.845c.252-.13.191-.862.095-1.127-.115-.311-.94-.938-.94-.938Z" fill="url(#linear-gradient)"/>
    </clipPath>
    <clipPath id="clip-path-22">
      <path id="패스_2503" data-name="패스 2503" d="M1227.579,359s.411.492.61.516.706-.17.751-.376c.032-.146-.263-.37-.376-.469a4.115,4.115,0,0,0-.468-.281Z" fill="url(#linear-gradient)"/>
    </clipPath>
    <clipPath id="clip-path-23">
      <path id="패스_2504" data-name="패스 2504" d="M1230.254,361.208c.045.233.573.436.8.516.2.072.712.259.845.093s-.282-.844-.282-.844l-.7-.7s-.712.658-.656.939" fill="url(#linear-gradient)"/>
    </clipPath>
    <clipPath id="clip-path-24">
      <path id="패스_2505" data-name="패스 2505" d="M1233.068,362.615s.541.4.75.376c.167-.019.5-.257.517-.422.028-.234-.564-.752-.564-.752Z" fill="url(#linear-gradient)"/>
    </clipPath>
  </defs>
  <g id="그룹_1002" data-name="그룹 1002">
    <g id="그룹_1001" data-name="그룹 1001" clip-path="url(#clip-path)">
      <path id="패스_2475" data-name="패스 2475" d="M1171.007,445.055c1.205,0,2.976,2.09,3.782,2.986a48.121,48.121,0,0,1,3.383,5.374,8.022,8.022,0,0,1-1.99,0,6.564,6.564,0,0,1-2.588-1.991c-.4-.646-.214-2.327-.6-2.985-.5-.854-3.005-1.6-2.986-2.588.007-.319.677-.794,1-.8" fill="url(#linear-gradient)"/>
      <path id="패스_2476" data-name="패스 2476" d="M1185.537,419.976c-.512.4.079,1.945,0,2.588-.05.407-.6,1.233-.4,1.592.227.415,1.463.258,1.791.6.613.634.373,2.76,1,3.384.248.25,1.146.449,1.393.2.356-.361-.237-1.51-.4-1.991-.243-.717-.7-2.3-1.327-2.719-.207-.14-.811.1-.995-.067-.385-.35-.278-1.538-.333-2.058-.034-.329.137-1.063-.065-1.326-.106-.137-.527-.3-.664-.2" fill="url(#linear-gradient)"/>
      <path id="패스_2477" data-name="패스 2477" d="M1190.911,422.1c-.128.085-.333.32-.465.4-.351.211-1.457.194-1.525.6-.052.3.637.7.928.8.176.056.622-.214.731-.065.147.2-.316.691-.4.928s-.367.758-.266,1c.133.315.874.782,1.194.664.364-.137.414-1.089.53-1.461.136-.424.465-1.724.465-1.724a4.022,4.022,0,0,1-.664-.8c-.05-.14.128-.52,0-.6s-.407.183-.53.264" fill="url(#linear-gradient)"/>
      <path id="패스_2478" data-name="패스 2478" d="M1189.584,428.866c-.023.426,1.06,1.328,1.06,1.328l.664-.333s.119-.634,0-.8c-.133-.18-.69-.118-.863-.264a2.037,2.037,0,0,1-.264-.532s-.586.387-.6.6" fill="url(#linear-gradient)"/>
      <path id="패스_2479" data-name="패스 2479" d="M1189.849,432.715l-.729.53s.007,1.468.4,1.593c.269.087.743-.473.863-.73a4.093,4.093,0,0,0,0-1.326Z" fill="url(#linear-gradient)"/>
      <path id="패스_2480" data-name="패스 2480" d="M1190.645,437.823l.8-.065a3.947,3.947,0,0,1,.134.53c.009.151.059.516-.067.6-.177.114-.667-.1-.8-.266s-.067-.8-.067-.8" fill="url(#linear-gradient)"/>
      <path id="패스_2481" data-name="패스 2481" d="M1190.978,441.274c.159-.238,1.127-.2,1.127-.2v.995s-.177.773-.4.8-.44-.471-.53-.664c-.1-.214-.333-.731-.2-.928" fill="url(#linear-gradient)"/>
      <path id="패스_2482" data-name="패스 2482" d="M1191.973,444.259s.1.666.264.8a.759.759,0,0,0,.664.067c.185-.144.133-.93.133-.93Z" fill="url(#linear-gradient)"/>
    </g>
  </g>
  <g id="그룹_1004" data-name="그룹 1004">
    <g id="그룹_1003" data-name="그룹 1003" clip-path="url(#clip-path-2)">
      <rect id="사각형_576" data-name="사각형 576" width="158.305" height="127.121" transform="translate(962.61 401.93)" fill="url(#linear-gradient)"/>
    </g>
  </g>
  <g id="그룹_1006" data-name="그룹 1006">
    <g id="그룹_1005" data-name="그룹 1005" clip-path="url(#clip-path-3)">
      <rect id="사각형_577" data-name="사각형 577" width="1.384" height="1.493" transform="translate(1061.344 318.486)" fill="url(#linear-gradient)"/>
    </g>
  </g>
  <g id="그룹_1008" data-name="그룹 1008">
    <g id="그룹_1007" data-name="그룹 1007" clip-path="url(#clip-path-4)">
      <rect id="사각형_578" data-name="사각형 578" width="11.782" height="4.029" transform="translate(1037.212 366.055)" fill="url(#linear-gradient)"/>
    </g>
  </g>
  <g id="그룹_1010" data-name="그룹 1010">
    <g id="그룹_1009" data-name="그룹 1009" clip-path="url(#clip-path-5)">
      <rect id="사각형_579" data-name="사각형 579" width="78.29" height="46.185" transform="translate(1047.402 355.214)" fill="url(#linear-gradient)"/>
    </g>
  </g>
  <g id="그룹_1012" data-name="그룹 1012">
    <g id="그룹_1011" data-name="그룹 1011" clip-path="url(#clip-path-6)">
      <rect id="사각형_580" data-name="사각형 580" width="17.738" height="13.914" transform="translate(1056.203 536.469)" fill="url(#linear-gradient)"/>
    </g>
  </g>
  <g id="그룹_1014" data-name="그룹 1014">
    <g id="그룹_1013" data-name="그룹 1013" clip-path="url(#clip-path-7)">
      <rect id="사각형_581" data-name="사각형 581" width="46.178" height="26.672" transform="translate(1121.711 537.012)" fill="url(#linear-gradient)"/>
    </g>
  </g>
  <g id="그룹_1016" data-name="그룹 1016">
    <g id="그룹_1015" data-name="그룹 1015" clip-path="url(#clip-path-8)">
      <rect id="사각형_582" data-name="사각형 582" width="26.671" height="31.714" transform="translate(1166.827 509.279)" fill="url(#linear-gradient)"/>
    </g>
  </g>
  <g id="그룹_1018" data-name="그룹 1018">
    <g id="그룹_1017" data-name="그룹 1017" clip-path="url(#clip-path-9)">
      <rect id="사각형_583" data-name="사각형 583" width="16.14" height="9.191" transform="translate(1117.248 372.107)" fill="url(#linear-gradient)"/>
    </g>
  </g>
  <g id="그룹_1020" data-name="그룹 1020">
    <g id="그룹_1019" data-name="그룹 1019" clip-path="url(#clip-path-10)">
      <rect id="사각형_584" data-name="사각형 584" width="9.162" height="9.06" transform="translate(1127.662 365.426)" fill="url(#linear-gradient)"/>
    </g>
  </g>
  <g id="그룹_1022" data-name="그룹 1022">
    <g id="그룹_1021" data-name="그룹 1021" clip-path="url(#clip-path-11)">
      <rect id="사각형_585" data-name="사각형 585" width="5.937" height="7.972" transform="translate(1142.059 376.575)" fill="url(#linear-gradient)"/>
    </g>
  </g>
  <g id="그룹_1024" data-name="그룹 1024">
    <g id="그룹_1023" data-name="그룹 1023" clip-path="url(#clip-path-12)">
      <rect id="사각형_586" data-name="사각형 586" width="3.083" height="7.609" transform="translate(1216.043 342.79)" fill="url(#linear-gradient)"/>
    </g>
  </g>
  <g id="그룹_1026" data-name="그룹 1026">
    <g id="그룹_1025" data-name="그룹 1025" clip-path="url(#clip-path-13)">
      <rect id="사각형_587" data-name="사각형 587" width="2.942" height="2.292" transform="translate(1149.952 383.549)" fill="url(#linear-gradient)"/>
    </g>
  </g>
  <g id="그룹_1028" data-name="그룹 1028">
    <g id="그룹_1027" data-name="그룹 1027" clip-path="url(#clip-path-14)">
      <rect id="사각형_588" data-name="사각형 588" width="2.942" height="2.292" transform="translate(1218.853 350.011)" fill="url(#linear-gradient)"/>
    </g>
  </g>
  <g id="그룹_1030" data-name="그룹 1030">
    <g id="그룹_1029" data-name="그룹 1029" clip-path="url(#clip-path-15)">
      <rect id="사각형_589" data-name="사각형 589" width="1.289" height="1.522" transform="translate(1149.216 388.793)" fill="url(#linear-gradient)"/>
    </g>
  </g>
  <g id="그룹_1032" data-name="그룹 1032">
    <g id="그룹_1031" data-name="그룹 1031" clip-path="url(#clip-path-16)">
      <rect id="사각형_590" data-name="사각형 590" width="3.892" height="3.608" transform="translate(1152.695 389.025)" fill="url(#linear-gradient)"/>
    </g>
  </g>
  <g id="그룹_1034" data-name="그룹 1034">
    <g id="그룹_1033" data-name="그룹 1033" clip-path="url(#clip-path-17)">
      <rect id="사각형_591" data-name="사각형 591" width="5.275" height="3.981" transform="translate(1156.974 387.035)" fill="url(#linear-gradient)"/>
    </g>
  </g>
  <g id="그룹_1036" data-name="그룹 1036">
    <g id="그룹_1035" data-name="그룹 1035" clip-path="url(#clip-path-18)">
      <rect id="사각형_592" data-name="사각형 592" width="3.784" height="4.052" transform="translate(1161.252 394.428)" fill="url(#linear-gradient)"/>
    </g>
  </g>
  <g id="그룹_1038" data-name="그룹 1038">
    <g id="그룹_1037" data-name="그룹 1037" clip-path="url(#clip-path-19)">
      <rect id="사각형_593" data-name="사각형 593" width="3.346" height="5.673" transform="translate(1164.974 390.916)" fill="url(#linear-gradient)"/>
    </g>
  </g>
  <g id="그룹_1040" data-name="그룹 1040">
    <g id="그룹_1039" data-name="그룹 1039" clip-path="url(#clip-path-20)">
      <rect id="사각형_594" data-name="사각형 594" width="2.513" height="2.216" transform="translate(1167.722 399.973)" fill="url(#linear-gradient)"/>
    </g>
  </g>
  <g id="그룹_1042" data-name="그룹 1042">
    <g id="그룹_1041" data-name="그룹 1041" clip-path="url(#clip-path-21)">
      <rect id="사각형_595" data-name="사각형 595" width="1.659" height="2.251" transform="translate(1223.263 355.625)" fill="url(#linear-gradient)"/>
    </g>
  </g>
  <g id="그룹_1044" data-name="그룹 1044">
    <g id="그룹_1043" data-name="그룹 1043" clip-path="url(#clip-path-22)">
      <rect id="사각형_596" data-name="사각형 596" width="1.393" height="1.151" transform="translate(1227.579 358.393)" fill="url(#linear-gradient)"/>
    </g>
  </g>
  <g id="그룹_1046" data-name="그룹 1046">
    <g id="그룹_1045" data-name="그룹 1045" clip-path="url(#clip-path-23)">
      <rect id="사각형_597" data-name="사각형 597" width="1.836" height="1.714" transform="translate(1230.198 360.269)" fill="url(#linear-gradient)"/>
    </g>
  </g>
  <g id="그룹_1048" data-name="그룹 1048">
    <g id="그룹_1047" data-name="그룹 1047" clip-path="url(#clip-path-24)">
      <rect id="사각형_598" data-name="사각형 598" width="1.295" height="1.197" transform="translate(1233.068 361.817)" fill="url(#linear-gradient)"/>
    </g>
  </g>
  <g id="그룹_1051" data-name="그룹 1051">
    <g id="그룹_1050" data-name="그룹 1050" clip-path="url(#clip-path)">
      <path id="패스_2506" data-name="패스 2506" d="M1227.136,432.051c-.5.065-1.521-.441-1.99-.264a2.714,2.714,0,0,0-1.327,1.525,3.288,3.288,0,0,0,.995,1.991,5.582,5.582,0,0,0,2.389.863c.667.065,2.278.158,2.653-.4.4-.594-.377-2.131-.663-2.787-.168-.384-.529-1.272-.93-1.393-.29-.09-.824.426-1.127.463" fill="url(#linear-gradient)"/>
      <path id="패스_2507" data-name="패스 2507" d="M1230.453,428.4a1.843,1.843,0,0,0,.664,1.459c.732.343,3.118-.862,3.118-.862s1.014-1.5.8-1.99c-.254-.576-1.846-.688-2.454-.532-.513.134-1.207,1.032-1.592,1.393-.137.129-.5.347-.532.532" fill="url(#linear-gradient)"/>
    </g>
  </g>
</svg>
