<svg xmlns="http://www.w3.org/2000/svg" xmlns:xlink="http://www.w3.org/1999/xlink" width="178.63" height="156.258" viewBox="0 0 178.63 156.258">
  <defs>
    <linearGradient id="linear-gradient" x1="1" y1="-0.192" x2="0.179" y2="1" gradientUnits="objectBoundingBox">
      <stop offset="0" stop-color="#ff9621"/>
      <stop offset="1" stop-color="#ffb76a"/>
    </linearGradient>
  </defs>
  <g id="그룹_314" data-name="그룹 314" transform="translate(1850.53 -2625.816)">
    <path id="패스_3042" data-name="패스 3042" d="M-1823.411,2678.771l1.991-2.255h-4.512l-1.061,1.128s-.664.066-1.328,1.127-1.724,2.92-2.52,2.389-1.991,1.194,0,1.725.53,1.327.8,1.725,2.388-1.327,1.99,0a8.869,8.869,0,0,1-2.123,2.919s-1.061,3.053,0,1.991,2.123-1.858,2.123-.531.105,3.185,1.38,2.787,1.937.375,2.866.054,3.716-.187,2.389.874.173,2.787.352,2.787-.179.133,0,1.062-2.608,2.388-2.608,2.388-2.941-1.194-2.8,0a1.541,1.541,0,0,1-1.05,1.593l1.99.928.266,1.858-2.787,1.725s-.154,1.062,1.581,1.062,3.2-.929,3.86,0-2.92,1.857-2.92,1.857l-2.919,1.593s-3.317,1.194-1.858,1.99,3.981,1.459,5.043.531,2.255-2.256,3.715-1.725,5.706-.663,5.706-.663l5.971-1.062s3.981-.664,2.654-1.062a31.618,31.618,0,0,1-3.317-1.327l3.588-3.848.658-2.653-4.512-1.2-2.521-3.317.664-2.256s-3.052-3.184-3.052-3.715-2.332,0-2.825-2.787,4.019-.8,2.825-3.716-1.005-3.184-2.825-3.184-5.27,2.919-5.668.929S-1823.411,2678.771-1823.411,2678.771Z" fill="url(#linear-gradient)"/>
    <path id="패스_3043" data-name="패스 3043" d="M-1836.282,2690.449a6.578,6.578,0,0,0-3.052,1.857,4.612,4.612,0,0,0-.133,1.593l-1.99.8-2.787-.4-1.061,2.256,2.521,1.857-.929,2.522-3.052,1.459,1.327,2.389,1.592,2.123,4.91-2.521,4.777-1.2,2.124-5.308-.4-1.326,2.654-1.46-.4-2.919a10.464,10.464,0,0,0-1.99-1.592A9.246,9.246,0,0,0-1836.282,2690.449Z" fill="url(#linear-gradient)"/>
    <path id="패스_3044" data-name="패스 3044" d="M-1808.084,2761.572c-.233-.261-1.158-.125-1.394.133a.993.993,0,0,0,0,1c.231.2.976.01,1.194-.2C-1808.112,2762.338-1807.927,2761.751-1808.084,2761.572Z" fill="url(#linear-gradient)"/>
    <path id="패스_3045" data-name="패스 3045" d="M-1804.237,2758.654c-.047.262.329.753.531.928.378.327,1.4.918,1.858.73.337-.137.553-.965.6-1.327a1.763,1.763,0,0,0-.2-1.127c-.29-.277-1.592-.2-1.592-.2S-1804.168,2758.271-1804.237,2758.654Z" fill="url(#linear-gradient)"/>
    <path id="패스_3046" data-name="패스 3046" d="M-1779.224,2745.318a2.313,2.313,0,0,0-1.725.265,3.825,3.825,0,0,0-.995,1.194,2.276,2.276,0,0,0,0,1.328c.133.2.806,2.117,1.46,2.189.5.055,1.46-1.393,1.46-1.393a12.4,12.4,0,0,0,.464-2.124A2.2,2.2,0,0,0-1779.224,2745.318Z" fill="url(#linear-gradient)"/>
    <path id="패스_3047" data-name="패스 3047" d="M-1780.219,2751.289l-.8.929s-1.535.617-2.056.8c-.179.061-.664.2-.6.465a7.615,7.615,0,0,0,.663,1.194c.175.293.66.852.663,1.194s-.591.911-.663,1.261a6.156,6.156,0,0,0,.066.862c-.006.5-.212,1.49-.2,1.99.014.554-.11,1.855.332,2.19.32.242,1.592-.2,1.592-.2l2.057-.929s.73.331.8.132a13.79,13.79,0,0,0,.4-2.388c-.007-.673-.393-1.983-.464-2.654-.091-.858.247-2.674-.133-3.449A6.954,6.954,0,0,0-1780.219,2751.289Z" fill="url(#linear-gradient)"/>
    <path id="패스_3048" data-name="패스 3048" d="M-1767.613,2766.416c.26-.136.575-.736.863-.8.446-.093,1.281.489,1.724.6a10.574,10.574,0,0,0,2.721.4c.777-.087,2.155-.96,2.92-1.128a4.4,4.4,0,0,1,2.056-.133c.288.136.826.678.8,1-.057.61-1.623,1.028-1.857,1.593-.332.8.655,2.678.265,3.45a2.261,2.261,0,0,1-1.792.73c-.495-.094-1.046-1.1-1.459-1.394a18.721,18.721,0,0,0-2.388-1.194c-.864-.386-2.8-.777-3.517-1.393-.349-.3-1.114-1.17-.929-1.592C-1768.149,2766.409-1767.748,2766.487-1767.613,2766.416Z" fill="url(#linear-gradient)"/>
    <path id="패스_3049" data-name="패스 3049" d="M-1725.482,2777.828c.5-.383,1.844.382,2.455.531.434.105,1.281.406,1.724.464.346.046,1.045-.013,1.394,0,.432.016,1.724.133,1.724.133a3.171,3.171,0,0,1,1.261.132,2.187,2.187,0,0,1,.6.863s-2.388.066-3.052.066-2.586-.35-3.449-.464c-.678-.089-2.274.251-2.721-.266A1.442,1.442,0,0,1-1725.482,2777.828Z" fill="url(#linear-gradient)"/>
    <path id="패스_3050" data-name="패스 3050" d="M-1723.027,2768.34c-.31-.209-1.064-.7-1.393-.53a.948.948,0,0,0-.266.8c.116.456,1.043.974,1.46,1.194.259.137.9.512,1.127.331.171-.132.02-.664-.067-.862A3.049,3.049,0,0,0-1723.027,2768.34Z" fill="url(#linear-gradient)"/>
    <path id="패스_3051" data-name="패스 3051" d="M-1721.768,2767.213a1.1,1.1,0,0,0,.067.729c.181.344.84,1.155,1.2,1,.2-.089.15-.645.132-.862-.028-.363-.377-1.17-.73-1.261C-1721.29,2766.766-1721.679,2767.04-1721.768,2767.213Z" fill="url(#linear-gradient)"/>
    <path id="패스_3052" data-name="패스 3052" d="M-1722.564,2772.255a.955.955,0,0,0,.4.4c.254.087.971.118,1.062-.133s-.468-.732-.729-.8a.957.957,0,0,0-.731.266A.389.389,0,0,0-1722.564,2772.255Z" fill="url(#linear-gradient)"/>
    <path id="패스_3053" data-name="패스 3053" d="M-1719.312,2772.388c-.022.21-.607.465-.53.663.088.232.768.1.995,0s.583-.649.463-.862c-.129-.233-.914-.289-1.06-.067C-1719.486,2772.184-1719.305,2772.314-1719.312,2772.388Z" fill="url(#linear-gradient)"/>
    <path id="패스_3054" data-name="패스 3054" d="M-1717.454,2771.06a.881.881,0,0,0,.132.8c.2.171.911.218,1.062,0,.162-.234-.14-.944-.4-1.062A.894.894,0,0,0-1717.454,2771.06Z" fill="url(#linear-gradient)"/>
    <path id="패스_3055" data-name="패스 3055" d="M-1716.327,2772.587c.005.248.559.667.8.6.172-.051.346-.426.4-.6.059-.2-.005-.731-.2-.8C-1715.633,2771.689-1716.331,2772.268-1716.327,2772.587Z" fill="url(#linear-gradient)"/>
    <path id="패스_3056" data-name="패스 3056" d="M-1692.84,2779.818l-.4,1.792h1.991l.8.464,1.724-.4a9.438,9.438,0,0,0,1.925-1.659c.218-.4.013-1.416.265-1.791.236-.352,1.552-.449,1.46-.862-.107-.489-1.5-.3-1.991-.2a7.314,7.314,0,0,0-1.062.6c-.351.161-1.1.387-1.458.53-.622.247-2.456,1.062-2.456,1.062Z" fill="url(#linear-gradient)"/>
    <path id="패스_3057" data-name="패스 3057" d="M-1719.053,2667l.3-.076,1.4,1.294,1.76.776s.288.161.356.2c-.016.084-.512.425-.512.425l-3.467.672v1.036l-.156.932-.885.039-1.185-.2-1.293-.466-2.07.156-3.209-.621s-1.789.116-2.38.206c-.419.064-1.341.08-1.657.363a4.038,4.038,0,0,0-.931,2.743c.13.656,1.759,2.018,1.759,2.018l.777.828s-.383.691-.26.886c.112.177.619.12.828.133a14.3,14.3,0,0,1,2.189-.1c.746.2,1.875,1.392,2.587,1.692a10.576,10.576,0,0,0,2.687.6,18.922,18.922,0,0,0,2.455-.3c-.256-2.08.017-6.848,1.593-8.228.85-.744,3.778.6,4.511-.265.434-.508.062-2.073-.264-2.654-.49-.867-3.017-1.408-3.185-2.388a1.791,1.791,0,0,1,.224-1.038l-1.254-.156Z" fill="url(#linear-gradient)"/>
    <path id="패스_3058" data-name="패스 3058" d="M-1711.466,2656.877c-.44-.812-.465-3.115-1.326-3.45-.415-.161-1.168.932-1.592.8-1.075-.343-2.123-3.981-2.123-3.981l-.532-4.245-1.592-3.185s1.193-3.226.532-3.981c-.307-.35-1.459.237-1.859,0a4.329,4.329,0,0,1-1.592-2.919c.065-.739,1.146-1.781,1.844-2.408l-2.01-1.142-1.493-.9-2.04-.249-.6-1-1.244.946a10.779,10.779,0,0,0-1.841-.747,2.778,2.778,0,0,0-1.592.15c-.493.391-.686,1.768-.8,2.388-.073.405.159,1.289-.05,1.642a3.869,3.869,0,0,1-2.189,1.294c-.693.072-1.952-.774-2.638-.9-.5-.089-1.534.011-2.04-.049a10.726,10.726,0,0,1-2.289-.5c-.613-.27-1.542-1.371-2.189-1.543a2.974,2.974,0,0,0-2.041.2c-.2.179-.01.857-.2,1.045-.309.307-1.258.146-1.737.3.948.649,2.1,1.213,2.716,1.585a7.989,7.989,0,0,0,2.057.863c.7.116,2.19-.468,2.853-.2a4.729,4.729,0,0,1,1.658,1.857,26.877,26.877,0,0,1,.465,2.721,19.067,19.067,0,0,1,.928,1.924,16.2,16.2,0,0,1-.2,1.923c0,.294.715.9,1.242,1.488a1.311,1.311,0,0,1,.594-.144,3.676,3.676,0,0,1,2.328,1.553c.142.431-.363,1.334-.621,1.708a17.184,17.184,0,0,1-3.053,2.639c-.78.593-2.449,1.624-3.26,2.174-.963.652-3.239,1.638-3.83,2.639a7.129,7.129,0,0,0-.414,4.192,3.788,3.788,0,0,0,.983,1.19c.149.13.579.241.673.415.444.819-.589,2.931-.1,3.725.358.588,2.483,1.191,2.483,1.191l1.5,1.6,4.191.156,2.743-.777,2.9-.879,1.759-.052,1.708-.673h1.967l1.6.155,1.755-.438.01,0,.72-1.493,1.254.156a11.807,11.807,0,0,1,2.429-2.943c1.116-1.025,4.979-1.442,5.309-2.92C-1709.146,2658.916-1711.033,2657.67-1711.466,2656.877Z" fill="url(#linear-gradient)"/>
    <path id="패스_3059" data-name="패스 3059" d="M-1746.691,2634.459c.479-.159,1.428,0,1.737-.3.189-.188,0-.866.2-1.045a2.974,2.974,0,0,1,2.041-.2c.647.172,1.576,1.273,2.189,1.543a10.726,10.726,0,0,0,2.289.5c.506.06,1.538-.04,2.04.049.686.122,1.945.968,2.638.9a3.869,3.869,0,0,0,2.189-1.294c.209-.353-.023-1.237.05-1.642.11-.62.3-2,.8-2.388a2.778,2.778,0,0,1,1.592-.15,10.779,10.779,0,0,1,1.841.747l1.244-.946.6,1,2.04.249,1.493.9,2.01,1.142.279-.246a38.338,38.338,0,0,1,4.441-2.7l-3.032-.434-.609-.087.966-2.346-2.9-.138-2.76-.552-2.07-.966a23.555,23.555,0,0,0-3.175,0c-.741.131-2.094,1.2-2.829,1.035-.358-.079-.7-.9-1.035-1.035-1.02-.422-3.319-.125-4.416,0a11.478,11.478,0,0,0-3.588.828c-.731.447-1.46,2.205-2.208,2.623-1.25.695-4.231.9-5.659.828-.852-.043-2.477-1.008-3.312-.828-.817.174-1.954,1.568-2.622,2.069-1.323.994-4.225,2.67-5.39,3.846-.507.513-1.189,1.809-1.649,2.365a22.142,22.142,0,0,1-2.594,2.663c-1.042.8-3.6,1.7-4.582,2.581-1.234,1.1-2.792,4.119-3.864,5.382-.506.6-1.639,1.673-2.208,2.208-.9.848-3.708,3.276-3.708,3.276l-3.882,1.692-4.417,2.071-6.28,3.036-1.172,3.312.828,5.8,1.518,5.244,3.537,2.656,2.949-.724,3.675-1.967,2.535-1.656,1.553-.311.621-1.914,1.92,2.342.2.349,1.654-.451.056,0,.147.967c.468-.082.9-.155.96-.155.149,0,.6-1.095.6-1.095a7.576,7.576,0,0,1,.1-1.791,7.773,7.773,0,0,1,.8-.548l1.343-1.642a7.119,7.119,0,0,1-.6-1.841c0-.547.9-1.542.9-1.741s.348-1.195.249-1.344-.887-.407-1.1-.647a4.343,4.343,0,0,1-.5-1.692c0-.2-.2-1.144-.2-1.393s-.995-1.443-.995-1.692a16.731,16.731,0,0,1,.448-1.692,9.2,9.2,0,0,1,1.443-1.443,9.588,9.588,0,0,1,1.443-1.144c.621-.3,2.265-.054,2.687-.6.236-.3-.056-1.157-.05-1.543a5.616,5.616,0,0,1,.1-1.592,12.405,12.405,0,0,1,1.841-2.04c.149-.2-.169-1.269-.149-1.692.021-.48.14-1.586.547-1.841.459-.289,1.727.7,2.14.348.274-.234-.131-1.107,0-1.443.257-.661,1.094-1.194,2.239-1.742s.1-1.692.2-1.841.746-.647,1.891-1.642,1.493-.348,2.488-.647.38-1.155.6-1.493c.417-.652,2.687-.3,3.085-.248a5.435,5.435,0,0,0,2.389-.448c.375-.258.661-1.247,1.045-1.493a.8.8,0,0,1,.153-.043" fill="url(#linear-gradient)"/>
    <path id="패스_3060" data-name="패스 3060" d="M-1738.335,2685.871a24.251,24.251,0,0,1,2.587-.6c.684.006,1.971.619,2.654.663a28.586,28.586,0,0,0,3.383-.4,8.785,8.785,0,0,1,2.588-.2c.908.292,2.087,1.989,2.919,2.455a7.283,7.283,0,0,0,2.189.729,7.543,7.543,0,0,0,2.522-.4,16.6,16.6,0,0,0,2.588-1.459,4.98,4.98,0,0,0,.474-.43,17.333,17.333,0,0,1-1.668-2.025,12.269,12.269,0,0,1-1.859-3.98,18.922,18.922,0,0,1-2.455.3,10.618,10.618,0,0,1-2.687-.6c-.712-.3-1.841-1.488-2.587-1.692a14.3,14.3,0,0,0-2.189.1c-.209-.013-.651-.245-.828-.133-.043.027-.044.146-.057.2-.166.606-.2,1.965-.615,2.438a3.057,3.057,0,0,1-1.811.725,5.892,5.892,0,0,1-2.174-1.139c-.438-.316-1.021-1.407-1.552-1.5a4.694,4.694,0,0,0-3,1.346,7.506,7.506,0,0,0-1.036,3.157c-.058.473.219,1.433.135,1.9a1.31,1.31,0,0,1-.106.293A17.334,17.334,0,0,0-1738.335,2685.871Z" fill="url(#linear-gradient)"/>
    <path id="패스_3061" data-name="패스 3061" d="M-1738.534,2690.383a24.5,24.5,0,0,0,2.388.995c.313.123,1.036.215,1.26.464.4.445.226,1.852.6,2.322.616.78,2.952,1.039,3.516,1.858h2.123s1.716-1.046,2.322-1.327c.529-.245,1.821-.346,2.19-.8.213-.26.048-1.028.2-1.327.348-.691,1.94-1.457,2.189-2.189a4.715,4.715,0,0,0-.023-1.862c-.08,0-.176.01-.243,0a7.283,7.283,0,0,1-2.189-.729c-.832-.466-2.011-2.163-2.919-2.455a8.785,8.785,0,0,0-2.588.2,28.586,28.586,0,0,1-3.383.4c-.683-.044-1.97-.657-2.654-.663a24.251,24.251,0,0,0-2.587.6,17.334,17.334,0,0,1-2.586-.247,1.349,1.349,0,0,1-.133.237c-.023.031-.1.065-.117.1a4.388,4.388,0,0,0,.014,1.3c-.005.283.044.734.054,1.167.413.333.779.624,1.042.829A17.805,17.805,0,0,0-1738.534,2690.383Z" fill="url(#linear-gradient)"/>
    <path id="패스_3062" data-name="패스 3062" d="M-1742.449,2694.629c.75.038,2.242-.437,2.985-.332.6.085,1.655.828,2.256.929a6.384,6.384,0,0,0,3.318-.2,1.5,1.5,0,0,0,.338-.356,2.02,2.02,0,0,1-.736-.507c-.372-.471-.2-1.877-.6-2.322-.224-.249-.947-.341-1.26-.464a24.5,24.5,0,0,1-2.388-.995,17.805,17.805,0,0,1-1.527-1.128c-.263-.2-.629-.5-1.042-.829a1.985,1.985,0,0,1-.157,1.007c-.4.621-2.1.835-2.64,1.345a3.686,3.686,0,0,0-.483,1.273c-.044.145-.009.51-.137.59-.3.184-.967-.278-1.376-.338a4.489,4.489,0,0,0,.992,1.795A5.237,5.237,0,0,0-1742.449,2694.629Z" fill="url(#linear-gradient)"/>
    <path id="패스_3063" data-name="패스 3063" d="M-1768.689,2682.549l-.415,2.07.208,2.588,1.5,1.656,1.759.155,1.812-.31.258-1.708,2.381-1.035,1.863.466.828-.311,1.6-4.864-.051-2.019.31-2.95,1.4-1.035,3.209-1.656.673-1.449,1.293-1.4-.362-1.759-1.6-1.5-2.484-.569a16.556,16.556,0,0,0-.259-2.071c-.16-.538-.849-1.473-.983-2.018a5.252,5.252,0,0,1-.052-1.759,6.994,6.994,0,0,1,1.087-2.226,6.451,6.451,0,0,1,1.4-1.035c.6-.335,1.932-.714,2.536-1.034.824-.438,2.317-1.572,3.1-2.071.893-.564,2.808-1.5,3.623-2.174.4-.332,1.416-1.03,1.4-1.552-.017-.466-1.337-.828-1.345-1.294-.01-.54,1.078-1.216,1.5-1.553a10.863,10.863,0,0,1,3-1.811,5.974,5.974,0,0,1,2.071.155c.266.065.746.352,1.009.433a1.664,1.664,0,0,0,.439.085,4.287,4.287,0,0,0,1.011-.374c-.527-.593-1.242-1.194-1.242-1.488a16.2,16.2,0,0,0,.2-1.923,19.067,19.067,0,0,0-.928-1.924,26.877,26.877,0,0,0-.465-2.721,4.729,4.729,0,0,0-1.658-1.857c-.663-.269-2.148.315-2.853.2a7.989,7.989,0,0,1-2.057-.863c-.621-.372-1.768-.936-2.716-1.585a.8.8,0,0,0-.153.043c-.384.246-.67,1.235-1.045,1.493a5.435,5.435,0,0,1-2.389.448c-.4-.05-2.668-.4-3.085.248-.217.338.4,1.2-.6,1.493s-1.344-.348-2.488.647-1.792,1.493-1.891,1.642.945,1.294-.2,1.841-1.982,1.081-2.239,1.742c-.131.336.274,1.209,0,1.443-.413.351-1.681-.637-2.14-.348-.407.255-.526,1.361-.547,1.841-.02.423.3,1.493.149,1.692a12.405,12.405,0,0,0-1.841,2.04,5.616,5.616,0,0,0-.1,1.592c-.006.386.286,1.238.05,1.543-.422.543-2.066.3-2.687.6a9.588,9.588,0,0,0-1.443,1.144,9.2,9.2,0,0,0-1.443,1.443,16.731,16.731,0,0,0-.448,1.692c0,.249.995,1.443.995,1.692s.2,1.194.2,1.393a4.343,4.343,0,0,0,.5,1.692c.208.24.995.5,1.1.647s-.249,1.145-.249,1.344-.9,1.194-.9,1.741a7.119,7.119,0,0,0,.6,1.841l-1.343,1.642a7.773,7.773,0,0,0-.8.548,7.576,7.576,0,0,0-.1,1.791s-.448,1.095-.6,1.095c-.064,0-.492.073-.96.155l.679,4.455Z" fill="url(#linear-gradient)"/>
    <path id="패스_3064" data-name="패스 3064" d="M-1773.566,2689.985c.251.129.922-.194,1.128,0a1.305,1.305,0,0,1,.067,1.061c-.163.379-1.158.662-1.262,1.061a1.072,1.072,0,0,0,.332.863,2.377,2.377,0,0,0,1.858-.332,1.893,1.893,0,0,0,.6-1.327c-.033-.149-.495-.248-.464-.4.086-.426,1.658-.53,1.658-.53l.6-1.527-.6-.8v-1.526a11.307,11.307,0,0,1-1.923.929c-.391.081-1.23-.229-1.593-.066a2.48,2.48,0,0,0-1.194,1.459A1.8,1.8,0,0,0-1773.566,2689.985Z" fill="url(#linear-gradient)"/>
    <path id="패스_3065" data-name="패스 3065" d="M-1760.71,2708.673h0Z" fill="url(#linear-gradient)"/>
    <path id="패스_3066" data-name="패스 3066" d="M-1760.71,2708.673a5.135,5.135,0,0,1,.473-.3A5.006,5.006,0,0,0-1760.71,2708.673Z" fill="url(#linear-gradient)"/>
    <path id="패스_3067" data-name="패스 3067" d="M-1799.707,2707.9a6.044,6.044,0,0,0,2.389-.531c.594-.21,1.625-1.119,2.256-1.128a3.337,3.337,0,0,1,1.99.929,3.841,3.841,0,0,1,.2,2.256c-.133.2,1.792.465,1.792.465l.425-.019c0-.27-.009-.528-.027-.711-.079-.771-.765-2.314-.531-3.052.151-.478.929-.929,1.658-1.128s1.023-1.488,1.194-2.057a7.2,7.2,0,0,1,.73-2.057c.349-.405,1.726-.928,1.726-1.26s-.867-1.411-1.062-1.925a7.608,7.608,0,0,1-.317-1.653,1.549,1.549,0,0,0-.4.133c-.255.155-.483.758-.6,1.034-.046.112-.022.405-.126.467-.5.3-1.7-.551-2.278-.518a6.173,6.173,0,0,0-1.759.621,33.627,33.627,0,0,0-2.8,1.915l-1.087-.517-.879,2.639-2.588,3.1-1.4.8s-.3.129-.541.234a12.384,12.384,0,0,0,.9,1.1A3.474,3.474,0,0,0-1799.707,2707.9Z" fill="url(#linear-gradient)"/>
    <path id="패스_3068" data-name="패스 3068" d="M-1802.029,2709.889a7.2,7.2,0,0,1,1.526.265l.664.265s1.369,1.37,1.857,1.791c.761.657,2.225,2.156,3.185,2.456a6.25,6.25,0,0,0,1.26-.067c.363.008,1.1.329,1.586.346.185.006.334-.028.405-.147.308-.513-1.51-1.421-1.327-1.991.087-.269.779-.381,1.062-.4a5.982,5.982,0,0,1,1.44.2c-.107-.508-.206-1.05-.246-1.4-.037-.327-.034-.863-.039-1.345l-.425.019s-1.925-.266-1.792-.465a3.841,3.841,0,0,0-.2-2.256,3.337,3.337,0,0,0-1.99-.929c-.631.009-1.662.918-2.256,1.128a6.044,6.044,0,0,1-2.389.531,3.474,3.474,0,0,1-1.127-.863,12.384,12.384,0,0,1-.9-1.1c-.092.041-.176.078-.228.1-.159.074-.625.315-.625.315l-1.018,1.017.781,2.383A1.581,1.581,0,0,0-1802.029,2709.889Z" fill="url(#linear-gradient)"/>
    <path id="패스_3069" data-name="패스 3069" d="M-1790.371,2712.613c.074.352.152.691.218.925.073.254.163.65.278,1.039" fill="url(#linear-gradient)"/>
    <path id="패스_3070" data-name="패스 3070" d="M-1790.371,2712.613a5.982,5.982,0,0,0-1.44-.2c-.283.017-.975.129-1.062.4-.183.57,1.635,1.478,1.327,1.991-.071.119-.22.153-.405.147l.339.185,1.459-.464.278-.089c-.115-.389-.2-.785-.278-1.039C-1790.219,2713.3-1790.3,2712.965-1790.371,2712.613Z" fill="url(#linear-gradient)"/>
    <path id="패스_3071" data-name="패스 3071" d="M-1841.041,2766.748c1.062-.332.269-1.314.133-1.725a4.707,4.707,0,0,1-.133-2.455c.2-.474,1.327-1.128,1.394-1.526s-.633-.614-.863-.8c-.372-.3-1.232-1.064-1.128-1.526.116-.514,1.513-.6,1.858-.995a8.571,8.571,0,0,0,1.061-3.384,5.5,5.5,0,0,1,.266-1.858c.265-.527,1.459-1.592,1.459-1.858a2.241,2.241,0,0,0-.265-1.061,3.189,3.189,0,0,0-1.592-.929c-.408-.032-1.117.588-1.526.6a14.381,14.381,0,0,1-2.721-.928,7.825,7.825,0,0,0-1.857-.332,4.712,4.712,0,0,0-2.137.7.047.047,0,0,0-.014.024,16.758,16.758,0,0,0,.322,2.426,18.164,18.164,0,0,1-.518,4.141c-.325,1.032-1.566,2.847-2.018,3.829-.338.734-1.36,2.213-1.191,3,.133.617,1.546,1.186,1.812,1.759.556,1.2-.261,4.112.362,5.278a2.5,2.5,0,0,0,1.139.881,6.247,6.247,0,0,0,1.759-.207c.311-.038.935-.095,1.243-.156s.873-.384,1.169-.319c.022,0,.05.05.072.06h0c.31-.221-.295-1.165-.147-1.515C-1842.869,2767.335-1842.1,2767.08-1841.041,2766.748Z" fill="url(#linear-gradient)"/>
    <path id="패스_3072" data-name="패스 3072" d="M-1804.152,2746.487l-3.45-1.725-3.052-1.194-1.327.928-3.781-.265-4.169-3.362s-.115.29-.2.338a5.635,5.635,0,0,1-2.95-.1,11.5,11.5,0,0,0-1.6-.569c-.483-.017-1.389.613-1.863.517-.307-.061-.682-.692-.983-.776a10.94,10.94,0,0,0-2.536.311,16.076,16.076,0,0,1-2.485-.052c-.533-.085-1.533-.56-2.069-.621a30.864,30.864,0,0,0-3.106.207c-.569.012-1.709-.01-2.277-.052-.82-.061-2.481-.674-3.26-.414-.547.182-1.187,1.269-1.656,1.6-.485.348-1.876.544-2.122,1.087-.176.389.359,1.233.414,1.656a9.256,9.256,0,0,1,.052,3.312c-.062.164-.364.377-.466.518-.015.02-.071.06-.049.085.373.42,1.576-.66,2.137-.7a7.862,7.862,0,0,1,1.857.332,14.33,14.33,0,0,0,2.721.928c.409-.008,1.118-.629,1.526-.6a3.2,3.2,0,0,1,1.592.929,2.24,2.24,0,0,1,.265,1.061c0,.266-1.194,1.331-1.459,1.859a5.491,5.491,0,0,0-.266,1.857,8.564,8.564,0,0,1-1.061,3.384c-.345.4-1.742.481-1.858,1-.1.463.756,1.232,1.128,1.526.23.182.929.4.863.8s-1.19,1.052-1.394,1.526a4.708,4.708,0,0,0,.133,2.455c.136.411.929,1.394-.133,1.725s-1.828.587-2.057,1.128a2.144,2.144,0,0,0,.147,1.515c.184.257.938.116,1.239.206a7.871,7.871,0,0,1,1.966.88,14.171,14.171,0,0,1,1.5,1.915c.281.353.7,1.274,1.139,1.4s1.222-.511,1.656-.57c.4-.053,1.223.234,1.6.1.442-.152.949-1.11,1.4-1.243.4-.118,1.238.277,1.656.259.6-.025,1.731-.539,2.329-.569.47-.024,1.394.237,1.863.259a7.806,7.806,0,0,0,1.243-.052,6.4,6.4,0,0,0,1.914-.569c.6-.4,1.231-1.8,1.812-2.225a10.768,10.768,0,0,1,2.794-.777l.362-1.5,1.5-2.691,1.345-1.6-.932-1.76-.051-.983,3.57-4.658,1.708-2.38,2.9-.569,2.743-1.709,2.018-1.656.777-1.6.008-.438Z" fill="url(#linear-gradient)"/>
    <path id="패스_3073" data-name="패스 3073" d="M-1788.76,2737.821s.61-1.254.465-1.659c-.136-.382-1.36-.526-1.327-.929.042-.511,1.658-.8,1.791-.995s-.332-1.327-.929-1.393.067-1.527.067-1.527a4.287,4.287,0,0,0,.663-.386,1.866,1.866,0,0,0,.664-.741c.266-.664-.863-1.393-.863-1.393a9.8,9.8,0,0,1-2.72,1.194c-.729,0,0-1.327,0-1.327l2.853-2.92-.067-1.525h.664l1.394-.067.837-1.341c-.383-.145-.705-.353-.705-.583,0-.465.067-1.128.067-1.393s.81-1.161.995-1.592a6.6,6.6,0,0,0,.265-2.19c-.066-.2-1.137-.373-1.526-.465-.807-.19-2.576-.364-3.185-.928a2.646,2.646,0,0,1-.518-1.084l-.278.089-1.459.464-.339-.185c-.482-.017-1.223-.338-1.586-.346a6.25,6.25,0,0,1-1.26.067c-.96-.3-2.424-1.8-3.185-2.456-.488-.421-1.857-1.791-1.857-1.791l-.664-.265a7.2,7.2,0,0,0-1.526-.265,1.581,1.581,0,0,1-.8-.133l-.781-2.383-.275.276-.622.052-2.328.777-.1,1.707-1.552,2.174-1.191.517-2.277.362-.31,1.139-3,.569-1.553-1.138-1.811-.155-.517,1.19.31,2.329-1.4.776s-1.967,0-2.691.052-.311-.311-.88-.776-1.863.1-1.863.1l-2.381.259s-1.6.258-2.07.879.258.828.673,1.45a2.454,2.454,0,0,1,.207,1.6l1.915-.207,3.726,1.449,1.914,1.346.1.466.828,1.707.621.311,2.277,4.244.207,3.984-1.242,2.743-.1,2.226-.938,1.836h0l4.169,3.362,3.781.265,1.327-.928,3.052,1.194,3.45,1.725,1.262-.388,0-.218-.115-.9-.415-1.708.776-1.5,1.4-1.346,2.226-.1,2.277.156,2.743.414,2.95.828,1.863-1.19,1.692-2.191.067-.086,1.555.423-.236-.42Z" fill="url(#linear-gradient)"/>
    <path id="패스_3074" data-name="패스 3074" d="M-1773.5,2725.919l.074-.9a1.515,1.515,0,0,1-.8.065c-.431-.13-.666-1.241-1.061-1.459a4.267,4.267,0,0,0-1.924-.133c-.276.032-.786.373-1.062.332-.636-.1-1.511-1.258-2.123-1.461a4.987,4.987,0,0,0-1.724-.066c-.54.083-1.513.687-2.058.73a2.962,2.962,0,0,1-1.086-.213l-.837,1.341-1.394.067h-.664l.067,1.525-2.853,2.92s-.729,1.327,0,1.327a9.8,9.8,0,0,0,2.72-1.194s1.129.729.863,1.393a1.866,1.866,0,0,1-.664.741l1.991-.277s1.213.152,1.526-.066c.354-.247.256-1.451.663-1.592.485-.169,1.422.64,1.792.995s.558,1.776,1.061,1.724c.877-.09.381-2.978,1.194-3.316.508-.212,1.452,1.031,1.991.928.426-.081.8-1.089,1.194-1.26.35-.151,1.217.223,1.526,0s.166-1.179.464-1.394c.216-.155,1.062,0,1.062,0l.062-.755" fill="url(#linear-gradient)"/>
    <path id="패스_3075" data-name="패스 3075" d="M-1766.616,2727.477l-1.841-.67.2-1.128-2.256-.265-2.056.53-.934-.025-.062.755s-.846-.155-1.062,0c-.3.215-.166,1.179-.464,1.394s-1.176-.151-1.526,0c-.4.171-.768,1.179-1.194,1.26-.539.1-1.483-1.14-1.991-.928-.813.338-.317,3.226-1.194,3.316-.5.052-.7-1.374-1.061-1.724s-1.307-1.164-1.792-.995c-.407.141-.309,1.345-.663,1.592-.313.218-1.526.066-1.526.066l-1.991.277a4.287,4.287,0,0,1-.663.386s-.664,1.46-.067,1.527,1.062,1.194.929,1.393-1.749.484-1.791.995c-.033.4,1.191.547,1.327.929.145.4-.465,1.659-.465,1.659l2.655,1.194.236.42.153.042,3.157-2.225,2.328.362,1.864,1.449,1.759,2.122,1.449,2.433,1.864,1.759,2.07,1.76,1.656,1.862,2.38,1.346,1.863.052.932.311,1.863,2.484h1.191l1.656,1.915,2.173,1.035,1.19,1.293.57,2.174.362,2.07-1.4,2.381.983,1.552,2.07-1.4.052-2.121,1.553-.984-.311-1.863-.983-1.19-.311-1.243,1.5-2.07.983.518,1.967.414.673.984,1.656.465-.052-1.087-.466-1.294-1.294-1.139-3.726-1.862-3.208-1.242-1.035-2.019-1.139-.569-2.536-.724-1.759-1.656-1.76-1.4-1.139-2.588-1.19-1.4-1.4-1.087-1.863-1.19-.518-1.915.725-1.6-.311-1.709h1.293l1.139-.051.57-.518,1.034-.517.259.673.364-.364.257-.257.545-.1-.184-1.59-1.194-2.057-1.078-.391" fill="url(#linear-gradient)"/>
    <path id="패스_3076" data-name="패스 3076" d="M-1761.623,2718.846a10.512,10.512,0,0,0,1.923-.93,6.29,6.29,0,0,1,1.527-.8c1.076-.091,3.04,1.206,4.113,1.327a7.241,7.241,0,0,0,1.282-.069c.518-.06.974-.13.974-.13l3.716-1.659s.56-1.11.934-2.117c-.259-.145-.5-.286-.669-.4-.563-.384-1.4-1.516-1.991-1.859a8.737,8.737,0,0,0-2.322-.729c-.508-.078-1.584.2-2.057,0-.507-.217-1.041-1.329-1.526-1.592-1.142-.624-4.753.256-5.108-1a.136.136,0,0,1,.018-.11l.011-.014a.42.42,0,0,1,.087-.095h0l-1.642.219a20.775,20.775,0,0,1-2.654.6,8,8,0,0,0-3.251,1.194,3.9,3.9,0,0,0-1,1.724,5.222,5.222,0,0,0,.664,2.456,9.32,9.32,0,0,0,1.593,1.459c.662.569,2.684,1.317,2.719,2.19,0,.021-.023.045-.027.068l.757.131A9.817,9.817,0,0,0-1761.623,2718.846Z" fill="url(#linear-gradient)"/>
    <path id="패스_3077" data-name="패스 3077" d="M-1755.388,2726.28c.045-.047.093-.1.134-.137.233-.214.8-.575.928-.862.275-.587-.263-2.075.133-2.588.373-.481,2.013-.206,2.323-.73.091-.153.008-.467-.086-.721-.041-.107-.081-.2-.113-.274a10.533,10.533,0,0,0-1.261-1.525l.552-1.065a7.241,7.241,0,0,1-1.282.069c-1.073-.121-3.037-1.418-4.113-1.327a6.29,6.29,0,0,0-1.527.8,10.512,10.512,0,0,1-1.923.93,9.817,9.817,0,0,1-1.925-.133l-.757-.131c-.067.421-.873.924-1.233,1.126-.389.218-1.466.1-1.725.464-.405.569.675,2.276.2,2.787-.181.194-.8,0-1.061,0a8.018,8.018,0,0,0-2.455,0c-.343.154-.686.915-.995,1.128a7.468,7.468,0,0,1-1.855.93l-.074.9.934.025,2.056-.53,2.256.265-.2,1.128,1.841.67,2.6-.073,1.991.066a8.282,8.282,0,0,1,1.791-.4c.743.055,2.054,1.2,2.787,1.062.671-.127,1.5-1.283,2.055-1.854" fill="url(#linear-gradient)"/>
    <path id="패스_3078" data-name="패스 3078" d="M-1776.75,2679.933c-.68-.01-1.733,1.089-2.24,1.543-.283.252-.643,1-.995,1.144s-1.18-.287-1.542-.149c-.239.09-.552.536-.7.746a14.876,14.876,0,0,0-.846,1.742c-.236.517-.9,2.09-.9,2.09a3.384,3.384,0,0,0-.4.846c0,.2.6.846,1.2,1.144s.448.95.5,1.294a2.284,2.284,0,0,0,.5,1.244c.34.23,1.231.019,1.642,0,.387-.019,1.156-.119,1.542-.149.2-.017.667.1.8-.05.259-.3-.024-1.213-.15-1.592s-.928-.995-.846-1.394c.108-.524,1.334-.9,1.742-1.244.24-.2.3-.3.4-1.194s-.113-1.46-.05-1.941a5.969,5.969,0,0,1,.747-1.741c.221-.351,1.139-.833,1.094-1.244C-1775.308,2680.567-1776.288,2679.94-1776.75,2679.933Z" fill="url(#linear-gradient)"/>
    <path id="패스_3079" data-name="패스 3079" d="M-1787.285,2696.027c.556-.426,2.523,1.223,2.523,1.223l1.443.049,1.294-1.542.846-1.593-.995-2.587,3.184-.149.8-.05.049,1.095,1.045.8,1.792.448.3.9,3.036,1.095s-.1-1.095.2-1.244,2.935-1.393,2.935-1.393h1l1.841.3s1.343,1.593,1.443,1.742,2.274,1.347,2.274,1.347l0,1.223-.929,1.261-.132,1.792.929.729.995,2.19.265,2.189,1.194,2.256-.844.686-1.544.11-2.654.6-3.251,1.194-1,1.724.664,2.456,1.593,1.459,2.692,2.258-1.233,1.126-1.725.464.2,2.787h-3.516l-.995,1.128-2.655,1-1.061-1.459-1.924-.133-1.062.332-2.123-1.461-1.724-.066-2.058.73-1.086-.213-.705-.583.067-1.393.995-1.592.265-2.19-4.711-1.393-.518-1.084-.278-1.039-.218-.925-.246-1.4-.039-1.345-.027-.711-.531-3.052,1.658-1.128,1.194-2.057.73-2.057,1.726-1.26-1.062-1.925S-1787.618,2696.284-1787.285,2696.027Z" fill="url(#linear-gradient)"/>
    <path id="패스_3080" data-name="패스 3080" d="M-1704.463,2700.264a2.953,2.953,0,0,1,.013-.346A2.961,2.961,0,0,0-1704.463,2700.264Z" fill="url(#linear-gradient)"/>
    <path id="패스_3081" data-name="패스 3081" d="M-1704.3,2699.34a1.277,1.277,0,0,0-.136.41A1.277,1.277,0,0,1-1704.3,2699.34Z" fill="url(#linear-gradient)"/>
    <path id="패스_3082" data-name="패스 3082" d="M-1715.691,2686.917c.066.052.128.095.192.141C-1715.563,2687.013-1715.625,2686.969-1715.691,2686.917Z" fill="url(#linear-gradient)"/>
    <path id="패스_3083" data-name="패스 3083" d="M-1706.356,2706.239a6.255,6.255,0,0,1-2.388.6c-.865.065-2.585-.323-3.451-.331s-2.612.484-3.451.265c-.867-.227-2.136-1.7-2.985-1.99a16.167,16.167,0,0,0-4.379-.332,16.736,16.736,0,0,0-4.113.6c-.747.289-1.878,1.992-2.654,1.791.014,0,.03,0,.044,0,.012.417.022.731.022.731l1.261,2.588-1.725.73a31.667,31.667,0,0,0-1.725,2.786c-.431.963-.223,3.635-1.194,4.047a.63.63,0,0,1-.357.029c-.014,0-.03-.01-.045-.013a1.632,1.632,0,0,1-.378-.133l.117.847-.067,1.918-.033.969,1.639.436,1.347.36,2.786.2a5.672,5.672,0,0,1,2.089-.7c.465.1.936,1.164,1.394,1.294.611.172,1.861-.407,2.488-.5.272-.039.828-.032,1.094-.1a10.821,10.821,0,0,0,2.09-.9,3.841,3.841,0,0,0,.524-.41,5,5,0,0,1,1.168-.884,6.879,6.879,0,0,1,2.488-.1,11.12,11.12,0,0,1,2.886.995,23.72,23.72,0,0,1,2.488,2.09,13.926,13.926,0,0,1,1.792,1.493,7.52,7.52,0,0,1,.9,1.99c.129.483.471,1.571.2,1.991-.384.593-2.233.351-2.687.895-.225.27-.045,1.076-.2,1.394-.292.6-1.76,1.271-1.951,1.944a.549.549,0,0,0-.039.145c.006.423.807,1.027,1.194,1.2a4.822,4.822,0,0,0,3.185.1.68.68,0,0,0,.188-.184c.34-.456.507-1.437.807-1.806.381-.468,1.628-.951,1.891-1.493.207-.425-.307-1.532,0-1.891.622-.728,2.838-.444,3.782-.6.449-.073,1.407-.54,1.791-.3s.2,1.363.5,1.692a6.352,6.352,0,0,0,3.085,1.294c.4.043,1.39-.649,1.592-.3.328.565-1.637,1.34-1.692,1.991-.046.578,2.053,1.443,2.423,1.891.426.516-.314,2.317.264,2.653.748.436,1.887-.091,2.588-.6a11.875,11.875,0,0,0,1.194-.961c.793-.758,3.373.631,4.379.2.454-.2,1.532-1.06,1.294-1.493-.383-.7-2.446.008-3.185-.3a8.2,8.2,0,0,1-1.194-1c-.58-.446-2.218-.98-2.389-1.692-.136-.574.635-1.721,1.095-2.09a7.149,7.149,0,0,1,2.588-.7c1.3-.211,5.274-.3,5.274-.3l1.593-2.388,2.288-.9h2.084c-.616-.715-1.643-1.5-1.42-2.057.406-1.017,3.907-.021,4.247-1.062.322-.985-2.9-2.177-2.654-3.184.118-.492,1.58-.374,1.858-.8.547-.83.746-3.322,0-3.98-.8-.709-3.213.8-4.247.531-1.283-.341-2.936-2.973-4.246-3.185-.621-.1-1.761.744-2.389.8-1.27.105-4.058.018-5.041-.8-.761-.63-.492-3.193-1.328-3.716-.509-.318-1.851.536-2.389.265-.822-.413-1.293-2.454-1.856-3.184s-1.75-2.408-2.655-2.654c-1.522-.413-4.724,2.358-6.1,1.592a1.52,1.52,0,0,1-.387-.335,10.891,10.891,0,0,0-1.67,1C-1705.485,2704.636-1705.868,2705.9-1706.356,2706.239Z" fill="url(#linear-gradient)"/>
    <path id="패스_3084" data-name="패스 3084" d="M-1704.166,2701.737c.034.1.071.192.108.286C-1704.095,2701.929-1704.134,2701.835-1704.166,2701.737Z" fill="url(#linear-gradient)"/>
    <path id="패스_3085" data-name="패스 3085" d="M-1753,2729.328c.265,0,.961.1.961.1a8.963,8.963,0,0,1,.93.5c.1.1,1.359,1.526,1.359,1.526l1.593-.364s.995.132,1.791.165a6.3,6.3,0,0,0,2.488-.531,3.407,3.407,0,0,1,.963-.862h1.791l1.891.033a4.024,4.024,0,0,0,1.227-.6c.2-.266.6-.133.664-.564s.2-1.725.2-1.725l1.028-1.725,1.625-1.36a6.076,6.076,0,0,0,.9-.929,12.052,12.052,0,0,1,1.374-1.222l-1.639-.436.033-.969c-.441.011-1.161-.027-1.161-.027s-.748.026-.995,0a17.43,17.43,0,0,1-2.057-.431,11.89,11.89,0,0,0-1.891-.464,2,2,0,0,0-1.36.132c-.468.238-1.325.853-1.792,1.095a31.878,31.878,0,0,0-3.45,1.492,2.485,2.485,0,0,0-.563.764,6.5,6.5,0,0,1-2.289-.5,8.644,8.644,0,0,0-.929-.431c-.322-.155-1.228-.73-1.228-.73l-.417-.025c.094.254.177.568.086.721-.31.524-1.95.249-2.323.73-.4.513.142,2-.133,2.588-.133.287-.695.648-.928.862-.041.038-.089.09-.134.137l1.527,1.887S-1753.263,2729.328-1753,2729.328Z" fill="url(#linear-gradient)"/>
    <path id="패스_3086" data-name="패스 3086" d="M-1703.929,2702.333c.036.077.077.145.114.218C-1703.852,2702.478-1703.893,2702.409-1703.929,2702.333Z" fill="url(#linear-gradient)"/>
    <path id="패스_3087" data-name="패스 3087" d="M-1704.443,2700.5c.011.113.023.226.045.345C-1704.42,2700.724-1704.432,2700.609-1704.443,2700.5Z" fill="url(#linear-gradient)"/>
    <path id="패스_3088" data-name="패스 3088" d="M-1704.344,2701.113c.027.11.055.219.086.329C-1704.289,2701.332-1704.319,2701.223-1704.344,2701.113Z" fill="url(#linear-gradient)"/>
    <path id="패스_3089" data-name="패스 3089" d="M-1715.3,2687.2a2.225,2.225,0,0,0,.384.2A2.3,2.3,0,0,1-1715.3,2687.2Z" fill="url(#linear-gradient)"/>
    <path id="패스_3090" data-name="패스 3090" d="M-1716.072,2686.588l.087.077Z" fill="url(#linear-gradient)"/>
    <path id="패스_3091" data-name="패스 3091" d="M-1730.374,2702.059c-.179.374-1.233.592-1.327.995-.24,1.034.9,3.517,1.924,3.782.776.2,1.907-1.5,2.654-1.791a16.736,16.736,0,0,1,4.113-.6,16.167,16.167,0,0,1,4.379.332c.849.292,2.118,1.763,2.985,1.99.839.219,2.586-.274,3.451-.265s2.586.4,3.451.331a6.255,6.255,0,0,0,2.388-.6c.488-.344.871-1.6,1.327-1.99a10.891,10.891,0,0,1,1.67-1,3.644,3.644,0,0,1-.456-.7c-.037-.073-.078-.141-.114-.218-.046-.1-.087-.2-.129-.31s-.074-.188-.108-.286-.063-.2-.092-.3-.059-.219-.086-.329c-.02-.092-.039-.18-.054-.271-.022-.119-.034-.232-.045-.345-.008-.08-.017-.158-.02-.233a2.961,2.961,0,0,1,.013-.346c.007-.056.007-.116.014-.168a1.277,1.277,0,0,1,.136-.41c.479-.821,3.172-.018,3.716-.8a2.2,2.2,0,0,0-.266-1.858c-.844-1.045-4.1-.9-5.043-1.857-.985-1-1.184-4.074-1.856-5.308a6.827,6.827,0,0,0-1.858-2.389,3.79,3.79,0,0,0-1.327,0c-1,.034-3.048.617-3.981.266a2.225,2.225,0,0,1-.384-.2c-.065-.041-.133-.093-.2-.141s-.126-.089-.192-.141c-.1-.077-.2-.163-.294-.252l-.087-.077q-.179-.166-.359-.351h0a4.98,4.98,0,0,1-.474.43,16.6,16.6,0,0,1-2.588,1.459,7.715,7.715,0,0,1-2.279.4,4.715,4.715,0,0,1,.023,1.862c-.249.732-1.841,1.5-2.189,2.189-.151.3.014,1.067-.2,1.327-.369.45-1.661.551-2.19.8-.606.281-2.322,1.327-2.322,1.327h-2.123a5.852,5.852,0,0,1,.265,2.189C-1730.432,2699.171-1729.959,2701.192-1730.374,2702.059Z" fill="url(#linear-gradient)"/>
    <path id="패스_3092" data-name="패스 3092" d="M-1715.985,2686.665c.1.089.2.175.294.252C-1715.789,2686.84-1715.887,2686.755-1715.985,2686.665Z" fill="url(#linear-gradient)"/>
    <path id="패스_3093" data-name="패스 3093" d="M-1704.436,2699.75c-.007.052-.007.112-.014.168C-1704.443,2699.862-1704.443,2699.8-1704.436,2699.75Z" fill="url(#linear-gradient)"/>
    <path id="패스_3094" data-name="패스 3094" d="M-1704.4,2700.842c.015.091.034.179.054.271C-1704.364,2701.022-1704.383,2700.932-1704.4,2700.842Z" fill="url(#linear-gradient)"/>
    <path id="패스_3095" data-name="패스 3095" d="M-1715.5,2687.058c.067.048.135.1.2.141C-1715.364,2687.158-1715.432,2687.107-1715.5,2687.058Z" fill="url(#linear-gradient)"/>
    <path id="패스_3096" data-name="패스 3096" d="M-1704.258,2701.442c.029.1.057.2.092.3C-1704.2,2701.639-1704.229,2701.541-1704.258,2701.442Z" fill="url(#linear-gradient)"/>
    <path id="패스_3097" data-name="패스 3097" d="M-1703.359,2703.25a3.674,3.674,0,0,1-.456-.7,3.644,3.644,0,0,0,.456.7Z" fill="url(#linear-gradient)"/>
    <path id="패스_3098" data-name="패스 3098" d="M-1704.443,2700.5c-.008-.079-.017-.158-.02-.233C-1704.46,2700.339-1704.451,2700.417-1704.443,2700.5Z" fill="url(#linear-gradient)"/>
    <path id="패스_3099" data-name="패스 3099" d="M-1716.072,2686.588q-.179-.166-.359-.351Q-1716.251,2686.422-1716.072,2686.588Z" fill="url(#linear-gradient)"/>
    <path id="패스_3100" data-name="패스 3100" d="M-1704.058,2702.023c.042.106.083.21.129.31C-1703.975,2702.233-1704.016,2702.128-1704.058,2702.023Z" fill="url(#linear-gradient)"/>
    <path id="패스_3101" data-name="패스 3101" d="M-1743.776,2715.263c.439.214.662,1.446,1.128,1.592.791.248,2.295-1.033,3.118-1.128a11.108,11.108,0,0,1,3.384.4,2.057,2.057,0,0,1,.449.23c.056.035.113.072.171.112q.15.1.309.222a9.625,9.625,0,0,0,1.343.911,1.632,1.632,0,0,0,.378.133c.015,0,.031.011.045.013a.63.63,0,0,0,.357-.029c.971-.412.763-3.084,1.194-4.047a31.667,31.667,0,0,1,1.725-2.786l1.725-.73-1.261-2.588s-.01-.314-.022-.731c-.014,0-.03.005-.044,0-1.027-.265-2.164-2.748-1.924-3.782.094-.4,1.148-.621,1.327-.995.415-.867-.058-2.888-.133-3.848a5.852,5.852,0,0,0-.265-2.189c-.422-.614-1.836-.912-2.78-1.351a1.5,1.5,0,0,1-.338.356,6.384,6.384,0,0,1-3.318.2c-.6-.1-1.651-.844-2.256-.929-.743-.105-2.235.37-2.985.332a5.237,5.237,0,0,1-2.455-.531,4.489,4.489,0,0,1-.992-1.795.693.693,0,0,0-.126-.024c-.553.054-1.489,1.1-2.018.931-.4-.127-.5-1.192-.828-1.449a2.607,2.607,0,0,0-.725-.207l-1.138.776-2.07-.155-3.779,1.035-2.691,1.242-2.639,1.8-.375.206c.111,1.08.169.643,0,1.223-.11.376-.793.894-.929,1.261a3.262,3.262,0,0,0-.132,1.792c.118.27.746.5.929.729a8.365,8.365,0,0,1,.995,2.19c.148.531.1,1.663.265,2.189.191.61,1.3,1.627,1.194,2.256a.276.276,0,0,1-.09.138c-.013.012-.027.026-.043.039a1.354,1.354,0,0,1-.139.1,5.135,5.135,0,0,0-.473.3h0a.42.42,0,0,0-.087.095l-.011.014a.136.136,0,0,0-.018.11c.355,1.252,3.966.372,5.108,1,.485.263,1.019,1.375,1.526,1.592.473.2,1.549-.078,2.057,0a8.737,8.737,0,0,1,2.322.729c.589.343,1.428,1.475,1.991,1.859.173.117.41.258.669.4a8.332,8.332,0,0,0,1.984.857C-1744.828,2715.4-1744.09,2715.11-1743.776,2715.263Z" fill="url(#linear-gradient)"/>
    <path id="패스_3102" data-name="패스 3102" d="M-1733.874,2717.6a9.625,9.625,0,0,1-1.343-.911A9.458,9.458,0,0,0-1733.874,2717.6Z" fill="url(#linear-gradient)"/>
    <path id="패스_3103" data-name="패스 3103" d="M-1750.311,2722a8.644,8.644,0,0,1,.929.431,6.5,6.5,0,0,0,2.289.5,2.485,2.485,0,0,1,.563-.764,31.878,31.878,0,0,1,3.45-1.492c.467-.242,1.324-.857,1.792-1.095a2,2,0,0,1,1.36-.132,11.89,11.89,0,0,1,1.891.464,17.43,17.43,0,0,0,2.057.431c.247.026.995,0,.995,0s.72.038,1.161.027l.067-1.918-.117-.847a9.458,9.458,0,0,1-1.343-.911q-.159-.118-.309-.222c-.058-.04-.115-.077-.171-.112a2.057,2.057,0,0,0-.449-.23,11.108,11.108,0,0,0-3.384-.4c-.823.095-2.327,1.376-3.118,1.128-.466-.146-.689-1.378-1.128-1.592-.314-.153-1.052.134-1.394.066a8.332,8.332,0,0,1-1.984-.857c-.374,1.007-.934,2.117-.934,2.117l-3.716,1.659s-.456.07-.974.13l-.552,1.065a10.533,10.533,0,0,1,1.261,1.525c.032.069.072.167.113.274l.417.025S-1750.633,2721.842-1750.311,2722Z" fill="url(#linear-gradient)"/>
    <path id="패스_3104" data-name="패스 3104" d="M-1714.75,2723.722l.8,1.791,1.095,1.742.05,3.334,1.194,2.189.288.054c.191-.673,1.659-1.339,1.951-1.944.154-.318-.026-1.124.2-1.394.454-.544,2.3-.3,2.687-.895.272-.42-.07-1.508-.2-1.991a7.52,7.52,0,0,0-.9-1.99,13.926,13.926,0,0,0-1.792-1.493,23.72,23.72,0,0,0-2.488-2.09,11.12,11.12,0,0,0-2.886-.995,6.879,6.879,0,0,0-2.488.1,5,5,0,0,0-1.168.884l1.069.609Z" fill="url(#linear-gradient)"/>
    <path id="패스_3105" data-name="패스 3105" d="M-1728.471,2749.674c-.509-.516-1.942-.829-2.235-1.238a8.4,8.4,0,0,1-.929-1.46,7.5,7.5,0,0,1,.2-1.791,8.6,8.6,0,0,0,.531-1.924,4.326,4.326,0,0,0-.73-1.46c-.249-.355-1.13-.831-1.194-1.26-.071-.477.647-1.294.863-1.725l.557-1.114a1.991,1.991,0,0,0-.292-.413c-.231-.23-.8-.686-1.128-.663s-.677.792-.995.8c-.58.01-1.5-.936-1.858-1.393a11.865,11.865,0,0,1-.929-2.189l-3.118-2.455-1.927-1.526h-1.257a3.407,3.407,0,0,0-.963.862,6.3,6.3,0,0,1-2.488.531c-.8-.033-1.791-.165-1.791-.165l-1.593.364s-1.26-1.427-1.359-1.526a8.963,8.963,0,0,0-.93-.5s-.7-.1-.961-.1-.863-1.161-.863-1.161l-1.527-1.887c-.553.571-1.384,1.727-2.055,1.854-.733.139-2.044-1.007-2.787-1.062a8.282,8.282,0,0,0-1.791.4l-1.991-.066-2.6.073,1.078.391,1.194,2.057.184,1.59.336-.059.62.672-.1,1.294.828.052,2.484,2.07,1.656.88,1.19,2.536.828.206,1.5,1.4.827.052,1.864.518,2.328,1.914,1.449,1.449h1.139l1.656,1.5,2.07,2.278.622,1.345.31,2.743-.466,2.794,2.058,2.5s.46.513.582.706c.1.155.217.378.343.625.762-.977,1.718-2.2,2.166-2.794a12.516,12.516,0,0,0,1.459-2.255c.133-.464,1.412-.179,1.858-.332s.945-1.122,1.394-1.26c.576-.178,1.8.466,2.388.332a4.54,4.54,0,0,0,1.792-1.2c.273-.333.816-1.189.663-1.592a.644.644,0,0,0-.154-.222" fill="url(#linear-gradient)"/>
    <path id="패스_3106" data-name="패스 3106" d="M-1710.957,2741.4c.389.282.752.536.752.536l.864-1.194-.4-1.46.531-1.592.266-1.858,1.791-.066.662-.995-.309-.682a.68.68,0,0,1-.188.184,4.822,4.822,0,0,1-3.185-.1c-.387-.168-1.188-.772-1.194-1.2a.549.549,0,0,1,.039-.145l-.288-.054-1.194-2.189-.05-3.334-1.095-1.742-.8-1.791-2.587-2.09-1.069-.609a3.841,3.841,0,0,1-.524.41,10.821,10.821,0,0,1-2.09.9c-.266.067-.822.06-1.094.1-.627.091-1.877.67-2.488.5-.458-.13-.929-1.194-1.394-1.294a5.672,5.672,0,0,0-2.089.7l-2.786-.2-1.347-.36a12.052,12.052,0,0,0-1.374,1.222,6.076,6.076,0,0,1-.9.929l-1.625,1.36-1.028,1.725s-.133,1.294-.2,1.725-.465.3-.664.564a4.024,4.024,0,0,1-1.227.6l-1.891-.033h-.534l1.927,1.526,3.118,2.455a11.865,11.865,0,0,0,.929,2.189c.358.457,1.278,1.4,1.858,1.393.318,0,.678-.773.995-.8s.9.433,1.128.663a1.991,1.991,0,0,1,.292.413,10.735,10.735,0,0,0,.836,1.512,5.139,5.139,0,0,0,1.593,1.128,9.673,9.673,0,0,0,2.123,0c.812.008,2.438.081,3.25.066a7.73,7.73,0,0,0,2.323-.133c.5-.231,1.042-1.329,1.525-1.592a5.884,5.884,0,0,1,1.725-.331c.2-.02.6,0,.8,0a15.463,15.463,0,0,1,2.19-.067,6.264,6.264,0,0,1,2.654,1.062c.247.257.4,1.127.53,1.326a7.184,7.184,0,0,0,.907.725" fill="url(#linear-gradient)"/>
    <path id="패스_3107" data-name="패스 3107" d="M-1711.192,2749.214a.4.4,0,0,0,.323-.164c.456-.642-1.514-1.811-1.99-2.438-.182-.243-.7-1-.7-1l1.792-2.041.807-2.178a7.184,7.184,0,0,1-.907-.725c-.132-.2-.283-1.069-.53-1.326a6.264,6.264,0,0,0-2.654-1.062,15.463,15.463,0,0,0-2.19.067c-.2,0-.6-.02-.8,0a5.884,5.884,0,0,0-1.725.331c-.483.263-1.024,1.361-1.525,1.592a7.73,7.73,0,0,1-2.323.133c-.812.015-2.438-.058-3.25-.066a9.673,9.673,0,0,1-2.123,0,5.139,5.139,0,0,1-1.593-1.128,10.735,10.735,0,0,1-.836-1.512l-.557,1.114c-.216.431-.934,1.248-.863,1.725.064.429.945.905,1.194,1.26a4.326,4.326,0,0,1,.73,1.46,8.6,8.6,0,0,1-.531,1.924,7.5,7.5,0,0,0-.2,1.791,8.4,8.4,0,0,0,.929,1.46c.293.409,1.726.722,2.235,1.238l1.729-.126a15.281,15.281,0,0,0,1.99,1.094,13.324,13.324,0,0,0,4.329.5,9.825,9.825,0,0,0,2.837-1.145c.382-.237.989-.919,1.343-1.194.392-.3,1.153-1.035,1.642-1.095.849-.1,2.58,1.564,3.409,1.508" fill="url(#linear-gradient)"/>
    <path id="패스_3108" data-name="패스 3108" d="M-1718.715,2770.927c.143-.113.09-.57,0-.729-.137-.242-.857-.521-1.062-.332-.162.151.025.726.2.862S-1718.888,2771.066-1718.715,2770.927Z" fill="url(#linear-gradient)"/>
    <path id="패스_3109" data-name="패스 3109" d="M-1714.537,2754.959a.717.717,0,0,0,.285.012c.387-.118.773-.948,1.094-1.194a5.547,5.547,0,0,1,1.842-.945c.779-.111,2.315.747,3.085.6a1.9,1.9,0,0,0,.995-.647.734.734,0,0,0,0-.547c-.289-.444-1.48-.583-1.941-.846a6.688,6.688,0,0,1-1.293-.946,7.422,7.422,0,0,1-.722-1.229c-.829.056-2.56-1.611-3.409-1.508-.489.06-1.25.793-1.642,1.095-.354.275-.961.957-1.343,1.194a9.825,9.825,0,0,1-2.837,1.145,13.324,13.324,0,0,1-4.329-.5,15.281,15.281,0,0,1-1.99-1.094l-1.729.126a.644.644,0,0,1,.154.222c.153.4-.39,1.259-.663,1.592a4.54,4.54,0,0,1-1.792,1.2c-.588.134-1.812-.51-2.388-.332-.449.138-.95,1.108-1.394,1.26s-1.725-.132-1.858.332a12.516,12.516,0,0,1-1.459,2.255c-.448.591-1.4,1.817-2.166,2.794.653,1.274,1.571,3.464,1.571,3.464a11.909,11.909,0,0,1,1.6,1.294c.186.236.336.846.517,1.086.166.22.673.5.828.724a10.324,10.324,0,0,1,.742,2.071c.154.478.384,1.458.552,1.932.176.5.357,1.7.828,1.932.51.253,1.646-.641,2.208-.552.643.1,1.648,1.711,2.208,1.38,1.071-.633.279-3.855-.276-4.968-.523-1.052-3.992-1.933-3.588-3.036.261-.713,2.321-.255,3.037,0,.923.329,2.165,2.935,3.035,2.484s-.275-3.864-.275-3.864a19.94,19.94,0,0,0-.552-3.589c-.358-.867-2.247-2.1-2.208-3.036a2.938,2.938,0,0,1,1.656-1.932c.511-.119,1.493,1.117,1.931.828.289-.19-.18-1.087,0-1.38.406-.656,2.76-1.38,2.76-1.38l3.037,1.1,3.312.828.033.1-.081.468a3.631,3.631,0,0,1,1.014-.426c.4-.047,1.107.367,1.606.435" fill="url(#linear-gradient)"/>
  </g>
</svg>
