<svg id="그룹_666" data-name="그룹 666" xmlns="http://www.w3.org/2000/svg" xmlns:xlink="http://www.w3.org/1999/xlink" width="1235.062" height="600.149" viewBox="0 0 1235.062 600.149">
  <defs>
    <linearGradient id="linear-gradient" x1="9.223" y1="11.793" x2="3.732" y2="-4.53" gradientUnits="objectBoundingBox">
      <stop offset="0" stop-color="#ff8c12"/>
      <stop offset="1" stop-color="#ffbf5e"/>
    </linearGradient>
    <clipPath id="clip-path">
      <path id="패스_2241" data-name="패스 2241" d="M518.616,91.294h-1.99l-1.062,1.127s-.662.067-1.327,1.128-1.724,2.919-2.52,2.389-1.991,1.194,0,1.725.53,1.327.8,1.725c.108.164.529-.031.961-.224.621-.279,1.264-.558,1.029.224a8.869,8.869,0,0,1-2.123,2.919s-1.061,3.053,0,1.99,2.123-1.857,2.123-.53.1,3.185,1.38,2.786a2.784,2.784,0,0,1,1.607.009,2.108,2.108,0,0,0,1.259.046c.929-.321,3.715-.187,2.389.874s.173,2.786.352,2.786-.179.133,0,1.062-2.608,2.389-2.608,2.389-2.942-1.195-2.8,0a1.541,1.541,0,0,1-1.05,1.592l1.991.929.265,1.858-2.786,1.725s-.155,1.062,1.58,1.062,3.2-.93,3.86,0-2.919,1.857-2.919,1.857l-2.919,1.592s-3.317,1.195-1.858,1.99,3.98,1.46,5.042.531,2.257-2.256,3.716-1.725,5.706-.662,5.706-.662l5.971-1.063s3.981-.663,2.653-1.062a31.611,31.611,0,0,1-3.316-1.326l3.588-3.848.658-2.654-4.512-1.194L529.232,110l.664-2.257s-3.052-3.184-3.052-3.715-2.332,0-2.825-2.786,4.019-.8,2.825-3.716-1.005-3.185-2.825-3.185-5.27,2.92-5.668.929.8-1.725.8-1.725l1.991-2.255Z" fill="url(#linear-gradient)"/>
    </clipPath>
    <clipPath id="clip-path-2">
      <path id="패스_2242" data-name="패스 2242" d="M506.275,105.226a6.566,6.566,0,0,0-3.051,1.858,4.6,4.6,0,0,0-.133,1.592l-1.991.8-2.786-.4-1.061,2.256,2.522,1.858-.93,2.522-3.052,1.459,1.327,2.388,1.592,2.123,4.91-2.521,4.777-1.194,2.123-5.308-.4-1.327,2.653-1.46-.4-2.918a10.372,10.372,0,0,0-1.991-1.592,7.779,7.779,0,0,0-2.372-.3,7.524,7.524,0,0,0-1.742.169" fill="url(#linear-gradient)"/>
    </clipPath>
    <clipPath id="clip-path-3">
      <path id="패스_2243" data-name="패스 2243" d="M533.08,176.483a.989.989,0,0,0,0,.995c.231.2.975.01,1.194-.2.172-.164.357-.751.2-.929a.674.674,0,0,0-.487-.141,1.429,1.429,0,0,0-.906.274" fill="url(#linear-gradient)"/>
    </clipPath>
    <clipPath id="clip-path-4">
      <path id="패스_2244" data-name="패스 2244" d="M539.516,172.436s-1.126.613-1.2.995c-.047.263.329.753.531.929.378.326,1.4.918,1.858.73.337-.138.553-.966.6-1.328a1.764,1.764,0,0,0-.2-1.127,2.321,2.321,0,0,0-1.2-.209c-.228,0-.4.01-.4.01" fill="url(#linear-gradient)"/>
    </clipPath>
    <clipPath id="clip-path-5">
      <path id="패스_2245" data-name="패스 2245" d="M561.609,160.36a3.807,3.807,0,0,0-.995,1.195,2.265,2.265,0,0,0,0,1.327c.133.2.806,2.117,1.46,2.19.5.055,1.459-1.394,1.459-1.394a12.4,12.4,0,0,0,.465-2.123,2.194,2.194,0,0,0-.664-1.459.926.926,0,0,0-.43-.082,2.721,2.721,0,0,0-1.295.346" fill="url(#linear-gradient)"/>
    </clipPath>
    <clipPath id="clip-path-6">
      <path id="패스_2246" data-name="패스 2246" d="M561.543,166.995s-1.535.618-2.056.8c-.179.062-.664.2-.6.465a7.732,7.732,0,0,0,.663,1.194c.176.294.66.853.664,1.2s-.591.91-.664,1.26a6.477,6.477,0,0,0,.066.862c-.005.5-.21,1.49-.2,1.991.016.553-.109,1.855.332,2.189.321.242,1.593-.2,1.593-.2l2.056-.928s.731.331.8.132a13.7,13.7,0,0,0,.4-2.389c-.006-.673-.392-1.983-.463-2.653-.092-.858.246-2.675-.133-3.45a6.981,6.981,0,0,0-1.659-1.394Z" fill="url(#linear-gradient)"/>
    </clipPath>
    <clipPath id="clip-path-7">
      <path id="패스_2247" data-name="패스 2247" d="M583.172,180.265c-.764.168-2.142,1.041-2.919,1.127a10.554,10.554,0,0,1-2.72-.4c-.444-.108-1.279-.691-1.726-.6-.287.059-.6.66-.862.8-.136.071-.536-.008-.6.132-.185.423.579,1.292.928,1.592.718.616,2.654,1.008,3.518,1.393a18.869,18.869,0,0,1,2.388,1.195c.412.29.964,1.3,1.459,1.393a2.256,2.256,0,0,0,1.792-.729c.39-.772-.6-2.652-.266-3.451.234-.564,1.8-.983,1.858-1.592.031-.318-.508-.86-.8-.995a1.321,1.321,0,0,0-.539-.089,7.822,7.822,0,0,0-1.518.222" fill="url(#linear-gradient)"/>
    </clipPath>
    <clipPath id="clip-path-8">
      <path id="패스_2248" data-name="패스 2248" d="M617.075,192.606a1.444,1.444,0,0,0-.067,1.458c.3.345,1.1.309,1.811.273a5.81,5.81,0,0,1,.911-.006c.862.113,2.786.463,3.449.463s3.053-.065,3.053-.065a2.195,2.195,0,0,0-.6-.863,3.177,3.177,0,0,0-1.261-.133s-1.292-.116-1.724-.133c-.141,0-.34,0-.55.008a6.034,6.034,0,0,1-.843-.008c-.444-.058-1.292-.359-1.725-.463a10.383,10.383,0,0,0-2.076-.638.606.606,0,0,0-.38.107" fill="url(#linear-gradient)"/>
    </clipPath>
    <clipPath id="clip-path-9">
      <path id="패스_2249" data-name="패스 2249" d="M618.137,182.587a.952.952,0,0,0-.265.8c.116.457,1.043.974,1.459,1.2.26.136.9.511,1.128.331.171-.132.02-.664-.067-.862a3.066,3.066,0,0,0-.861-.93,2.99,2.99,0,0,0-1.228-.566.355.355,0,0,0-.166.036" fill="url(#linear-gradient)"/>
    </clipPath>
    <clipPath id="clip-path-10">
      <path id="패스_2250" data-name="패스 2250" d="M620.79,181.99a1.092,1.092,0,0,0,.067.729c.181.345.84,1.156,1.194,1,.2-.089.151-.644.132-.862-.027-.362-.376-1.169-.729-1.26a.181.181,0,0,0-.048,0,.951.951,0,0,0-.616.4" fill="url(#linear-gradient)"/>
    </clipPath>
    <clipPath id="clip-path-11">
      <path id="패스_2251" data-name="패스 2251" d="M619.994,186.767a.389.389,0,0,0,0,.265.951.951,0,0,0,.4.4c.253.086.971.118,1.062-.134s-.467-.731-.729-.8a.328.328,0,0,0-.08-.008,1,1,0,0,0-.651.274" fill="url(#linear-gradient)"/>
    </clipPath>
    <clipPath id="clip-path-12">
      <path id="패스_2252" data-name="패스 2252" d="M623.113,186.9c-.041.063.141.192.132.266-.021.211-.606.465-.53.663.089.233.769.1,1,0s.583-.648.463-.862c-.073-.132-.357-.207-.616-.207a.562.562,0,0,0-.445.14" fill="url(#linear-gradient)"/>
    </clipPath>
    <clipPath id="clip-path-13">
      <path id="패스_2253" data-name="패스 2253" d="M625.1,185.838a.879.879,0,0,0,.132.8c.2.172.911.219,1.062,0s-.14-.944-.4-1.061a.334.334,0,0,0-.133-.023.948.948,0,0,0-.664.288" fill="url(#linear-gradient)"/>
    </clipPath>
    <clipPath id="clip-path-14">
      <path id="패스_2254" data-name="패스 2254" d="M626.232,187.364c0,.248.558.667.795.6.173-.052.347-.426.4-.6.059-.2,0-.731-.2-.8a.22.22,0,0,0-.078-.012c-.329,0-.921.515-.916.808" fill="url(#linear-gradient)"/>
    </clipPath>
    <clipPath id="clip-path-15">
      <path id="패스_2255" data-name="패스 2255" d="M655.491,191.942a7.266,7.266,0,0,0-1.063.6c-.351.162-1.1.387-1.458.53-.622.248-2.455,1.062-2.455,1.062l-.8.465-.4,1.791h1.99l.8.464,1.724-.4a9.4,9.4,0,0,0,1.925-1.659c.218-.4.013-1.415.265-1.791.236-.351,1.551-.448,1.46-.862-.054-.247-.437-.321-.865-.321a6.138,6.138,0,0,0-1.125.122" fill="url(#linear-gradient)"/>
    </clipPath>
    <clipPath id="clip-path-16">
      <path id="패스_2256" data-name="패스 2256" d="M623.506,81.773l.3-.075,1.4,1.293,1.76.776s.287.162.356.2c-.016.084-.512.426-.512.426l-3.467.672V86.1l-.156.931-.885.04-1.185-.195-1.293-.466-2.07.155-3.209-.621s-1.79.116-2.38.207c-.42.063-1.341.079-1.656.362a4.035,4.035,0,0,0-.932,2.743c.13.656,1.76,2.019,1.76,2.019l.776.828s-.383.69-.261.886c.087.137.41.134.648.131.07,0,.133,0,.18,0a6.088,6.088,0,0,0,.909-.069,3.98,3.98,0,0,1,1.281-.03c.746.2,1.875,1.391,2.587,1.692a10.647,10.647,0,0,0,2.687.6,19.069,19.069,0,0,0,2.455-.3c-.256-2.079.017-6.847,1.592-8.227.414-.362,1.32-.231,2.225-.1.956.138,1.911.276,2.287-.166.434-.507.062-2.072-.265-2.653-.489-.868-3.016-1.408-3.185-2.388a1.808,1.808,0,0,1,.224-1.039l-1.252-.156Z" fill="url(#linear-gradient)"/>
    </clipPath>
    <clipPath id="clip-path-17">
      <path id="패스_2257" data-name="패스 2257" d="M615.469,45.945a10.73,10.73,0,0,0-1.842-.746,2.768,2.768,0,0,0-1.592.15c-.493.39-.686,1.767-.8,2.388-.072.4.159,1.288-.05,1.642A3.886,3.886,0,0,1,609,50.673c-.693.071-1.951-.775-2.637-.9a6.874,6.874,0,0,0-1.11-.034,7.51,7.51,0,0,1-.93-.016,10.68,10.68,0,0,1-2.289-.5c-.613-.269-1.542-1.371-2.189-1.542a2.967,2.967,0,0,0-2.041.2c-.2.179-.01.857-.2,1.045-.309.307-1.258.146-1.737.306.948.648,2.095,1.213,2.716,1.585a8,8,0,0,0,2.056.863,4.387,4.387,0,0,0,1.283-.127,3.35,3.35,0,0,1,1.57-.073,4.73,4.73,0,0,1,1.659,1.857,26.585,26.585,0,0,1,.464,2.721,19.062,19.062,0,0,1,.929,1.924,16.2,16.2,0,0,1-.2,1.924c0,.294.715.894,1.241,1.487a1.33,1.33,0,0,1,.594-.144,3.689,3.689,0,0,1,2.33,1.554c.141.431-.364,1.333-.622,1.707a17.163,17.163,0,0,1-3.053,2.64c-.78.593-2.449,1.623-3.26,2.173-.963.653-3.239,1.638-3.83,2.64a7.125,7.125,0,0,0-.414,4.191,3.8,3.8,0,0,0,.982,1.191c.15.129.58.241.675.414.442.82-.59,2.931-.1,3.726.358.588,2.483,1.19,2.483,1.19l1.5,1.605,4.192.155,2.743-.777,2.9-.879,1.759-.052,1.708-.672h1.966l1.606.154,1.754-.438.011,0,.72-1.493,1.252.156a11.823,11.823,0,0,1,2.429-2.942c1.117-1.025,4.979-1.442,5.31-2.92.2-.881-1.692-2.126-2.124-2.919-.441-.812-.466-3.116-1.327-3.45-.211-.081-.507.157-.8.4s-.58.467-.79.4c-1.075-.343-2.123-3.981-2.123-3.981l-.532-4.246-1.592-3.185s1.192-3.225.532-3.98c-.164-.187-.566-.107-.968-.028a1.527,1.527,0,0,1-.891.028,4.333,4.333,0,0,1-1.592-2.92c.065-.739,1.146-1.781,1.844-2.407l-2.01-1.142-1.493-.9-2.041-.249-.6-.995Z" fill="url(#linear-gradient)"/>
    </clipPath>
    <clipPath id="clip-path-18">
      <path id="패스_2258" data-name="패스 2258" d="M605.714,40.813a11.483,11.483,0,0,0-3.589.828c-.731.447-1.459,2.205-2.208,2.622-1.249.695-4.23.9-5.658.828-.852-.043-2.478-1.008-3.313-.828-.816.175-1.954,1.568-2.621,2.07-1.323.994-4.225,2.67-5.39,3.846-.507.512-1.189,1.808-1.649,2.364a22.134,22.134,0,0,1-2.594,2.663c-1.042.8-3.6,1.7-4.582,2.581-1.234,1.106-2.793,4.12-3.865,5.382-.505.6-1.638,1.674-2.207,2.209-.9.847-3.707,3.276-3.707,3.276l-3.884,1.692-4.416,2.07-6.28,3.037-1.172,3.312.828,5.8,1.517,5.244,3.537,2.657,2.95-.725,3.675-1.966,2.535-1.657,1.553-.31.621-1.915,1.92,2.343.2.349,1.653-.451.056,0,.149.968c.467-.083.895-.156.959-.156.149,0,.6-1.094.6-1.094a7.583,7.583,0,0,1,.1-1.792,7.9,7.9,0,0,1,.795-.547l1.344-1.642a7.133,7.133,0,0,1-.6-1.841c0-.547.9-1.543.9-1.742s.348-1.194.248-1.343-.886-.407-1.094-.648a4.338,4.338,0,0,1-.5-1.692c0-.2-.2-1.143-.2-1.393s-.995-1.443-.995-1.692a16.766,16.766,0,0,1,.448-1.691,9.067,9.067,0,0,1,1.443-1.443,9.593,9.593,0,0,1,1.443-1.144c.621-.3,2.265-.054,2.687-.6.237-.305-.056-1.156-.05-1.543a5.7,5.7,0,0,1,.1-1.592,12.407,12.407,0,0,1,1.842-2.04c.149-.2-.169-1.268-.15-1.692.022-.48.142-1.586.548-1.841.223-.141.64.023,1.056.186.437.171.872.342,1.084.163.274-.235-.131-1.108,0-1.444.257-.66,1.094-1.194,2.239-1.741s.1-1.692.2-1.842.746-.646,1.891-1.641a1.817,1.817,0,0,1,1.585-.572,2.334,2.334,0,0,0,.9-.075c1-.3.381-1.155.6-1.493.417-.652,2.687-.3,3.085-.249a5.4,5.4,0,0,0,2.389-.448c.375-.258.661-1.247,1.045-1.492a.655.655,0,0,1,.153-.043c.479-.16,1.428,0,1.737-.306.189-.188,0-.866.2-1.045a2.967,2.967,0,0,1,2.041-.2c.647.171,1.576,1.273,2.189,1.542a10.68,10.68,0,0,0,2.289.5,7.51,7.51,0,0,0,.93.016,6.874,6.874,0,0,1,1.11.034c.686.121,1.944.967,2.637.9a3.886,3.886,0,0,0,2.19-1.294c.209-.354-.022-1.238.05-1.642.11-.621.3-2,.8-2.388a2.768,2.768,0,0,1,1.592-.15,10.73,10.73,0,0,1,1.842.746L616.711,45l.6.995,2.041.249,1.493.9,2.01,1.142.278-.247a38.586,38.586,0,0,1,4.442-2.7L624.54,44.9l-.609-.086.966-2.346-2.9-.138-2.76-.552-2.07-.966a23.377,23.377,0,0,0-3.175,0c-.741.131-2.094,1.2-2.829,1.035-.358-.08-.7-.9-1.035-1.035a4.527,4.527,0,0,0-1.608-.219,25.584,25.584,0,0,0-2.808.219" fill="url(#linear-gradient)"/>
    </clipPath>
    <clipPath id="clip-path-19">
      <path id="패스_2259" data-name="패스 2259" d="M611.853,92.986c-.042.026-.043.145-.056.195-.166.606-.2,1.964-.615,2.438a3.063,3.063,0,0,1-1.811.724,5.891,5.891,0,0,1-2.174-1.138c-.438-.317-1.021-1.408-1.553-1.5a4.686,4.686,0,0,0-3,1.345,7.489,7.489,0,0,0-1.036,3.157c-.059.474.219,1.433.135,1.9a1.326,1.326,0,0,1-.106.293,17.308,17.308,0,0,0,2.585.246,24.545,24.545,0,0,1,2.588-.6c.684.007,1.971.62,2.654.664a28.4,28.4,0,0,0,3.383-.4,8.78,8.78,0,0,1,2.587-.2c.908.293,2.087,1.99,2.92,2.455a7.307,7.307,0,0,0,2.189.73,7.6,7.6,0,0,0,2.522-.4,16.69,16.69,0,0,0,2.588-1.459,5.157,5.157,0,0,0,.474-.431,17.135,17.135,0,0,1-1.668-2.024,12.256,12.256,0,0,1-1.859-3.981,19.069,19.069,0,0,1-2.455.3,10.69,10.69,0,0,1-2.687-.6c-.712-.3-1.841-1.489-2.587-1.692a3.98,3.98,0,0,0-1.281.03,6.088,6.088,0,0,1-.909.069c-.168-.01-.488-.163-.7-.163a.24.24,0,0,0-.129.031" fill="url(#linear-gradient)"/>
    </clipPath>
    <clipPath id="clip-path-20">
      <path id="패스_2260" data-name="패스 2260" d="M604.222,100.648a17.308,17.308,0,0,1-2.585-.246,1.5,1.5,0,0,1-.133.237c-.023.031-.1.065-.117.1a4.352,4.352,0,0,0,.014,1.3c-.006.283.044.734.054,1.168.413.333.778.624,1.042.828a17.552,17.552,0,0,0,1.526,1.128,24.486,24.486,0,0,0,2.389.995c.312.124,1.036.215,1.26.465.4.444.226,1.852.6,2.322.617.78,2.953,1.038,3.517,1.857h2.123s1.715-1.046,2.322-1.326c.528-.246,1.821-.346,2.19-.8.213-.26.047-1.027.2-1.326.348-.692,1.94-1.458,2.189-2.19a4.73,4.73,0,0,0-.023-1.861c-.079,0-.176.01-.243,0a7.307,7.307,0,0,1-2.189-.73c-.833-.465-2.012-2.162-2.92-2.455a8.78,8.78,0,0,0-2.587.2,28.4,28.4,0,0,1-3.383.4c-.683-.044-1.97-.657-2.654-.664H606.8a25.782,25.782,0,0,0-2.575.6" fill="url(#linear-gradient)"/>
    </clipPath>
    <clipPath id="clip-path-21">
      <path id="패스_2261" data-name="패스 2261" d="M601.3,104.21c-.4.622-2.1.835-2.64,1.345a3.7,3.7,0,0,0-.482,1.273c-.044.145-.009.511-.138.59-.3.184-.966-.277-1.375-.338a4.471,4.471,0,0,0,.992,1.795,5.238,5.238,0,0,0,2.454.531,7.165,7.165,0,0,0,1.393-.172,5.971,5.971,0,0,1,1.593-.16c.6.085,1.655.829,2.256.93a6.377,6.377,0,0,0,3.317-.2,1.454,1.454,0,0,0,.339-.355,2.049,2.049,0,0,1-.737-.507c-.371-.471-.2-1.878-.6-2.322-.224-.25-.948-.341-1.26-.465a24.486,24.486,0,0,1-2.389-.995,17.552,17.552,0,0,1-1.526-1.128c-.264-.2-.629-.495-1.042-.828a1.978,1.978,0,0,1-.158,1.006" fill="url(#linear-gradient)"/>
    </clipPath>
    <clipPath id="clip-path-22">
      <path id="패스_2262" data-name="패스 2262" d="M595.714,49.28c-.384.245-.67,1.234-1.045,1.492a5.4,5.4,0,0,1-2.389.448c-.4-.049-2.668-.4-3.085.249-.217.338.4,1.194-.6,1.493a2.334,2.334,0,0,1-.9.075,1.818,1.818,0,0,0-1.585.572c-1.145.995-1.791,1.492-1.891,1.641s.945,1.295-.2,1.842-1.982,1.081-2.239,1.741c-.131.336.274,1.209,0,1.444-.212.179-.647.008-1.084-.163-.416-.163-.833-.327-1.056-.186-.406.255-.526,1.361-.548,1.841-.019.424.3,1.493.15,1.692A12.407,12.407,0,0,0,577.4,65.5a5.7,5.7,0,0,0-.1,1.592c-.006.387.287,1.238.05,1.543-.422.544-2.066.3-2.687.6a9.593,9.593,0,0,0-1.443,1.144,9.067,9.067,0,0,0-1.443,1.443,16.766,16.766,0,0,0-.448,1.691c0,.249.995,1.444.995,1.692s.2,1.195.2,1.393a4.338,4.338,0,0,0,.5,1.692c.208.241.995.5,1.094.648s-.248,1.144-.248,1.343-.9,1.195-.9,1.742a7.133,7.133,0,0,0,.6,1.841L572.226,85.5a7.9,7.9,0,0,0-.795.547,7.583,7.583,0,0,0-.1,1.792s-.448,1.094-.6,1.094c-.064,0-.492.073-.959.156l.678,4.455,3.416,3.778-.415,2.069.208,2.588,1.5,1.656,1.76.155,1.811-.31.259-1.707,2.38-1.035,1.864.465.828-.311,1.6-4.864-.052-2.019.311-2.95,1.4-1.035,3.209-1.656.673-1.448,1.293-1.4-.362-1.759-1.6-1.5-2.484-.568a16.553,16.553,0,0,0-.259-2.071c-.16-.538-.849-1.473-.984-2.019a5.223,5.223,0,0,1-.051-1.759,6.95,6.95,0,0,1,1.087-2.225,6.41,6.41,0,0,1,1.4-1.035c.6-.336,1.931-.715,2.535-1.035.825-.438,2.318-1.572,3.106-2.07.892-.565,2.807-1.5,3.623-2.175.4-.332,1.416-1.029,1.4-1.552-.017-.465-1.337-.827-1.346-1.293-.01-.54,1.079-1.217,1.5-1.554a10.9,10.9,0,0,1,3-1.811,6,6,0,0,1,2.071.155c.266.066.746.353,1.008.433a1.724,1.724,0,0,0,.44.086,4.265,4.265,0,0,0,1.01-.375c-.526-.593-1.241-1.193-1.241-1.487a16.2,16.2,0,0,0,.2-1.924,19.062,19.062,0,0,0-.929-1.924,26.585,26.585,0,0,0-.464-2.721,4.73,4.73,0,0,0-1.659-1.857,3.357,3.357,0,0,0-1.569.072,4.4,4.4,0,0,1-1.284.128,8,8,0,0,1-2.056-.863c-.621-.372-1.768-.937-2.716-1.585a.655.655,0,0,0-.153.043" fill="url(#linear-gradient)"/>
    </clipPath>
    <clipPath id="clip-path-23">
      <path id="패스_2263" data-name="패스 2263" d="M570.982,102.24a2.352,2.352,0,0,1-.719-.049,1.823,1.823,0,0,0-.873-.016,2.476,2.476,0,0,0-1.194,1.459,1.793,1.793,0,0,0,.8,1.128,1,1,0,0,0,.535-.015c.239-.044.482-.088.591.015a1.3,1.3,0,0,1,.067,1.061c-.162.379-1.157.663-1.261,1.061a1.068,1.068,0,0,0,.332.863,2.372,2.372,0,0,0,1.858-.331,1.884,1.884,0,0,0,.6-1.327c-.032-.15-.494-.249-.463-.4.086-.427,1.658-.531,1.658-.531l.6-1.526-.6-.8v-1.527a11.33,11.33,0,0,1-1.924.929" fill="url(#linear-gradient)"/>
    </clipPath>
    <clipPath id="clip-path-24">
      <path id="패스_2265" data-name="패스 2265" d="M581.846,123.451h0Z" fill="url(#linear-gradient)"/>
    </clipPath>
    <clipPath id="clip-path-25">
      <path id="패스_2266" data-name="패스 2266" d="M581.847,123.451a5.3,5.3,0,0,1,.474-.3,5.3,5.3,0,0,0-.474.3" fill="url(#linear-gradient)"/>
    </clipPath>
    <clipPath id="clip-path-26">
      <path id="패스_2267" data-name="패스 2267" d="M554.875,110.938c-.255.155-.483.758-.6,1.034-.047.112-.024.4-.127.466-.284.171-.789-.028-1.28-.227a2.84,2.84,0,0,0-1-.29,6.164,6.164,0,0,0-1.76.621,33.312,33.312,0,0,0-2.794,1.915l-1.087-.518-.879,2.64-2.588,3.1-1.4.8-.541.234a12.651,12.651,0,0,0,.9,1.1,3.478,3.478,0,0,0,1.127.863,6.082,6.082,0,0,0,2.389-.531c.594-.211,1.625-1.12,2.256-1.128a3.335,3.335,0,0,1,1.99.929,3.855,3.855,0,0,1,.2,2.255c-.132.2,1.792.465,1.792.465l.425-.018c0-.271-.009-.529-.027-.711-.08-.772-.765-2.314-.531-3.052.151-.479.928-.93,1.658-1.129s1.024-1.487,1.2-2.056a7.185,7.185,0,0,1,.729-2.058c.349-.4,1.726-.928,1.726-1.26s-.867-1.41-1.062-1.924a7.629,7.629,0,0,1-.317-1.653,1.545,1.545,0,0,0-.4.133" fill="url(#linear-gradient)"/>
    </clipPath>
    <clipPath id="clip-path-27">
      <path id="패스_2268" data-name="패스 2268" d="M540.595,120.818c-.159.074-.625.315-.625.315l-1.019,1.018.782,2.382a1.58,1.58,0,0,0,.8.133,7.2,7.2,0,0,1,1.526.265l.664.266s1.369,1.369,1.857,1.791c.761.657,2.225,2.156,3.185,2.455a2.135,2.135,0,0,0,.766-.019,3.737,3.737,0,0,1,.495-.048c.361.009,1.1.33,1.585.347.185.006.334-.029.4-.148.309-.512-1.51-1.421-1.326-1.99.087-.27.778-.381,1.062-.4a5.972,5.972,0,0,1,1.439.205c-.106-.509-.2-1.051-.246-1.4-.037-.328-.033-.863-.038-1.345l-.425.018s-1.924-.266-1.792-.465a3.855,3.855,0,0,0-.2-2.255,3.335,3.335,0,0,0-1.99-.929c-.631.008-1.662.917-2.256,1.128a6.082,6.082,0,0,1-2.389.531,3.478,3.478,0,0,1-1.127-.863,12.651,12.651,0,0,1-.9-1.1l-.228.1" fill="url(#linear-gradient)"/>
    </clipPath>
    <clipPath id="clip-path-28">
      <path id="패스_2269" data-name="패스 2269" d="M552.405,128.315c.073.255.163.651.278,1.04l-.5-1.964c.075.352.153.691.219.924" fill="url(#linear-gradient)"/>
    </clipPath>
    <clipPath id="clip-path-29">
      <path id="패스_2270" data-name="패스 2270" d="M550.747,127.186c-.284.018-.975.129-1.062.4-.184.569,1.635,1.478,1.326,1.99-.07.119-.219.154-.4.148l.339.184,1.459-.464.278-.088c-.115-.389-.2-.785-.278-1.04-.066-.233-.144-.572-.219-.924a6.73,6.73,0,0,0-1.343-.207l-.1,0" fill="url(#linear-gradient)"/>
    </clipPath>
    <clipPath id="clip-path-30">
      <path id="패스_2271" data-name="패스 2271" d="M497.6,162.022a4.719,4.719,0,0,0-2.137.7.046.046,0,0,0-.014.024,16.606,16.606,0,0,0,.322,2.427,18.233,18.233,0,0,1-.517,4.141c-.326,1.031-1.567,2.846-2.019,3.829-.338.733-1.36,2.211-1.191,3,.132.617,1.546,1.186,1.812,1.759.556,1.2-.261,4.112.362,5.279a2.5,2.5,0,0,0,1.138.88,6.245,6.245,0,0,0,1.76-.207c.311-.038.936-.1,1.243-.156s.872-.383,1.169-.319c.022,0,.05.05.072.061h0c.31-.222-.295-1.166-.147-1.516.228-.541.995-.8,2.057-1.128s.269-1.314.132-1.725a4.719,4.719,0,0,1-.132-2.455c.2-.474,1.327-1.128,1.394-1.525s-.634-.614-.863-.8c-.372-.294-1.232-1.063-1.128-1.526.116-.513,1.513-.6,1.858-1a8.561,8.561,0,0,0,1.061-3.384,5.524,5.524,0,0,1,.265-1.858c.266-.527,1.46-1.592,1.46-1.857a2.253,2.253,0,0,0-.265-1.062,3.193,3.193,0,0,0-1.592-.929c-.409-.031-1.116.589-1.527.6a14.335,14.335,0,0,1-2.72-.929,8.945,8.945,0,0,0-1.767-.335c-.031,0-.062,0-.09,0" fill="url(#linear-gradient)"/>
    </clipPath>
    <clipPath id="clip-path-31">
      <path id="패스_2272" data-name="패스 2272" d="M499.293,154.431c-.547.182-1.187,1.269-1.656,1.6-.485.347-1.876.544-2.122,1.086-.177.389.358,1.233.414,1.656a9.257,9.257,0,0,1,.052,3.312c-.062.164-.365.378-.466.519-.015.019-.071.059-.049.084.373.421,1.576-.66,2.137-.7a7.938,7.938,0,0,1,1.857.332,14.335,14.335,0,0,0,2.72.929c.411-.009,1.118-.629,1.527-.6a3.187,3.187,0,0,1,1.592.93,2.246,2.246,0,0,1,.265,1.061c0,.265-1.194,1.33-1.46,1.859a5.509,5.509,0,0,0-.265,1.856,8.561,8.561,0,0,1-1.061,3.384c-.345.4-1.742.482-1.858,1-.1.462.756,1.231,1.128,1.526.229.182.929.4.863.8s-1.19,1.051-1.394,1.525a4.718,4.718,0,0,0,.132,2.455c.137.412.93,1.394-.132,1.726s-1.829.587-2.057,1.127a2.152,2.152,0,0,0,.147,1.516c.184.256.938.115,1.238.206a7.826,7.826,0,0,1,1.967.88,14.016,14.016,0,0,1,1.5,1.915c.282.352.706,1.273,1.14,1.4s1.222-.511,1.656-.569a2.882,2.882,0,0,1,.715.065,2.164,2.164,0,0,0,.888.038c.443-.152.95-1.11,1.4-1.242a2.063,2.063,0,0,1,.924.119,2.9,2.9,0,0,0,.732.14c.6-.026,1.731-.539,2.33-.569.469-.025,1.394.236,1.863.259A7.927,7.927,0,0,0,517.2,186a6.43,6.43,0,0,0,1.915-.569c.6-.4,1.231-1.805,1.811-2.226a10.787,10.787,0,0,1,2.795-.777l.362-1.5,1.5-2.691,1.344-1.605L526,174.874l-.051-.984,3.57-4.657,1.708-2.381,2.9-.569,2.743-1.708,2.018-1.656.777-1.605.008-.438-1.262.388-3.45-1.724-3.052-1.195-1.327.929-3.782-.265-4.168-3.362s-.115.29-.2.338a5.657,5.657,0,0,1-2.95-.1,11.544,11.544,0,0,0-1.6-.57,2.552,2.552,0,0,0-.876.264,2.076,2.076,0,0,1-.987.254c-.307-.061-.682-.692-.983-.776a10.87,10.87,0,0,0-2.536.31,16.083,16.083,0,0,1-2.484-.052c-.534-.084-1.534-.56-2.07-.621a30.871,30.871,0,0,0-3.105.207c-.57.013-1.709-.01-2.278-.052-.678-.05-1.932-.477-2.785-.477a1.523,1.523,0,0,0-.475.063" fill="url(#linear-gradient)"/>
    </clipPath>
    <clipPath id="clip-path-32">
      <path id="패스_2273" data-name="패스 2273" d="M538.676,122.427l-.621.051-2.328.777-.1,1.708-1.552,2.173-1.191.518-2.277.361-.31,1.14-3,.568-1.553-1.137-1.811-.156-.518,1.19.311,2.329-1.4.777s-1.966,0-2.691.051-.309-.31-.88-.776-1.862.1-1.862.1l-2.381.258s-1.6.259-2.07.88.258.828.673,1.449a2.455,2.455,0,0,1,.207,1.6l1.915-.207,3.726,1.449,1.914,1.347.1.465.828,1.707.621.312,2.278,4.243.206,3.984-1.241,2.744-.1,2.225-.938,1.836,4.168,3.363,3.782.264,1.327-.928,3.052,1.195,3.45,1.724,1.262-.388,0-.218-.116-.9-.414-1.708.776-1.5,1.4-1.347,2.226-.1,2.276.155,2.744.414,2.95.828,1.863-1.189,1.692-2.192.067-.086,1.555.424-.236-.421L553.8,152.6s.61-1.253.465-1.659c-.136-.381-1.36-.525-1.327-.929.042-.511,1.658-.8,1.792-.995s-.332-1.327-.93-1.393.067-1.527.067-1.527a4.288,4.288,0,0,0,.664-.386,1.853,1.853,0,0,0,.662-.74c.266-.665-.862-1.394-.862-1.394a9.793,9.793,0,0,1-2.72,1.2c-.73,0,0-1.328,0-1.328l2.853-2.919L554.4,139h.664l1.393-.067.837-1.341c-.384-.144-.7-.352-.7-.583,0-.464.067-1.127.067-1.393s.81-1.16.995-1.592a6.6,6.6,0,0,0,.265-2.19c-.066-.2-1.138-.372-1.527-.464-.806-.191-2.575-.365-3.184-.929a2.635,2.635,0,0,1-.518-1.083l-.278.088-1.459.464-.339-.184c-.482-.017-1.224-.338-1.585-.347a3.737,3.737,0,0,0-.495.048,2.135,2.135,0,0,1-.766.019c-.96-.3-2.424-1.8-3.185-2.455-.488-.422-1.857-1.791-1.857-1.791l-.664-.266a7.2,7.2,0,0,0-1.526-.265,1.58,1.58,0,0,1-.8-.133l-.782-2.382Z" fill="url(#linear-gradient)"/>
    </clipPath>
    <clipPath id="clip-path-33">
      <path id="패스_2274" data-name="패스 2274" d="M560.434,137.073c-.54.083-1.513.687-2.058.73a2.942,2.942,0,0,1-1.086-.214l-.837,1.341L555.06,139H554.4l.066,1.526-2.853,2.919s-.73,1.328,0,1.328a9.793,9.793,0,0,0,2.72-1.2s1.128.729.862,1.394a1.853,1.853,0,0,1-.662.74l1.99-.277s1.213.153,1.526-.066c.354-.247.256-1.45.663-1.592.485-.169,1.421.641,1.791,1s.559,1.776,1.061,1.724c.878-.09.382-2.979,1.2-3.317.262-.11.644.173,1.026.455.352.262.705.523.964.474.427-.081.8-1.09,1.2-1.261a1.526,1.526,0,0,1,.719.019,1.282,1.282,0,0,0,.807-.019c.3-.215.167-1.178.464-1.394.216-.154,1.063,0,1.063,0l.061-.755.074-.9a1.513,1.513,0,0,1-.8.064c-.432-.129-.667-1.241-1.061-1.459a4.272,4.272,0,0,0-1.925-.133c-.275.033-.786.374-1.061.332-.636-.1-1.511-1.257-2.123-1.46a3.671,3.671,0,0,0-1.012-.11,5,5,0,0,0-.712.044" fill="url(#linear-gradient)"/>
    </clipPath>
    <clipPath id="clip-path-34">
      <path id="패스_2275" data-name="패스 2275" d="M569.987,140.722l-.933-.026-.061.755s-.847-.154-1.063,0c-.3.216-.166,1.179-.464,1.394a1.279,1.279,0,0,1-.806.019,1.53,1.53,0,0,0-.72-.019c-.4.171-.768,1.18-1.2,1.261-.259.049-.612-.212-.964-.474-.382-.282-.764-.565-1.026-.455-.813.338-.317,3.227-1.2,3.317-.5.052-.694-1.375-1.061-1.724s-1.306-1.165-1.791-1c-.407.142-.309,1.345-.663,1.592-.313.219-1.526.066-1.526.066l-1.99.277a4.288,4.288,0,0,1-.664.386s-.664,1.461-.067,1.527,1.062,1.194.93,1.393-1.75.484-1.792.995c-.033.4,1.191.548,1.327.929.145.406-.465,1.659-.465,1.659l2.655,1.194.236.421.153.042L560,152.03l2.328.361,1.864,1.45,1.759,2.121L567.4,158.4l1.864,1.759,2.07,1.76,1.656,1.863,2.38,1.346,1.863.052.932.31,1.863,2.484h1.19l1.657,1.915,2.173,1.035,1.19,1.294.569,2.174.363,2.07-1.4,2.38.984,1.553,2.07-1.4.052-2.122,1.553-.984-.312-1.863-.983-1.19-.31-1.242,1.5-2.071.983.519,1.967.413.673.984,1.656.466-.053-1.087-.465-1.295-1.294-1.138-3.726-1.863-3.209-1.242-1.035-2.018-1.138-.57-2.536-.724-1.76-1.656-1.759-1.4-1.139-2.588-1.19-1.4-1.4-1.086-1.863-1.191-.518-1.915.725-1.6-.311-1.708h1.293l1.139-.051.57-.518,1.034-.517.259.672.364-.364.257-.257.545-.1-.184-1.59-1.194-2.056-1.078-.392-1.842-.669.2-1.128-2.255-.266Z" fill="url(#linear-gradient)"/>
    </clipPath>
    <clipPath id="clip-path-35">
      <path id="패스_2276" data-name="패스 2276" d="M580.205,123.671a20.8,20.8,0,0,1-2.654.6,8.014,8.014,0,0,0-3.252,1.194,3.876,3.876,0,0,0-.994,1.724,5.206,5.206,0,0,0,.663,2.456,9.281,9.281,0,0,0,1.593,1.459c.662.569,2.684,1.318,2.72,2.19,0,.022-.024.046-.028.069l.757.13a9.747,9.747,0,0,0,1.925.133,10.471,10.471,0,0,0,1.923-.93,6.267,6.267,0,0,1,1.526-.795c1.078-.091,3.041,1.206,4.114,1.327a7.38,7.38,0,0,0,1.282-.07c.517-.059.974-.129.974-.129l3.716-1.659s.56-1.111.934-2.118c-.259-.145-.5-.286-.67-.4-.562-.383-1.4-1.516-1.989-1.858a8.751,8.751,0,0,0-2.323-.73,4.188,4.188,0,0,0-.87.031,2.871,2.871,0,0,1-1.187-.031c-.507-.216-1.041-1.328-1.526-1.592-1.142-.623-4.753.257-5.108-1a.138.138,0,0,1,.017-.111l.012-.013a.468.468,0,0,1,.086-.1Z" fill="url(#linear-gradient)"/>
    </clipPath>
    <clipPath id="clip-path-36">
      <path id="패스_2277" data-name="패스 2277" d="M584.384,131.9a6.267,6.267,0,0,0-1.526.795,10.471,10.471,0,0,1-1.923.93,9.747,9.747,0,0,1-1.925-.133l-.757-.13c-.067.421-.873.924-1.233,1.125-.39.219-1.466.1-1.726.465-.4.569.676,2.275.2,2.786-.18.2-.795,0-1.061,0a8.011,8.011,0,0,0-2.454,0c-.343.155-.686.916-1,1.128a7.477,7.477,0,0,1-1.854.931l-.074.9.933.026,2.057-.531,2.255.266-.2,1.128,1.842.669,2.6-.072,1.991.066a8.218,8.218,0,0,1,1.791-.4c.743.054,2.054,1.2,2.786,1.061.672-.127,1.5-1.282,2.055-1.854.046-.047.094-.1.135-.137.233-.213.795-.575.928-.862.274-.587-.263-2.074.133-2.587.373-.481,2.013-.206,2.323-.73.091-.153.007-.467-.086-.722-.041-.107-.081-.205-.114-.274a10.469,10.469,0,0,0-1.261-1.525l.553-1.065a7.38,7.38,0,0,1-1.282.07c-1.037-.117-2.9-1.332-4-1.332-.039,0-.076,0-.113,0" fill="url(#linear-gradient)"/>
    </clipPath>
    <clipPath id="clip-path-37">
      <path id="패스_2278" data-name="패스 2278" d="M563.568,96.253c-.282.252-.642,1-.995,1.144a1.527,1.527,0,0,1-.775-.073,1.55,1.55,0,0,0-.768-.076c-.238.091-.551.536-.7.747a14.891,14.891,0,0,0-.846,1.741c-.236.517-.9,2.09-.9,2.09a3.384,3.384,0,0,0-.4.846c0,.2.6.846,1.2,1.144s.448.95.5,1.294a2.282,2.282,0,0,0,.5,1.244c.34.231,1.232.02,1.643,0,.387-.018,1.156-.119,1.542-.149a1.789,1.789,0,0,1,.265.014c.207.019.444.038.532-.064.259-.3-.025-1.212-.15-1.592s-.928-.994-.846-1.393c.108-.524,1.333-.9,1.742-1.245.24-.2.3-.3.4-1.193s-.114-1.461-.05-1.941a5.98,5.98,0,0,1,.746-1.742c.222-.35,1.14-.832,1.1-1.244-.052-.46-1.031-1.088-1.494-1.094h-.01c-.679,0-1.724,1.091-2.229,1.542" fill="url(#linear-gradient)"/>
    </clipPath>
    <clipPath id="clip-path-38">
      <path id="패스_2279" data-name="패스 2279" d="M563.568,106.205l-3.185.149,1,2.588-.846,1.593-1.294,1.541-1.443-.049s-1.967-1.648-2.523-1.222c-.333.256.317,1.653.317,1.653l1.062,1.924-1.726,1.26L554.2,117.7l-1.2,2.056-1.658,1.129.531,3.052.027.711.038,1.345.246,1.4.219.924.278,1.04.518,1.083,4.711,1.393-.265,2.19-.995,1.592-.067,1.393.7.583,1.086.214,2.058-.73,1.724.066,2.123,1.46,1.061-.332,1.925.133,1.061,1.459,2.654-.995,1-1.128h3.515l-.2-2.786,1.726-.465,1.233-1.125-2.692-2.259-1.593-1.459-.663-2.456.994-1.724,3.252-1.194,2.654-.6,1.543-.111.845-.686-1.194-2.256-.265-2.189-1-2.189-.929-.729.134-1.792.928-1.261,0-1.224s-2.175-1.2-2.274-1.347-1.444-1.741-1.444-1.741l-1.84-.3h-1s-2.637,1.244-2.935,1.393-.2,1.244-.2,1.244l-3.036-1.094-.3-.9-1.791-.448-1.045-.795-.049-1.1Z" fill="url(#linear-gradient)"/>
    </clipPath>
    <clipPath id="clip-path-39">
      <path id="패스_2280" data-name="패스 2280" d="M638.095,115.042c0-.023,0-.046,0-.068,0,.022,0,.045,0,.068m0-.068c0-.1.007-.188.014-.279-.007.09-.014.181-.014.279" fill="url(#linear-gradient)"/>
    </clipPath>
    <clipPath id="clip-path-40">
      <path id="패스_2281" data-name="패스 2281" d="M638.122,114.528a1.282,1.282,0,0,1,.136-.411,1.282,1.282,0,0,0-.136.411" fill="url(#linear-gradient)"/>
    </clipPath>
    <clipPath id="clip-path-41">
      <path id="패스_2282" data-name="패스 2282" d="M627.059,101.835c-.058-.041-.114-.079-.172-.125.058.046.114.085.172.125m-.172-.125-.02-.015.02.015" fill="url(#linear-gradient)"/>
    </clipPath>
    <clipPath id="clip-path-42">
      <path id="패스_2283" data-name="패스 2283" d="M612.787,121.615h0m.018,0a.055.055,0,0,1-.018,0l.038.008v-.01H612.8m29.961-4c-1.224.576-2.455,1.153-3.18.75a1.524,1.524,0,0,1-.388-.335,10.843,10.843,0,0,0-1.669,1c-.456.387-.838,1.646-1.327,1.991a6.257,6.257,0,0,1-2.389.6c-.865.064-2.584-.323-3.45-.332a10.466,10.466,0,0,0-1.4.161,6.075,6.075,0,0,1-2.053.1c-.868-.228-2.136-1.7-2.985-1.991a16.258,16.258,0,0,0-4.38-.332,16.708,16.708,0,0,0-4.113.6c-.732.283-1.836,1.929-2.609,1.8.012.411.022.72.022.72l1.261,2.588-1.725.731a31.492,31.492,0,0,0-1.725,2.786c-.431.962-.223,3.634-1.194,4.047a.628.628,0,0,1-.357.028.43.43,0,0,1-.045-.012,1.707,1.707,0,0,1-.379-.133l.117.847-.066,1.917-.033.969,1.638.437,1.348.359,2.786.2a5.656,5.656,0,0,1,2.089-.7c.465.1.936,1.163,1.393,1.293.611.173,1.861-.406,2.489-.5.272-.039.829-.033,1.094-.1a10.829,10.829,0,0,0,2.09-.9,3.9,3.9,0,0,0,.524-.41,4.965,4.965,0,0,1,1.168-.884,6.856,6.856,0,0,1,2.488-.1,11.086,11.086,0,0,1,2.886.994,23.925,23.925,0,0,1,2.488,2.091,13.747,13.747,0,0,1,1.791,1.492,7.478,7.478,0,0,1,.9,1.991c.129.482.472,1.57.2,1.99-.384.594-2.233.351-2.687.9-.226.269-.045,1.076-.2,1.393-.292.606-1.76,1.272-1.952,1.944a.605.605,0,0,0-.038.146c.006.422.807,1.026,1.194,1.194a4.821,4.821,0,0,0,3.185.1.69.69,0,0,0,.188-.183c.34-.457.507-1.438.806-1.807.382-.467,1.629-.951,1.891-1.493.207-.424-.306-1.532,0-1.891.622-.727,2.839-.443,3.782-.6.45-.073,1.408-.54,1.792-.3s.2,1.362.5,1.692a6.339,6.339,0,0,0,3.085,1.293,1.9,1.9,0,0,0,.7-.2c.382-.153.771-.306.89-.1.328.565-1.638,1.339-1.692,1.99-.047.579,2.053,1.443,2.423,1.891.426.517-.314,2.318.265,2.654.747.435,1.885-.091,2.587-.6a12.162,12.162,0,0,0,1.194-.962c.429-.409,1.381-.191,2.324.027a3.985,3.985,0,0,0,2.055.172c.454-.2,1.532-1.06,1.294-1.493-.222-.408-1.013-.338-1.78-.269a3.532,3.532,0,0,1-1.405-.03,8.208,8.208,0,0,1-1.194-.995c-.58-.446-2.218-.98-2.389-1.691-.137-.574.634-1.722,1.095-2.09a7.164,7.164,0,0,1,2.588-.7c1.3-.211,5.274-.3,5.274-.3l1.593-2.389,2.288-.895h2.084c-.616-.715-1.643-1.5-1.419-2.058.406-1.016,3.906-.021,4.246-1.061.322-.985-2.895-2.177-2.654-3.185.118-.491,1.579-.374,1.858-.8.548-.829.746-3.321,0-3.98-.445-.393-1.383-.1-2.307.187a4.3,4.3,0,0,1-1.94.344c-1.283-.34-2.936-2.972-4.247-3.184-.62-.1-1.76.744-2.389.8-1.269.1-4.058.018-5.04-.8-.761-.63-.492-3.194-1.329-3.717-.259-.161-.736-.018-1.212.125a1.923,1.923,0,0,1-1.175.141c-.823-.414-1.295-2.454-1.857-3.185s-1.75-2.408-2.655-2.653a1.305,1.305,0,0,0-.343-.042,7.255,7.255,0,0,0-2.58.884" fill="url(#linear-gradient)"/>
    </clipPath>
    <clipPath id="clip-path-43">
      <path id="패스_2284" data-name="패스 2284" d="M638.5,116.8c-.037-.094-.074-.187-.108-.286.032.1.071.192.108.286" fill="url(#linear-gradient)"/>
    </clipPath>
    <clipPath id="clip-path-44">
      <path id="패스_2285" data-name="패스 2285" d="M601.269,134.352c-.467.238-1.325.854-1.791,1.1a31.572,31.572,0,0,0-3.449,1.493,2.51,2.51,0,0,0-.565.763,6.513,6.513,0,0,1-2.288-.5,8.813,8.813,0,0,0-.929-.432c-.322-.155-1.228-.73-1.228-.73l-.417-.025c.093.255.177.569.086.722-.31.524-1.95.249-2.323.73-.4.513.141,2-.133,2.587-.133.287-.7.649-.928.862-.041.039-.089.09-.135.137l1.528,1.888s.6,1.161.862,1.161.962.1.962.1a9.04,9.04,0,0,1,.929.5c.1.1,1.36,1.527,1.36,1.527l1.592-.365s1,.132,1.792.166a6.319,6.319,0,0,0,2.488-.531,3.389,3.389,0,0,1,.963-.862h1.791l1.891.033a4.023,4.023,0,0,0,1.226-.6c.2-.266.6-.133.665-.565s.2-1.725.2-1.725l1.027-1.725,1.627-1.36a6.119,6.119,0,0,0,.9-.928,11.827,11.827,0,0,1,1.373-1.222l-1.638-.437.033-.969c-.441.012-1.161-.027-1.161-.027s-.748.026-.995,0a17.238,17.238,0,0,1-2.057-.431,12.009,12.009,0,0,0-1.891-.464,4.817,4.817,0,0,0-.6-.044,1.5,1.5,0,0,0-.762.176" fill="url(#linear-gradient)"/>
    </clipPath>
    <clipPath id="clip-path-45">
      <path id="패스_2286" data-name="패스 2286" d="M638.743,117.328c-.037-.072-.078-.141-.114-.218.036.077.077.146.114.218" fill="url(#linear-gradient)"/>
    </clipPath>
    <clipPath id="clip-path-46">
      <path id="패스_2287" data-name="패스 2287" d="M638.159,115.62c-.01-.06-.019-.118-.026-.175.007.057.016.116.026.175m-.026-.175c-.007-.058-.013-.115-.019-.171.006.057.012.113.019.171" fill="url(#linear-gradient)"/>
    </clipPath>
    <clipPath id="clip-path-47">
      <path id="패스_2288" data-name="패스 2288" d="M638.3,116.219c-.032-.11-.06-.218-.086-.328.025.109.054.219.086.328" fill="url(#linear-gradient)"/>
    </clipPath>
    <clipPath id="clip-path-48">
      <path id="패스_2289" data-name="패스 2289" d="M627.643,102.175a2.428,2.428,0,0,1-.384-.2,2.347,2.347,0,0,0,.384.2" fill="url(#linear-gradient)"/>
    </clipPath>
    <clipPath id="clip-path-49">
      <path id="패스_2290" data-name="패스 2290" d="M626.574,101.443c-.03-.025-.058-.051-.088-.077.03.026.058.052.088.077" fill="url(#linear-gradient)"/>
    </clipPath>
    <clipPath id="clip-path-50">
      <path id="패스_2291" data-name="패스 2291" d="M625.653,101.445a16.69,16.69,0,0,1-2.588,1.459,7.78,7.78,0,0,1-2.279.4,4.73,4.73,0,0,1,.023,1.861c-.249.732-1.841,1.5-2.189,2.19-.152.3.014,1.066-.2,1.326-.369.451-1.662.551-2.19.8-.607.28-2.322,1.326-2.322,1.326h-2.123a5.855,5.855,0,0,1,.265,2.19c.075.959.548,2.98.134,3.847-.18.375-1.234.593-1.328,1-.24,1.033.9,3.516,1.924,3.782.775.2,1.907-1.5,2.653-1.791a16.708,16.708,0,0,1,4.113-.6,16.258,16.258,0,0,1,4.38.332c.849.293,2.117,1.763,2.985,1.991a6.075,6.075,0,0,0,2.053-.1,10.466,10.466,0,0,1,1.4-.161c.866.009,2.585.4,3.45.332a6.257,6.257,0,0,0,2.389-.6c.489-.345.871-1.6,1.327-1.991a10.843,10.843,0,0,1,1.669-1,3.7,3.7,0,0,1-.455-.7c-.037-.072-.078-.141-.114-.218-.047-.1-.087-.2-.129-.31s-.074-.187-.108-.286-.063-.195-.092-.295-.06-.218-.086-.328c-.02-.092-.038-.181-.055-.271-.021-.119-.034-.233-.045-.346-.007-.079-.017-.158-.019-.232a3.013,3.013,0,0,1,.013-.347c.006-.055.006-.116.014-.167a1.282,1.282,0,0,1,.136-.411c.242-.415,1.052-.414,1.864-.413.791,0,1.583,0,1.852-.383a2.2,2.2,0,0,0-.266-1.858c-.844-1.045-4.1-.9-5.043-1.858-.985-1-1.185-4.073-1.856-5.308a6.807,6.807,0,0,0-1.859-2.388,3.761,3.761,0,0,0-1.326,0c-1,.033-3.048.616-3.981.266a2.347,2.347,0,0,1-.384-.2c-.065-.041-.134-.093-.2-.142s-.126-.088-.192-.14c-.1-.078-.2-.163-.293-.252-.03-.025-.058-.051-.088-.077-.119-.112-.239-.228-.359-.352a5.157,5.157,0,0,1-.474.431" fill="url(#linear-gradient)"/>
    </clipPath>
    <clipPath id="clip-path-51">
      <path id="패스_2292" data-name="패스 2292" d="M626.867,101.695c-.1-.078-.2-.163-.293-.252.1.089.2.174.293.252" fill="url(#linear-gradient)"/>
    </clipPath>
    <clipPath id="clip-path-52">
      <path id="패스_2293" data-name="패스 2293" d="M638.108,114.695c.006-.055.006-.116.014-.167-.008.051-.008.112-.014.167" fill="url(#linear-gradient)"/>
    </clipPath>
    <clipPath id="clip-path-53">
      <path id="패스_2294" data-name="패스 2294" d="M638.214,115.891c-.01-.046-.02-.091-.029-.136.009.045.019.09.029.136m-.029-.136c-.009-.045-.018-.09-.026-.135.008.045.017.09.026.135" fill="url(#linear-gradient)"/>
    </clipPath>
    <clipPath id="clip-path-54">
      <path id="패스_2295" data-name="패스 2295" d="M627.259,101.977c-.065-.041-.134-.093-.2-.142.066.05.135.1.2.142" fill="url(#linear-gradient)"/>
    </clipPath>
    <clipPath id="clip-path-55">
      <path id="패스_2296" data-name="패스 2296" d="M638.392,116.514q-.035-.1-.063-.2.029.1.063.2m-.063-.2c-.01-.032-.019-.065-.029-.1.01.033.019.065.029.1" fill="url(#linear-gradient)"/>
    </clipPath>
    <clipPath id="clip-path-56">
      <path id="패스_2297" data-name="패스 2297" d="M639.2,118.028a3.732,3.732,0,0,1-.455-.7,3.7,3.7,0,0,0,.455.7" fill="url(#linear-gradient)"/>
    </clipPath>
    <clipPath id="clip-path-57">
      <path id="패스_2298" data-name="패스 2298" d="M638.114,115.274c-.007-.079-.017-.158-.019-.232,0,.074.012.154.019.232" fill="url(#linear-gradient)"/>
    </clipPath>
    <clipPath id="clip-path-58">
      <path id="패스_2299" data-name="패스 2299" d="M626.486,101.366c-.119-.112-.239-.228-.359-.352.12.124.24.24.359.352" fill="url(#linear-gradient)"/>
    </clipPath>
    <clipPath id="clip-path-59">
      <path id="패스_2300" data-name="패스 2300" d="M638.629,117.11c-.015-.033-.03-.066-.044-.1.014.034.029.067.044.1m-.044-.1c-.029-.069-.057-.14-.085-.211.028.072.056.142.085.211" fill="url(#linear-gradient)"/>
    </clipPath>
    <clipPath id="clip-path-60">
      <path id="패스_2301" data-name="패스 2301" d="M591.826,107.107l-2.07-.154-3.778,1.035-2.691,1.242-2.639,1.8-.375.205c.111,1.08.168.643,0,1.224-.11.375-.793.894-.928,1.261a3.271,3.271,0,0,0-.134,1.792c.119.269.747.5.929.729a8.324,8.324,0,0,1,1,2.189c.148.531.1,1.664.265,2.189.191.61,1.3,1.627,1.194,2.256a.282.282,0,0,1-.09.138c-.013.013-.028.026-.043.039a1.525,1.525,0,0,1-.139.1,5.3,5.3,0,0,0-.474.3h0a.468.468,0,0,0-.086.1l-.012.013a.138.138,0,0,0-.017.111c.355,1.252,3.966.372,5.108,1,.485.264,1.019,1.376,1.526,1.592a2.871,2.871,0,0,0,1.187.031,4.188,4.188,0,0,1,.87-.031,8.751,8.751,0,0,1,2.323.73c.588.342,1.427,1.475,1.989,1.858.174.117.411.258.67.4a8.327,8.327,0,0,0,1.984.857,2.011,2.011,0,0,0,.622-.049,1.506,1.506,0,0,1,.772-.017c.439.214.662,1.447,1.127,1.592.792.249,2.295-1.033,3.119-1.127a11.08,11.08,0,0,1,3.384.4,2.017,2.017,0,0,1,.449.23c.056.035.113.072.17.111.1.069.2.144.31.222a9.7,9.7,0,0,0,1.342.912,1.707,1.707,0,0,0,.379.133.43.43,0,0,0,.045.012.628.628,0,0,0,.357-.028c.971-.413.763-3.085,1.194-4.047a31.492,31.492,0,0,1,1.725-2.786l1.725-.731-1.261-2.588s-.01-.314-.023-.73H612.8a.064.064,0,0,1-.024,0c-1.027-.266-2.164-2.749-1.924-3.782.094-.4,1.148-.621,1.328-1,.414-.867-.059-2.888-.134-3.847a5.855,5.855,0,0,0-.265-2.19c-.422-.614-1.836-.912-2.78-1.35a1.454,1.454,0,0,1-.339.355,6.377,6.377,0,0,1-3.317.2c-.6-.1-1.652-.845-2.256-.93a5.971,5.971,0,0,0-1.593.16,7.165,7.165,0,0,1-1.393.172,5.238,5.238,0,0,1-2.454-.531,4.471,4.471,0,0,1-.992-1.795.792.792,0,0,0-.126-.024c-.552.054-1.489,1.1-2.019.932-.4-.127-.5-1.192-.827-1.449a2.581,2.581,0,0,0-.725-.208Z" fill="url(#linear-gradient)"/>
    </clipPath>
    <clipPath id="clip-path-61">
      <path id="패스_2302" data-name="패스 2302" d="M608.683,132.378a9.7,9.7,0,0,1-1.342-.912,9.524,9.524,0,0,0,1.342.912" fill="url(#linear-gradient)"/>
    </clipPath>
    <clipPath id="clip-path-62">
      <path id="패스_2303" data-name="패스 2303" d="M594.47,131.367l-3.716,1.659s-.457.07-.974.129l-.553,1.065a10.469,10.469,0,0,1,1.261,1.525c.033.069.073.167.114.274l.417.025s.906.575,1.228.73a8.813,8.813,0,0,1,.929.432,6.513,6.513,0,0,0,2.288.5,2.51,2.51,0,0,1,.565-.763,31.572,31.572,0,0,1,3.449-1.493c.466-.241,1.324-.857,1.791-1.1a2.012,2.012,0,0,1,1.361-.132,12.009,12.009,0,0,1,1.891.464,17.238,17.238,0,0,0,2.057.431c.247.026.995,0,.995,0s.72.039,1.161.027l.066-1.917-.117-.847a9.524,9.524,0,0,1-1.342-.912c-.106-.078-.209-.153-.31-.222-.057-.039-.114-.076-.17-.111a2.017,2.017,0,0,0-.449-.23,11.08,11.08,0,0,0-3.384-.4c-.824.094-2.327,1.376-3.119,1.127-.465-.145-.688-1.378-1.127-1.592a1.506,1.506,0,0,0-.772.017,2.043,2.043,0,0,1-.622.049,8.327,8.327,0,0,1-1.984-.857c-.374,1.007-.934,2.118-.934,2.118" fill="url(#linear-gradient)"/>
    </clipPath>
    <clipPath id="clip-path-63">
      <path id="패스_2304" data-name="패스 2304" d="M625.32,134.917a4.965,4.965,0,0,0-1.168.884l1.068.609,2.588,2.089.8,1.792,1.094,1.742.051,3.333,1.194,2.19.287.053c.192-.672,1.66-1.338,1.952-1.944.154-.317-.027-1.124.2-1.393.454-.545,2.3-.3,2.687-.9.273-.42-.07-1.508-.2-1.99a7.478,7.478,0,0,0-.9-1.991,13.747,13.747,0,0,0-1.791-1.492,23.925,23.925,0,0,0-2.488-2.091,11.086,11.086,0,0,0-2.886-.994,7.786,7.786,0,0,0-1.068-.066,4.769,4.769,0,0,0-1.42.165" fill="url(#linear-gradient)"/>
    </clipPath>
    <clipPath id="clip-path-64">
      <path id="패스_2305" data-name="패스 2305" d="M585.114,142.911c-.732.139-2.043-1.007-2.786-1.061a8.218,8.218,0,0,0-1.791.4l-1.991-.066-2.6.072,1.078.392,1.194,2.056.184,1.59.335-.059.621.673-.1,1.294.828.052,2.484,2.07,1.656.879,1.19,2.536.828.206,1.5,1.4.827.051,1.864.518,2.328,1.915,1.449,1.448h1.138l1.656,1.5,2.071,2.278.621,1.345.311,2.743-.466,2.794,2.058,2.5s.459.513.581.706c.1.155.217.379.343.626.764-.977,1.718-2.2,2.167-2.794a12.552,12.552,0,0,0,1.459-2.255c.083-.293.623-.288,1.123-.282a2.608,2.608,0,0,0,.735-.051c.445-.152.945-1.122,1.393-1.26a2.657,2.657,0,0,1,1.225.16,2.886,2.886,0,0,0,1.164.172,4.536,4.536,0,0,0,1.792-1.2c.273-.332.816-1.189.663-1.592a.66.66,0,0,0-.155-.222c-.508-.516-1.942-.829-2.234-1.238a8.42,8.42,0,0,1-.929-1.459,7.508,7.508,0,0,1,.2-1.791,8.659,8.659,0,0,0,.531-1.925,4.332,4.332,0,0,0-.73-1.459c-.249-.355-1.13-.831-1.195-1.26-.07-.478.648-1.295.863-1.726.134-.266.333-.666.558-1.113a2.079,2.079,0,0,0-.292-.413c-.231-.231-.8-.687-1.129-.663s-.676.792-.994.8c-.581.009-1.5-.936-1.858-1.393a11.867,11.867,0,0,1-.929-2.19l-3.118-2.454-1.928-1.526h-1.256a3.389,3.389,0,0,0-.963.862,6.319,6.319,0,0,1-2.488.531c-.8-.034-1.792-.166-1.792-.166l-1.592.365s-1.26-1.427-1.36-1.527a9.04,9.04,0,0,0-.929-.5s-.7-.1-.962-.1-.862-1.161-.862-1.161l-1.528-1.888c-.553.572-1.383,1.727-2.055,1.854" fill="url(#linear-gradient)"/>
    </clipPath>
    <clipPath id="clip-path-65">
      <path id="패스_2306" data-name="패스 2306" d="M623.628,136.211a10.829,10.829,0,0,1-2.09.9c-.265.067-.822.061-1.094.1-.628.091-1.878.67-2.489.5-.457-.13-.928-1.193-1.393-1.293a5.656,5.656,0,0,0-2.089.7l-2.786-.2-1.348-.359a11.827,11.827,0,0,0-1.373,1.222,6.119,6.119,0,0,1-.9.928l-1.627,1.36-1.027,1.725s-.134,1.295-.2,1.725-.466.3-.665.565a4.023,4.023,0,0,1-1.226.6l-1.891-.033H600.9l1.928,1.526,3.118,2.454a11.867,11.867,0,0,0,.929,2.19c.358.457,1.277,1.4,1.858,1.393.318,0,.678-.774.994-.8s.9.432,1.129.663a2.079,2.079,0,0,1,.292.413,10.7,10.7,0,0,0,.836,1.511,5.131,5.131,0,0,0,1.593,1.129,4.6,4.6,0,0,0,1.423.035c.268-.018.517-.037.7-.035.812.007,2.438.081,3.25.065.154,0,.353,0,.572.011a4.833,4.833,0,0,0,1.751-.144c.5-.23,1.042-1.328,1.525-1.592a5.889,5.889,0,0,1,1.724-.331c.123-.011.32-.007.5,0,.113,0,.22.006.3,0a15.609,15.609,0,0,1,2.19-.067,6.271,6.271,0,0,1,2.654,1.062c.247.258.4,1.128.53,1.327a7,7,0,0,0,.906.724c.39.282.753.537.753.537l.864-1.2-.4-1.459.531-1.593.265-1.857,1.791-.067.663-.995-.309-.681a.69.69,0,0,1-.188.183,4.821,4.821,0,0,1-3.185-.1c-.387-.168-1.188-.772-1.194-1.194a.605.605,0,0,1,.038-.146l-.287-.053-1.194-2.19-.051-3.333-1.094-1.742-.8-1.792-2.588-2.089-1.068-.609a3.9,3.9,0,0,1-.524.41" fill="url(#linear-gradient)"/>
    </clipPath>
    <clipPath id="clip-path-66">
      <path id="패스_2307" data-name="패스 2307" d="M610.591,153.593c-.215.431-.933,1.248-.863,1.726.065.429.946.9,1.195,1.26a4.332,4.332,0,0,1,.73,1.459,8.659,8.659,0,0,1-.531,1.925,7.508,7.508,0,0,0-.2,1.791,8.42,8.42,0,0,0,.929,1.459c.292.409,1.726.722,2.234,1.238l1.73-.126a15.273,15.273,0,0,0,1.99,1.094,13.264,13.264,0,0,0,4.329.5,9.855,9.855,0,0,0,2.837-1.144c.382-.237.989-.92,1.343-1.194.392-.3,1.152-1.036,1.642-1.1a3.619,3.619,0,0,1,1.738.753,3.835,3.835,0,0,0,1.671.755.4.4,0,0,0,.323-.165c.456-.642-1.514-1.811-1.991-2.438-.181-.242-.7-1-.7-1l1.792-2.041.806-2.178a7,7,0,0,1-.906-.724c-.132-.2-.283-1.069-.53-1.327a6.271,6.271,0,0,0-2.654-1.062,15.609,15.609,0,0,0-2.19.067c-.077,0-.184,0-.3,0-.18,0-.377-.007-.5,0a5.889,5.889,0,0,0-1.724.331c-.483.264-1.024,1.362-1.525,1.592a4.833,4.833,0,0,1-1.751.144c-.219-.007-.418-.013-.572-.011-.812.016-2.438-.058-3.25-.065-.183,0-.432.017-.7.035a4.6,4.6,0,0,1-1.423-.035,5.131,5.131,0,0,1-1.593-1.129,10.7,10.7,0,0,1-.836-1.511c-.225.447-.424.847-.558,1.113" fill="url(#linear-gradient)"/>
    </clipPath>
    <clipPath id="clip-path-67">
      <path id="패스_2308" data-name="패스 2308" d="M622.781,184.643c-.162.152.024.727.2.863s.69.337.863.2c.143-.114.09-.571,0-.73a1.22,1.22,0,0,0-.851-.394.311.311,0,0,0-.211.062" fill="url(#linear-gradient)"/>
    </clipPath>
    <clipPath id="clip-path-68">
      <path id="패스_2309" data-name="패스 2309" d="M627.957,162.484c-.49.059-1.25.793-1.642,1.1-.354.274-.961.957-1.343,1.194a9.855,9.855,0,0,1-2.837,1.144,13.264,13.264,0,0,1-4.329-.5,15.273,15.273,0,0,1-1.99-1.094l-1.73.126a.66.66,0,0,1,.155.222c.153.4-.39,1.26-.663,1.592a4.536,4.536,0,0,1-1.792,1.2,2.894,2.894,0,0,1-1.163-.171,2.652,2.652,0,0,0-1.226-.161c-.448.138-.948,1.108-1.393,1.26a2.608,2.608,0,0,1-.735.051c-.5-.006-1.04-.011-1.123.282a12.552,12.552,0,0,1-1.459,2.255c-.449.59-1.4,1.817-2.167,2.794.654,1.274,1.572,3.464,1.572,3.464a11.9,11.9,0,0,1,1.6,1.293c.188.237.336.847.518,1.087.166.219.673.5.828.724a10.348,10.348,0,0,1,.742,2.071c.153.478.384,1.458.551,1.931.177.5.358,1.7.829,1.932.274.137.73-.059,1.181-.255a2.282,2.282,0,0,1,1.028-.3c.642.1,1.647,1.711,2.206,1.379,1.072-.632.279-3.854-.275-4.968-.524-1.052-3.992-1.933-3.588-3.036.261-.713,2.321-.255,3.036,0,.924.33,2.166,2.936,3.036,2.485s-.275-3.865-.275-3.865a19.874,19.874,0,0,0-.553-3.588c-.357-.868-2.245-2.1-2.208-3.036a2.946,2.946,0,0,1,1.656-1.932c.241-.056.585.188.928.432.386.274.772.549,1,.4.289-.191-.18-1.088,0-1.38.406-.657,2.76-1.381,2.76-1.381l3.037,1.1,3.312.828.033.1-.081.468a3.621,3.621,0,0,1,1.013-.426c.4-.047,1.108.368,1.607.436a.753.753,0,0,0,.284.012c.388-.119.773-.948,1.1-1.194a5.545,5.545,0,0,1,1.84-.946,4.1,4.1,0,0,1,1.511.3,3.843,3.843,0,0,0,1.574.295,1.905,1.905,0,0,0,1-.648.734.734,0,0,0,0-.547c-.289-.443-1.481-.582-1.941-.846a6.637,6.637,0,0,1-1.294-.946,7.472,7.472,0,0,1-.721-1.228,3.835,3.835,0,0,1-1.671-.755,4.113,4.113,0,0,0-1.661-.758.652.652,0,0,0-.077,0" fill="url(#linear-gradient)"/>
    </clipPath>
    <clipPath id="clip-path-69">
      <rect id="사각형_410" data-name="사각형 410" width="1235.062" height="600.149" fill="url(#linear-gradient)"/>
    </clipPath>
  </defs>
  <g id="그룹_528" data-name="그룹 528">
    <g id="그룹_527" data-name="그룹 527" clip-path="url(#clip-path)">
      <rect id="사각형_343" data-name="사각형 343" width="26.937" height="36.49" transform="translate(509.726 91.294)" fill="url(#linear-gradient)"/>
    </g>
  </g>
  <g id="그룹_530" data-name="그룹 530">
    <g id="그룹_529" data-name="그룹 529" clip-path="url(#clip-path-2)">
      <rect id="사각형_344" data-name="사각형 344" width="16.985" height="16.623" transform="translate(495.793 105.057)" fill="url(#linear-gradient)"/>
    </g>
  </g>
  <g id="그룹_532" data-name="그룹 532">
    <g id="그룹_531" data-name="그룹 531" clip-path="url(#clip-path-3)">
      <rect id="사각형_345" data-name="사각형 345" width="1.741" height="1.465" transform="translate(532.89 176.209)" fill="url(#linear-gradient)"/>
    </g>
  </g>
  <g id="그룹_534" data-name="그룹 534">
    <g id="그룹_533" data-name="그룹 533" clip-path="url(#clip-path-4)">
      <rect id="사각형_346" data-name="사각형 346" width="3.069" height="2.852" transform="translate(538.274 172.426)" fill="url(#linear-gradient)"/>
    </g>
  </g>
  <g id="그룹_536" data-name="그룹 536">
    <g id="그룹_535" data-name="그룹 535" clip-path="url(#clip-path-5)">
      <rect id="사각형_347" data-name="사각형 347" width="3.524" height="5.113" transform="translate(560.481 160.014)" fill="url(#linear-gradient)"/>
    </g>
  </g>
  <g id="그룹_538" data-name="그룹 538">
    <g id="그룹_537" data-name="그룹 537" clip-path="url(#clip-path-6)">
      <rect id="사각형_348" data-name="사각형 348" width="5.779" height="11.123" transform="translate(558.823 166.066)" fill="url(#linear-gradient)"/>
    </g>
  </g>
  <g id="그룹_540" data-name="그룹 540">
    <g id="그룹_539" data-name="그룹 539" clip-path="url(#clip-path-7)">
      <rect id="사각형_349" data-name="사각형 349" width="11.893" height="6.947" transform="translate(574.163 180.043)" fill="url(#linear-gradient)"/>
    </g>
  </g>
  <g id="그룹_542" data-name="그룹 542">
    <g id="그룹_541" data-name="그룹 541" clip-path="url(#clip-path-8)">
      <rect id="사각형_350" data-name="사각형 350" width="9.461" height="2.295" transform="translate(616.771 192.499)" fill="url(#linear-gradient)"/>
    </g>
  </g>
  <g id="그룹_544" data-name="그룹 544">
    <g id="그룹_543" data-name="그룹 543" clip-path="url(#clip-path-9)">
      <rect id="사각형_351" data-name="사각형 351" width="2.81" height="2.538" transform="translate(617.82 182.551)" fill="url(#linear-gradient)"/>
    </g>
  </g>
  <g id="그룹_546" data-name="그룹 546">
    <g id="그룹_545" data-name="그룹 545" clip-path="url(#clip-path-10)">
      <rect id="사각형_352" data-name="사각형 352" width="1.543" height="2.288" transform="translate(620.707 181.587)" fill="url(#linear-gradient)"/>
    </g>
  </g>
  <g id="그룹_548" data-name="그룹 548">
    <g id="그룹_547" data-name="그룹 547" clip-path="url(#clip-path-11)">
      <rect id="사각형_353" data-name="사각형 353" width="1.59" height="1.056" transform="translate(619.957 186.493)" fill="url(#linear-gradient)"/>
    </g>
  </g>
  <g id="그룹_550" data-name="그룹 550">
    <g id="그룹_549" data-name="그룹 549" clip-path="url(#clip-path-12)">
      <rect id="사각형_354" data-name="사각형 354" width="1.655" height="1.302" transform="translate(622.639 186.759)" fill="url(#linear-gradient)"/>
    </g>
  </g>
  <g id="그룹_552" data-name="그룹 552">
    <g id="그룹_551" data-name="그룹 551" clip-path="url(#clip-path-13)">
      <rect id="사각형_355" data-name="사각형 355" width="1.459" height="1.303" transform="translate(625 185.55)" fill="url(#linear-gradient)"/>
    </g>
  </g>
  <g id="그룹_554" data-name="그룹 554">
    <g id="그룹_553" data-name="그룹 553" clip-path="url(#clip-path-14)">
      <rect id="사각형_356" data-name="사각형 356" width="1.257" height="1.475" transform="translate(626.227 186.556)" fill="url(#linear-gradient)"/>
    </g>
  </g>
  <g id="그룹_556" data-name="그룹 556">
    <g id="그룹_555" data-name="그룹 555" clip-path="url(#clip-path-15)">
      <rect id="사각형_357" data-name="사각형 357" width="8.252" height="5.031" transform="translate(649.32 191.82)" fill="url(#linear-gradient)"/>
    </g>
  </g>
  <g id="그룹_558" data-name="그룹 558">
    <g id="그룹_557" data-name="그룹 557" clip-path="url(#clip-path-16)">
      <rect id="사각형_358" data-name="사각형 358" width="19.7" height="15.057" transform="translate(609.438 80.28)" fill="url(#linear-gradient)"/>
    </g>
  </g>
  <g id="그룹_560" data-name="그룹 560">
    <g id="그룹_559" data-name="그룹 559" clip-path="url(#clip-path-17)">
      <rect id="사각형_359" data-name="사각형 359" width="37.545" height="39.44" transform="translate(595.867 45)" fill="url(#linear-gradient)"/>
    </g>
  </g>
  <g id="그룹_562" data-name="그룹 562">
    <g id="그룹_561" data-name="그룹 561" clip-path="url(#clip-path-18)">
      <rect id="사각형_360" data-name="사각형 360" width="78.993" height="51.868" transform="translate(548.579 40.594)" fill="url(#linear-gradient)"/>
    </g>
  </g>
  <g id="그룹_564" data-name="그룹 564">
    <g id="그룹_563" data-name="그룹 563" clip-path="url(#clip-path-19)">
      <rect id="사각형_361" data-name="사각형 361" width="24.578" height="10.419" transform="translate(601.549 92.935)" fill="url(#linear-gradient)"/>
    </g>
  </g>
  <g id="그룹_566" data-name="그룹 566">
    <g id="그룹_565" data-name="그룹 565" clip-path="url(#clip-path-20)">
      <rect id="사각형_362" data-name="사각형 362" width="19.693" height="10.88" transform="translate(601.251 99.919)" fill="url(#linear-gradient)"/>
    </g>
  </g>
  <g id="그룹_568" data-name="그룹 568">
    <g id="그룹_567" data-name="그룹 567" clip-path="url(#clip-path-21)">
      <rect id="사각형_363" data-name="사각형 363" width="12.344" height="7.045" transform="translate(596.662 103.204)" fill="url(#linear-gradient)"/>
    </g>
  </g>
  <g id="그룹_570" data-name="그룹 570">
    <g id="그룹_569" data-name="그룹 569" clip-path="url(#clip-path-22)">
      <rect id="사각형_364" data-name="사각형 364" width="37.811" height="54.558" transform="translate(569.775 49.237)" fill="url(#linear-gradient)"/>
    </g>
  </g>
  <g id="그룹_572" data-name="그룹 572">
    <g id="그룹_571" data-name="그룹 571" clip-path="url(#clip-path-23)">
      <rect id="사각형_365" data-name="사각형 365" width="5.32" height="6.669" transform="translate(568.183 101.311)" fill="url(#linear-gradient)"/>
    </g>
  </g>
  <g id="그룹_574" data-name="그룹 574">
    <g id="그룹_573" data-name="그룹 573" clip-path="url(#clip-path-24)">
      <path id="패스_2264" data-name="패스 2264" d="M581.846,123.451h0Z" fill="url(#linear-gradient)"/>
    </g>
  </g>
  <g id="그룹_576" data-name="그룹 576">
    <g id="그룹_575" data-name="그룹 575" clip-path="url(#clip-path-25)">
      <rect id="사각형_366" data-name="사각형 366" width="0.474" height="0.3" transform="translate(581.847 123.151)" fill="url(#linear-gradient)"/>
    </g>
  </g>
  <g id="그룹_578" data-name="그룹 578">
    <g id="그룹_577" data-name="그룹 577" clip-path="url(#clip-path-26)">
      <rect id="사각형_367" data-name="사각형 367" width="15.829" height="13.861" transform="translate(540.823 110.805)" fill="url(#linear-gradient)"/>
    </g>
  </g>
  <g id="그룹_580" data-name="그룹 580">
    <g id="그룹_579" data-name="그룹 579" clip-path="url(#clip-path-27)">
      <rect id="사각형_368" data-name="사각형 368" width="13.235" height="9.014" transform="translate(538.951 120.715)" fill="url(#linear-gradient)"/>
    </g>
  </g>
  <g id="그룹_582" data-name="그룹 582">
    <g id="그룹_581" data-name="그룹 581" clip-path="url(#clip-path-28)">
      <rect id="사각형_369" data-name="사각형 369" width="0.497" height="1.964" transform="translate(552.186 127.391)" fill="url(#linear-gradient)"/>
    </g>
  </g>
  <g id="그룹_584" data-name="그룹 584">
    <g id="그룹_583" data-name="그룹 583" clip-path="url(#clip-path-29)">
      <rect id="사각형_370" data-name="사각형 370" width="3.182" height="2.723" transform="translate(549.501 127.184)" fill="url(#linear-gradient)"/>
    </g>
  </g>
  <g id="그룹_586" data-name="그룹 586">
    <g id="그룹_585" data-name="그룹 585" clip-path="url(#clip-path-30)">
      <rect id="사각형_371" data-name="사각형 371" width="13.686" height="22.161" transform="translate(491.878 162.019)" fill="url(#linear-gradient)"/>
    </g>
  </g>
  <g id="그룹_588" data-name="그룹 588">
    <g id="그룹_587" data-name="그룹 587" clip-path="url(#clip-path-31)">
      <rect id="사각형_372" data-name="사각형 372" width="44.33" height="33.564" transform="translate(495.338 154.368)" fill="url(#linear-gradient)"/>
    </g>
  </g>
  <g id="그룹_590" data-name="그룹 590">
    <g id="그룹_589" data-name="그룹 589" clip-path="url(#clip-path-32)">
      <rect id="사각형_373" data-name="사각형 373" width="46.006" height="39.868" transform="translate(511.972 122.151)" fill="url(#linear-gradient)"/>
    </g>
  </g>
  <g id="그룹_592" data-name="그룹 592">
    <g id="그룹_591" data-name="그룹 591" clip-path="url(#clip-path-33)">
      <rect id="사각형_374" data-name="사각형 374" width="18.249" height="9.517" transform="translate(550.879 137.029)" fill="url(#linear-gradient)"/>
    </g>
  </g>
  <g id="그룹_594" data-name="그룹 594">
    <g id="그룹_593" data-name="그룹 593" clip-path="url(#clip-path-34)">
      <rect id="사각형_375" data-name="사각형 375" width="42.702" height="40.199" transform="translate(552.903 140.191)" fill="url(#linear-gradient)"/>
    </g>
  </g>
  <g id="그룹_596" data-name="그룹 596">
    <g id="그룹_595" data-name="그룹 595" clip-path="url(#clip-path-35)">
      <rect id="사각형_376" data-name="사각형 376" width="22.181" height="10.263" transform="translate(573.223 123.451)" fill="url(#linear-gradient)"/>
    </g>
  </g>
  <g id="그룹_598" data-name="그룹 598">
    <g id="그룹_597" data-name="그룹 597" clip-path="url(#clip-path-36)">
      <rect id="사각형_377" data-name="사각형 377" width="21.725" height="11.157" transform="translate(569.054 131.893)" fill="url(#linear-gradient)"/>
    </g>
  </g>
  <g id="그룹_600" data-name="그룹 600">
    <g id="그룹_599" data-name="그룹 599" clip-path="url(#clip-path-37)">
      <rect id="사각형_378" data-name="사각형 378" width="9.151" height="11.874" transform="translate(558.194 94.711)" fill="url(#linear-gradient)"/>
    </g>
  </g>
  <g id="그룹_602" data-name="그룹 602">
    <g id="그룹_601" data-name="그룹 601" clip-path="url(#clip-path-38)">
      <rect id="사각형_379" data-name="사각형 379" width="31.249" height="33.704" transform="translate(551.344 106.155)" fill="url(#linear-gradient)"/>
    </g>
  </g>
  <g id="그룹_604" data-name="그룹 604">
    <g id="그룹_603" data-name="그룹 603" clip-path="url(#clip-path-39)">
      <rect id="사각형_380" data-name="사각형 380" width="0.014" height="0.347" transform="translate(638.094 114.695)" fill="url(#linear-gradient)"/>
    </g>
  </g>
  <g id="그룹_606" data-name="그룹 606">
    <g id="그룹_605" data-name="그룹 605" clip-path="url(#clip-path-40)">
      <rect id="사각형_381" data-name="사각형 381" width="0.136" height="0.411" transform="translate(638.122 114.117)" fill="url(#linear-gradient)"/>
    </g>
  </g>
  <g id="그룹_608" data-name="그룹 608">
    <g id="그룹_607" data-name="그룹 607" clip-path="url(#clip-path-41)">
      <rect id="사각형_382" data-name="사각형 382" width="0.192" height="0.14" transform="translate(626.867 101.695)" fill="url(#linear-gradient)"/>
    </g>
  </g>
  <g id="그룹_610" data-name="그룹 610">
    <g id="그룹_609" data-name="그룹 609" clip-path="url(#clip-path-42)">
      <rect id="사각형_383" data-name="사각형 383" width="62.275" height="35.707" transform="translate(608.683 116.729)" fill="url(#linear-gradient)"/>
    </g>
  </g>
  <g id="그룹_612" data-name="그룹 612">
    <g id="그룹_611" data-name="그룹 611" clip-path="url(#clip-path-43)">
      <rect id="사각형_384" data-name="사각형 384" width="0.108" height="0.286" transform="translate(638.392 116.514)" fill="url(#linear-gradient)"/>
    </g>
  </g>
  <g id="그룹_614" data-name="그룹 614">
    <g id="그룹_613" data-name="그룹 613" clip-path="url(#clip-path-44)">
      <rect id="사각형_385" data-name="사각형 385" width="23.17" height="12.053" transform="translate(587.169 134.176)" fill="url(#linear-gradient)"/>
    </g>
  </g>
  <g id="그룹_616" data-name="그룹 616">
    <g id="그룹_615" data-name="그룹 615" clip-path="url(#clip-path-45)">
      <rect id="사각형_386" data-name="사각형 386" width="0.114" height="0.218" transform="translate(638.629 117.11)" fill="url(#linear-gradient)"/>
    </g>
  </g>
  <g id="그룹_618" data-name="그룹 618">
    <g id="그룹_617" data-name="그룹 617" clip-path="url(#clip-path-46)">
      <rect id="사각형_387" data-name="사각형 387" width="0.045" height="0.346" transform="translate(638.114 115.274)" fill="url(#linear-gradient)"/>
    </g>
  </g>
  <g id="그룹_620" data-name="그룹 620">
    <g id="그룹_619" data-name="그룹 619" clip-path="url(#clip-path-47)">
      <rect id="사각형_388" data-name="사각형 388" width="0.086" height="0.328" transform="translate(638.214 115.891)" fill="url(#linear-gradient)"/>
    </g>
  </g>
  <g id="그룹_622" data-name="그룹 622">
    <g id="그룹_621" data-name="그룹 621" clip-path="url(#clip-path-48)">
      <rect id="사각형_389" data-name="사각형 389" width="0.384" height="0.198" transform="translate(627.259 101.977)" fill="url(#linear-gradient)"/>
    </g>
  </g>
  <g id="그룹_624" data-name="그룹 624">
    <g id="그룹_623" data-name="그룹 623" clip-path="url(#clip-path-49)">
      <rect id="사각형_390" data-name="사각형 390" width="0.088" height="0.077" transform="translate(626.486 101.366)" fill="url(#linear-gradient)"/>
    </g>
  </g>
  <g id="그룹_626" data-name="그룹 626">
    <g id="그룹_625" data-name="그룹 625" clip-path="url(#clip-path-50)">
      <rect id="사각형_391" data-name="사각형 391" width="31.625" height="20.8" transform="translate(610.617 101.014)" fill="url(#linear-gradient)"/>
    </g>
  </g>
  <g id="그룹_628" data-name="그룹 628">
    <g id="그룹_627" data-name="그룹 627" clip-path="url(#clip-path-51)">
      <rect id="사각형_392" data-name="사각형 392" width="0.293" height="0.252" transform="translate(626.574 101.443)" fill="url(#linear-gradient)"/>
    </g>
  </g>
  <g id="그룹_630" data-name="그룹 630">
    <g id="그룹_629" data-name="그룹 629" clip-path="url(#clip-path-52)">
      <rect id="사각형_393" data-name="사각형 393" width="0.014" height="0.167" transform="translate(638.108 114.528)" fill="url(#linear-gradient)"/>
    </g>
  </g>
  <g id="그룹_632" data-name="그룹 632">
    <g id="그룹_631" data-name="그룹 631" clip-path="url(#clip-path-53)">
      <rect id="사각형_394" data-name="사각형 394" width="0.055" height="0.271" transform="translate(638.159 115.62)" fill="url(#linear-gradient)"/>
    </g>
  </g>
  <g id="그룹_634" data-name="그룹 634">
    <g id="그룹_633" data-name="그룹 633" clip-path="url(#clip-path-54)">
      <rect id="사각형_395" data-name="사각형 395" width="0.2" height="0.142" transform="translate(627.059 101.835)" fill="url(#linear-gradient)"/>
    </g>
  </g>
  <g id="그룹_636" data-name="그룹 636">
    <g id="그룹_635" data-name="그룹 635" clip-path="url(#clip-path-55)">
      <rect id="사각형_396" data-name="사각형 396" width="0.092" height="0.295" transform="translate(638.3 116.219)" fill="url(#linear-gradient)"/>
    </g>
  </g>
  <g id="그룹_638" data-name="그룹 638">
    <g id="그룹_637" data-name="그룹 637" clip-path="url(#clip-path-56)">
      <rect id="사각형_397" data-name="사각형 397" width="0.455" height="0.7" transform="translate(638.743 117.328)" fill="url(#linear-gradient)"/>
    </g>
  </g>
  <g id="그룹_640" data-name="그룹 640">
    <g id="그룹_639" data-name="그룹 639" clip-path="url(#clip-path-57)">
      <rect id="사각형_398" data-name="사각형 398" width="0.019" height="0.232" transform="translate(638.095 115.042)" fill="url(#linear-gradient)"/>
    </g>
  </g>
  <g id="그룹_642" data-name="그룹 642">
    <g id="그룹_641" data-name="그룹 641" clip-path="url(#clip-path-58)">
      <rect id="사각형_399" data-name="사각형 399" width="0.359" height="0.352" transform="translate(626.127 101.014)" fill="url(#linear-gradient)"/>
    </g>
  </g>
  <g id="그룹_644" data-name="그룹 644">
    <g id="그룹_643" data-name="그룹 643" clip-path="url(#clip-path-59)">
      <rect id="사각형_400" data-name="사각형 400" width="0.129" height="0.31" transform="translate(638.5 116.8)" fill="url(#linear-gradient)"/>
    </g>
  </g>
  <g id="그룹_646" data-name="그룹 646">
    <g id="그룹_645" data-name="그룹 645" clip-path="url(#clip-path-60)">
      <rect id="사각형_401" data-name="사각형 401" width="35.079" height="26.214" transform="translate(579.029 106.331)" fill="url(#linear-gradient)"/>
    </g>
  </g>
  <g id="그룹_648" data-name="그룹 648">
    <g id="그룹_647" data-name="그룹 647" clip-path="url(#clip-path-61)">
      <rect id="사각형_402" data-name="사각형 402" width="1.342" height="0.912" transform="translate(607.341 131.466)" fill="url(#linear-gradient)"/>
    </g>
  </g>
  <g id="그룹_650" data-name="그룹 650">
    <g id="그룹_649" data-name="그룹 649" clip-path="url(#clip-path-62)">
      <rect id="사각형_403" data-name="사각형 403" width="19.573" height="8.586" transform="translate(589.227 129.249)" fill="url(#linear-gradient)"/>
    </g>
  </g>
  <g id="그룹_652" data-name="그룹 652">
    <g id="그룹_651" data-name="그룹 651" clip-path="url(#clip-path-63)">
      <rect id="사각형_404" data-name="사각형 404" width="12.189" height="12.857" transform="translate(624.152 134.752)" fill="url(#linear-gradient)"/>
    </g>
  </g>
  <g id="그룹_654" data-name="그룹 654">
    <g id="그룹_653" data-name="그룹 653" clip-path="url(#clip-path-64)">
      <rect id="사각형_405" data-name="사각형 405" width="38.452" height="32.713" transform="translate(575.942 141.057)" fill="url(#linear-gradient)"/>
    </g>
  </g>
  <g id="그룹_656" data-name="그룹 656">
    <g id="그룹_655" data-name="그룹 655" clip-path="url(#clip-path-65)">
      <rect id="사각형_406" data-name="사각형 406" width="35.167" height="20.911" transform="translate(600.901 135.801)" fill="url(#linear-gradient)"/>
    </g>
  </g>
  <g id="그룹_658" data-name="그룹 658">
    <g id="그룹_657" data-name="그룹 657" clip-path="url(#clip-path-66)">
      <rect id="사각형_407" data-name="사각형 407" width="22.487" height="13.584" transform="translate(609.658 152.48)" fill="url(#linear-gradient)"/>
    </g>
  </g>
  <g id="그룹_660" data-name="그룹 660">
    <g id="그룹_659" data-name="그룹 659" clip-path="url(#clip-path-67)">
      <rect id="사각형_408" data-name="사각형 408" width="1.367" height="1.262" transform="translate(622.619 184.581)" fill="url(#linear-gradient)"/>
    </g>
  </g>
  <g id="그룹_662" data-name="그룹 662">
    <g id="그룹_661" data-name="그룹 661" clip-path="url(#clip-path-68)">
      <rect id="사각형_409" data-name="사각형 409" width="32.878" height="24.953" transform="translate(602.52 162.479)" fill="url(#linear-gradient)"/>
    </g>
  </g>
</svg>
