<svg xmlns="http://www.w3.org/2000/svg" xmlns:xlink="http://www.w3.org/1999/xlink" width="510.655" height="319.527" viewBox="0 0 510.655 319.527">
  <defs>
    <linearGradient id="linear-gradient" x1="0.5" y1="4.425" x2="-0.992" y2="3.931" gradientUnits="objectBoundingBox">
      <stop offset="0" stop-color="#ffd25a"/>
      <stop offset="1" stop-color="#f8de9a"/>
    </linearGradient>
  </defs>
  <g id="그룹_299" data-name="그룹 299" transform="translate(2342.558)">
    <path id="패스_2042" data-name="패스 2042" d="M-2138.825,37.121l-8.093,1.891-5.574,1.327-3.052-.929-2.256-2.289,5.574-2.753,3.914-1.857,6.038-3.053h2.653l6.237-.663h2.654l1.99,1.592,6.635-.929.929,1.99-1.725,2.124,2.388,1v.995l5.706-.995,1.858,1.393,3.184-1.99,2.257,1.592-.664,2.654,5.441-4.511,2.653-1.194,2.654,2.056-.8,2.554-1.725,3.218V42.6a21.817,21.817,0,0,1,1.991.929,27.665,27.665,0,0,1,2.122,2.388l-3.715,1.593s-1.194-.8-1.725,0a14.411,14.411,0,0,1-2.919,2.255h-7.166l-4.777-2.122-6.5-.8-5.441,1.991h-4.113a43.668,43.668,0,0,0-4.777.928l-1.991-1.326-2.388-1.46-1.593-1.593,2.787-.663,11.146-.4-11.942-2.255,2.122-1.461,5.043-1.326-5.573-.8Z" fill="url(#linear-gradient)"/>
    <path id="패스_2043" data-name="패스 2043" d="M-2095.832,48.832l4.777-2.123,3.052-.8,2.654.929,1.061,1.99-1.061.928-3.052.8h-1.659Z" fill="url(#linear-gradient)"/>
    <path id="패스_2044" data-name="패스 2044" d="M-2127.678,23.222c1.194-2.124,4.379-2.787,4.379-2.787l6.1-1.327,3.184-.663h4.246s5.175,0,3.185.929-3.981.928-4.379,1.459-4.113,1.858-4.113,1.858l-3.981-1.062-1.327,1.593s0,1.592-1.327.663S-2127.678,23.222-2127.678,23.222Z" fill="url(#linear-gradient)"/>
    <path id="패스_2045" data-name="패스 2045" d="M-2116.9,26.937l2.757-2.761,2.919-.955,3.583-1.194,3.317-.717,3.45,2.866,3.185,1.965,3.052-2.018,1.46-2.1,3.118.4,1.128,1.751,3.052-.053h1.592l-3.583,2.814-7.166.8-8.625,1.061-4.379-1.725-2.654.133-1.592-1.327Z" fill="url(#linear-gradient)"/>
    <path id="패스_2046" data-name="패스 2046" d="M-2093.708,18.445l1.99-2.124h4.91l-.664,1.062s.4.531-1.592,1.062A12.261,12.261,0,0,1-2093.708,18.445Z" fill="url(#linear-gradient)"/>
    <path id="패스_2047" data-name="패스 2047" d="M-2086.045,34.832a13.556,13.556,0,0,0,3.781-.9s-.6-.2,0-1.791,3.185-1.791,3.185-1.791h4.28s4.179-1.493,3.582,0a13.377,13.377,0,0,1-1.592,2.786l-.7,2.19-.7,1.791s.8-.1-.6,0-4.977,2.157-4.977,2.157-.8,1.36-2.985,0-2.389-.167-3.284-.664-2.886-2.189-1.991-2.986A3.287,3.287,0,0,1-2086.045,34.832Z" fill="url(#linear-gradient)"/>
    <path id="패스_2048" data-name="패스 2048" d="M-2078.78,21.311h2.09s.6,1.977,1.094,1.181,1.294.189,1.294.189v2.372h-2.786l-2.622-.877V22.591Z" fill="url(#linear-gradient)"/>
    <path id="패스_2049" data-name="패스 2049" d="M-2070.221,21.311h3.583l1.593.484,2.786-.484,1.393.982-2.189,1.791-2.886.969-1.99,1.917-3.226-.9-1.551-1.022,1.551-3.059Z" fill="url(#linear-gradient)"/>
    <path id="패스_2050" data-name="패스 2050" d="M-2061.862,13.634c-1.692-1.194-4.777-2.786-4.926-.995a3.1,3.1,0,0,0,1.045,2.687l3.085.995,2.886.6s1.791.7,2.19-.6.8-2.488,0-2.388a23.47,23.47,0,0,1-3.782-.5Z" fill="url(#linear-gradient)"/>
    <path id="패스_2051" data-name="패스 2051" d="M-2052.507,15.326l1.393,1.78,2.19.395,1.592,1.179,2.19-1.179V15.824l-2.588-.5h-1.891s-.5-1.711-1.692-.855Z" fill="url(#linear-gradient)"/>
    <path id="패스_2052" data-name="패스 2052" d="M-2056.488,20.6-2055,20h1.692l3.384,1.307s1.194-.113-.6.484a17.71,17.71,0,0,1-4.081.7l-1.891-.7Z" fill="url(#linear-gradient)"/>
    <path id="패스_2053" data-name="패스 2053" d="M-2062.459,26.97l2.787,1.294,3.483.531,1.095-1.825V25.053l-1.393.524h-2.986Z" fill="url(#linear-gradient)"/>
    <path id="패스_2054" data-name="패스 2054" d="M-2063.255,30.951c-1.1.5-2.787-.6-3.533.7s-4.13,1.9-3.732,3.138-.2,3.43,1.095,2.833,3.383-3.376,4.179-2.833,2.887.544,3.683.544,5.573.3,5.573-1,3.284-1.991,3.483-2.687-1.692-1.394-2.587-1.394-5.773-.564-5.773-.564a1.731,1.731,0,0,0-1.592,0A1.936,1.936,0,0,0-2063.255,30.951Z" fill="url(#linear-gradient)"/>
    <path id="패스_2055" data-name="패스 2055" d="M-2048.825,31.846l-3.085,2.29-3.583,2.985s-5.175,1.99-4.08,2.886a8.994,8.994,0,0,1,1.891,3.284h2.588l2.587.8,2.978.821,3.69-.722,5.275,1.792,5.573-.6s3.682.6,3.781-.5,2.389,1.1,2.389,1.1a1.962,1.962,0,0,0,1.592,1.592c1.493.4,1.195,2.587,1.195,2.587l3.184.7s3.483,2.388,1.891,3.185a47.033,47.033,0,0,0-5.573,4.279s-4.18,1.493-3.583,3.185-1.194,2.388-1.692,2.488-4.677,0-4.677,0-2.223-1.891-3.65-1.891-4.411,1.935-4.411,1.935-1.792,2.046-.6,2.543,5.008,0,5.008,0,.565,1.692,1.759,1.593l1.194-.1,2.687-1.1s.1-.6,1.792,0,3.383,4.379,3.383,4.379,1.394,2.986,2.19,2.986,9.952,3.284,9.952,3.284,3.085.3,1.791-1-4.677-3.483-3.782-4.877,4.1.1,4.1.1,4.162,4.677,5.854.7a23.166,23.166,0,0,0,1.89-6.369l-3.98-3.981L-2013,60.907l.5-1.991,7.166.4,1.592,3.185s1.991,3.682,3.085,2.289,6.171-3.881,6.171-3.881,3.582-1.493,2.388-3.484a13.232,13.232,0,0,0-3.085-3.383l-3.583-.7s-5.672-.995-5.473-2.588,2.488-2.886,2.488-2.886,3.483-2.587,1.492-3.184-1.891.6-1.99-.6-4.379-3.981-4.379-3.981-4.18.9-4.976-.4-6.369-3.782-6.369-3.782l-5.573.7h-5.474s-1.095-.2.8-2.388,1.194-2.09-1.592-2.389a30.03,30.03,0,0,0-7.166.6l-7.265,4.677s.1,3.782-.9,3.881-1.294-2.786-1.294-2.786l4.976-4.614s4.777-2.154,2.289-2.253S-2048.825,31.846-2048.825,31.846Z" fill="url(#linear-gradient)"/>
    <path id="패스_2056" data-name="패스 2056" d="M-2047.531,25.053l2.389-3.742,2.786,1.181s.929,3.2,3.052,2.561,9.156,0,9.156,0l5.043-.912h4.777v2.782l-5.462,2.561h-4.225l-7.166-.689-5.838-1.825s-8.228,2.754-8.228.764S-2047.531,25.053-2047.531,25.053Z" fill="url(#linear-gradient)"/>
    <path id="패스_2057" data-name="패스 2057" d="M-2024.84,31.338h7.032s1.859.376,1.461,1.571-2.787,1.877-2.787,1.877l-2.92.909s-1.99.306-2.255-.909S-2024.84,31.338-2024.84,31.338Z" fill="url(#linear-gradient)"/>
    <path id="패스_2058" data-name="패스 2058" d="M-2027.494,6.635l-5.573,3.052h-2.72l-1.129,1.327h-2.786s.531,4.909,1.858,4.777,4.777,0,4.777,0l3.981-1.322h3.3l6.258-1.068,1.99-1.568-3.024-1.352-2.417-1.857Z" fill="url(#linear-gradient)"/>
    <path id="패스_2059" data-name="패스 2059" d="M-2019.8,6.635l2.256.8,1.25,1.062h1.271s13.668-1.2,8.626,0-7.962,1.993-7.432,2.721,3.185.065,1.858,1.392a6.312,6.312,0,0,1-3.052,1.625l-3.848,2.225-3.583.65s-4.246-1.073-5.44,0,.132,2.135-2.256,2.135-7.7,1.228-7.7,2.007,2.057,1.244,2.057,1.244h7.9s3.981-2.023,5.307-1.244a15.924,15.924,0,0,0,6.293,1.244,40.373,40.373,0,0,0,5.65-1.244s-.663-1.476.4-2.007,6.767-2.135,6.767-2.135l6.9-2.539,7.3-2.093s6.9.58,7.564-.639,5.175-1.883,5.175-1.883l2.786-1.99a3.67,3.67,0,0,0,3.981.664,24.848,24.848,0,0,0,5.307-3.053h3.849s9.554-2.255,7.829-2.521-3.768-.663-3.768-.663h-9.9s-2.521,1.725-4.379,1.592-8.227-.929-8.227-.929.8-.531-3.051-.663-4.91.8-6.238,0-.265-1.858-4.909-.664a92.566,92.566,0,0,1-11.146,1.858l-5.573.664-4.645,1.061s-3.317-.531-4.246.4Z" fill="url(#linear-gradient)"/>
    <path id="패스_2060" data-name="패스 2060" d="M-1988.482,15.793l11.677-1.322,10.616-3.257-1.327-1.925,7.165-1.062,7.772-1.592h4.171l4.246-2.919,5.573,2.919,7.165-2.919h22.293l10.881-2.527h11.529L-1878.877,0h14.066l12.473,2.654s-6.1,2.919-2.388,2.654a46.155,46.155,0,0,0,6.1-.8l6.9-.531s1.592-.531,5.308,0,4.511,2.388,4.511,2.654-2.389.932-3.715,1.262-12.474,3.938-12.474,3.938-7.165.969-7.43,2.4-4.777,2.372-2.389,2.43a6.882,6.882,0,0,1,4.246,2.019,4.392,4.392,0,0,1-2.919,2.631c-2.123.451,0,1.758-.531,2.83s-4.512,7.2-4.512,7.2-4.245,2.29-7.961,2.2-9.819,2.1-8.493,2.195a61.72,61.72,0,0,1,6.9,1.991s3.98,3.946,3.184,5.008-3.45,1.061-3.45,1.061-3.98-6.487-6.1-3.907-2.123,3.642-1.327,3.907,1.062-3.185,3.185,0-.265,4.379-1.062,4.446-4.511.228-4.511.228l-13.535,3.554h-6.635s3.981-2.2-2.388,2.48-14.331,9.727-15.658,7.339,1.062-3.185-1.327-2.389-3.184,2.287-3.981,3-2.388,0-2.388,0-3.185-2.2-4.247.318S-1937,73.247-1937,73.247s-3.185-1.857-3.715,0-1.592,5.839-3.45,7.166-4.777,3.715-4.777,3.715l-4.777-2.388a2.908,2.908,0,0,0-2.839-2.654c-2.735-.266-3.8,3.45-5.123,1.061s-4.511-11.411-4.511-11.411,3.185-2.389,1.592-4.247a11.7,11.7,0,0,1-2.123-4.777l.531-5.215c2.388-1.154,2.388-4.6,4.246-3.941s8.227,1.991,7.43,0-1.165-5.44-2.042-6.767,2.839,0,2.839,0,2.275-.8,1.137-2.654-4.056-2.123-5.914-1.857-1.327-4.492-1.327-4.492,6.369-7.611,1.592-9.389-13.534-2.9-13.534-2.9l-8.493.689a12.035,12.035,0,0,0-3.45-.683c-1.327.061-3.981,3.013-3.184-1.25S-1988.482,15.793-1988.482,15.793Z" fill="url(#linear-gradient)"/>
    <path id="패스_2061" data-name="패스 2061" d="M-1880.734,61.57l1.882-.8,5.018-2.123,3.185,2.919h1.326l2.919-1.46,1.858,1.46,3.185-1.46h8.228l4.246,1.46-2.654,3.185-6.369,1.326-4.512,2.389-2.389,2.654h-2.92L-1870.915,69l-4.511,2.123V67.94l-.266-1.592,2.123-2.92Z" fill="url(#linear-gradient)"/>
    <path id="패스_2062" data-name="패스 2062" d="M-2146.918,254.773l2.388-5.043,6.1-1.327h4.777l8.493,3.185,5.308,1.858,4.246,3.185,6.369,3.981s2.124,1.212,0,2.2-2.388-.721-5.573,0-2.388.175-4.246.315,1.858-1.717-.531-3.044a37.632,37.632,0,0,1-5.573-4.283s.413-1.822-2.447-2.087-5.515,1.593-7.107,0-4.246-4.512-5.308-3.184S-2146.918,254.773-2146.918,254.773Z" fill="url(#linear-gradient)"/>
    <path id="패스_2063" data-name="패스 2063" d="M-2108.29,269.635h3.3s2.655,0,2.655-1.593-2.979-4.849-2.979-4.849l6.96,1.134s3.184-3.861,3.449-1.134,3.185,3.537,3.981,2.734,7.166,1.054,4.777,2.38a14.106,14.106,0,0,1-5.838,1.328l-4.968.8v1.857Z" fill="url(#linear-gradient)"/>
    <path id="패스_2064" data-name="패스 2064" d="M-2079.726,269.4l1.792.249,1.344-.249,1.045,1.095-1.344,1.493-2.04-.6-1.144.6-.9-1.294Z" fill="url(#linear-gradient)"/>
    <path id="패스_2065" data-name="패스 2065" d="M-2064.98,271.293c-.142.1-.123.574,0,.7.094.094.405.042.531,0s.486-.2.464-.349C-2064.025,271.381-2064.765,271.141-2064.98,271.293Z" fill="url(#linear-gradient)"/>
    <path id="패스_2066" data-name="패스 2066" d="M-2063.587,274.345c-.313-.12-.9,1-.9,1h.5a2.485,2.485,0,0,0,.4-.5C-2063.546,274.726-2063.471,274.39-2063.587,274.345Z" fill="url(#linear-gradient)"/>
    <path id="패스_2067" data-name="패스 2067" d="M-2061.265,274.345c-.167-.072-.531.316-.531.5s.531.5.531.5S-2061.036,274.444-2061.265,274.345Z" fill="url(#linear-gradient)"/>
    <path id="패스_2068" data-name="패스 2068" d="M-2241.047,103.236a42.274,42.274,0,0,1-2.654-5.706c-.8-2.388,1.46-6.634,1.991-7.829a5.526,5.526,0,0,0-.664-4.245c-.53-.532-2.919,2.122-2.919,2.122l-4.91.8-1.061-4.113-3.849-2.123,36.624-29.723,5.912-6.014-2.454-2.862-4.347-.105-2.8.622-4.762-.622-4.76-.551-4.037-1.518-2.691.828-3.209-.828-3.312-.725s-3.985-1.707-4.968-.724-.932,1.863-3.934,1.863-5.071-.207-5.071-.207l-4.348-.311-4.037.725-3.726,1.553-4.243,1.759-5.59,1.607-3.933,1.187-4.347.725-4.14.621-1.76,1.139,1.242,1.656,1.242,1.967-.621,1.449h2.691l1.036,2.07-.622.828-3.208.931L-2296.8,60h-1.864l-1.553-.931-.724-1.45-4.864,1.863-7.556.518-1.553,1.242V63l-.518,2.692,1.967,1.345,1.242-1.345h6.624l2.588-1.036h1.863l2.277.518s1.553.1-1.553,1.553l-3.1,1.449-3.209,1.76h-2.174l-3.415.62-2.588,1.76s-3.415-.724-4.761,0-7.453,4.762-7.453,4.762-2.691-1.449-3.622,0a11.5,11.5,0,0,0-1.243,3.932s-3.518,1.139-2.794,2.381-1.449,2.381,1.552,2.381,3.416-1.656,4.658-1.035-.931,3.1-.931,3.1-2.071.312-1.967,1.243,4.658,0,4.658,0l3.312.414,2.277.621h2.277l-17.285,7.97-4.555,2.9-1.759,1.242s-.31,1.242,3,0,33.949-13.455,33.949-13.455l.311-1.243,18.321-8.177s3.208-1.345,2.38-.517-5.279,3-5.486,3.519-6.831,4.347-6.624,4.865,10.971-2.174,10.971-2.174,2.8.415,3.313-1.656.207-2.9,1.759-3.209,5.486-2.173,6.211-1.241.1,2.691.931,2.691,3.106.414,3.519.931a3.036,3.036,0,0,0,2.9.415c.931-.415,2.9.723,3.726.723a61.265,61.265,0,0,1,6,1.553s1.967-.828,1.863,0-.517,2.174.207,2.795,1.346,2.9,2.381,3.209,1.966-.725,2.9-.208,1.449,2.588,1.449,3.209-2.484,1.656-1.966,2.07a20.933,20.933,0,0,1,1.552,1.553s2.277,3,1.552,3.519-2.587.9-1.759,1.38,2.07,1.208,2.174,2.347a1.323,1.323,0,0,1-.137.623l1.858-.786Z" fill="url(#linear-gradient)"/>
    <path id="패스_2069" data-name="패스 2069" d="M-2254.051,205.676l5.971,1.593,5.574,5.175h3.582l5.972-.8,6.767-.4s1.194-2.388,2.787-2.388,6.767,7.564,6.767,7.564l.4,3.582,3.185.8,3.582-1.99,3.583,1.194s.8,2.787,1.194,4.777,5.175,6.37,5.175,6.37,1.991-1.2,3.185,2.786a7.37,7.37,0,0,0,1.335,2.5l.457-1,.621-4.347s-.414-3.933,1.967-4.451,6.417-3.415,5.071-3.312,5.175-3.1,5.175-3.1l3.416-2.174,3.417-.517s.724,1.345,3.415,1.241,4.657,0,4.657,0,.415,1.76,1.449,1.243a7.471,7.471,0,0,1,3.52-.518c.724.1,2.587.311,2.587.311l-.724-1.967s-4.658-1.656-2.587-1.863a34.024,34.024,0,0,1,5.588.207s.622,1.242,1.967.1.1-3,1.76-2.173,2.794,1.76,4.14,1.035,4.657.931,4.657.931-.206,1.863.829,1.967a20.223,20.223,0,0,0,4.347-.932l2.277,1.139s1.76,1.45,1.863,2.588-1.242,2.484-.828,4.657,1.553,8.178,1.553,8.178,1.966,3.622,2.795,4.036,4.554-3.1,4.554-3.1a9.6,9.6,0,0,0,.1-9.109c-2.484-5.175-1.034-12.834-1.034-12.834l4.243-5.383s4.657-2.691,5.486-3.622,3.623-4.244,4.554-4.14,3.209-1.346,4.037-2.278,4.554,1.243,5.175-1.345.931-3.933,1.553-4.244,3.1-.932,3.1-2.9.414-14.7,1.553-12.524-.311,5.382,1.345,4.347,2.484-7.349,3.726-6.417,2.588,0,3.209-1.035,1.76-.622,1.966-1.76-.517-2.381.829-2.691a35.494,35.494,0,0,0,4.45-1.76l4.658-1.863,3.726.518,3.83-3.312s-1.863-2.174-.31-3.727,5.589-4.554,5.589-4.554,3.208.621,3.208-.414,1.864-2.173,1.864-2.173l2.9.31,3.624-2.691,1.84-.646v-.013l-1.592-8.359-5.175,1.99-7.166,7.564h-7.962l-9.155-.4-3.185,5.971s-1.522,2.7-2.389,3.185c-1.742.982-5.971.6-7.961.8a19.225,19.225,0,0,0-3.981.4c-2.107.842-4.957,5.051-7.166,5.573-1.975.466-7.184.283-7.961-1.592-.961-2.321,6.41-5.993,5.573-8.36-.557-1.573-6.009-.362-6.369-1.991-.32-1.444,4.98-2.629,4.379-3.98-.407-.915-3.032.083-3.981.4a31.072,31.072,0,0,0-3.981,2.388c-1.082.619-3.663,1.368-4.379,2.389-.752,1.071-.066,4.088-.8,5.175-1.295,1.927-6.079,6.133-7.962,4.777-1.489-1.073,1.134-5.389,1.593-7.166.44-1.708.869-5.406,1.99-6.767,1.782-2.166,7.4-4.024,9.952-5.175,1.263-.57,5.428-.628,5.175-1.991-.218-1.175-3.59.138-4.777,0-1.727-.2-5.061-1.265-6.767-1.592-2.669-.511-10.749-1.592-10.749-1.592s10.7-.131,10.351-2.787c-.21-1.579-4.8-.255-6.37,0-.932.151-2.7,1.531-3.582,1.194-2.249-.859-4.777-8.359-4.777-8.359l-4.777,1.99-90.763.4-8.758,4.777h-4.977a7.156,7.156,0,0,1-1.506,2.9c-1.966,2.278-1.656,5.175-2.9,6.314s-9,10.765-9,10.765l-1.552,2.173-1.553,2.277-1.553,4.555s-4.14,4.036-3.829,5.382-.725,2.484-.725,3.312.414,4.347.414,4.347l1.863,2.277a19.372,19.372,0,0,0-.62,3.934c.1,1.035-1.14,2.277-.725,3a19.95,19.95,0,0,1,.828,4.968c0,.828-.621,2.587.931,3s3.727.1,4.348.932a17.334,17.334,0,0,0,2.8,3.1c.413.1,1.759,4.45,1.759,4.45l.2,2.062,3.865-.891Z" fill="url(#linear-gradient)"/>
    <path id="패스_2070" data-name="패스 2070" d="M-2168.994,278.259l1.829.915,1.61-1.609.517-4.14,1.646-2.529-.294-.068-2.123,1.327-2.521,1.326-.132-.037v.568Z" fill="url(#linear-gradient)"/>
    <path id="패스_2071" data-name="패스 2071" d="M-2177.089,281.842a20.152,20.152,0,0,0,3.583-1.061l-.53-1.858s-2.522-1.858-2.522-2.388.133-2.522.133-2.522l1.327-1.857h2.123l4.512,1.289h0l.132.037,2.522-1.326,2.123-1.327.294.067,1.252-1.922,2.484-6.935v-2.8l2.485-2.794s.517-3-5.8-2.07-8.073,2.38-8.7,3.208-.723,1.449-1.241,4.14-1.035,3.727-2.484,5.176-2.278,2.07-3.934,1.863-6.313-.828-7.245.1-3.208,1.243-3.829-.207-2.588-.724-3.52-1.449-3.208-4.968-3.208-4.968l-1.656-5.9.62-1.966-.414-3.83.725-7.867,2.855-6.245a7.37,7.37,0,0,1-1.335-2.5c-1.194-3.981-3.185-2.786-3.185-2.786s-4.777-4.379-5.175-6.37-1.194-4.777-1.194-4.777l-3.583-1.194-3.582,1.99-3.185-.8-.4-3.582s-5.175-7.564-6.767-7.564-2.787,2.388-2.787,2.388l-6.767.4-5.972.8h-3.582l-5.574-5.175-5.971-1.593-3.184.4-3.865.891.63,6.53s-.414,4.14.517,5.278,3.52,3.313,3.52,4.245.207,3.415-1.553,3.622-2.277,2.07-1.656,2.588,1.449,1.966,2.07,2.38,1.967,2.381,2.174,1.863,1.138-2.173,1.966-.724,1.967,3.312,1.243,4.348-1.139,3.207-.208,3.725,2.795.725,3.1,1.553,2.381,3,2.484,4.037,2.174,2.484,1.968,1.035-.829-5.382-.829-5.382l-1.863-.828-.621-4.244-.931-1.243-1.657-6.831-1.656-3.416s.414-3.622-.827-4.347a4.335,4.335,0,0,1-2.071-2.691c-.1-.724-1.553-6-.31-6.728a2.09,2.09,0,0,0,.931-2.174s1.035-.413,1.45,0a2.408,2.408,0,0,0,2.276.518c.828-.31,1.864-1.346,1.967.207s1.139,3.622.828,4.451a33.889,33.889,0,0,0-.311,5.175l2.484,4.761,2.278,2.692,1.346,3.519,1.966,3.519-1.035,2.38,3.519,2.691,4.451,5.59,3.312,5.9.517,4.348-.931,3.313a2.892,2.892,0,0,0-.414,3.415c1.139,1.76.621,3.106,1.863,3.416s1.656-.1,2.9,1.241,2.9,3.727,4.244,3.727a4.983,4.983,0,0,1,2.588.931l4.968,4.037,13.249,4.865a5.89,5.89,0,0,0,6.313,0c3.416-2.07,4.037-.414,4.037-.414l2.691,1.334,4.761,4.773a5.31,5.31,0,0,0,1.875,1.986l2.14-4.766S-2177.885,281.842-2177.089,281.842Z" fill="url(#linear-gradient)"/>
    <path id="패스_2072" data-name="패스 2072" d="M-2169.259,284.5l4.353-3.1a.253.253,0,0,1-.028,0,6.836,6.836,0,0,1-3-1.448l.771-.771-1.829-.916.531-4.246v-.568l-4.512-1.289h-2.123l-1.327,1.857s-.133,1.991-.133,2.522,2.522,2.388,2.522,2.388l.53,1.858a20.152,20.152,0,0,1-3.583,1.061c-.8,0-2.255,1.327-2.255,1.327l-2.14,4.766a6.512,6.512,0,0,0,1.127.6,3.92,3.92,0,0,0,3.623,0l2.07.414s-.8.162-.428,1.045l5.037-2.712Z" fill="url(#linear-gradient)"/>
    <path id="패스_2073" data-name="패스 2073" d="M-2172.975,272.156l4.512,1.289h0Z" fill="url(#linear-gradient)"/>
    <path id="패스_2074" data-name="패스 2074" d="M-2167.137,290.468c-.53.265-.53-2.787-.53-2.787l-2.146-1.246-.242.848-5.037,2.712a2.375,2.375,0,0,0,.222.4c.828,1.243,4.036,1.656,4.036,1.656l4.657.932a1.553,1.553,0,0,1,1.863.725,7.063,7.063,0,0,0,1.2,2.046c-.486-1.757-1.648-5.8-2.166-6.219C-2165.942,289.008-2166.606,290.2-2167.137,290.468Z" fill="url(#linear-gradient)"/>
    <path id="패스_2075" data-name="패스 2075" d="M-2160.236,291.4l1.857-1.592,3.185-1.46,1.327-2.521,3.318-.132,3.627-.074c.537-.434,1.431-1.373-.209-1.842-2.174-.621-2.485-3.312-4.037-3.416s-8.384.518-8.384.518a26.554,26.554,0,0,1-5.354.519l-4.353,3.1-.554,1.938,2.146,1.246s0,3.052.53,2.787,1.2-1.46,1.859-.929c.518.414,1.68,4.462,2.166,6.219a1.1,1.1,0,0,0,.187.123l.963-2.893Z" fill="url(#linear-gradient)"/>
    <path id="패스_2076" data-name="패스 2076" d="M-2150.029,297.542c.62-1.553.472-6,.472-6l2.84-3.933-.518-1.759a3.855,3.855,0,0,0,.313-.229l-3.627.074-3.318.132-1.327,2.521-3.185,1.46-1.857,1.592-1.726,1.592-.963,2.893a.587.587,0,0,0,.475.108c.725-.207,1.345,2.9,1.345,2.9s1.139,2.382,1.656,1.864,2.174-1.967,2.174-1.967l2.794,2.589.15.744,3.866,1.808C-2150.5,302.273-2150.5,298.719-2150.029,297.542Z" fill="url(#linear-gradient)"/>
    <path id="패스_2077" data-name="패스 2077" d="M-2147.1,313.291a3.171,3.171,0,0,1,1.336-2.565,48.7,48.7,0,0,1-4.68-5.939s-.011-.337-.021-.863l-3.866-1.808.161.807s-2.8-1.448-3.312-.517a13.434,13.434,0,0,0-.828,3.312l.414,2.381h2.174a15.905,15.905,0,0,0,2.484,1.76c.621.206,2.277.206,2.794,1.552s1.449,3.312,2.071,3.312a4.652,4.652,0,0,1,1.219.348A1.128,1.128,0,0,0-2147.1,313.291Z" fill="url(#linear-gradient)"/>
    <path id="패스_2078" data-name="패스 2078" d="M-2125.6,317.67a3.2,3.2,0,0,0,.4-1.46l.071-1.5-1.5-1.889s-1.76-4-5.072-3.38a62.017,62.017,0,0,0-7.659,2.174s-3.623,1.656-5.9-.414c-.161-.147-.328-.309-.495-.478a3.171,3.171,0,0,0-1.336,2.565,1.128,1.128,0,0,1-.054,1.78,4.233,4.233,0,0,0,1.679.377c.828-.1,2.69-.621,3.1.621s1.242,3,2.277,3,2.9-.518,2.9-1.139-1.553-1.863-.517-2.691,1.448-2.039,2.587-2.417a13.807,13.807,0,0,1,4.037,0s.311,1.8,1.035,1.8,1.346.207,1.346.828-.931,2.173-.725,2.484c.119.177.6.954,1,1.6A11.591,11.591,0,0,0-2125.6,317.67Z" fill="url(#linear-gradient)"/>
    <path id="패스_2079" data-name="패스 2079" d="M-1998.5,128.93c-1.036-.828-4.554.1-4.554.1s-2.588,2.38-2.9,1.553-1.139-2.381-1.139-2.381l-.1-1.552-.724-.725,2.8-1.967.31-1.863.931-1.449-.31-1.759s2.07-.1,2.173-1.346,1.139-4.14.932-4.864-1.76-1.346-2.691-2.381.518-3.209-.207-3.416a25.483,25.483,0,0,1-4.347-1.552,11.83,11.83,0,0,1-3.726-3.624l-.725-3s1.863-1.139.518-3.519-3.519-11.8-3.519-11.8l-7.039,5.9a2.2,2.2,0,0,0-2.174.518,2.666,2.666,0,0,1-2.587,1.345c-1.242-.1-4.348-1.863-4.348-1.863s-1.034-5.59-.517-5.9,2.588-1.966,2.588-1.966l-4.451-2.381-1.863-2.588-2.381-2.484L-2041.038,75l-2.9-.207-3-1.242-2.9-.31-2.484,1.449-1.76,3.312-3.209,2.691,1.243,2.795s-.518,2.691-2.381,3.415-4.658,1.449-4.658,2.588,1.449,2.277,1.967,3-.621,7.763-3.933,8.487-11.7,5.382-11.7,5.382a10.257,10.257,0,0,0-.415,2.588c0,1.242-1.345,2.174-1.552,3.727s0,2.173-.207,3.1-2.794,2.692-2.794,2.692-3-.415-3.83,1.241-3.83-1.138-3.83-1.138l-1.035-5.279,5.175-8.073-8.281-1.346-4.968-3.105-2.794-.517V98.914l-1.967-2.07-4.658-1.863-3.312,1.035s-1.035,1.139-1.346.931.1-3.311.1-3.311l1.242-3.934s-4.761,1.967-4.14,0,7.349-9.316,7.349-9.316l10.143-5.692,5.486-1.967s1.656.728,2.173.518c.852-.346,1.968-3.106,1.968-3.106l1.552.829,1.967-2.381,4.968-1.76,7.97-4.45,3.1-.828-4.554,6.727-1.967.829,1.967.724s-.828,3.416,1.345,1.76a73,73,0,0,1,8.073-4.555,11.438,11.438,0,0,1,1.657,1.242c1.242,1.035,5.693,1.449,4.968.621s-3.1-3-3.1-3,1.165-2.4-.518-2.8c-3.006-.7-4.45-4.14-4.45-4.14l3.933-.932,2.691-.207s1.345,2.381,3.208.932,6.211-4.037,6.211-4.037a4.68,4.68,0,0,0,1.035-2.484c-.1-1.035,7.763-4.244,4.968-5.486a24.558,24.558,0,0,0-5.175-1.656l-2.587-.414s-1.45,0-3.519,2.381-4.245,4.45-4.245,4.45-3.726,3.209-5.795,3.417-4.348-1.243-2.9-2.174,5.59-3.519,3.416-4.141a4.653,4.653,0,0,0-3.934.828s-.931,1.035-1.759.518,1.242-3.1.31-3.313-4.244-.62-3.1-1.448,2.588-.207,3.1-1.967-1.552-6.107-1.552-6.107l-2.484,1.138-2.071.208s-6.934,4.036-6.934,5.382.621,1.449,1.448,2.277a2.791,2.791,0,0,1,0,3.416c-.723.621-4.553,3-4.553,3l-4.969,1.966s2.071-1.863.828-2.381-5.589-.621-5.589-.621.207.932-.932.932-12.835.828-13.558.724-4.037-2.691-4.037-2.691a8.526,8.526,0,0,0-3.209-1.035,26.394,26.394,0,0,0-4.555.9h-3.312l-3.036,2.76-1.932-1.38-5.244,1.38-5.245,1.1h-2.484l-1.932-1.932,3.864-1.932-3.864-2.484h-5.52l-3.312-1.657-5.521-1.932-3.312,1.1-2.484-1.1s-2.622,3.726-4.416,1.932a8.411,8.411,0,0,1-2.208-3.312h-3.588l-2.208,2.484-4.969-2.484-6.624,3.036-8.108,1.035-4.968,1.587-4.968-2-2.692-.414-2.9.31-.03-.035-5.912,6.014-36.624,29.723,3.849,2.123,1.061,4.113,4.91-.8s2.389-2.654,2.919-2.122a5.526,5.526,0,0,1,.664,4.245c-.531,1.2-2.787,5.441-1.991,7.829a42.274,42.274,0,0,0,2.654,5.706l-4.246,1.726-1.858.786a6.879,6.879,0,0,1-1.83,2.068l-.931,3,.62,4.968-.206,1.864-1.657,2.38.518,2.07,2.277.518,1.863,3,1.863.828,2.174,5.073-.414,2.587-2.588-2.587-1.759-3.209-1.139-1.967-2.381-1.035-2.483-.518-.725,2.381,1.138,2.07,4.037,4.865-1.242,1.035a7.261,7.261,0,0,1-.254,2.065h4.977l8.758-4.777,90.763-.4,4.777-1.99s2.528,7.5,4.777,8.359c.881.337,2.65-1.043,3.582-1.194a29.221,29.221,0,0,1,4.914-.756,29.92,29.92,0,0,1,7.3-2.191c2.8-.451,6.474.051,7.218,2.786.24.886.095,1.841.34,2.725s1.179,1.719,2.013,1.338a5.568,5.568,0,0,0-1.81,2.1l9.326-.215a3.55,3.55,0,0,0,.338,5.819,15.283,15.283,0,0,1,1.689.747c1.362.907,1.392,2.982.635,4.433a23.792,23.792,0,0,1-3.114,3.778c-1.039,1.265-1.827,2.983-1.248,4.513l1.171.052a13.67,13.67,0,0,1,3.474-2.838,19.225,19.225,0,0,1,3.981-.4c1.99-.2,6.219.186,7.961-.8.867-.49,2.389-3.185,2.389-3.185l3.185-5.971,9.155.4h7.962l7.166-7.564,5.175-1.99,1.592,8.359v.013l7.888-2.769.311,1.966-4.036,2.07s-4.244,4.036-3.727,4.761a3.448,3.448,0,0,0,1.656,1.035l5.176-5.382a18.324,18.324,0,0,0,3.726.414c1.966,0,8.7-3.52,8.7-3.52l-5.8-1.344-3.726-2.692.414-2.9-1.656-.621s4.657-3.209,1.966-3.209,5.279-1.863,3.519-4.037a7.721,7.721,0,0,0-4.968-2.381l-4.45,1.036-4.658,2.173-8.9,3.934,5.278-3.623,4.141-3.83,4.346-1.138,2.174-2.588,19.563.517,5.9-1.138,6.21-4.243,6.417-.725-2.9,3.829-3,3.106-9.109,10.661,5.279.621,3.208-.621s2.278.517,2.278-.1.518-1.449,1.345-.828-.414,1.345.932,1.449,2.173-1.76,2.381-.517-3.106,2.277-1.036,2.277a26.646,26.646,0,0,1,4.555.517s3.312-2.588,3-2.9a1.277,1.277,0,0,0-.829-.414c-.414-.1-1.656-1.035-1.449-1.967s2.484-3.83,1.76-3.83S-1997.462,129.758-1998.5,128.93Z" fill="url(#linear-gradient)"/>
  </g>
</svg>
