<svg xmlns="http://www.w3.org/2000/svg" xmlns:xlink="http://www.w3.org/1999/xlink" width="186.54" height="331.975" viewBox="0 0 186.54 331.975">
  <defs>
    <linearGradient id="linear-gradient" x1="96.401" y1="179.267" x2="1" y2="198.352" gradientUnits="objectBoundingBox">
      <stop offset="0" stop-color="#85cdf2"/>
      <stop offset="1" stop-color="#c0eeee"/>
    </linearGradient>
  </defs>
  <g id="그룹_311" data-name="그룹 311" transform="translate(2143.095 -1089.056)">
    <path id="패스_2936" data-name="패스 2936" d="M-2069.491,1089.387s.215.855.464.9c.159.026.4-.3.464-.448a.722.722,0,0,0,0-.448.756.756,0,0,0-.464-.331C-2069.17,1089.056-2069.491,1089.387-2069.491,1089.387Z" fill="url(#linear-gradient)"/>
    <path id="패스_2937" data-name="패스 2937" d="M-2066.705,1104.116c.145.193.928.266.928.266v-.863s-.764-.164-.928,0A.643.643,0,0,0-2066.705,1104.116Z" fill="url(#linear-gradient)"/>
    <path id="패스_2938" data-name="패스 2938" d="M-2060.933,1100.268a.892.892,0,0,0,.6.663c.259.019.8-.663.8-.663h.6v-.995h-.332s-.81.373-1.062.531C-2060.5,1099.9-2060.916,1100.08-2060.933,1100.268Z" fill="url(#linear-gradient)"/>
    <path id="패스_2939" data-name="패스 2939" d="M-2058.942,1101.994l.6.4.53-.2s-.371-.51-.564-.531C-2058.541,1101.644-2058.942,1101.994-2058.942,1101.994Z" fill="url(#linear-gradient)"/>
    <path id="패스_2940" data-name="패스 2940" d="M-2059.937,1103.951c-.014.211.729.431.729.431l.266-.431v-.432S-2059.92,1103.68-2059.937,1103.951Z" fill="url(#linear-gradient)"/>
    <path id="패스_2941" data-name="패스 2941" d="M-2058.379,1106.9s-.259,1.046,0,1.194c.143.082.483-.19.564-.331a2.281,2.281,0,0,0,0-.863v-.331Z" fill="url(#linear-gradient)"/>
    <path id="패스_2942" data-name="패스 2942" d="M-2058.1,1110.552c-.239.1-.78.8-.283,1s.709.168.83,0a1.09,1.09,0,0,0,0-1C-2057.646,1110.455-2057.97,1110.5-2058.1,1110.552Z" fill="url(#linear-gradient)"/>
    <path id="패스_2943" data-name="패스 2943" d="M-2053.7,1114.468c-.048.16.249.461.4.536.237.119.874.188,1.061,0s.22-.919,0-1.073A1.4,1.4,0,0,0-2053.7,1114.468Z" fill="url(#linear-gradient)"/>
    <path id="패스_2944" data-name="패스 2944" d="M-2018.206,1405.929c-.333.526.536,1.922,1.062,2.255a1.79,1.79,0,0,0,1.593,0,2.278,2.278,0,0,0,0-2.255C-2016.021,1405.46-2017.85,1405.369-2018.206,1405.929Z" fill="url(#linear-gradient)"/>
    <path id="패스_2945" data-name="패스 2945" d="M-2012.633,1405.929c-.6.218-1.436,1.666-1.194,2.255.251.613,1.892,1,2.522.8.575-.182,1.62-1.34,1.459-1.923C-2010.045,1406.332-2011.926,1405.671-2012.633,1405.929Z" fill="url(#linear-gradient)"/>
    <path id="패스_2946" data-name="패스 2946" d="M-2048.969,1367.172c-.015-.006-.023-.023-.039-.026C-2049.142,1367.124-2049.095,1367.143-2048.969,1367.172Z" fill="url(#linear-gradient)"/>
    <path id="패스_2947" data-name="패스 2947" d="M-2048.969,1367.172c-.015-.006-.023-.023-.039-.026C-2049.142,1367.124-2049.095,1367.143-2048.969,1367.172Z" fill="url(#linear-gradient)"/>
    <path id="패스_2948" data-name="패스 2948" d="M-2048.969,1367.172c-.015-.006-.023-.023-.039-.026C-2049.142,1367.124-2049.095,1367.143-2048.969,1367.172Z" fill="url(#linear-gradient)"/>
    <path id="패스_2949" data-name="패스 2949" d="M-2048.969,1367.172c-.015-.006-.023-.023-.039-.026C-2049.142,1367.124-2049.095,1367.143-2048.969,1367.172Z" fill="url(#linear-gradient)"/>
    <path id="패스_2950" data-name="패스 2950" d="M-2048.969,1367.172c-.015-.006-.023-.023-.039-.026C-2049.142,1367.124-2049.095,1367.143-2048.969,1367.172Z" fill="url(#linear-gradient)"/>
    <path id="패스_2951" data-name="패스 2951" d="M-2048.969,1367.172c-.015-.006-.023-.023-.039-.026C-2049.142,1367.124-2049.095,1367.143-2048.969,1367.172Z" fill="url(#linear-gradient)"/>
    <path id="패스_2952" data-name="패스 2952" d="M-2048.969,1367.172c-.015-.006-.023-.023-.039-.026C-2049.142,1367.124-2049.095,1367.143-2048.969,1367.172Z" fill="url(#linear-gradient)"/>
    <path id="패스_2953" data-name="패스 2953" d="M-2048.969,1367.172c-.015-.006-.023-.023-.039-.026C-2049.142,1367.124-2049.095,1367.143-2048.969,1367.172Z" fill="url(#linear-gradient)"/>
    <path id="패스_2954" data-name="패스 2954" d="M-2048.969,1367.172c-.015-.006-.023-.023-.039-.026C-2049.142,1367.124-2049.095,1367.143-2048.969,1367.172Z" fill="url(#linear-gradient)"/>
    <path id="패스_2955" data-name="패스 2955" d="M-2048.969,1367.172c-.015-.006-.023-.023-.039-.026C-2049.142,1367.124-2049.095,1367.143-2048.969,1367.172Z" fill="url(#linear-gradient)"/>
    <path id="패스_2956" data-name="패스 2956" d="M-2048.969,1367.172c-.015-.006-.023-.023-.039-.026C-2049.142,1367.124-2049.095,1367.143-2048.969,1367.172Z" fill="url(#linear-gradient)"/>
    <path id="패스_2957" data-name="패스 2957" d="M-2048.969,1367.172c-.015-.006-.023-.023-.039-.026C-2049.142,1367.124-2049.095,1367.143-2048.969,1367.172Z" fill="url(#linear-gradient)"/>
    <path id="패스_2958" data-name="패스 2958" d="M-2058.942,1114.5c.133-.087,1.293-.5.4-.5s-.738-.158-.9,0c-.176.176-.23.9,0,.995C-2059.277,1115.065-2059.09,1114.595-2058.942,1114.5Z" fill="url(#linear-gradient)"/>
    <path id="패스_2959" data-name="패스 2959" d="M-2061.163,1119.243c.111-.228-.379-.8-.633-.8s-.708.574-.6.8C-2062.255,1119.519-2061.3,1119.52-2061.163,1119.243Z" fill="url(#linear-gradient)"/>
    <path id="패스_2960" data-name="패스 2960" d="M-2059.593,1128.731c.783-.332,1.385-2.189,1.385-2.189s.184-1.514-.171-1.792c-.617-.482-2.526-.069-3.1.464-.262.244-.317,1.394-.317,1.394l-.6,1.327.914.8A3.3,3.3,0,0,0-2059.593,1128.731Z" fill="url(#linear-gradient)"/>
    <path id="패스_2961" data-name="패스 2961" d="M-2048.969,1367.172c-.015-.006-.023-.023-.039-.026C-2049.142,1367.124-2049.095,1367.143-2048.969,1367.172Z" fill="url(#linear-gradient)"/>
    <path id="패스_2962" data-name="패스 2962" d="M-2048.969,1367.172c-.015-.006-.023-.023-.039-.026C-2049.142,1367.124-2049.095,1367.143-2048.969,1367.172Z" fill="url(#linear-gradient)"/>
    <path id="패스_2963" data-name="패스 2963" d="M-2048.969,1367.172c-.015-.006-.023-.023-.039-.026C-2049.142,1367.124-2049.095,1367.143-2048.969,1367.172Z" fill="url(#linear-gradient)"/>
    <path id="패스_2964" data-name="패스 2964" d="M-2048.969,1367.172c-.015-.006-.023-.023-.039-.026C-2049.142,1367.124-2049.095,1367.143-2048.969,1367.172Z" fill="url(#linear-gradient)"/>
    <path id="패스_2965" data-name="패스 2965" d="M-2048.969,1367.172c-.015-.006-.023-.023-.039-.026C-2049.142,1367.124-2049.095,1367.143-2048.969,1367.172Z" fill="url(#linear-gradient)"/>
    <path id="패스_2966" data-name="패스 2966" d="M-2085.57,1164.622l.173.2.133,2.919,1.725,1.327,1.592.8h3.981l4.113-2.257s2.92-3.848,2.389-3.848-1.592-3.847-1.592-3.847l-2.654-5.574,3.317,1.46,4.247,1.194,1.061-1.857,2.919-1.461,3.583-.8a8.042,8.042,0,0,1,.923-1.531l-.127-.857s-2.443-1.763-2.388-2.654c.04-.657,1.99-1.725,1.99-1.725s-.94-1.575-.8-2.123c.232-.885,2.521-2.123,2.654-2.521s-1.227-1.1-1.2-1.593c.042-.643,1.6-1.086,2.124-1.459a16.777,16.777,0,0,0,2.425-2.591,9.852,9.852,0,0,0-.97-.223l-1.346-.932-2.691-.1s1.346-2.173.311-3.519a12.5,12.5,0,0,0-3.83-2.588l-2.484-1.035s1.6-1.966,1.242-2.587c-.87-1.506-6.935-.518-6.935-.518s-1.863,3.416-3.623,2.9-5.278-1.761-5.278-1.761l-6.831-.828s-1.76-.31-1.967-1.448l-.207-1.139s-4.554-2.691-4.14-.517-1.657-2.381-1.657-2.381l-1.862,1.759-3.209,1.863-.719.89.247,2.551,1.592,3.848v1.858l-2.786,1.061-.8-4.246.532-3.573-.243.3-.2-2.627-2.74,2.979s-2.522,4.777-3.849,5.706,2.389.8,3.849,1.99-.133,4.379-.133,4.379a26.122,26.122,0,0,0,1.459,4.246c.8,1.592,2.257-.4,2.257-.4l2.918.531.664-.531c.664-.53,3.052,1.725,3.052,1.725l1.592,2.92,2.522-.664s2.786-.265,3.848-.4.663,1.725.663,1.725l-1.194,3.981,1.062,3.848,1.459,1.46-1.061,3.317-.929,2.388,1.194,1.858.623.727" fill="url(#linear-gradient)"/>
    <path id="패스_2967" data-name="패스 2967" d="M-2048.969,1367.172c-.015-.006-.023-.023-.039-.026C-2049.142,1367.124-2049.095,1367.143-2048.969,1367.172Z" fill="url(#linear-gradient)"/>
    <path id="패스_2968" data-name="패스 2968" d="M-2031.125,1159.317c-.43.645-1.729,2.623-2.835,4.309.4-.021,2.475-.129,2.835-.129.4,0,2.521-.266,2.521-.266l2.388-2.255,1.991-4.777,1.5-1.3-.821-1.6s-2.38.311-3.312-1.448-2.587-3.623-4.244-3.623a4.234,4.234,0,0,1-1.237-.266c-1.08,1.612-2.263,3.535-2.369,4.385C-2034.907,1153.943-2030.329,1158.123-2031.125,1159.317Z" fill="url(#linear-gradient)"/>
    <path id="패스_2969" data-name="패스 2969" d="M-2058.46,1150.228c1.327-.8,1.327.531,1.327,1.459s.265,1.46,1.857,2.256.133,3.981.133,3.981l-1.725,1.858s1.327,5.042,1.858,7.165,3.317,1.99,5.308-.663,7.3-1.194,7.3-1.194,1.459.8,2.123,0-.664-2.655-.664-2.655h5.441l1.46,1.194.084,0c1.106-1.686,2.4-3.664,2.835-4.309.8-1.194-3.782-5.374-3.583-6.966.106-.85,1.289-2.773,2.369-4.385a23.889,23.889,0,0,1-4.041-2.012l-7.246.1-1.863-.1-2.38-2.38-1.76-.828-1.345-.1a5.733,5.733,0,0,0-.311-4.347c-.759-1.45-2.562-2.153-3.688-2.468a16.777,16.777,0,0,1-2.425,2.591c-.526.373-2.082.816-2.124,1.459-.032.5,1.328,1.2,1.2,1.593s-2.422,1.636-2.654,2.521c-.144.548.8,2.123.8,2.123s-1.95,1.068-1.99,1.725c-.055.891,2.388,2.654,2.388,2.654l.127.857A4.541,4.541,0,0,1-2058.46,1150.228Z" fill="url(#linear-gradient)"/>
    <path id="패스_2970" data-name="패스 2970" d="M-2048.969,1367.172c-.015-.006-.023-.023-.039-.026C-2049.142,1367.124-2049.095,1367.143-2048.969,1367.172Z" fill="url(#linear-gradient)"/>
    <path id="패스_2971" data-name="패스 2971" d="M-2048.969,1367.172c-.015-.006-.023-.023-.039-.026C-2049.142,1367.124-2049.095,1367.143-2048.969,1367.172Z" fill="url(#linear-gradient)"/>
    <path id="패스_2972" data-name="패스 2972" d="M-2137.413,1192.358l3.185,1.792s-.8,2.189.8,2.189,1.791-5.573,1.791-5.573l3.583-2.986,5.175-1.791,3.384-6.369,1.294-5.175h-2.687l-4.18-2.787-3.583-.995-3.185-2.787-.87-.456a7.37,7.37,0,0,1-2.518,1.1,12.274,12.274,0,0,1-1.967,1.035c-1.035.414-.31,1.138-.828,2.794a10.486,10.486,0,0,1-2.07,3.313l.31,1.656-1.241,1.759-.1,2.692.931,2.587.932.932h2.07v1.759l-.725,1.656-1.028.448,1.336.223Z" fill="url(#linear-gradient)"/>
    <path id="패스_2973" data-name="패스 2973" d="M-2128.655,1170.663l3.583.995,4.18,2.787h4.976s1.393.995,1.393,1.592,1.791,2.189,1.791,2.189,1.195,2.787,2.389,3.384a1.928,1.928,0,0,1,1.194,1.592s.995,2.19,2.588,2.19a3.467,3.467,0,0,0,2.587-1.593s5,.312,8.263.442l.495-4.621s-1.194-3.384-1.99-3.782,1-3.185,1-3.185l2.786-3.583s-3.781-1.194-3.781-2.189a2.712,2.712,0,0,1,1-1.791h10.151c.117,0,.291-.182.49-.468l-.623-.727-1.194-1.858.929-2.388,1.061-3.317-1.459-1.46-1.062-3.848,1.194-3.981s.4-1.858-.663-1.725-3.848.4-3.848.4l-2.522.664-1.592-2.92s-2.388-2.255-3.052-1.725l-.664.531-2.918-.531s-1.461,1.99-2.257.4a26.122,26.122,0,0,1-1.459-4.246s1.592-3.185.133-4.379-5.175-1.061-3.849-1.99,3.849-5.706,3.849-5.706l2.74-2.979-.108-1.41,2.173-1.759.828-1.863-3.312-.517-1.552,1.552-4.555,2.484a27.375,27.375,0,0,0-3.209.414c-.621.207-.1,1.45-1.449,1.45s-3.415,1.863-4.037,2.691-.1,1.863-.828,3.1-4.864,4.725-4.864,4.725l-1.139,2.209-.256-.321-.071,1.5a3.2,3.2,0,0,1-.4,1.459,11.559,11.559,0,0,1-2.828,1.858l.552.889,1.449,2.588.724,4.347-.517,4.45-.414,4.14-1.345,2.589a8.714,8.714,0,0,1-2.174,2.587c-1.139.725-2.381,1.138-2.381,1.967s-.621,1.138-.725,1.967,1.553.517.725,1.345c-.05.051-.116.095-.173.143l.87.456Z" fill="url(#linear-gradient)"/>
    <path id="패스_2974" data-name="패스 2974" d="M-2097.946,1191.742" fill="url(#linear-gradient)"/>
    <path id="패스_2975" data-name="패스 2975" d="M-2048.969,1367.172c-.015-.006-.023-.023-.039-.026C-2049.142,1367.124-2049.095,1367.143-2048.969,1367.172Z" fill="url(#linear-gradient)"/>
    <path id="패스_2976" data-name="패스 2976" d="M-2046.252,1263.814c-1.142-.588-1.717-3.979-2.986-4.18-1.405-.222-5.023,2.031-4.577,3.384.343,1.043,0,0-4.379.4s-1.792,1.791-1.593,2.587a37.291,37.291,0,0,1,0,4.777,2.512,2.512,0,0,1-1.834,2.311l1.834,2.532,3.052,2.124,1.194,2.653,3.318,3.052,3.317-.4s3.981,3.185,4.379,3.185,1.858-1.859,3.184.4,1.991,2.388,1.991,3.052-2.389,3.583-2.389,3.583l.266,2.787s-3.052,2.388-.8,2.52l2.255.132a3.7,3.7,0,0,1,2.654-1.194,6.17,6.17,0,0,1,3.451.93l4.113-2.256.266-2.655,1.459-2.122.76-1.369.567-8.118-4.379-.2-2.189-4.578a7.727,7.727,0,0,1-2.588.6c-2.16-.529-5.684-3.83-6.767-5.772-.957-1.716-1.086-5.8-1.194-7.763-.006-.1.017-.3.017-.4A2.916,2.916,0,0,1-2046.252,1263.814Z" fill="url(#linear-gradient)"/>
    <path id="패스_2977" data-name="패스 2977" d="M-2043.846,1263.814c0,.1-.023.3-.017.4C-2043.869,1264.113-2043.778,1263.885-2043.846,1263.814Z" fill="url(#linear-gradient)"/>
    <path id="패스_2978" data-name="패스 2978" d="M-2043.465,1254.857s-.381,6.715-.381,8.957C-2042.228,1262.262-2043.465,1254.857-2043.465,1254.857Z" fill="url(#linear-gradient)"/>
    <path id="패스_2979" data-name="패스 2979" d="M-2046.252,1263.814a2.916,2.916,0,0,0,2.406,0C-2044.263,1263.379-2045.717,1264.089-2046.252,1263.814Z" fill="url(#linear-gradient)"/>
    <path id="패스_2980" data-name="패스 2980" d="M-2048.969,1367.172c-.015-.006-.023-.023-.039-.026C-2049.142,1367.124-2049.095,1367.143-2048.969,1367.172Z" fill="url(#linear-gradient)"/>
    <path id="패스_2981" data-name="패스 2981" d="M-2043.465,1254.857s-.381,6.715-.381,8.957C-2042.228,1262.262-2043.465,1254.857-2043.465,1254.857Z" fill="url(#linear-gradient)"/>
    <path id="패스_2982" data-name="패스 2982" d="M-2091.643,1224.432h0Z" fill="url(#linear-gradient)"/>
    <path id="패스_2983" data-name="패스 2983" d="M-2090.638,1241.521a1.157,1.157,0,0,1,.8-1.194l.4-2.786-2.388-3.583,2.189-2.986,1.792-2.189-3.384-2.787-.417-1.564h-.008c-.77,0-1.489-.013-2.1-.019l-.185,0c-.12,0-.231,0-.338,0s-.163,0-.247,0h-.29c-1.99,0-.995-4.379-.995-4.379l-2.19-1.99s-5.175,1.194-7.364-1,0,0-1.194.4-1.593-1.592-1.593-2.189-.2-3.583-.2-3.583l-2.985-5.772,2.189-4.379.6-4.18,5.573-3.184,3.981-.2,1.052-2.209.74.616.6-3.583.8-3.582.1-.952c-3.264-.13-8.263-.442-8.263-.442a3.467,3.467,0,0,1-2.587,1.593c-1.593,0-2.588-2.19-2.588-2.19a1.928,1.928,0,0,0-1.194-1.592c-1.194-.6-2.389-3.384-2.389-3.384s-1.791-1.592-1.791-2.189-1.393-1.592-1.393-1.592h-2.289l-1.294,5.175-3.384,6.369-5.175,1.791-3.583,2.986s-.2,5.573-1.791,5.573-.8-2.189-.8-2.189l-3.185-1.792-.2-2.985-1.336-.223-1.352.587-1.656,2.071a8.157,8.157,0,0,0-1.139,2.9c0,1.035,1.967,2.9,2.071,3.726s-2.071,2.588-.932,3.209,4.554,2.381,4.554,2.381l2.794,3.829,2.8,4.451,1.863,4.657h1.139l3.208,6.108,3.519,8.073s1.345,1.449,2.173,2.485-.1,1.759,0,2.69,6.521,7.867,6.521,7.867a17.72,17.72,0,0,1,4.037,1.242c2.07.93,4.658,1.035,5.59,2.069s3.415,3.209,3.415,3.209l3.934,3.21,2.38,2.69.181.981,2.02-1.731.3-2.836.1-.945s1.791-2.787,2.189-3.583-.6-3.185-.6-3.185A23.448,23.448,0,0,1-2090.638,1241.521Z" fill="url(#linear-gradient)"/>
    <path id="패스_2984" data-name="패스 2984" d="M-2093.758,1224.413c.609.006,1.328.016,2.1.019C-2092.426,1224.429-2093.153,1224.419-2093.758,1224.413Z" fill="url(#linear-gradient)"/>
    <path id="패스_2985" data-name="패스 2985" d="M-2061.621,1273.091a2.512,2.512,0,0,0,1.834-2.311,37.291,37.291,0,0,0,0-4.777c-.2-.8-2.786-2.189,1.593-2.587s4.722.645,4.379-.4c-.446-1.353,3.172-3.606,4.577-3.384,1.269.2,1.844,3.592,2.986,4.18a2.793,2.793,0,0,0,2.406,0c1.017-1.275,1.145-6.851.381-8.957-.373-1.026-2.986-3.185-2.986-3.185l-.6-3.582-5.374.4-1.792-2.787-1.791-1.99,1.592-1.792s-2.189-2.388-2.189-3.781,0-2.588-1.791-2.588a5.787,5.787,0,0,1-2.787-.6l-1.791-.6-6.37-3.185-3.582-1.592s-2.389-2.588-2.588-4.578-1.194-3.583-.6-4.976-1.791-2.19-1.791-2.19a60.377,60.377,0,0,0-5.972,2.588,8.734,8.734,0,0,0-2.189,3.583c0,.045-.05.084-.121.119-.021.011-.052.021-.08.033a2.226,2.226,0,0,1-.248.069c-.04.006-.078.015-.123.024-.147.025-.313.047-.507.067l-.008,0c-.2.019-.43.034-.671.05l-.211.009c-.192.009-.391.019-.6.025l-.205.006c-.57.016-1.183.023-1.8.025h-.1c-.3,0-.609,0-.907,0h-.009l.417,1.564,3.384,2.787-1.792,2.189-2.189,2.986,2.388,3.583-.4,2.786a1.157,1.157,0,0,0-.8,1.194,23.448,23.448,0,0,0,.8,3.782s1,2.389.6,3.185-2.189,3.583-2.189,3.583l-.1.945,1.493,2.239,2.389,1.792s-2.389,2.786-1,3.383a33.343,33.343,0,0,1,3.583,1.991,4.5,4.5,0,0,0-.6,1.99c0,.995.4,3.782,1.194,3.782s1.194,2.189,1.194,2.786,2.986,3.782,2.986,3.782-.4,2.389.6,2.986,5.17-1.652,5.772-3.185c.24-.609-.927-2.2-.4-2.587.989-.722,3.652,1.205,4.379,2.189.4.544.6,3.583,1.593,2.19a7.58,7.58,0,0,1,3.383-2.787c.572-.18,1.8-.092,2.389-.2a5.288,5.288,0,0,0,.952-.277" fill="url(#linear-gradient)"/>
    <path id="패스_2986" data-name="패스 2986" d="M-1961.235,1196.258c-5.279-.62-8.9-4.554-9.005-5.175s-2.484-3-3.933-3-1.967-1.449-3.106-1.967-3.208,1.242-5.9.31-6.52-2.381-8.59-2.381-2.277,2.485-3.209.622.31-3.416-2.691-4.554-8.384-3.83-8.384-3.83-3.1-.31-4.244.931a5.352,5.352,0,0,0-1.346,2.381l.725-5.486-5.072-.828-2.691-2.9s1.553-3.1.725-4.347-2.795-3.933-2.795-3.933l-.932-5.176-1.042-2.027-1.5,1.3-1.991,4.777-2.388,2.255s-2.123.266-2.521.266c-.36,0-2.434.108-2.835.129l-.084,0-1.46-1.194h-5.441s1.328,1.858.664,2.655-2.123,0-2.123,0-5.308-1.461-7.3,1.194-4.777,2.786-5.308.663-1.858-7.165-1.858-7.165l1.725-1.858s1.46-3.185-.133-3.981-1.857-1.327-1.857-2.256,0-2.256-1.327-1.459a4.541,4.541,0,0,0-1.2,1.122,8.08,8.08,0,0,0-.923,1.531l-3.583.8-2.919,1.461-1.061,1.857-4.247-1.194-3.317-1.46,2.654,5.574s1.061,3.847,1.592,3.847-2.389,3.848-2.389,3.848l-4.113,2.257h-3.981l-1.592-.8-1.725-1.327-.133-2.919-.173-.2c-.2.286-.373.468-.49.468h-10.151a2.712,2.712,0,0,0-1,1.791c0,.995,3.781,2.189,3.781,2.189l-2.786,3.583s-1.792,2.787-1,3.185,1.99,3.782,1.99,3.782l-.495,4.621-.1.952-.8,3.582-.6,3.583-.74-.616-1.052,2.209-3.981.2-5.573,3.184-.6,4.18-2.189,4.379,2.985,5.772s.2,2.986.2,3.583.4,2.587,1.593,2.189-1-2.587,1.194-.4,7.364,1,7.364,1l2.19,1.99s-1,4.379.995,4.379h.29c.084,0,.154,0,.247,0s.218,0,.338,0l.185,0c.6.006,1.332.016,2.1.019h.017c.3,0,.6,0,.907,0h.1c.618,0,1.231-.009,1.8-.025l.205-.006c.208-.006.407-.016.6-.025l.211-.009c.241-.016.47-.031.671-.05l.008,0c.194-.02.36-.042.507-.067.045-.009.083-.018.123-.024a2.226,2.226,0,0,0,.248-.069c.028-.012.059-.022.08-.033.071-.035.121-.074.121-.119a8.734,8.734,0,0,1,2.189-3.583,60.377,60.377,0,0,1,5.972-2.588s2.388.8,1.791,2.19.4,2.986.6,4.976,2.588,4.578,2.588,4.578l3.582,1.592,6.37,3.185,1.791.6a5.787,5.787,0,0,0,2.787.6c1.791,0,1.791,1.194,1.791,2.588s2.189,3.781,2.189,3.781l-1.592,1.792,1.791,1.99,1.792,2.787,5.374-.4.6,3.582,2.986,3.185s1.237,7.4-.381,8.957c.068.071-.023.3-.017.4.108,1.961.237,6.047,1.194,7.763,1.083,1.942,4.607,5.243,6.767,5.772a7.727,7.727,0,0,0,2.588-.6l2.189,4.578,4.379.2-.567,8.118-.03.44s2.588-2.985,3.185.2a21.057,21.057,0,0,1,0,6.569s-4.578,1.791-5.574,3.583-2.985,6.568-2.985,6.568l-3.583,4.379h.03l4.747.2s1.791,3.782,2.787,2.786,5.374,1.2,5.374,1.2l4.777,3.582a20.468,20.468,0,0,0,1.9,4.23l2.56-4.863s-1.967-3.1-.622-3.932,2.485-4.037,3.726-3.727,1.76-.207,1.656-2.07,2.8-3.623,2.8-3.623,2.484-2.07,2.484-3.311v-5.177a4.61,4.61,0,0,1-1.035-2.069v-.827l.413-6,4.244-4.451,5.175-1.863,4.968-3.52,4.245-.621,4.036-.413s1.967-.932,1.967-2.07,4.554-1.864,3.726-3.83-1.139-3.726.724-5.8,2.589-7.659,2.174-8.281,1.242-1.76,1.656-2.69-.414-4.865,0-6.108,2.278-4.346.828-5.278-1.449-10.869-.414-10.972.414-2.794,2.277-3.623,4.762-6.21,4.762-6.21l5.8-6.521,1.966-6.21S-1955.957,1196.879-1961.235,1196.258Z" fill="url(#linear-gradient)"/>
    <path id="패스_2987" data-name="패스 2987" d="M-2023.362,1315.963s-4.379-2.19-5.374-1.2-2.787-2.786-2.787-2.786l-4.747-.2-1.357.6,1.592,2.919s-.8,3.052-1.194,3.317.531,1.592.531,1.592,2.919.4,1.459,2.256a10.876,10.876,0,0,0-1.99,2.919c-.4.93,1.987,2.846,1.987,2.846s.932,1.449,1.45,1.449H-2031s2.381.413,3,1.138,2.484.725,3.312.518,1.966,2.276,2.381,1.138,3.519-3.83,3.519-3.83l1.552-3.83.546-1.037a20.468,20.468,0,0,1-1.9-4.23Z" fill="url(#linear-gradient)"/>
    <path id="패스_2988" data-name="패스 2988" d="M-2048.969,1367.172c-.015-.006-.023-.023-.039-.026C-2049.142,1367.124-2049.095,1367.143-2048.969,1367.172Z" fill="url(#linear-gradient)"/>
    <path id="패스_2989" data-name="패스 2989" d="M-2029.732,1300.836c1-1.792,5.574-3.583,5.574-3.583a21.057,21.057,0,0,0,0-6.569c-.6-3.184-3.185-.2-3.185-.2l.03-.44-.76,1.369-1.459,2.122-.266,2.655-4.113,2.256a6.17,6.17,0,0,0-3.451-.93,3.7,3.7,0,0,0-2.654,1.194l-2.255-.132c-2.256-.132.8-2.52.8-2.52l-.266-2.787s2.389-2.92,2.389-3.583-.664-.8-1.991-3.052-2.786-.4-3.184-.4-4.379-3.185-4.379-3.185l-3.317.4-3.318-3.052-1.194-2.653-3.052-2.124-1.834-2.532a5.288,5.288,0,0,1-.952.277c-.59.107-1.817.019-2.389.2a7.58,7.58,0,0,0-3.383,2.787c-1,1.393-1.191-1.646-1.593-2.19-.727-.984-3.39-2.911-4.379-2.189-.528.385.638,1.978.4,2.587-.381.969-2.186,2.221-3.716,2.861l-.331,3.641-2.256,2.786-2.388.8-.265,2.919s1.459,2.522,1.194,3.185a39.859,39.859,0,0,0-.531,4.777s.663.8-.531,1.99-.8,5.043-.8,5.043a8.1,8.1,0,0,0-1.46,2.123c-.133.664,1.061,3.052,1.061,3.052a1.75,1.75,0,0,1,1.2,1.858c-.132,1.459-1.991,5.706-1.991,5.706l1.726,2.786v.929l3.715,7.7-.266,3.051s-1.592,2.256-1.459,3.318,2.388,2.255,2.388,3.051a10.178,10.178,0,0,1-1.327,2.92s-1.857,1.459-1.061,2.653a43.125,43.125,0,0,1,3.052,6.1c0,.4.664,2.919.664,2.919s-2.92.8-1.859,2.256,2.92,8.89,2.92,8.89,1.061,2.389,1.327,3.185.663,3.451.663,3.451l2.92,3.184-.133,2.255,1.99,1.194-.133,1.46,1.461,1.062-.8,1.725,1.858,2.388.8,5.839s-3.318,3.185-1.725,3.317a1.927,1.927,0,0,1,1.725,2.257c-.133.53-2.388,2.918-1.592,3.316a13.119,13.119,0,0,1,2.388,2.389s1.858,3.052,2.256,3.185,2.654,1.326,2.654,1.326l2.787,3.583s4.113,1.99,4.909,1.592,4.512-.132,4.512-.132l2.785-.2a6.014,6.014,0,0,0-.52-1.048c-.58-.827-3.449-1.638-3.105-2.588.122-.337.31,0-.725-1.242s-1.345-4.14-.517-4.968,2.588-3.313,2.173-4.14,1.863-1.345,2.485-2.485,1.862-4.346.828-4.968a28.46,28.46,0,0,0-4.969-1.449s-4.761-2.9-4.036-4.657.414-3.417,1.967-3.52,5.071-1.76,4.14-3.209-2.484-3.519-1.76-4.139c.7-.6,1.206-2.471.66-2.666-.126-.029-.173-.048-.039-.026.016,0,.024.02.039.026.459.1,2.246.372,2.652-.44.518-1.035.311-3.208-3.208-2.276s-2.484-1.554-2.484-1.554l-1.036-2.9s-1.242-3.726.414-2.379a6.658,6.658,0,0,0,4.347,1.034l2.588.413,3.52-2.381-1.761-1.965s-.1-4.451-1.552-4.659.518-2.276,1.863-1.345,4.451.932,4.451.932l4.658-.414,5.258-2.794,1.883-8.178a11.969,11.969,0,0,1-2.9-1.345c-.932-.725,1.138-2.795-.415-4.037s-3.622-.725-4.864-1.967.31-2.69.31-2.69-2.385-1.916-1.987-2.846a10.876,10.876,0,0,1,1.99-2.919c1.46-1.858-1.459-2.256-1.459-2.256s-.929-1.327-.531-1.592,1.194-3.317,1.194-3.317l-1.592-2.919,1.357-.6h-.03l3.583-4.379S-2030.727,1302.627-2029.732,1300.836Z" fill="url(#linear-gradient)"/>
    <path id="패스_2990" data-name="패스 2990" d="M-2044.35,1412.068a39.834,39.834,0,0,0-1.24-3.817l-2.785.2s-3.716-.266-4.512.132-4.909-1.592-4.909-1.592l-2.787-3.583s-2.256-1.194-2.654-1.326-2.256-3.185-2.256-3.185a13.119,13.119,0,0,0-2.388-2.389c-.8-.4,1.459-2.786,1.592-3.316a1.927,1.927,0,0,0-1.725-2.257c-1.593-.132,1.725-3.317,1.725-3.317l-.8-5.839-1.858-2.388.8-1.725-1.461-1.062.133-1.46-1.99-1.194.133-2.255-2.92-3.184s-.4-2.655-.663-3.451-1.327-3.185-1.327-3.185-1.857-7.431-2.92-8.89,1.859-2.256,1.859-2.256-.664-2.521-.664-2.919a43.125,43.125,0,0,0-3.052-6.1c-.8-1.194,1.061-2.653,1.061-2.653a10.178,10.178,0,0,0,1.327-2.92c0-.8-2.255-1.99-2.388-3.051s1.459-3.318,1.459-3.318l.266-3.051-3.715-7.7v-.929l-1.726-2.786s1.859-4.247,1.991-5.706a1.75,1.75,0,0,0-1.2-1.858s-1.194-2.388-1.061-3.052a8.1,8.1,0,0,1,1.46-2.123s-.4-3.849.8-5.043.531-1.99.531-1.99a39.859,39.859,0,0,1,.531-4.777c.265-.663-1.194-3.185-1.194-3.185l.265-2.919,2.388-.8,2.256-2.786.331-3.641a2.829,2.829,0,0,1-2.056.324c-1-.6-.6-2.986-.6-2.986s-2.986-3.184-2.986-3.782-.4-2.786-1.194-2.786-1.194-2.787-1.194-3.782a4.5,4.5,0,0,1,.6-1.99,33.343,33.343,0,0,0-3.583-1.991c-1.393-.6,1-3.383,1-3.383l-2.389-1.792-1.493-2.239-.3,2.836-2.02,1.731,1.061,5.747.518,9.005v9.833s1.966,2.071,1.656,3.312-1.553,4.141-.932,4.555,1.553,3.932,1.553,3.932l-.518,2.071-.1,2.8.621,2.174-1.242,2.587,1.242,2.174v2.379l-1.036,3,2.485,5.589v3.519l1.035,1.346-.518,4.347,1.035,1.76s-1.656,4.554-1.552,6.624.621,3.519.1,4.762-1.864,1.967-1.036,3.208a47.845,47.845,0,0,1,2.484,5.59l1.45,7.762,1.552,5.693s-.724,1.241,1.45,1.241,3.829,2.485,3.829,2.485l1.449,4.866.725,6.209v4.037a5.909,5.909,0,0,0,1.449,2.587c1.035.932,3.208,6.936,3.208,6.936s.518,3.932,0,3.829,1.553,2.795,1.553,2.795l1.449,2.587,4.658,7.247s-1.138,1.138-.518,1.758,6.417,5.8,6.417,5.8.518,2.172,3.209,0a46.715,46.715,0,0,1,4.762-3.417l1.345.621-.828,2.691,1.552,1.07,2.691,1.829v2.9s.725,1.863,1.45,1.034,3.726-.724,3.726-.724l.268.017-2.219-5.977Z" fill="url(#linear-gradient)"/>
    <path id="패스_2991" data-name="패스 2991" d="M-2029.342,1419.934c-.517-1.034-2.691-1.034-2.691-1.034l-4.037-1.863-1.656-.311-4.45-2.795-.192-.164,2.219,5.977,2.941.19s.31-.094,2.07.731a6.781,6.781,0,0,0,4.243,0S-2028.824,1420.969-2029.342,1419.934Z" fill="url(#linear-gradient)"/>
  </g>
</svg>
