<svg id="그룹_526" data-name="그룹 526" xmlns="http://www.w3.org/2000/svg" xmlns:xlink="http://www.w3.org/1999/xlink" width="1235.062" height="600.149" viewBox="0 0 1235.062 600.149">
  <defs>
    <linearGradient id="linear-gradient" x1="50.984" y1="277.16" x2="219.381" y2="75.102" gradientUnits="objectBoundingBox">
      <stop offset="0" stop-color="#b5e3fb"/>
      <stop offset="1" stop-color="#8cd1f4"/>
    </linearGradient>
    <clipPath id="clip-path">
      <path id="패스_2185" data-name="패스 2185" d="M273.066,268.506s.215.855.465.9c.159.026.4-.3.464-.448a.722.722,0,0,0,0-.448.756.756,0,0,0-.464-.331c-.143,0-.465.331-.465.331" fill="url(#linear-gradient)"/>
    </clipPath>
    <clipPath id="clip-path-2">
      <path id="패스_2186" data-name="패스 2186" d="M275.853,282.638a.643.643,0,0,0,0,.6c.146.193.928.266.928.266v-.863a3.5,3.5,0,0,0-.614-.073.481.481,0,0,0-.314.073" fill="url(#linear-gradient)"/>
    </clipPath>
    <clipPath id="clip-path-3">
      <path id="패스_2187" data-name="패스 2187" d="M283.284,278.392s-.811.372-1.062.531c-.16.1-.581.276-.6.464a.9.9,0,0,0,.6.664c.258.018.8-.664.8-.664h.6v-.995Z" fill="url(#linear-gradient)"/>
    </clipPath>
    <clipPath id="clip-path-4">
      <path id="패스_2188" data-name="패스 2188" d="M283.615,281.113l.6.4.53-.2s-.371-.509-.563-.531h-.013c-.17,0-.552.333-.552.333" fill="url(#linear-gradient)"/>
    </clipPath>
    <clipPath id="clip-path-5">
      <path id="패스_2189" data-name="패스 2189" d="M282.621,283.069c-.014.212.729.432.729.432l.265-.432v-.431s-.977.161-.994.431" fill="url(#linear-gradient)"/>
    </clipPath>
    <clipPath id="clip-path-6">
      <path id="패스_2190" data-name="패스 2190" d="M284.18,286.022s-.26,1.046,0,1.193c.142.082.482-.189.563-.331a2.275,2.275,0,0,0,0-.862v-.331Z" fill="url(#linear-gradient)"/>
    </clipPath>
    <clipPath id="clip-path-7">
      <path id="패스_2191" data-name="패스 2191" d="M284.461,289.672c-.238.1-.779.8-.281.994s.709.169.829,0a1.089,1.089,0,0,0,0-.994.323.323,0,0,0-.218-.058.953.953,0,0,0-.33.058" fill="url(#linear-gradient)"/>
    </clipPath>
    <clipPath id="clip-path-8">
      <path id="패스_2192" data-name="패스 2192" d="M288.857,293.587c-.048.16.248.46.4.536.237.119.873.188,1.061,0s.22-.919,0-1.073a.48.48,0,0,0-.27-.065c-.43,0-1.1.305-1.189.6" fill="url(#linear-gradient)"/>
    </clipPath>
    <clipPath id="clip-path-9">
      <path id="패스_2193" data-name="패스 2193" d="M324.352,585.048c-.333.525.535,1.922,1.062,2.254a1.788,1.788,0,0,0,1.593,0,2.272,2.272,0,0,0,0-2.254,2.318,2.318,0,0,0-1.443-.387,1.51,1.51,0,0,0-1.212.387" fill="url(#linear-gradient)"/>
    </clipPath>
    <clipPath id="clip-path-10">
      <path id="패스_2194" data-name="패스 2194" d="M329.926,585.048c-.6.218-1.437,1.666-1.2,2.254.251.613,1.892,1,2.521.8.576-.182,1.621-1.34,1.46-1.923-.169-.615-1.55-1.185-2.4-1.185a1.155,1.155,0,0,0-.39.057" fill="url(#linear-gradient)"/>
    </clipPath>
    <clipPath id="clip-path-11">
      <path id="패스_2195" data-name="패스 2195" d="M293.588,546.291c-.014-.006-.022-.023-.039-.026a.575.575,0,0,0-.074-.01c-.023,0,.026.016.113.036" fill="url(#linear-gradient)"/>
    </clipPath>
    <clipPath id="clip-path-23">
      <path id="패스_2207" data-name="패스 2207" d="M283.118,293.121c-.176.176-.23.9,0,1,.162.067.35-.4.5-.5s1.293-.5.4-.5a3.4,3.4,0,0,1-.792-.07c-.034,0-.051.017-.1.07" fill="url(#linear-gradient)"/>
    </clipPath>
    <clipPath id="clip-path-24">
      <path id="패스_2208" data-name="패스 2208" d="M280.762,297.566c-.248,0-.708.574-.6.8.137.275,1.1.277,1.23,0,.11-.228-.376-.8-.63-.8h0" fill="url(#linear-gradient)"/>
    </clipPath>
    <clipPath id="clip-path-25">
      <path id="패스_2209" data-name="패스 2209" d="M281.078,304.333c-.262.243-.316,1.394-.316,1.394l-.6,1.327.913.8a3.3,3.3,0,0,0,1.886,0c.783-.332,1.386-2.189,1.386-2.189s.184-1.514-.17-1.792a1.465,1.465,0,0,0-.873-.214,3.908,3.908,0,0,0-2.229.678" fill="url(#linear-gradient)"/>
    </clipPath>
    <clipPath id="clip-path-31">
      <path id="패스_2215" data-name="패스 2215" d="M245.317,300.025l-3.209,1.863-.719.889.247,2.552,1.592,3.848v1.858l-2.787,1.061-.795-4.246.532-3.572-.244.3-.2-2.627-2.739,2.978s-2.521,4.777-3.849,5.707,2.389.8,3.849,1.99-.134,4.379-.134,4.379a26.191,26.191,0,0,0,1.46,4.246c.8,1.593,2.256-.4,2.256-.4l2.919.531.664-.531c.664-.53,3.052,1.725,3.052,1.725l1.592,2.92,2.521-.664s2.788-.265,3.849-.4.663,1.725.663,1.725l-1.194,3.981,1.062,3.847,1.459,1.461-1.062,3.316-.928,2.389,1.194,1.859.624.726.172.2.133,2.92,1.724,1.327,1.592.8h3.982l4.113-2.256s2.919-3.848,2.389-3.848-1.593-3.847-1.593-3.847l-2.653-5.574,3.317,1.46,4.247,1.194,1.061-1.857,2.919-1.461,3.583-.8a7.984,7.984,0,0,1,.923-1.531l-.127-.857s-2.444-1.763-2.389-2.654c.041-.657,1.991-1.726,1.991-1.726s-.94-1.574-.8-2.122c.232-.885,2.521-2.123,2.654-2.522s-1.228-1.1-1.195-1.592c.042-.642,1.6-1.087,2.124-1.459a16.778,16.778,0,0,0,2.424-2.591c-.561-.156-.969-.223-.969-.223l-1.346-.932-2.691-.1s1.346-2.172.311-3.518a12.5,12.5,0,0,0-3.83-2.588l-2.484-1.034s1.6-1.967,1.241-2.588c-.869-1.506-6.934-.518-6.934-.518s-1.863,3.415-3.623,2.9-5.278-1.761-5.278-1.761l-6.832-.828s-1.759-.31-1.966-1.449l-.207-1.138s-4.554-2.691-4.14-.518-1.656-2.38-1.656-2.38Z" fill="url(#linear-gradient)"/>
    </clipPath>
    <clipPath id="clip-path-33">
      <path id="패스_2217" data-name="패스 2217" d="M307.85,331.47c-.2,1.592,4.379,5.772,3.583,6.966-.43.645-1.73,2.623-2.835,4.309.4-.021,2.475-.129,2.835-.129.4,0,2.52-.266,2.52-.266l2.389-2.255,1.991-4.777,1.5-1.3-.82-1.6s-2.38.311-3.312-1.449-2.587-3.622-4.243-3.622a4.286,4.286,0,0,1-1.239-.266c-1.08,1.611-2.262,3.535-2.368,4.385" fill="url(#linear-gradient)"/>
    </clipPath>
    <clipPath id="clip-path-34">
      <path id="패스_2218" data-name="패스 2218" d="M285.16,317.537c-.526.372-2.082.817-2.124,1.459-.033.5,1.327,1.2,1.195,1.592s-2.422,1.637-2.654,2.522c-.144.548.8,2.122.8,2.122s-1.95,1.069-1.991,1.726c-.055.891,2.389,2.654,2.389,2.654l.127.857a4.56,4.56,0,0,1,1.2-1.123c1.327-.8,1.327.531,1.327,1.46s.265,1.46,1.857,2.256.133,3.981.133,3.981L285.69,338.9s1.327,5.041,1.858,7.165,3.317,1.99,5.307-.663,7.3-1.194,7.3-1.194,1.459.795,2.124,0-.665-2.655-.665-2.655h5.441l1.46,1.194.084,0c1.105-1.686,2.4-3.664,2.835-4.309.8-1.194-3.782-5.374-3.583-6.966.106-.85,1.288-2.774,2.368-4.385a23.913,23.913,0,0,1-4.04-2.012l-7.246.1-1.864-.1-2.379-2.38-1.761-.828-1.344-.1a5.733,5.733,0,0,0-.311-4.347,5.915,5.915,0,0,0-3.689-2.468,16.778,16.778,0,0,1-2.424,2.591" fill="url(#linear-gradient)"/>
    </clipPath>
    <clipPath id="clip-path-37">
      <path id="패스_2221" data-name="패스 2221" d="M207.33,347.638a12.283,12.283,0,0,1-1.967,1.035c-1.035.414-.311,1.138-.828,2.794a10.494,10.494,0,0,1-2.07,3.312l.31,1.656-1.242,1.76-.1,2.692.932,2.587.932.932h2.07v1.759l-.725,1.656-1.027.448,1.335.223.2,2.985,3.185,1.791s-.8,2.19.8,2.19,1.792-5.573,1.792-5.573L214.5,366.9l5.175-1.791,3.384-6.37,1.294-5.175h-2.688l-4.179-2.786-3.583-.995-3.185-2.787-.87-.456a7.371,7.371,0,0,1-2.518,1.1" fill="url(#linear-gradient)"/>
    </clipPath>
    <clipPath id="clip-path-38">
      <path id="패스_2222" data-name="패스 2222" d="M237.76,297.954l-4.554,2.485a27.167,27.167,0,0,0-3.209.414c-.621.207-.1,1.449-1.449,1.449s-3.416,1.863-4.037,2.691-.1,1.863-.828,3.106-4.864,4.725-4.864,4.725l-1.139,2.21-.256-.322-.071,1.5a3.2,3.2,0,0,1-.4,1.459,11.562,11.562,0,0,1-2.828,1.857l.552.89L216.128,323l.724,4.347-.517,4.45-.414,4.14-1.346,2.589a8.7,8.7,0,0,1-2.173,2.587c-1.14.725-2.381,1.138-2.381,1.967s-.622,1.137-.725,1.966,1.553.518.725,1.346c-.051.051-.116.1-.173.143l.87.456,3.185,2.787,3.583.995,4.179,2.786h4.977s1.393,1,1.393,1.593,1.791,2.189,1.791,2.189,1.194,2.787,2.388,3.384a1.928,1.928,0,0,1,1.195,1.592s1,2.19,2.587,2.19a3.467,3.467,0,0,0,2.588-1.593s5,.312,8.263.442l.495-4.622s-1.195-3.384-1.99-3.781.994-3.185.994-3.185l2.787-3.583s-3.781-1.194-3.781-2.189a2.71,2.71,0,0,1,.994-1.791H256.5c.118,0,.292-.183.492-.468l-.624-.726-1.194-1.859.928-2.389,1.062-3.316L255.7,333.99l-1.062-3.847,1.194-3.981s.4-1.858-.663-1.725-3.849.4-3.849.4l-2.521.664-1.592-2.92s-2.388-2.255-3.052-1.725l-.664.531-2.919-.531s-1.459,1.991-2.256.4a26.191,26.191,0,0,1-1.46-4.246s1.593-3.185.134-4.379-5.175-1.061-3.849-1.99,3.849-5.707,3.849-5.707l2.739-2.978-.108-1.409,2.174-1.76.828-1.863-3.312-.517Z" fill="url(#linear-gradient)"/>
    </clipPath>
    <clipPath id="clip-path-40">
      <path id="패스_2224" data-name="패스 2224" d="M288.742,442.137c.2.617.166.5-.8.391a16.978,16.978,0,0,0-3.575.007c-4.378.4-1.791,1.791-1.592,2.587a37.331,37.331,0,0,1,0,4.777,2.512,2.512,0,0,1-1.834,2.311l1.834,2.531,3.052,2.124,1.194,2.654,3.318,3.052,3.316-.4s3.982,3.185,4.379,3.185,1.859-1.859,3.185.4,1.991,2.388,1.991,3.052-2.389,3.583-2.389,3.583l.266,2.787s-3.053,2.388-.8,2.52l2.255.132a3.7,3.7,0,0,1,2.654-1.194,6.17,6.17,0,0,1,3.451.93l4.113-2.256.265-2.655,1.46-2.122.76-1.369.567-8.118-4.379-.2-2.189-4.577a7.708,7.708,0,0,1-2.588.6c-2.16-.528-5.684-3.829-6.767-5.771-.957-1.716-1.086-5.8-1.194-7.763-.006-.1.017-.3.017-.4a2.92,2.92,0,0,1-2.406,0c-1.142-.588-1.717-3.979-2.986-4.18a1.382,1.382,0,0,0-.209-.015c-1.523,0-4.793,2.109-4.369,3.4" fill="url(#linear-gradient)"/>
    </clipPath>
    <clipPath id="clip-path-41">
      <path id="패스_2225" data-name="패스 2225" d="M298.7,443.331c-.006-.1.085-.327.017-.4,0,.1-.023.3-.017.4" fill="url(#linear-gradient)"/>
    </clipPath>
    <clipPath id="clip-path-42">
      <path id="패스_2226" data-name="패스 2226" d="M298.712,442.933c1.617-1.552.38-8.957.38-8.957s-.38,6.715-.38,8.957" fill="url(#linear-gradient)"/>
    </clipPath>
    <clipPath id="clip-path-43">
      <path id="패스_2227" data-name="패스 2227" d="M297.445,442.893a2.124,2.124,0,0,1-1.139.04,2.92,2.92,0,0,0,2.406,0,.631.631,0,0,0-.468-.145,4.748,4.748,0,0,0-.8.105" fill="url(#linear-gradient)"/>
    </clipPath>
    <clipPath id="clip-path-46">
      <path id="패스_2231" data-name="패스 2231" d="M250.906,403.55h0Z" fill="url(#linear-gradient)"/>
    </clipPath>
    <clipPath id="clip-path-47">
      <path id="패스_2232" data-name="패스 2232" d="M224.353,353.563l-1.294,5.175-3.384,6.37L214.5,366.9l-3.582,2.986s-.2,5.573-1.792,5.573-.8-2.19-.8-2.19l-3.185-1.791-.2-2.985-1.335-.223-1.353.587-1.657,2.07a8.159,8.159,0,0,0-1.138,2.9c0,1.035,1.966,2.9,2.07,3.726s-2.07,2.588-.932,3.209,4.555,2.38,4.555,2.38l2.794,3.83,2.8,4.451,1.863,4.658h1.138l3.209,6.106,3.519,8.074s1.345,1.449,2.173,2.485-.1,1.758,0,2.69,6.521,7.867,6.521,7.867a17.693,17.693,0,0,1,4.037,1.243c2.069.929,4.658,1.034,5.589,2.067s3.416,3.21,3.416,3.21l3.934,3.21,2.379,2.69.182.981,2.02-1.731.3-2.837.1-.945s1.792-2.786,2.19-3.583-.6-3.184-.6-3.184a23.445,23.445,0,0,1-.8-3.782,1.157,1.157,0,0,1,.8-1.194l.4-2.786-2.388-3.583,2.189-2.986,1.791-2.189-3.384-2.787-.416-1.565H250.9c-.77,0-1.49-.011-2.1-.018l-.186,0c-.12,0-.23,0-.337,0s-.163,0-.247,0-.21,0-.29,0c-1.991,0-1-4.378-1-4.378l-2.19-1.991s-5.175,1.194-7.365-1,0,0-1.194.4-1.592-1.592-1.592-2.189-.2-3.583-.2-3.583l-2.985-5.772,2.189-4.379.6-4.18,5.573-3.185,3.981-.2,1.052-2.208.74.616.6-3.583.8-3.583.1-.951c-3.265-.13-8.263-.442-8.263-.442A3.467,3.467,0,0,1,236,364.511c-1.592,0-2.587-2.19-2.587-2.19a1.928,1.928,0,0,0-1.195-1.592c-1.194-.6-2.388-3.384-2.388-3.384s-1.791-1.592-1.791-2.189-1.393-1.593-1.393-1.593Z" fill="url(#linear-gradient)"/>
    </clipPath>
    <clipPath id="clip-path-48">
      <path id="패스_2233" data-name="패스 2233" d="M250.9,403.55c-.478,0-.942-.006-1.37-.01.427,0,.889.009,1.37.01m-1.37-.01-.728-.008.728.008" fill="url(#linear-gradient)"/>
    </clipPath>
    <clipPath id="clip-path-49">
      <path id="패스_2234" data-name="패스 2234" d="M258.687,399.542a8.736,8.736,0,0,0-2.19,3.583c0,.045-.049.083-.12.119-.022.011-.052.021-.08.033a2.326,2.326,0,0,1-.248.068c-.04.006-.077.016-.123.025-.148.026-.313.047-.508.067l-.007,0c-.2.019-.43.034-.671.049l-.211.01c-.192.009-.391.018-.6.024-.069,0-.134.005-.2.007-.57.016-1.183.023-1.8.025h-.1c-.3,0-.609,0-.907,0h-.009l.416,1.565,3.384,2.787-1.791,2.189-2.189,2.986,2.388,3.583-.4,2.786a1.157,1.157,0,0,0-.8,1.194,23.445,23.445,0,0,0,.8,3.782s.995,2.389.6,3.184-2.19,3.583-2.19,3.583l-.1.945,1.493,2.24,2.388,1.791s-2.388,2.787-.995,3.384a33.418,33.418,0,0,1,3.583,1.99,4.511,4.511,0,0,0-.6,1.991c0,1,.4,3.782,1.194,3.782s1.2,2.19,1.2,2.786,2.985,3.782,2.985,3.782-.4,2.389.6,2.985,5.17-1.651,5.772-3.184c.24-.609-.928-2.2-.4-2.587.989-.722,3.652,1.205,4.379,2.188.4.545.6,3.583,1.592,2.19a7.581,7.581,0,0,1,3.384-2.786c.571-.18,1.8-.092,2.389-.2a5.372,5.372,0,0,0,.952-.277,2.512,2.512,0,0,0,1.834-2.311,37.331,37.331,0,0,0,0-4.777c-.2-.8-2.786-2.189,1.592-2.587a17.047,17.047,0,0,1,3.575-.007c.97.114,1.007.226.8-.391-.445-1.353,3.173-3.606,4.578-3.384,1.269.2,1.844,3.592,2.986,4.18a2.8,2.8,0,0,0,2.406,0c1.017-1.275,1.145-6.851.38-8.957-.372-1.026-2.985-3.184-2.985-3.184l-.6-3.583-5.374.4-1.791-2.786-1.792-1.99,1.592-1.792s-2.189-2.388-2.189-3.782,0-2.587-1.792-2.587a5.786,5.786,0,0,1-2.786-.6l-1.791-.6-6.37-3.185-3.582-1.593s-2.389-2.587-2.588-4.577-1.194-3.583-.6-4.976-1.791-2.19-1.791-2.19a60.344,60.344,0,0,0-5.971,2.588" fill="url(#linear-gradient)"/>
    </clipPath>
    <clipPath id="clip-path-50">
      <path id="패스_2235" data-name="패스 2235" d="M284.1,329.346a4.56,4.56,0,0,0-1.2,1.123,8.017,8.017,0,0,0-.923,1.531l-3.583.8-2.919,1.461-1.061,1.857-4.247-1.194-3.317-1.46,2.653,5.574s1.061,3.847,1.593,3.847-2.389,3.848-2.389,3.848l-4.113,2.256H260.61l-1.592-.8-1.724-1.327-.133-2.92-.172-.2c-.2.285-.374.468-.492.468H246.346a2.71,2.71,0,0,0-.994,1.791c0,.995,3.781,2.189,3.781,2.189l-2.787,3.583s-1.791,2.787-.994,3.185,1.99,3.781,1.99,3.781l-.495,4.622-.1.951-.8,3.583-.6,3.583-.74-.616-1.052,2.208-3.981.2-5.573,3.185-.6,4.18-2.189,4.379,2.985,5.772s.2,2.986.2,3.583.4,2.587,1.592,2.189-.994-2.587,1.194-.4,7.365,1,7.365,1l2.19,1.991s-1,4.378,1,4.378c.08,0,.191,0,.29,0s.154,0,.247,0,.217,0,.337,0l.186,0c.6.007,1.332.016,2.1.018h.017c.3,0,.6,0,.907,0h.1c.619,0,1.232-.009,1.8-.025.071,0,.136,0,.2-.007.208-.006.407-.015.6-.024l.211-.01c.241-.015.469-.03.671-.049l.007,0c.2-.02.36-.041.508-.067.046-.009.083-.019.123-.025a2.326,2.326,0,0,0,.248-.068c.028-.012.058-.022.08-.033.071-.036.12-.074.12-.119a8.736,8.736,0,0,1,2.19-3.583,60.344,60.344,0,0,1,5.971-2.588s2.389.8,1.791,2.19.4,2.985.6,4.976,2.588,4.577,2.588,4.577l3.582,1.593,6.37,3.185,1.791.6a5.786,5.786,0,0,0,2.786.6c1.792,0,1.792,1.194,1.792,2.587s2.189,3.782,2.189,3.782l-1.592,1.792,1.792,1.99,1.791,2.786,5.374-.4.6,3.583,2.985,3.184s1.237,7.4-.38,8.957c.068.071-.023.3-.017.4.108,1.96.237,6.047,1.194,7.763,1.083,1.942,4.607,5.243,6.767,5.771a7.708,7.708,0,0,0,2.588-.6l2.189,4.577,4.379.2-.567,8.118-.03.44s2.588-2.985,3.184.2a21.018,21.018,0,0,1,0,6.569s-4.577,1.791-5.572,3.582-2.987,6.569-2.987,6.569l-3.582,4.379h.03l4.747.2s1.792,3.782,2.787,2.787,5.374,1.194,5.374,1.194l4.777,3.583a20.469,20.469,0,0,0,1.9,4.23l2.56-4.863s-1.968-3.105-.621-3.933,2.484-4.036,3.726-3.726,1.759-.207,1.656-2.071,2.794-3.622,2.794-3.622,2.485-2.07,2.485-3.311v-5.177a4.616,4.616,0,0,1-1.035-2.069v-.828l.413-6,4.244-4.45,5.175-1.862,4.968-3.521,4.245-.621,4.035-.413s1.968-.932,1.968-2.07,4.554-1.864,3.726-3.83-1.139-3.726.724-5.8,2.589-7.659,2.174-8.281,1.242-1.76,1.656-2.69-.414-4.865,0-6.108,2.278-4.346.828-5.278-1.449-10.869-.414-10.972.414-2.794,2.277-3.623,4.762-6.21,4.762-6.21l5.8-6.52,1.966-6.21s.621-12.835-4.657-13.457-8.9-4.553-9.006-5.175-2.484-3-3.933-3-1.966-1.45-3.105-1.967a3.523,3.523,0,0,0-2.123.245,6.082,6.082,0,0,1-3.777.065c-2.69-.931-6.521-2.381-8.591-2.381s-2.276,2.485-3.208.622.311-3.416-2.691-4.554-8.384-3.831-8.384-3.831-3.105-.309-4.244.932a5.352,5.352,0,0,0-1.346,2.381l.724-5.486-5.071-.828-2.691-2.9s1.552-3.105.724-4.347-2.793-3.933-2.793-3.933l-.933-5.176-1.043-2.027-1.5,1.3-1.991,4.777-2.389,2.255s-2.122.266-2.52.266c-.36,0-2.434.108-2.835.129l-.084,0-1.46-1.194h-5.441s1.327,1.858.665,2.655-2.124,0-2.124,0-5.309-1.461-7.3,1.194-4.777,2.786-5.307.663-1.858-7.165-1.858-7.165l1.725-1.858s1.46-3.185-.133-3.981-1.857-1.327-1.857-2.256c0-.729,0-1.7-.642-1.7a1.4,1.4,0,0,0-.685.244" fill="url(#linear-gradient)"/>
    </clipPath>
    <clipPath id="clip-path-51">
      <path id="패스_2236" data-name="패스 2236" d="M304.931,491.5l1.592,2.919s-.8,3.052-1.194,3.316.531,1.592.531,1.592,2.918.4,1.459,2.257a10.894,10.894,0,0,0-1.99,2.918c-.4.931,1.987,2.846,1.987,2.846s.931,1.45,1.45,1.45h2.794s2.381.413,3,1.138,2.484.724,3.312.518c.353-.088.762.313,1.147.713.519.539,1,1.078,1.233.425.414-1.138,3.519-3.83,3.519-3.83l1.554-3.83.545-1.037a20.469,20.469,0,0,1-1.9-4.23l-4.777-3.583s-4.38-2.189-5.374-1.194-2.787-2.787-2.787-2.787l-4.747-.2Z" fill="url(#linear-gradient)"/>
    </clipPath>
    <clipPath id="clip-path-53">
      <path id="패스_2238" data-name="패스 2238" d="M268.241,451.094c-.529.385.638,1.978.4,2.587-.381.969-2.186,2.221-3.716,2.861l-.331,3.641-2.256,2.786-2.388.8-.266,2.919s1.46,2.522,1.2,3.185a39.672,39.672,0,0,0-.531,4.777s.663.8-.531,1.99-.8,5.043-.8,5.043a8.108,8.108,0,0,0-1.459,2.122c-.133.665,1.061,3.053,1.061,3.053a1.75,1.75,0,0,1,1.2,1.858c-.133,1.459-1.991,5.706-1.991,5.706l1.725,2.786v.928l3.716,7.7L263,508.881s-1.592,2.256-1.459,3.318,2.389,2.255,2.389,3.051a10.184,10.184,0,0,1-1.328,2.921s-1.858,1.458-1.061,2.652a43.087,43.087,0,0,1,3.052,6.1c0,.4.663,2.919.663,2.919s-2.919.8-1.857,2.257,2.919,8.889,2.919,8.889,1.061,2.388,1.327,3.185.663,3.451.663,3.451l2.92,3.184-.133,2.255,1.99,1.194-.133,1.46,1.461,1.062-.8,1.725,1.858,2.388.8,5.839s-3.317,3.185-1.725,3.317a1.925,1.925,0,0,1,1.725,2.256c-.132.53-2.387,2.919-1.592,3.318a13.074,13.074,0,0,1,2.389,2.387s1.858,3.053,2.255,3.186,2.655,1.326,2.655,1.326l2.787,3.583s4.113,1.99,4.908,1.592,4.513-.132,4.513-.132l2.785-.2a5.992,5.992,0,0,0-.52-1.049c-.58-.827-3.449-1.637-3.106-2.587.123-.338.311,0-.724-1.242s-1.345-4.14-.518-4.969,2.589-3.312,2.174-4.139,1.863-1.345,2.485-2.485,1.862-4.346.828-4.968a28.368,28.368,0,0,0-4.969-1.449s-4.761-2.9-4.037-4.657.415-3.417,1.968-3.52,5.071-1.76,4.14-3.209-2.484-3.519-1.761-4.14c.706-.6,1.207-2.47.66-2.665-.126-.029-.172-.048-.039-.026.017,0,.025.02.039.026.46.1,2.247.372,2.652-.44.519-1.036.312-3.208-3.207-2.277s-2.484-1.553-2.484-1.553l-1.036-2.9s-1.242-3.726.414-2.38a6.65,6.65,0,0,0,4.347,1.034l2.587.414,3.52-2.38-1.76-1.966s-.1-4.45-1.553-4.659.519-2.276,1.864-1.345,4.451.932,4.451.932l4.658-.414,5.258-2.795,1.883-8.177a11.949,11.949,0,0,1-2.9-1.346c-.932-.724,1.137-2.794-.415-4.036s-3.623-.725-4.864-1.968.31-2.69.31-2.69-2.385-1.915-1.987-2.846a10.894,10.894,0,0,1,1.99-2.918c1.459-1.858-1.459-2.257-1.459-2.257s-.929-1.326-.531-1.592,1.194-3.316,1.194-3.316l-1.592-2.919,1.357-.6h-.03l3.582-4.379s1.991-4.777,2.987-6.569,5.572-3.582,5.572-3.582a21.018,21.018,0,0,0,0-6.569c-.6-3.184-3.184-.2-3.184-.2l.03-.44-.76,1.369-1.46,2.122-.265,2.655-4.113,2.256a6.17,6.17,0,0,0-3.451-.93,3.7,3.7,0,0,0-2.654,1.194l-2.255-.132c-2.257-.132.8-2.52.8-2.52l-.266-2.787s2.389-2.92,2.389-3.583-.664-.8-1.991-3.052-2.787-.4-3.185-.4-4.379-3.185-4.379-3.185l-3.316.4-3.318-3.052-1.194-2.654-3.052-2.124-1.834-2.531a5.372,5.372,0,0,1-.952.277c-.59.107-1.818.019-2.389.2a7.581,7.581,0,0,0-3.384,2.786c-.995,1.393-1.19-1.645-1.592-2.19-.617-.834-2.625-2.346-3.825-2.346a.919.919,0,0,0-.554.158" fill="url(#linear-gradient)"/>
    </clipPath>
    <clipPath id="clip-path-54">
      <path id="패스_2239" data-name="패스 2239" d="M250.726,434.971l-2.02,1.731,1.061,5.747.518,9.006v9.831s1.966,2.072,1.656,3.313-1.553,4.141-.932,4.554,1.553,3.933,1.553,3.933l-.518,2.071-.1,2.794.621,2.174-1.242,2.588,1.242,2.174v2.379l-1.035,3,2.484,5.589v3.519l1.035,1.346-.518,4.346,1.035,1.761s-1.656,4.555-1.552,6.624.621,3.519.1,4.762-1.864,1.966-1.036,3.207a47.954,47.954,0,0,1,2.484,5.59l1.449,7.764,1.553,5.692s-.725,1.241,1.449,1.241,3.83,2.485,3.83,2.485l1.449,4.865.724,6.21v4.036a5.92,5.92,0,0,0,1.449,2.588c1.035.931,3.209,6.936,3.209,6.936s.518,3.932,0,3.829,1.552,2.795,1.552,2.795l1.449,2.587,4.659,7.246s-1.139,1.139-.519,1.759,6.418,5.8,6.418,5.8.518,2.171,3.209,0a46.523,46.523,0,0,1,4.762-3.417l1.344.62-.828,2.692,1.553,1.07,2.691,1.828v2.9s.724,1.863,1.45,1.034,3.726-.724,3.726-.724l.267.017-2.218-5.978-1.982-1.7a39.8,39.8,0,0,0-1.24-3.818l-2.785.2s-3.716-.267-4.513.132-4.908-1.592-4.908-1.592l-2.787-3.583s-2.256-1.194-2.655-1.326-2.255-3.186-2.255-3.186a13.074,13.074,0,0,0-2.389-2.387c-.795-.4,1.46-2.788,1.592-3.318a1.925,1.925,0,0,0-1.725-2.256c-1.592-.132,1.725-3.317,1.725-3.317l-.8-5.839-1.858-2.388.8-1.725-1.461-1.062.133-1.46-1.99-1.194.133-2.255-2.92-3.184s-.4-2.655-.663-3.451-1.327-3.185-1.327-3.185-1.857-7.431-2.919-8.889,1.857-2.257,1.857-2.257-.663-2.521-.663-2.919a43.087,43.087,0,0,0-3.052-6.1c-.8-1.194,1.061-2.652,1.061-2.652a10.184,10.184,0,0,0,1.328-2.921c0-.8-2.256-1.991-2.389-3.051S263,508.881,263,508.881l.266-3.051-3.716-7.7V497.2l-1.725-2.786s1.858-4.247,1.991-5.706a1.75,1.75,0,0,0-1.2-1.858s-1.194-2.388-1.061-3.053a8.108,8.108,0,0,1,1.459-2.122s-.4-3.849.8-5.043.531-1.99.531-1.99a39.672,39.672,0,0,1,.531-4.777c.265-.663-1.2-3.185-1.2-3.185l.266-2.919,2.388-.8,2.256-2.786.331-3.641a2.823,2.823,0,0,1-2.056.323c-.995-.6-.6-2.985-.6-2.985s-2.985-3.185-2.985-3.782-.4-2.786-1.2-2.786-1.194-2.786-1.194-3.782a4.511,4.511,0,0,1,.6-1.991,33.418,33.418,0,0,0-3.583-1.99c-1.393-.6.995-3.384.995-3.384l-2.388-1.791-1.493-2.24Z" fill="url(#linear-gradient)"/>
    </clipPath>
    <clipPath id="clip-path-55">
      <path id="패스_2240" data-name="패스 2240" d="M302.408,598.863l2.942.19s.31-.094,2.069.731a4.445,4.445,0,0,0,1.834.365h.1a8.458,8.458,0,0,0,2.313-.365s2.071.3,1.553-.731-2.691-1.034-2.691-1.034l-4.037-1.863-1.656-.312-4.451-2.794-.191-.165Z" fill="url(#linear-gradient)"/>
    </clipPath>
    <clipPath id="clip-path-56">
      <rect id="사각형_342" data-name="사각형 342" width="1235.062" height="600.149" fill="url(#linear-gradient)"/>
    </clipPath>
  </defs>
  <g id="그룹_414" data-name="그룹 414">
    <g id="그룹_413" data-name="그룹 413" clip-path="url(#clip-path)">
      <rect id="사각형_288" data-name="사각형 288" width="0.98" height="1.253" transform="translate(273.066 268.175)" fill="url(#linear-gradient)"/>
    </g>
  </g>
  <g id="그룹_416" data-name="그룹 416">
    <g id="그룹_415" data-name="그룹 415" clip-path="url(#clip-path-2)">
      <rect id="사각형_289" data-name="사각형 289" width="1.034" height="0.936" transform="translate(275.747 282.565)" fill="url(#linear-gradient)"/>
    </g>
  </g>
  <g id="그룹_418" data-name="그룹 418">
    <g id="그룹_417" data-name="그룹 417" clip-path="url(#clip-path-3)">
      <rect id="사각형_290" data-name="사각형 290" width="2.01" height="1.677" transform="translate(281.605 278.392)" fill="url(#linear-gradient)"/>
    </g>
  </g>
  <g id="그룹_420" data-name="그룹 420">
    <g id="그룹_419" data-name="그룹 419" clip-path="url(#clip-path-4)">
      <rect id="사각형_291" data-name="사각형 291" width="1.128" height="0.73" transform="translate(283.615 280.78)" fill="url(#linear-gradient)"/>
    </g>
  </g>
  <g id="그룹_422" data-name="그룹 422">
    <g id="그룹_421" data-name="그룹 421" clip-path="url(#clip-path-5)">
      <rect id="사각형_292" data-name="사각형 292" width="1.008" height="0.863" transform="translate(282.607 282.638)" fill="url(#linear-gradient)"/>
    </g>
  </g>
  <g id="그룹_424" data-name="그룹 424">
    <g id="그룹_423" data-name="그룹 423" clip-path="url(#clip-path-6)">
      <rect id="사각형_293" data-name="사각형 293" width="0.93" height="1.606" transform="translate(283.92 285.691)" fill="url(#linear-gradient)"/>
    </g>
  </g>
  <g id="그룹_426" data-name="그룹 426">
    <g id="그룹_425" data-name="그룹 425" clip-path="url(#clip-path-7)">
      <rect id="사각형_294" data-name="사각형 294" width="1.503" height="1.252" transform="translate(283.682 289.614)" fill="url(#linear-gradient)"/>
    </g>
  </g>
  <g id="그룹_428" data-name="그룹 428">
    <g id="그룹_427" data-name="그룹 427" clip-path="url(#clip-path-8)">
      <rect id="사각형_295" data-name="사각형 295" width="1.727" height="1.326" transform="translate(288.809 292.985)" fill="url(#linear-gradient)"/>
    </g>
  </g>
  <g id="그룹_430" data-name="그룹 430">
    <g id="그룹_429" data-name="그룹 429" clip-path="url(#clip-path-9)">
      <rect id="사각형_296" data-name="사각형 296" width="3.387" height="2.925" transform="translate(324.019 584.661)" fill="url(#linear-gradient)"/>
    </g>
  </g>
  <g id="그룹_432" data-name="그룹 432">
    <g id="그룹_431" data-name="그룹 431" clip-path="url(#clip-path-10)">
      <rect id="사각형_297" data-name="사각형 297" width="4.384" height="3.309" transform="translate(328.489 584.991)" fill="url(#linear-gradient)"/>
    </g>
  </g>
  <g id="그룹_434" data-name="그룹 434">
    <g id="그룹_433" data-name="그룹 433" clip-path="url(#clip-path-11)">
      <rect id="사각형_298" data-name="사각형 298" width="0.136" height="0.036" transform="translate(293.452 546.255)" fill="url(#linear-gradient)"/>
    </g>
  </g>
  <g id="그룹_436" data-name="그룹 436">
    <g id="그룹_435" data-name="그룹 435" clip-path="url(#clip-path-11)">
      <rect id="사각형_299" data-name="사각형 299" width="0.136" height="0.036" transform="translate(293.452 546.255)" fill="url(#linear-gradient)"/>
    </g>
  </g>
  <g id="그룹_438" data-name="그룹 438">
    <g id="그룹_437" data-name="그룹 437" clip-path="url(#clip-path-11)">
      <rect id="사각형_300" data-name="사각형 300" width="0.136" height="0.036" transform="translate(293.452 546.255)" fill="url(#linear-gradient)"/>
    </g>
  </g>
  <g id="그룹_440" data-name="그룹 440">
    <g id="그룹_439" data-name="그룹 439" clip-path="url(#clip-path-11)">
      <rect id="사각형_301" data-name="사각형 301" width="0.136" height="0.036" transform="translate(293.452 546.255)" fill="url(#linear-gradient)"/>
    </g>
  </g>
  <g id="그룹_442" data-name="그룹 442">
    <g id="그룹_441" data-name="그룹 441" clip-path="url(#clip-path-11)">
      <rect id="사각형_302" data-name="사각형 302" width="0.136" height="0.036" transform="translate(293.452 546.255)" fill="url(#linear-gradient)"/>
    </g>
  </g>
  <g id="그룹_444" data-name="그룹 444">
    <g id="그룹_443" data-name="그룹 443" clip-path="url(#clip-path-11)">
      <rect id="사각형_303" data-name="사각형 303" width="0.136" height="0.036" transform="translate(293.452 546.255)" fill="url(#linear-gradient)"/>
    </g>
  </g>
  <g id="그룹_446" data-name="그룹 446">
    <g id="그룹_445" data-name="그룹 445" clip-path="url(#clip-path-11)">
      <rect id="사각형_304" data-name="사각형 304" width="0.136" height="0.036" transform="translate(293.452 546.255)" fill="url(#linear-gradient)"/>
    </g>
  </g>
  <g id="그룹_448" data-name="그룹 448">
    <g id="그룹_447" data-name="그룹 447" clip-path="url(#clip-path-11)">
      <rect id="사각형_305" data-name="사각형 305" width="0.136" height="0.036" transform="translate(293.452 546.255)" fill="url(#linear-gradient)"/>
    </g>
  </g>
  <g id="그룹_450" data-name="그룹 450">
    <g id="그룹_449" data-name="그룹 449" clip-path="url(#clip-path-11)">
      <rect id="사각형_306" data-name="사각형 306" width="0.136" height="0.036" transform="translate(293.452 546.255)" fill="url(#linear-gradient)"/>
    </g>
  </g>
  <g id="그룹_452" data-name="그룹 452">
    <g id="그룹_451" data-name="그룹 451" clip-path="url(#clip-path-11)">
      <rect id="사각형_307" data-name="사각형 307" width="0.136" height="0.036" transform="translate(293.452 546.255)" fill="url(#linear-gradient)"/>
    </g>
  </g>
  <g id="그룹_454" data-name="그룹 454">
    <g id="그룹_453" data-name="그룹 453" clip-path="url(#clip-path-11)">
      <rect id="사각형_308" data-name="사각형 308" width="0.136" height="0.036" transform="translate(293.452 546.255)" fill="url(#linear-gradient)"/>
    </g>
  </g>
  <g id="그룹_456" data-name="그룹 456">
    <g id="그룹_455" data-name="그룹 455" clip-path="url(#clip-path-11)">
      <rect id="사각형_309" data-name="사각형 309" width="0.136" height="0.036" transform="translate(293.452 546.255)" fill="url(#linear-gradient)"/>
    </g>
  </g>
  <g id="그룹_458" data-name="그룹 458">
    <g id="그룹_457" data-name="그룹 457" clip-path="url(#clip-path-23)">
      <rect id="사각형_310" data-name="사각형 310" width="2.02" height="1.133" transform="translate(282.888 293.051)" fill="url(#linear-gradient)"/>
    </g>
  </g>
  <g id="그룹_460" data-name="그룹 460">
    <g id="그룹_459" data-name="그룹 459" clip-path="url(#clip-path-24)">
      <rect id="사각형_311" data-name="사각형 311" width="1.451" height="1.073" transform="translate(280.054 297.566)" fill="url(#linear-gradient)"/>
    </g>
  </g>
  <g id="그룹_462" data-name="그룹 462">
    <g id="그룹_461" data-name="그룹 461" clip-path="url(#clip-path-25)">
      <rect id="사각형_312" data-name="사각형 312" width="4.369" height="4.527" transform="translate(280.165 303.655)" fill="url(#linear-gradient)"/>
    </g>
  </g>
  <g id="그룹_464" data-name="그룹 464">
    <g id="그룹_463" data-name="그룹 463" clip-path="url(#clip-path-11)">
      <rect id="사각형_313" data-name="사각형 313" width="0.136" height="0.036" transform="translate(293.452 546.255)" fill="url(#linear-gradient)"/>
    </g>
  </g>
  <g id="그룹_466" data-name="그룹 466">
    <g id="그룹_465" data-name="그룹 465" clip-path="url(#clip-path-11)">
      <rect id="사각형_314" data-name="사각형 314" width="0.136" height="0.036" transform="translate(293.452 546.255)" fill="url(#linear-gradient)"/>
    </g>
  </g>
  <g id="그룹_468" data-name="그룹 468">
    <g id="그룹_467" data-name="그룹 467" clip-path="url(#clip-path-11)">
      <rect id="사각형_315" data-name="사각형 315" width="0.136" height="0.036" transform="translate(293.452 546.255)" fill="url(#linear-gradient)"/>
    </g>
  </g>
  <g id="그룹_470" data-name="그룹 470">
    <g id="그룹_469" data-name="그룹 469" clip-path="url(#clip-path-11)">
      <rect id="사각형_316" data-name="사각형 316" width="0.136" height="0.036" transform="translate(293.452 546.255)" fill="url(#linear-gradient)"/>
    </g>
  </g>
  <g id="그룹_472" data-name="그룹 472">
    <g id="그룹_471" data-name="그룹 471" clip-path="url(#clip-path-11)">
      <rect id="사각형_317" data-name="사각형 317" width="0.136" height="0.036" transform="translate(293.452 546.255)" fill="url(#linear-gradient)"/>
    </g>
  </g>
  <g id="그룹_474" data-name="그룹 474">
    <g id="그룹_473" data-name="그룹 473" clip-path="url(#clip-path-31)">
      <rect id="사각형_318" data-name="사각형 318" width="55.767" height="50.719" transform="translate(231.817 298.266)" fill="url(#linear-gradient)"/>
    </g>
  </g>
  <g id="그룹_476" data-name="그룹 476">
    <g id="그룹_475" data-name="그룹 475" clip-path="url(#clip-path-11)">
      <rect id="사각형_319" data-name="사각형 319" width="0.136" height="0.036" transform="translate(293.452 546.255)" fill="url(#linear-gradient)"/>
    </g>
  </g>
  <g id="그룹_478" data-name="그룹 478">
    <g id="그룹_477" data-name="그룹 477" clip-path="url(#clip-path-33)">
      <rect id="사각형_320" data-name="사각형 320" width="12.181" height="15.66" transform="translate(307.651 327.085)" fill="url(#linear-gradient)"/>
    </g>
  </g>
  <g id="그룹_480" data-name="그룹 480">
    <g id="그룹_479" data-name="그룹 479" clip-path="url(#clip-path-34)">
      <rect id="사각형_321" data-name="사각형 321" width="31.902" height="33.243" transform="translate(280.327 314.946)" fill="url(#linear-gradient)"/>
    </g>
  </g>
  <g id="그룹_482" data-name="그룹 482">
    <g id="그룹_481" data-name="그룹 481" clip-path="url(#clip-path-11)">
      <rect id="사각형_322" data-name="사각형 322" width="0.136" height="0.036" transform="translate(293.452 546.255)" fill="url(#linear-gradient)"/>
    </g>
  </g>
  <g id="그룹_484" data-name="그룹 484">
    <g id="그룹_483" data-name="그룹 483" clip-path="url(#clip-path-11)">
      <rect id="사각형_323" data-name="사각형 323" width="0.136" height="0.036" transform="translate(293.452 546.255)" fill="url(#linear-gradient)"/>
    </g>
  </g>
  <g id="그룹_486" data-name="그룹 486">
    <g id="그룹_485" data-name="그룹 485" clip-path="url(#clip-path-37)">
      <rect id="사각형_324" data-name="사각형 324" width="22.924" height="28.919" transform="translate(201.429 346.539)" fill="url(#linear-gradient)"/>
    </g>
  </g>
  <g id="그룹_488" data-name="그룹 488">
    <g id="그룹_487" data-name="그룹 487" clip-path="url(#clip-path-38)">
      <rect id="사각형_325" data-name="사각형 325" width="47.969" height="68.108" transform="translate(209.192 296.403)" fill="url(#linear-gradient)"/>
    </g>
  </g>
  <g id="그룹_490" data-name="그룹 490">
    <g id="그룹_489" data-name="그룹 489" clip-path="url(#clip-path-11)">
      <rect id="사각형_326" data-name="사각형 326" width="0.136" height="0.036" transform="translate(293.452 546.255)" fill="url(#linear-gradient)"/>
    </g>
  </g>
  <g id="그룹_492" data-name="그룹 492">
    <g id="그룹_491" data-name="그룹 491" clip-path="url(#clip-path-40)">
      <rect id="사각형_327" data-name="사각형 327" width="35.827" height="39.093" transform="translate(279.985 438.737)" fill="url(#linear-gradient)"/>
    </g>
  </g>
  <g id="그룹_494" data-name="그룹 494">
    <g id="그룹_493" data-name="그룹 493" clip-path="url(#clip-path-41)">
      <rect id="사각형_328" data-name="사각형 328" width="0.091" height="0.398" transform="translate(298.689 442.933)" fill="url(#linear-gradient)"/>
    </g>
  </g>
  <g id="그룹_496" data-name="그룹 496">
    <g id="그룹_495" data-name="그룹 495" clip-path="url(#clip-path-42)">
      <rect id="사각형_329" data-name="사각형 329" width="1.617" height="8.957" transform="translate(298.712 433.976)" fill="url(#linear-gradient)"/>
    </g>
  </g>
  <g id="그룹_498" data-name="그룹 498">
    <g id="그룹_497" data-name="그룹 497" clip-path="url(#clip-path-43)">
      <rect id="사각형_330" data-name="사각형 330" width="2.406" height="0.561" transform="translate(296.306 442.788)" fill="url(#linear-gradient)"/>
    </g>
  </g>
  <g id="그룹_500" data-name="그룹 500">
    <g id="그룹_499" data-name="그룹 499" clip-path="url(#clip-path-11)">
      <rect id="사각형_331" data-name="사각형 331" width="0.136" height="0.036" transform="translate(293.452 546.255)" fill="url(#linear-gradient)"/>
    </g>
  </g>
  <g id="그룹_502" data-name="그룹 502">
    <g id="그룹_501" data-name="그룹 501" clip-path="url(#clip-path-42)">
      <rect id="사각형_332" data-name="사각형 332" width="1.617" height="8.957" transform="translate(298.712 433.976)" fill="url(#linear-gradient)"/>
    </g>
  </g>
  <g id="그룹_504" data-name="그룹 504">
    <g id="그룹_503" data-name="그룹 503" clip-path="url(#clip-path-46)">
      <path id="패스_2230" data-name="패스 2230" d="M250.9,403.55h0Z" fill="url(#linear-gradient)"/>
    </g>
  </g>
  <g id="그룹_506" data-name="그룹 506">
    <g id="그룹_505" data-name="그룹 505" clip-path="url(#clip-path-47)">
      <rect id="사각형_333" data-name="사각형 333" width="55.243" height="83.139" transform="translate(199.463 353.563)" fill="url(#linear-gradient)"/>
    </g>
  </g>
  <g id="그룹_508" data-name="그룹 508">
    <g id="그룹_507" data-name="그룹 507" clip-path="url(#clip-path-48)">
      <rect id="사각형_334" data-name="사각형 334" width="2.098" height="0.018" transform="translate(248.8 403.532)" fill="url(#linear-gradient)"/>
    </g>
  </g>
  <g id="그룹_510" data-name="그룹 510">
    <g id="그룹_509" data-name="그룹 509" clip-path="url(#clip-path-49)">
      <rect id="사각형_335" data-name="사각형 335" width="49.131" height="60.509" transform="translate(250.726 396.954)" fill="url(#linear-gradient)"/>
    </g>
  </g>
  <g id="그룹_512" data-name="그룹 512">
    <g id="그룹_511" data-name="그룹 511" clip-path="url(#clip-path-50)">
      <rect id="사각형_336" data-name="사각형 336" width="155.381" height="173.792" transform="translate(231.22 329.102)" fill="url(#linear-gradient)"/>
    </g>
  </g>
  <g id="그룹_514" data-name="그룹 514">
    <g id="그룹_513" data-name="그룹 513" clip-path="url(#clip-path-51)">
      <rect id="사각형_337" data-name="사각형 337" width="20.941" height="21.341" transform="translate(304.931 490.903)" fill="url(#linear-gradient)"/>
    </g>
  </g>
  <g id="그룹_516" data-name="그룹 516">
    <g id="그룹_515" data-name="그룹 515" clip-path="url(#clip-path-11)">
      <rect id="사각형_338" data-name="사각형 338" width="0.136" height="0.036" transform="translate(293.452 546.255)" fill="url(#linear-gradient)"/>
    </g>
  </g>
  <g id="그룹_518" data-name="그룹 518">
    <g id="그룹_517" data-name="그룹 517" clip-path="url(#clip-path-53)">
      <rect id="사각형_339" data-name="사각형 339" width="61.571" height="137.163" transform="translate(257.426 450.936)" fill="url(#linear-gradient)"/>
    </g>
  </g>
  <g id="그룹_520" data-name="그룹 520">
    <g id="그룹_519" data-name="그룹 519" clip-path="url(#clip-path-54)">
      <rect id="사각형_340" data-name="사각형 340" width="53.702" height="168.265" transform="translate(248.706 432.134)" fill="url(#linear-gradient)"/>
    </g>
  </g>
  <g id="그룹_522" data-name="그룹 522">
    <g id="그룹_521" data-name="그룹 521" clip-path="url(#clip-path-55)">
      <rect id="사각형_341" data-name="사각형 341" width="13.544" height="7.264" transform="translate(300.19 592.885)" fill="url(#linear-gradient)"/>
    </g>
  </g>
</svg>
