<svg xmlns="http://www.w3.org/2000/svg" xmlns:xlink="http://www.w3.org/1999/xlink" width="272.331" height="244.698" viewBox="0 0 272.331 244.698">
  <defs>
    <linearGradient id="linear-gradient" x1="1.116" y1="0.775" x2="0.294" y2="0.224" gradientUnits="objectBoundingBox">
      <stop offset="0" stop-color="#2b8633"/>
      <stop offset="1" stop-color="#71bb78"/>
    </linearGradient>
  </defs>
  <g id="그룹_322" data-name="그룹 322" transform="translate(-62.751 -2911.202)">
    <path id="패스_3478" data-name="패스 3478" d="M136.675,3013.621c-.734-.1-2.387-.014-2.919-.531-.342-.331-.107-1.482-.4-1.858-.409-.527-1.848-.8-2.389-1.194-.57-.411-1.287-2.006-1.99-1.991-.493.013-.837,1.414-1.328,1.461-.33.032-.75-.683-1.061-.8a10.165,10.165,0,0,0-2.256-.132l-.664,1.857-2.255.266v1.194l.132,2.654s-2.256-.531-3.184.133a1.894,1.894,0,0,0-.664,1.858l.8,2.122-2.123.133-1.858.531-.132,2.389,1.326.8-1.194,1.194-1.724-.531s-.717-3.027-1.593-3.185c-.623-.112-1.429,1.259-1.858,1.726a8.789,8.789,0,0,0-1.857,2.388c-.143.517.269,1.588.265,2.123,0,.47.049,1.51-.265,1.858-.275.3-1.253.168-1.592.4-.944.643-2.654,3.715-2.654,3.715l-1.991,2.123-3.45,1.99-2.919-.928-1.858,1.326-3.449.664-2.124,1.991-4.777.4-2.787,1.592-1.592,2.256-3.715,1.725-1.46,1.99-1.327-1.062-.266,2.389s.532,1.858-.132,2.654-2.786,2.655-2.786,4.379v4.247a3.432,3.432,0,0,1,.8,3.185c-.4,2.122-1.171,3.643-1.991,3.184-.782-.438.754-2.937.132-3.583a1.938,1.938,0,0,0-1.99,0c-.507.579.4,2.283.4,3.051,0,.935-.4,2.921.4,3.717s.933,3.107,1.328,4.113c.341.871,1.327,1.99,1.061,3.583a22.546,22.546,0,0,0-.265,5.971c.265,1.592,1.195,3.981,1.195,5.441a8.563,8.563,0,0,1-1.461,3.583l-1.326,3.582-1.592,1.593s-2.389.4-2.523,1.592a3.679,3.679,0,0,0,.93,2.388s1.195-.266,1.195.663,1.856,2.92,2.652,3.052,3.717.8,5.043-.132,6.5-4.114,7.3-4.777a7.526,7.526,0,0,1,5.175-1.328c1.858.4,6.369.93,6.369.93s5.175-.8,5.309-1.858,2.389-3.185,3.051-2.919,3.717-.664,3.717-.664,2.52-2.122,3.98-2.122,5.042-.4,5.042-.4a51.359,51.359,0,0,1,5.043-1.726c1.326-.264,1.326-.8,1.326-.8l.266-.53,5.839-.132s3.981-.664,4.777.53a6.33,6.33,0,0,0,3.583,2.389c.8,0,4.643,1.46,4.643,2.256s1.194,2.786,1.194,4.113-1.194,4.511-.4,4.777,1.718.746,2.256.53c.419-.166.745-1.137,1.063-1.459,1.01-1.026,3.184-2.388,4.511-3.582s4.511-4.645,4.644-3.319-1.166,3.689-1.99,4.645c-1.045,1.21-4.115,3.583-4.247,4.777s1.314.876,1.725.664a32.464,32.464,0,0,0,3.848-3.052s-1.4,2.684-1.858,3.582c-.168.332-.849,1.006-.662,1.327.283.49,2.255.134,2.255.134a10.248,10.248,0,0,1,.8,4.245c0,2.654-1.725,4.379-.531,5.309s3.451,2.52,3.451,2.52l2.919,1.327,5.175.531,2.521-2.124,1.726-.264,1.458-.93.664,2.256,1.725,1.327,1.062.664s5.705-1.46,5.971-3.185,2.256-1.858,2.256-1.858,3.715.134,4.644-.4,5.839-2.919,5.573-4.245,3.98-6.1,3.98-6.1,5.574-3.715,4.777-5.175,4.911-4.644,4.911-4.644l4.113-3.716,2.521-3.317s3.318-.664,3.185-2.256,1.726-5.042,1.726-5.042l1.99-4.512,2.787-5.838s-.4-2.124-.8-2.124,1.991-6.235,1.991-6.235l-.134-2.655s-3.57-5.26-4.909-6.9c-.431-.528-1.681-1.335-1.858-1.991-.2-.723.962-2.233.664-2.92-.367-.845-2.649-1.107-3.185-1.857-.868-1.211-.4-4.579-1.194-5.839-.266-.42-1.571-.7-1.593-1.194-.039-.9,2.521-2.256-.132-3.583s-4.512-4.247-6.237-4.379-.8-6.767-.8-6.767.53-4.247,0-4.511-1.592-4.911-.928-6.1-1.726-2.255-1.726-2.255-.8-3.185-1.725-2.522l-.928.664h0s-.4,1.326-1.46.266,0-4.379,0-4.379L193.2,2997.3l-1.326-2.653s-3.981,5.44-3.583,6.236-.8,1.46-.8,1.46l.53,1.991-1.326,2.654-.266,2.255-1.46,2.388.93,2.124-2.389,2.521-1.328,5.043-1.194,2.653-1.725.8-3.45-.264a10.524,10.524,0,0,0-1.593-2.125c-.662-.53-3.714-1.724-4.113-2.652s-3.184-1.727-3.184-1.727-.53-3.316-1.991-3.714-3.052-.133-3.052-1.327,1.99-3.318,1.99-3.318-.928-2.521.8-2.653,3.848-4.645,3.848-4.645l-.664-1.99-2.388.4-1.459-1.327-2.522,1.195-4.245-1.726-2.787-.531-1.592-2.122-2.257.4.8,1.724s1.592,1.46.53,2.257a10.707,10.707,0,0,1-3.583,1.194s-.662-1.858-2.122-1.062a26.643,26.643,0,0,0-3.583,2.654v1.857c0,.4-1.624,1.178-1.991,1.726-.188.28-.1,1.032-.266,1.326-.2.347-.939.754-1.194,1.062-.37.447-1.4,1.448-1.194,1.991.235.619,2.29.177,2.522.8.176.474-.608,1.5-1.062,1.724C138.834,3014.2,137.368,3013.717,136.675,3013.621Z" fill="url(#linear-gradient)"/>
    <path id="패스_3479" data-name="패스 3479" d="M271.027,3037.771c1.2,0,2.977,2.09,3.782,2.986a48.156,48.156,0,0,1,3.384,5.374,8.034,8.034,0,0,1-1.991,0,6.57,6.57,0,0,1-2.587-1.99c-.4-.647-.215-2.328-.6-2.986-.5-.854-3.006-1.6-2.986-2.587C270.038,3038.249,270.709,3037.773,271.027,3037.771Z" fill="url(#linear-gradient)"/>
    <path id="패스_3480" data-name="패스 3480" d="M285.557,3012.692c-.511.4.08,1.946,0,2.588-.05.407-.6,1.233-.4,1.592.227.415,1.463.258,1.792.6.612.635.373,2.76,1,3.384.249.25,1.146.449,1.393.2.356-.361-.236-1.51-.4-1.99-.243-.717-.7-2.3-1.326-2.72-.207-.14-.812.1-1-.067-.385-.35-.278-1.538-.332-2.057-.035-.33.136-1.064-.066-1.327C286.115,3012.755,285.694,3012.587,285.557,3012.692Z" fill="url(#linear-gradient)"/>
    <path id="패스_3481" data-name="패스 3481" d="M290.931,3014.815c-.127.085-.332.32-.465.4-.351.211-1.457.194-1.525.6-.051.3.638.7.928.8.176.056.622-.214.731-.065.148.205-.316.69-.4.928s-.367.758-.266,1c.134.316.874.783,1.194.664.364-.136.414-1.088.531-1.46.135-.424.465-1.724.465-1.724a3.991,3.991,0,0,1-.664-.8c-.05-.14.127-.52,0-.6S291.054,3014.734,290.931,3014.815Z" fill="url(#linear-gradient)"/>
    <path id="패스_3482" data-name="패스 3482" d="M289.605,3021.582c-.023.426,1.06,1.328,1.06,1.328l.664-.333s.119-.634,0-.8c-.133-.18-.69-.118-.863-.264a2.025,2.025,0,0,1-.264-.532S289.616,3021.372,289.605,3021.582Z" fill="url(#linear-gradient)"/>
    <path id="패스_3483" data-name="패스 3483" d="M289.869,3025.431l-.729.53s.008,1.468.4,1.592c.269.088.743-.472.863-.729a4.094,4.094,0,0,0,0-1.326Z" fill="url(#linear-gradient)"/>
    <path id="패스_3484" data-name="패스 3484" d="M290.665,3030.539l.8-.065a3.987,3.987,0,0,1,.133.53c.01.151.059.516-.066.6-.178.114-.668-.1-.8-.266S290.665,3030.539,290.665,3030.539Z" fill="url(#linear-gradient)"/>
    <path id="패스_3485" data-name="패스 3485" d="M291,3033.99c.159-.238,1.128-.2,1.128-.2v.995s-.178.773-.4.8-.441-.471-.531-.664C291.1,3034.7,290.865,3034.187,291,3033.99Z" fill="url(#linear-gradient)"/>
    <path id="패스_3486" data-name="패스 3486" d="M291.993,3036.975s.1.666.265.8a.755.755,0,0,0,.664.067c.185-.144.132-.93.132-.93Z" fill="url(#linear-gradient)"/>
    <g id="그룹_321" data-name="그룹 321">
      <g id="그룹_320" data-name="그룹 320">
        <path id="패스_3487" data-name="패스 3487" d="M161.622,2911.215c-.21.108-.257.71-.167.929a1.1,1.1,0,0,0,.764.53c.186-.016.53-.53.53-.53a5.268,5.268,0,0,0-.564-.664C162.062,2911.386,161.76,2911.143,161.622,2911.215Z" fill="url(#linear-gradient)"/>
        <path id="패스_3488" data-name="패스 3488" d="M138,2958.951c.4-.016,1.225-.287,1.592-.132.24.1.426.694.664.8.429.182,1.394-.116,1.859-.133a9.891,9.891,0,0,1,2.388,0,15,15,0,0,1,2.787,1.858s1.724.664-.134,1.062-1.893.074-2.389-.266a9.8,9.8,0,0,0-2.52-.8,6.8,6.8,0,0,0-2.521,0c-1.726.133-1.875-.392-1.99-.929-.08-.362-.5-1.174-.266-1.46C137.556,2958.849,137.869,2958.957,138,2958.951Z" fill="url(#linear-gradient)"/>
        <path id="패스_3489" data-name="패스 3489" d="M148.351,2949.663l.93.53,2.123-1.459a14.75,14.75,0,0,1,2.654-.8c1.521-.072,4.7.358,5.971,1.194.439.288.887,1.3,1.195,1.725.192.269.718.739.8,1.062.217.918-.947,2.815-.664,3.715.253.806,2.491,1.551,2.388,2.389-.054.448-1.326.8,1.062,1.459s3.149-2.414,4.113-3.317a3.093,3.093,0,0,1,1.858-.664c.559.087,2.787,2.124,2.255-.133s.645-2.363,1.328-2.388a15.147,15.147,0,0,1,2.255,0,30.272,30.272,0,0,1,3.451,1.194,63.456,63.456,0,0,1,6.635,2.257c.4.207,1.035.9,1.458,1.061a7.689,7.689,0,0,0,1.593.133l3.052,1.326s2.521,2.124,4.113,1.858,3.185,1.593,3.185,1.593l2.522.8s.8,1.99,1.725,1.99,2.786,1.991,2.786,1.991,1.46,1.99.4,2.388-.266,1.725.4,1.725a12.876,12.876,0,0,1,2.257-.132c.662.132.662,1.592,1.458,1.326s1.969.548,2.522.929,2.521,1.725,1.2,2.389-2.787.133-3.053,1.327a8.783,8.783,0,0,0,0,2.786l1.858,1.593s.133,2.388,1.061,1.857,1.194.929,1.194.929.134,2.123,1.194,2.256a19.811,19.811,0,0,0,2.921,0l.53,3.317,1.592-.133,1.46,1.46,1.593,2.123-2.389.8a20.046,20.046,0,0,1-2.786-1.459,2.6,2.6,0,0,0-1.726-.664c-1.061,0-2.653.133-4.379.133s-5.573-2.389-5.042-4.114-1.726-4.777-1.726-4.777l-3.715-1.459-3.45-1.725-2.123,1.725-1.326,2.123s-.4,2.787-1.46,3.052-4.709,1.017-6.237.663a11.775,11.775,0,0,1-2.255-1.326,14.61,14.61,0,0,1-2.522-1.46c-.58-.595-.863-2.518-1.593-2.919-.9-.5-3.408-.487-4.113.265-.362.387.3,1.683,0,2.123-.4.592-2.485.331-3.317.4-.357.029-1.194.133-.8-1.194s.572-1.028.4-1.327c-.441-.757,1.08-2.458,1.725-3.052.35-.322,1.541-.358,1.724-.8.765-1.819-1.07-3.69-1.458-4.91-.429-1.345-1.858-4.91-2.787-4.91s-2.842.449-3.716.133c-.507-.183-1.114-1.209-1.593-1.459-.933-.489-3.195-.41-4.113-.929-1.127-.638-2.918-3.052-3.98-3.318s-1.859-1.725-2.787-.4-.266,2.123-.8,2.256a2.267,2.267,0,0,1-1.725-.664c-.919-1.029-3.091-3.652-2.522-4.909.207-.454,2.124-.531,1.991-.133s2.135-1.126,2.786-1.592c.557-.4,3.185-2.389,1.062-2.522s-3.715,1.461-4.777.4-.266-1.724-1.99-2.122-3.451-.664-3.849-1.062a7.807,7.807,0,0,1-.928-1.858Z" fill="url(#linear-gradient)"/>
        <path id="패스_3490" data-name="패스 3490" d="M161.356,3129.2c-.731-.174-1.761,1.424-2.257,1.991-.471.539-1.52,1.674-1.592,2.388-.078.784,1.42,2.163,1.194,2.919-.183.617-1.822.889-2.122,1.46a4.91,4.91,0,0,0,0,3.051,3.844,3.844,0,0,0,1.724,1.726c1.277.365,5.175-1.194,5.175-1.194l4.379-4.379s6.105-7.034,4.247-7.166a16.21,16.21,0,0,0-5.043,1.061s-3.317-.265-4.245-.4S161.858,3129.318,161.356,3129.2Z" fill="url(#linear-gradient)"/>
        <path id="패스_3491" data-name="패스 3491" d="M262.6,3130.525l-1.327-.664-2.52,1.858s-1.31,1.867-1.991,2.122c-.625.235-2.046-.538-2.654-.264-1.084.487-2.016,2.944-2.787,3.847a14.671,14.671,0,0,1-2.256,2.256c-1.341.867-4.418,2.627-5.971,2.257-.745-.177-1.459-1.593-3.051.264s-5.839,2.655-5.839,2.655.928,2.786-2.389,3.45-9.024,4.511-9.024,4.511-1.06.928,0,1.46a26.881,26.881,0,0,0,3.583,1.195s2.257-.664,2.389.132,2.786-.266,2.786-.266,5.286-2.263,6.768-3.449c1.688-1.351,3.848-4.645,6.5-5.707s7.563-1.061,8.226-1.592,7.165-6.768,7.165-6.768,3.717-.928,4.645-3.184,3.053-4.91,1.592-4.644-1.99,2.787-3.184,2.521S262.6,3130.525,262.6,3130.525Z" fill="url(#linear-gradient)"/>
        <path id="패스_3492" data-name="패스 3492" d="M279.852,3102.393l-.8,1.592.53,7.166a6.1,6.1,0,0,1-.664,4.777c-1.459,2.522-2.123,4.645-3.185,5.175s-4.378,1.328-4.378,2.786,1.46,1.726,1.726,2.787-2.655,4.247-2.655,4.247-3.583,2.786-1.46,2.786a20.119,20.119,0,0,0,4.777-.8l6.9-6.5,1.725-3.053s.132-1.724,2.786-1.724,1.593-1.727,3.185-2.125,5.175-4.245,3.981-3.98-4.113,2.388-4.909,1.858-2.389-1.592-2.389-1.592,1.061-3.185-.134-3.185-2.653.8-2.786-.266,2.256-5.041,2.256-5.041,1.326-1.461-.132-2.125-3.053-3.184-3.053-3.184Z" fill="url(#linear-gradient)"/>
        <path id="패스_3493" data-name="패스 3493" d="M217.684,2970.595c.4-.383,1.638.273,2.19.3a22.362,22.362,0,0,0,2.388-.1c.677-.064,2.687-.4,2.687-.4l.8.8,2.488-.895,1-2.489,2.189-1.492-.6-1.493,2.588.8-.6,1.99-2.388,3.683-2.289,1.393-1.493,1.294s-2.612.035-3.483,0a20.617,20.617,0,0,1-2.488-.2c-.694-.141-2.247-.341-2.687-.9C217.625,2972.431,217.269,2971,217.684,2970.595Z" fill="url(#linear-gradient)"/>
        <path id="패스_3494" data-name="패스 3494" d="M228.034,2958.255c.6-.5,2.2.817,2.887,1.194a12.634,12.634,0,0,1,1.691,1.194c.608.536,1.63,1.8,2.19,2.389.365.381,1.493,1.492,1.493,1.492s.55,2.06.1,2.488a1.111,1.111,0,0,1-1.1-.1c-.395-.415-.1-2.289-.1-2.289s-1.858-1.725-2.488-2.289a13.485,13.485,0,0,0-2.389-2.09c-.435-.19-1.536.117-1.89-.2S227.683,2958.55,228.034,2958.255Z" fill="url(#linear-gradient)"/>
        <path id="패스_3495" data-name="패스 3495" d="M243.162,2969.3c-.305-.093-.935.484-1,.8-.087.449.694,1.184.9,1.593.252.51.617,1.594.9,2.09a12.7,12.7,0,0,0,1.692,2.388c.357.335,1.791,1.095,1.89.5s.476-1.373.3-1.792c-.159-.375-1.011-.7-1.294-1-.507-.527-1.171-1.874-1.692-2.388-.28-.277-1.062-.578-1.293-.9C243.361,2970.322,243.485,2969.4,243.162,2969.3Z" fill="url(#linear-gradient)"/>
        <path id="패스_3496" data-name="패스 3496" d="M319.029,2935.68c-.111-.229-.829-.216-1.061-.052-.332.234-.36,1.136-.507,1.509-.182.463-.662,1.355-.821,1.824a11.463,11.463,0,0,0-.566,2.459c-.011.411.31,1.7.744,1.373s1.135-.6,1.3-.967c.149-.327-.123-1.009-.1-1.354.052-.618.532-1.842.566-2.458a10.947,10.947,0,0,1-.157-1.292C318.494,2936.438,319.147,2935.925,319.029,2935.68Z" fill="url(#linear-gradient)"/>
        <path id="패스_3497" data-name="패스 3497" d="M250.028,2976.765c.046-.274.719-.525,1-.5.6.061,1.891,1.493,1.891,1.493l-.9.8s-.757-.583-.995-.8C250.761,2977.526,249.972,2977.113,250.028,2976.765Z" fill="url(#linear-gradient)"/>
        <path id="패스_3498" data-name="패스 3498" d="M318.929,2943.227c.045-.275.719-.526,1-.5.6.062,1.89,1.493,1.89,1.493l-.895.8s-.758-.583-1-.8C319.663,2943.987,318.873,2943.575,318.929,2943.227Z" fill="url(#linear-gradient)"/>
        <path id="패스_3499" data-name="패스 3499" d="M249.431,2981.642a1.249,1.249,0,0,0,.3,1.294c.2.095.8-.4.8-.4v-1S249.593,2981.42,249.431,2981.642Z" fill="url(#linear-gradient)"/>
        <path id="패스_3500" data-name="패스 3500" d="M252.716,2982.538l.4.6s1.267.9,1.691,1.194c.322.225.921,1.021,1.294.9.3-.1.509-.9.4-1.2-.183-.491-1.353-.806-1.791-1.094s-1.692-1.2-1.692-1.2Z" fill="url(#linear-gradient)"/>
        <path id="패스_3501" data-name="패스 3501" d="M257.592,2980.348c-.145.212-.6.66-.5.9.151.356,1.148.226,1.493.4.509.253,1.295,1.118,1.792,1.393a16.82,16.82,0,0,0,1.89.7,5.456,5.456,0,0,0-.5-1.493c-.418-.491-1.762-.822-2.289-1.194-.389-.274-.919-1.324-1.393-1.294C257.895,2979.763,257.7,2980.188,257.592,2980.348Z" fill="url(#linear-gradient)"/>
        <path id="패스_3502" data-name="패스 3502" d="M263.066,2987.613c-.467.224-1.541.7-1.692,1.194a2.007,2.007,0,0,0,.5,1.294,8.5,8.5,0,0,0,1.891,1.095l1.294-.6-.9-1.991s.552-1.142.3-1.393S263.392,2987.457,263.066,2987.613Z" fill="url(#linear-gradient)"/>
        <path id="패스_3503" data-name="패스 3503" d="M265.554,2983.632c-.257-.007-.482.641-.5.9-.062,1.047,1.592,3.881,1.592,3.881l1.195.9.5-.995s-1.018-1.159-1.294-1.593C266.586,2986,266.41,2983.657,265.554,2983.632Z" fill="url(#linear-gradient)"/>
        <path id="패스_3504" data-name="패스 3504" d="M267.743,2992.888a4.94,4.94,0,0,0,.7,1.393c.3.244,1.18.624,1.493.4s.1-1.592.1-1.592l-1.791-.4Z" fill="url(#linear-gradient)"/>
        <path id="패스_3505" data-name="패스 3505" d="M323.425,2948.669l-.142.891s1.042,1.032,1.408.846c.251-.129.191-.862.094-1.127-.115-.311-.939-.938-.939-.938Z" fill="url(#linear-gradient)"/>
        <path id="패스_3506" data-name="패스 3506" d="M327.6,2951.719l.516-.61a3.937,3.937,0,0,1,.468.282c.114.1.409.322.377.469-.045.2-.543.4-.751.375S327.6,2951.719,327.6,2951.719Z" fill="url(#linear-gradient)"/>
        <path id="패스_3507" data-name="패스 3507" d="M330.275,2953.924c-.056-.281.656-.939.656-.939l.7.7s.421.672.281.844-.644-.021-.844-.093C330.848,2954.36,330.32,2954.157,330.275,2953.924Z" fill="url(#linear-gradient)"/>
        <path id="패스_3508" data-name="패스 3508" d="M333.089,2955.331s.541.4.75.376c.166-.019.5-.257.516-.422.028-.234-.563-.752-.563-.752Z" fill="url(#linear-gradient)"/>
      </g>
    </g>
    <path id="패스_3509" data-name="패스 3509" d="M327.157,3024.767c-.5.065-1.521-.442-1.991-.264a2.712,2.712,0,0,0-1.326,1.525,3.283,3.283,0,0,0,.995,1.99,5.553,5.553,0,0,0,2.389.863c.667.066,2.278.159,2.653-.4.4-.594-.377-2.13-.663-2.786-.168-.384-.529-1.272-.93-1.393C327.993,3024.213,327.46,3024.73,327.157,3024.767Z" fill="url(#linear-gradient)"/>
    <path id="패스_3510" data-name="패스 3510" d="M330.474,3021.119a1.838,1.838,0,0,0,.664,1.458c.732.344,3.117-.861,3.117-.861s1.014-1.5.8-1.99c-.254-.576-1.846-.688-2.454-.532-.513.133-1.207,1.032-1.592,1.393C330.869,3020.716,330.508,3020.934,330.474,3021.119Z" fill="url(#linear-gradient)"/>
  </g>
</svg>
