<svg xmlns="http://www.w3.org/2000/svg" xmlns:xlink="http://www.w3.org/1999/xlink" width="1235.062" height="600.15" viewBox="0 0 1235.062 600.15">
  <defs>
    <linearGradient id="linear-gradient" x1="-0.252" y1="-0.763" x2="1.101" y2="0.683" gradientUnits="objectBoundingBox">
      <stop offset="0" stop-color="#f9ebbf"/>
      <stop offset="1" stop-color="#ffc323"/>
    </linearGradient>
    <clipPath id="clip-path">
      <rect id="사각형_249" data-name="사각형 249" width="1235.062" height="600.149" fill="url(#linear-gradient)"/>
    </clipPath>
    <clipPath id="clip-path-2">
      <path id="패스_2147" data-name="패스 2147" d="M209.174,28.8l-6.237.662h-2.654l-6.037,3.053-3.915,1.858-5.573,2.753,2.256,2.288,3.052.93,5.573-1.327,8.094-1.891-.53,1.361,5.573.8L203.733,40.6l-2.122,1.46,11.942,2.256-11.147.4-2.786.663,1.593,1.592,2.388,1.461,1.99,1.325a43.689,43.689,0,0,1,4.778-.928h4.113l5.44-1.99,6.5.8,4.777,2.122h7.166a14.384,14.384,0,0,0,2.918-2.255c.531-.8,1.726,0,1.726,0l3.715-1.592a27.838,27.838,0,0,0-2.122-2.389c-.4-.264-1.991-.929-1.991-.929V40.339l1.724-3.218.8-2.554L242.48,32.51,239.827,33.7l-5.442,4.511.664-2.653-2.256-1.592-3.184,1.99-1.858-1.393-5.706.995v-.995l-2.388-1,1.725-2.123-.93-1.991-6.634.93-1.99-1.592Z" fill="url(#linear-gradient)"/>
    </clipPath>
    <clipPath id="clip-path-3">
      <path id="패스_2148" data-name="패스 2148" d="M251.5,46.708l-4.777,2.123,5.773,1.725h1.658l3.052-.8,1.061-.928-1.061-1.99-2.653-.929Z" fill="url(#linear-gradient)"/>
    </clipPath>
    <clipPath id="clip-path-4">
      <path id="패스_2149" data-name="패스 2149" d="M228.547,18.444l-3.184.663-6.105,1.328s-3.184.663-4.378,2.786c0,0,4.644-.265,5.971.663s1.327-.663,1.327-.663l1.327-1.592,3.981,1.061s3.715-1.326,4.113-1.857,2.388-.531,4.379-1.459-3.185-.93-3.185-.93Z" fill="url(#linear-gradient)"/>
    </clipPath>
    <clipPath id="clip-path-5">
      <path id="패스_2150" data-name="패스 2150" d="M234.916,22.027l-3.582,1.194-2.919.955-2.758,2.761,4.615-1.062,1.593,1.327,2.653-.132,4.38,1.725,8.624-1.062,7.165-.8,3.583-2.814h-1.592l-3.052.053L252.5,22.425l-3.119-.4-1.46,2.1-3.052,2.018-3.184-1.965-3.45-2.866Z" fill="url(#linear-gradient)"/>
    </clipPath>
    <clipPath id="clip-path-6">
      <path id="패스_2151" data-name="패스 2151" d="M253.229,16.321H250.84l-1.991,2.123a12.262,12.262,0,0,0,4.644,0c1.991-.531,1.593-1.061,1.593-1.061l.663-1.062Z" fill="url(#linear-gradient)"/>
    </clipPath>
    <clipPath id="clip-path-7">
      <path id="패스_2152" data-name="패스 2152" d="M268.371,37.082l-.015.039s.353-.045.176-.045c-.033,0-.085,0-.161.006m-.613-6.728h-4.279s-2.588.2-3.185,1.791,0,1.792,0,1.792a13.557,13.557,0,0,1-3.781.9,3.287,3.287,0,0,0-1.991.8c-.9.8,1.1,2.488,1.991,2.986a1.084,1.084,0,0,0,.908.058c.461-.106,1.058-.212,2.376.6,2.189,1.36,2.985,0,2.985,0s3.583-2.056,4.976-2.156c.29-.021.486-.033.613-.039l.681-1.752.7-2.19a13.382,13.382,0,0,0,1.592-2.786c.2-.5-.132-.664-.663-.664a11.89,11.89,0,0,0-2.92.664" fill="url(#linear-gradient)"/>
    </clipPath>
    <clipPath id="clip-path-8">
      <path id="패스_2153" data-name="패스 2153" d="M263.777,21.31l-.929,1.281v1.585l2.621.877h2.787V22.68s-.8-.985-1.294-.189-1.1-1.181-1.1-1.181Z" fill="url(#linear-gradient)"/>
    </clipPath>
    <clipPath id="clip-path-9">
      <path id="패스_2154" data-name="패스 2154" d="M277.511,21.795l-1.592-.485h-3.583l-.936.684-1.552,3.059,1.552,1.021,3.225.9,1.991-1.917,2.886-.97,2.189-1.791L280.3,21.31Z" fill="url(#linear-gradient)"/>
    </clipPath>
    <clipPath id="clip-path-10">
      <path id="패스_2155" data-name="패스 2155" d="M275.77,12.639a3.1,3.1,0,0,0,1.045,2.686l3.085,1,2.886.6s1.791.7,2.189-.6.8-2.488,0-2.389a23.408,23.408,0,0,1-3.782-.5l-.5.2a9.168,9.168,0,0,0-4.008-1.8.808.808,0,0,0-.918.805" fill="url(#linear-gradient)"/>
    </clipPath>
    <clipPath id="clip-path-11">
      <path id="패스_2156" data-name="패스 2156" d="M291.245,14.47l-1.194.855,1.393,1.781,2.19.395,1.592,1.179,2.19-1.179V15.823l-2.588-.5h-1.891s-.318-1.094-1.057-1.094a1.1,1.1,0,0,0-.635.239" fill="url(#linear-gradient)"/>
    </clipPath>
    <clipPath id="clip-path-12">
      <path id="패스_2157" data-name="패스 2157" d="M287.563,20l-1.493.6V21.8l1.891.7a17.73,17.73,0,0,0,4.08-.7c1.792-.6.6-.485.6-.485L289.255,20Z" fill="url(#linear-gradient)"/>
    </clipPath>
    <clipPath id="clip-path-13">
      <path id="패스_2158" data-name="패스 2158" d="M286.07,25.576h-2.986L280.1,26.97l2.786,1.294,3.483.531,1.1-1.825V25.053Z" fill="url(#linear-gradient)"/>
    </clipPath>
    <clipPath id="clip-path-14">
      <path id="패스_2159" data-name="패스 2159" d="M280.1,29.69a1.939,1.939,0,0,0-.8,1.26,2.947,2.947,0,0,1-1.5.089c-.794-.084-1.583-.168-2.03.608-.746,1.294-4.13,1.9-3.732,3.139s-.2,3.429,1.1,2.832,3.383-3.375,4.179-2.832,2.887.544,3.682.544,5.574.3,5.574-1,3.284-1.991,3.483-2.688-1.692-1.393-2.587-1.393-5.773-.564-5.773-.564a2.114,2.114,0,0,0-.87-.206,1.278,1.278,0,0,0-.722.206" fill="url(#linear-gradient)"/>
    </clipPath>
    <clipPath id="clip-path-15">
      <path id="패스_2160" data-name="패스 2160" d="M293.733,31.846l-3.085,2.289-3.583,2.986s-5.175,1.991-4.08,2.886a8.993,8.993,0,0,1,1.891,3.284h2.588l2.587.8,2.978.82,3.69-.721,5.274,1.792,5.574-.6s3.682.6,3.782-.5,2.387,1.1,2.387,1.1a1.963,1.963,0,0,0,1.593,1.592c1.493.4,1.195,2.587,1.195,2.587l3.184.7s3.483,2.388,1.891,3.184a47.036,47.036,0,0,0-5.573,4.279s-4.18,1.494-3.583,3.185-1.194,2.389-1.692,2.488-4.677,0-4.677,0-2.223-1.891-3.65-1.891-4.412,1.935-4.412,1.935-1.791,2.046-.6,2.544,5.008,0,5.008,0,.565,1.692,1.759,1.592l1.194-.1,2.688-1.1s.1-.6,1.791,0,3.384,4.379,3.384,4.379,1.393,2.985,2.188,2.985,9.953,3.284,9.953,3.284,3.085.3,1.791-.994-4.678-3.484-3.781-4.877,4.1.1,4.1.1,4.162,4.677,5.853.7a23.158,23.158,0,0,0,1.891-6.369L331.252,62.2l-1.692-1.294.5-1.99,7.166.4,1.592,3.185s1.991,3.682,3.085,2.289,6.17-3.882,6.17-3.882,3.583-1.492,2.389-3.483a13.226,13.226,0,0,0-3.085-3.384l-3.583-.7s-5.673-.994-5.474-2.587,2.489-2.886,2.489-2.886,3.483-2.588,1.492-3.185a2.773,2.773,0,0,0-1.588-.109c-.354.1-.346.195-.4-.487-.1-1.195-4.379-3.982-4.379-3.982s-4.18.9-4.976-.4-6.369-3.782-6.369-3.782l-5.574.7h-5.473s-1.1-.2.8-2.389,1.194-2.089-1.592-2.388a30.057,30.057,0,0,0-7.166.6l-7.265,4.678s.1,3.782-.9,3.881-1.294-2.787-1.294-2.787L301.1,33.6s4.777-2.154,2.288-2.254c-.19-.007-.408-.011-.648-.011-2.9,0-9.005.509-9.005.509" fill="url(#linear-gradient)"/>
    </clipPath>
    <clipPath id="clip-path-16">
      <path id="패스_2161" data-name="패스 2161" d="M295.027,25.053s-3.716.69-3.716,2.68,8.228-.763,8.228-.763l5.838,1.825,7.166.689h4.225l5.462-2.561V24.14h-4.778l-5.042.913s-7.033-.638-9.156,0-3.052-2.562-3.052-2.562l-2.786-1.181Z" fill="url(#linear-gradient)"/>
    </clipPath>
    <clipPath id="clip-path-17">
      <path id="패스_2162" data-name="패스 2162" d="M317.718,31.337s.265,2.234.531,3.449,2.255.909,2.255.909l2.92-.909s2.389-.684,2.786-1.878-1.459-1.571-1.459-1.571Z" fill="url(#linear-gradient)"/>
    </clipPath>
    <clipPath id="clip-path-18">
      <path id="패스_2163" data-name="패스 2163" d="M309.491,9.687H306.77l-1.128,1.327h-2.787s.531,4.909,1.859,4.777,4.777,0,4.777,0l3.981-1.323h3.3l6.257-1.068,1.991-1.568-3.024-1.352-2.417-1.857-4.511-1.99Z" fill="url(#linear-gradient)"/>
    </clipPath>
    <clipPath id="clip-path-19">
      <path id="패스_2164" data-name="패스 2164" d="M349.3,1.725a92.473,92.473,0,0,1-11.147,1.857l-5.572.664-4.645,1.062s-3.317-.531-4.246.4l-.929.93,2.256.8,1.25,1.062h1.271s13.667-1.2,8.626,0-7.962,1.992-7.432,2.72,3.184.066,1.858,1.393a6.316,6.316,0,0,1-3.052,1.624l-3.848,2.226-3.582.65s-4.247-1.073-5.441,0,.132,2.134-2.256,2.134-7.7,1.228-7.7,2.007,2.056,1.244,2.056,1.244h7.9s3.981-2.023,5.307-1.244a15.9,15.9,0,0,0,6.293,1.244,40.384,40.384,0,0,0,5.649-1.244s-.663-1.476.4-2.007,6.767-2.134,6.767-2.134l6.9-2.54,7.3-2.093s6.9.581,7.563-.639,5.175-1.883,5.175-1.883L368.8,7.962a3.667,3.667,0,0,0,3.981.663,24.912,24.912,0,0,0,5.308-3.052h3.848s9.553-2.255,7.828-2.521S386,2.388,386,2.388h-9.9s-2.521,1.725-4.379,1.592-8.227-.928-8.227-.928.8-.531-3.052-.664a20.175,20.175,0,0,0-3.353.157c-1.343.168-2.063.336-2.884-.157-.9-.539-.7-1.2-1.922-1.2a13.268,13.268,0,0,0-2.987.536" fill="url(#linear-gradient)"/>
    </clipPath>
    <clipPath id="clip-path-20">
      <path id="패스_2165" data-name="패스 2165" d="M463.681,0l-7.844,1.189h-11.53L433.426,3.715H411.134l-7.165,2.92L398.4,3.715l-4.246,2.92h-4.171l-7.772,1.592-7.165,1.061,1.326,1.925L365.753,14.47l-11.677,1.323s2.389,1.192,1.592,5.454,1.858,1.311,3.185,1.251a12.043,12.043,0,0,1,3.45.683l8.493-.69s8.757,1.129,13.535,2.905-1.593,9.39-1.593,9.39-.531,4.757,1.326,4.491,4.777,0,5.915,1.858-1.138,2.654-1.138,2.654-3.715-1.327-2.838,0,1.246,4.777,2.042,6.767-5.573.664-7.43,0-1.858,2.786-4.247,3.94l-.531,5.216a11.694,11.694,0,0,0,2.124,4.777c1.592,1.858-1.593,4.247-1.593,4.247s3.185,9.022,4.512,11.411c.8,1.446,1.508.655,2.547-.135A3.6,3.6,0,0,1,386,79.086a2.906,2.906,0,0,1,2.838,2.653l4.778,2.389s2.919-2.389,4.777-3.716,2.918-5.307,3.45-7.165,3.715,0,3.715,0,4.511-7.962,5.573-10.481,4.247-.318,4.247-.318,1.592.714,2.388,0,1.592-2.205,3.981-3,0,0,1.327,2.389,9.288-2.654,15.658-7.34c1.736-1.277,2.7-2.042,3.192-2.479h5.83l13.535-3.554s3.716-.163,4.512-.228,3.185-1.262,1.061-4.446c-1.361-2.041-1.958-1.356-2.422-.672-.259.384-.477.767-.762.672-.8-.266-.8-1.327,1.327-3.907s6.1,3.907,6.1,3.907,2.653,0,3.45-1.061-3.184-5.009-3.184-5.009a61.756,61.756,0,0,0-6.9-1.99c-1.326-.1,4.777-2.29,8.493-2.2s7.961-2.2,7.961-2.2,3.981-6.125,4.512-7.2-1.592-2.378.53-2.83a4.389,4.389,0,0,0,2.92-2.63,6.883,6.883,0,0,0-4.246-2.019c-2.388-.059,2.123-1,2.389-2.431s7.43-2.4,7.43-2.4S505.613,8.227,506.939,7.9s3.716-1,3.716-1.262-.8-2.124-4.511-2.655-5.308,0-5.308,0l-6.9.531a46.035,46.035,0,0,1-6.1.8c-3.715.265,2.389-2.654,2.389-2.654L477.747,0Z" fill="#fdd66c"/>
    </clipPath>
    <clipPath id="clip-path-21">
      <path id="패스_2166" data-name="패스 2166" d="M463.706,60.774l-1.883.8,7.166,1.858-2.124,2.919.267,1.592v3.186L471.642,69l3.185,2.124h2.92l2.389-2.656,4.511-2.388,6.37-1.326,2.653-3.185-4.246-1.46H481.2l-3.185,1.46-1.858-1.46-2.92,1.46h-1.325l-3.185-2.919Z" fill="url(#linear-gradient)"/>
    </clipPath>
    <clipPath id="clip-path-22">
      <path id="패스_2167" data-name="패스 2167" d="M204.132,248.4l-6.1,1.327-2.389,5.042s5.839-2.919,6.9-4.246,3.716,1.592,5.308,3.185c.985.986,2.378.65,3.974.313a10.467,10.467,0,0,1,3.132-.313c2.86.265,2.448,2.086,2.448,2.086a37.5,37.5,0,0,0,5.573,4.283c2.389,1.327-1.327,3.185.531,3.045a5.689,5.689,0,0,1,1.263.022,7.194,7.194,0,0,0,2.983-.338,5.489,5.489,0,0,1,3.069.067,2.948,2.948,0,0,0,2.5-.067c2.123-.985,0-2.2,0-2.2l-6.369-3.98-4.246-3.185-5.308-1.859-8.493-3.184Z" fill="url(#linear-gradient)"/>
    </clipPath>
    <clipPath id="clip-path-23">
      <path id="패스_2168" data-name="패스 2168" d="M244.205,264.326l-6.959-1.133s2.978,3.257,2.978,4.849-2.654,1.592-2.654,1.592h-3.3l11.339,2.654V270.43l4.967-.8a14.121,14.121,0,0,0,5.839-1.327c2.388-1.326-3.981-3.185-4.777-2.381s-3.716-.007-3.981-2.733c-.069-.712-.337-.975-.7-.975-1.015,0-2.754,2.108-2.754,2.108" fill="url(#linear-gradient)"/>
    </clipPath>
    <clipPath id="clip-path-24">
      <path id="패스_2169" data-name="패스 2169" d="M264.623,269.65l-1.791-.248-1.244,1.293.9,1.294,1.144-.6,2.04.6,1.344-1.493-1.045-1.094Z" fill="url(#linear-gradient)"/>
    </clipPath>
    <clipPath id="clip-path-25">
      <path id="패스_2170" data-name="패스 2170" d="M277.577,271.293c-.141.1-.122.574,0,.7.1.1.4.043.531,0s.487-.2.464-.348c-.031-.2-.492-.4-.794-.4a.356.356,0,0,0-.2.048" fill="url(#linear-gradient)"/>
    </clipPath>
    <clipPath id="clip-path-26">
      <path id="패스_2171" data-name="패스 2171" d="M278.075,275.34h.5a2.422,2.422,0,0,0,.4-.5c.042-.117.117-.452,0-.5a.138.138,0,0,0-.05-.009c-.32,0-.845,1-.845,1" fill="url(#linear-gradient)"/>
    </clipPath>
    <clipPath id="clip-path-27">
      <path id="패스_2172" data-name="패스 2172" d="M280.762,274.842c0,.183.531.5.531.5s.229-.9,0-.995a.114.114,0,0,0-.046-.009c-.18,0-.485.34-.485.506" fill="url(#linear-gradient)"/>
    </clipPath>
    <clipPath id="clip-path-28">
      <path id="패스_2173" data-name="패스 2173" d="M92.646,39.915c-.984.984-.932,1.864-3.934,1.864s-5.071-.208-5.071-.208l-4.348-.31-4.037.724L71.53,43.539,67.287,45.3,61.7,46.9l-3.933,1.187-4.347.725-4.14.621-1.76,1.139,1.241,1.656L50,54.2l-.621,1.45h2.691l1.035,2.069-.621.828-3.208.932L45.758,60H43.894l-1.553-.931-.724-1.45-4.865,1.863L29.2,60l-1.553,1.241V63l-.518,2.691,1.966,1.346,1.243-1.346h6.624l2.588-1.035H41.41l2.277.518s1.552.1-1.553,1.553l-3.1,1.448-3.208,1.76H33.647l-3.415.621-2.588,1.76s-3.415-.725-4.761,0-7.453,4.761-7.453,4.761-2.69-1.449-3.622,0a11.5,11.5,0,0,0-1.243,3.933s-3.519,1.139-2.794,2.381-1.449,2.38,1.552,2.38,3.417-1.656,4.658-1.035-.932,3.1-.932,3.1-2.07.311-1.966,1.242,4.657,0,4.657,0l3.313.414,2.277.621h2.277L6.322,98.086l-4.554,2.9-1.76,1.242s-.31,1.242,3,0S36.959,88.77,36.959,88.77l.311-1.242,18.32-8.177s3.209-1.345,2.382-.517-5.28,3-5.487,3.519-6.832,4.347-6.624,4.864,10.971-2.173,10.971-2.173,2.795.414,3.312-1.656.207-2.9,1.76-3.209,5.486-2.173,6.211-1.242.1,2.691.931,2.691,3.105.414,3.519.932a3.036,3.036,0,0,0,2.9.414c.931-.414,2.9.724,3.725.724a61.287,61.287,0,0,1,6,1.553s1.967-.828,1.863,0-.517,2.173.207,2.794,1.346,2.9,2.381,3.21a2.268,2.268,0,0,0,1.384-.148,1.806,1.806,0,0,1,1.514-.06c.932.517,1.449,2.587,1.449,3.208s-2.484,1.656-1.967,2.071a20.578,20.578,0,0,1,1.553,1.553s2.277,3,1.552,3.519-2.587.9-1.759,1.38,2.071,1.207,2.173,2.347a1.321,1.321,0,0,1-.137.623l1.859-.787,4.246-1.725a42.214,42.214,0,0,1-2.654-5.706c-.8-2.389,1.46-6.634,1.991-7.829a5.529,5.529,0,0,0-.664-4.246c-.531-.531-2.919,2.122-2.919,2.122l-4.91.8-1.062-4.113-3.848-2.123,36.624-29.724,5.912-6.013-2.454-2.862-4.347-.105-2.795.621-4.762-.621-4.76-.551-4.037-1.519-2.691.828-3.209-.828-3.312-.724a13.239,13.239,0,0,0-3.937-1.03,1.448,1.448,0,0,0-1.031.305" fill="#fbdc87"/>
    </clipPath>
    <clipPath id="clip-path-29">
      <path id="패스_2174" data-name="패스 2174" d="M196.785,132.031l-90.762.4-8.758,4.777H92.288a7.17,7.17,0,0,1-1.506,2.9c-1.966,2.278-1.656,5.175-2.9,6.314s-9,10.765-9,10.765l-1.554,2.173-1.552,2.276-1.553,4.555s-4.14,4.037-3.829,5.382-.725,2.484-.725,3.312.414,4.347.414,4.347l1.863,2.278a19.413,19.413,0,0,0-.621,3.933c.1,1.035-1.138,2.277-.724,3a19.945,19.945,0,0,1,.828,4.968c0,.828-.621,2.587.931,3s3.727.1,4.347.931a17.378,17.378,0,0,0,2.8,3.106c.413.1,1.759,4.45,1.759,4.45l.2,2.062,3.865-.891,3.184-.4,5.971,1.592,5.573,5.175h3.583l5.972-.8,6.767-.4s1.194-2.388,2.786-2.388,6.768,7.563,6.768,7.563l.4,3.583,3.184.8,3.583-1.99,3.583,1.194s.8,2.786,1.194,4.777,5.175,6.37,5.175,6.37,1.991-1.2,3.185,2.786a7.365,7.365,0,0,0,1.335,2.5l.457-1,.621-4.348s-.414-3.932,1.967-4.45,6.417-3.415,5.071-3.313,5.175-3.1,5.175-3.1l3.416-2.173,3.416-.518s.725,1.346,3.416,1.242,4.657,0,4.657,0,.414,1.76,1.449,1.242a7.466,7.466,0,0,1,3.519-.517c.725.1,2.588.311,2.588.311l-.724-1.967s-4.658-1.656-2.587-1.863a34.026,34.026,0,0,1,5.588.207s.621,1.242,1.967.1.1-3,1.76-2.173,2.794,1.759,4.14,1.035,4.657.931,4.657.931-.207,1.863.829,1.967a20.223,20.223,0,0,0,4.347-.932l2.277,1.139s1.76,1.45,1.863,2.587-1.242,2.484-.828,4.658,1.553,8.177,1.553,8.177,1.966,3.623,2.795,4.037,4.554-3.1,4.554-3.1a9.6,9.6,0,0,0,.1-9.109c-2.484-5.175-1.035-12.834-1.035-12.834l4.244-5.383s4.657-2.691,5.485-3.623,3.624-4.243,4.555-4.14,3.209-1.346,4.037-2.277c.326-.367,1.105-.251,1.965-.135,1.32.178,2.834.357,3.21-1.21.622-2.589.931-3.933,1.552-4.244s3.106-.932,3.106-2.9.413-14.7,1.553-12.523-.312,5.382,1.344,4.347,2.485-7.35,3.727-6.418,2.588,0,3.209-1.035,1.759-.621,1.966-1.76-.517-2.38.828-2.691a35.341,35.341,0,0,0,4.451-1.759l4.658-1.863,3.725.517,3.83-3.312s-1.862-2.174-.31-3.726,5.59-4.555,5.59-4.555,3.207.622,3.207-.414,1.864-2.173,1.864-2.173l2.9.31,3.624-2.69,1.839-.647v-.012l-1.592-8.359-5.175,1.989-7.166,7.564h-7.961l-9.156-.4L256.5,155.12s-1.521,2.7-2.387,3.184c-1.743.982-5.972.6-7.963.8a19.288,19.288,0,0,0-3.98.4c-2.107.843-4.957,5.052-7.165,5.574-1.977.465-7.186.283-7.963-1.593-.96-2.32,6.411-5.992,5.574-8.359-.557-1.574-6.009-.362-6.369-1.991-.32-1.445,4.98-2.63,4.378-3.981-.407-.914-3.031.083-3.98.4a31.192,31.192,0,0,0-3.981,2.389c-1.083.619-3.663,1.368-4.38,2.388-.751,1.071-.065,4.088-.8,5.175-1.295,1.927-6.079,6.134-7.962,4.777-1.489-1.072,1.134-5.389,1.593-7.165.44-1.709.869-5.406,1.989-6.767,1.783-2.166,7.4-4.024,9.953-5.176,1.263-.569,5.428-.627,5.175-1.99-.139-.742-1.535-.492-2.844-.242a8,8,0,0,1-1.934.242c-1.726-.2-5.06-1.266-6.767-1.592-2.668-.512-10.747-1.592-10.747-1.592s10.7-.131,10.35-2.787c-.21-1.579-4.8-.255-6.37,0-.932.15-2.7,1.531-3.583,1.194-2.248-.859-4.777-8.36-4.777-8.36Z" fill="url(#linear-gradient)"/>
    </clipPath>
    <clipPath id="clip-path-30">
      <path id="패스_2175" data-name="패스 2175" d="M176.748,272.156l-2.521,1.326-.132-.037v.568l-.531,4.246,1.829.915,1.61-1.609.517-4.14,1.647-2.529-.3-.068Z" fill="url(#linear-gradient)"/>
    </clipPath>
    <clipPath id="clip-path-31">
      <path id="패스_2176" data-name="패스 2176" d="M85.323,206.074l-3.865.891.63,6.53s-.415,4.14.517,5.278,3.52,3.312,3.52,4.244.207,3.415-1.553,3.623-2.277,2.069-1.656,2.587,1.449,1.967,2.07,2.381,1.967,2.381,2.174,1.863,1.138-2.174,1.966-.724,1.967,3.312,1.242,4.347-1.138,3.208-.207,3.726,2.795.725,3.1,1.553,2.381,3,2.484,4.036,2.174,2.484,1.967,1.035-.828-5.382-.828-5.382l-1.863-.828-.62-4.243-.932-1.243-1.657-6.831L90.161,225.5s.414-3.623-.828-4.347a4.339,4.339,0,0,1-2.07-2.691c-.1-.725-1.552-6-.31-6.728a2.09,2.09,0,0,0,.931-2.174s1.035-.413,1.449,0a2.411,2.411,0,0,0,2.277.518c.828-.31,1.864-1.346,1.967.206s1.138,3.623.829,4.452a33.786,33.786,0,0,0-.312,5.175l2.484,4.761,2.278,2.692,1.346,3.518,1.966,3.52-1.035,2.38,3.519,2.691,4.451,5.589,3.312,5.9.517,4.348L112,258.623a2.893,2.893,0,0,0-.414,3.416c1.139,1.759.621,3.105,1.863,3.415s1.656-.1,2.9,1.242,2.9,3.726,4.244,3.726a4.984,4.984,0,0,1,2.588.932l4.968,4.036,13.249,4.866a5.89,5.89,0,0,0,6.313,0c3.415-2.071,4.037-.414,4.037-.414l2.691,1.334,4.761,4.772a5.316,5.316,0,0,0,1.875,1.987l2.139-4.766s1.46-1.327,2.256-1.327a20.125,20.125,0,0,0,3.582-1.062l-.53-1.857s-2.52-1.859-2.52-2.389.132-2.521.132-2.521l1.326-1.857h2.123l4.513,1.289.132.037,2.521-1.326,2.123-1.328.3.068,1.252-1.923,2.483-6.934v-2.8l2.484-2.794s.518-3-5.8-2.069-8.073,2.379-8.694,3.207-.725,1.449-1.242,4.14-1.035,3.727-2.484,5.176-2.277,2.07-3.934,1.863-6.313-.828-7.245.1-3.209,1.243-3.83-.207-2.587-.725-3.519-1.449-3.208-4.968-3.208-4.968l-1.656-5.9.62-1.965-.413-3.831.724-7.866,2.855-6.246a7.365,7.365,0,0,1-1.335-2.5c-1.194-3.981-3.185-2.786-3.185-2.786s-4.777-4.38-5.175-6.37-1.194-4.777-1.194-4.777l-3.583-1.194-3.583,1.99-3.184-.8-.4-3.583s-5.175-7.563-6.768-7.563-2.786,2.388-2.786,2.388l-6.767.4-5.972.8h-3.583l-5.573-5.175-5.971-1.592Z" fill="url(#linear-gradient)"/>
    </clipPath>
    <clipPath id="clip-path-32">
      <path id="패스_2177" data-name="패스 2177" d="M167.459,272.156l-1.326,1.857S166,276,166,276.534s2.52,2.389,2.52,2.389l.53,1.857a20.125,20.125,0,0,1-3.582,1.062c-.8,0-2.256,1.327-2.256,1.327l-2.139,4.766a6.561,6.561,0,0,0,1.128.6,3.919,3.919,0,0,0,3.621,0l2.071.414s-.8.162-.428,1.045l5.036-2.712.8-2.786,4.353-3.1h-.028a6.851,6.851,0,0,1-3-1.449l.771-.771-1.829-.915.531-4.246v-.568l-4.513-1.289Z" fill="url(#linear-gradient)"/>
    </clipPath>
    <clipPath id="clip-path-33">
      <path id="패스_2178" data-name="패스 2178" d="M174.1,273.445l-4.513-1.289Z" fill="url(#linear-gradient)"/>
    </clipPath>
    <clipPath id="clip-path-34">
      <path id="패스_2179" data-name="패스 2179" d="M172.5,287.283l-5.036,2.712a2.421,2.421,0,0,0,.221.4c.828,1.243,4.038,1.656,4.038,1.656l4.656.931a1.554,1.554,0,0,1,1.863.725,7,7,0,0,0,1.2,2.046c-.487-1.756-1.649-5.8-2.168-6.219-.664-.531-1.327.664-1.858.929s-.53-2.786-.53-2.786l-2.146-1.247Z" fill="url(#linear-gradient)"/>
    </clipPath>
    <clipPath id="clip-path-35">
      <path id="패스_2180" data-name="패스 2180" d="M183.006,280.877a26.574,26.574,0,0,1-5.354.518l-4.353,3.1-.554,1.937,2.146,1.247s0,3.052.53,2.786,1.194-1.46,1.858-.929c.519.414,1.681,4.463,2.168,6.219a1.057,1.057,0,0,0,.186.124l.963-2.893,1.725-1.592,1.858-1.593,3.185-1.459,1.326-2.522,3.319-.131,3.627-.075c.537-.434,1.431-1.372-.21-1.841-2.173-.621-2.484-3.312-4.037-3.416-.119-.008-.27-.011-.446-.011-2.116,0-7.937.529-7.937.529" fill="url(#linear-gradient)"/>
    </clipPath>
    <clipPath id="clip-path-36">
      <path id="패스_2181" data-name="패스 2181" d="M192.009,285.691l-3.319.131-1.326,2.522-3.185,1.459-1.858,1.593-1.725,1.592-.963,2.893a.59.59,0,0,0,.475.108c.725-.207,1.345,2.9,1.345,2.9s1.139,2.382,1.656,1.864,2.174-1.967,2.174-1.967l2.794,2.589.15.743,3.866,1.809c-.03-1.651-.036-5.206.436-6.383.62-1.552.472-6,.472-6l2.84-3.934-.519-1.759s.138-.088.314-.229Z" fill="url(#linear-gradient)"/>
    </clipPath>
    <clipPath id="clip-path-37">
      <path id="패스_2182" data-name="패스 2182" d="M185.076,302.406a13.426,13.426,0,0,0-.828,3.312l.414,2.381h2.173a15.918,15.918,0,0,0,2.485,1.76c.621.207,2.277.207,2.794,1.552s1.449,3.312,2.071,3.312a4.683,4.683,0,0,1,1.219.347,1.128,1.128,0,0,0,.054-1.78,3.169,3.169,0,0,1,1.336-2.564,48.708,48.708,0,0,1-4.68-5.939s-.012-.337-.021-.863l-3.866-1.809.161.808a7.669,7.669,0,0,0-2.6-.83.747.747,0,0,0-.709.313" fill="url(#linear-gradient)"/>
    </clipPath>
    <clipPath id="clip-path-38">
      <path id="패스_2183" data-name="패스 2183" d="M210.849,309.444a62.2,62.2,0,0,0-7.66,2.174s-3.622,1.656-5.9-.415c-.162-.147-.328-.309-.495-.477a3.169,3.169,0,0,0-1.336,2.564,1.128,1.128,0,0,1-.054,1.78,4.235,4.235,0,0,0,1.678.378c.828-.1,2.691-.621,3.106.62s1.241,3,2.277,3,2.9-.517,2.9-1.138-1.553-1.864-.518-2.691,1.449-2.04,2.588-2.417a13.807,13.807,0,0,1,4.037,0s.311,1.8,1.035,1.8,1.346.207,1.346.828-.932,2.173-.725,2.484c.118.177.6.954,1,1.594a11.562,11.562,0,0,0,2.828-1.857,3.2,3.2,0,0,0,.4-1.459l.071-1.5-1.5-1.888s-1.515-3.446-4.38-3.446a3.727,3.727,0,0,0-.692.066" fill="url(#linear-gradient)"/>
    </clipPath>
    <clipPath id="clip-path-39">
      <path id="패스_2184" data-name="패스 2184" d="M269.122,38.259l-2.07.207s-6.934,4.037-6.934,5.382.621,1.45,1.448,2.278a2.79,2.79,0,0,1,0,3.416c-.724.621-4.554,3-4.554,3l-4.968,1.967s2.071-1.863.828-2.381-5.589-.621-5.589-.621.206.932-.931.932-12.835.828-13.56.724-4.036-2.691-4.036-2.691a8.526,8.526,0,0,0-3.209-1.035,26.42,26.42,0,0,0-4.555.9H217.68L214.644,53.1l-1.933-1.381L207.468,53.1l-5.245,1.1h-2.484l-1.932-1.931,3.864-1.933-3.864-2.484h-5.52l-3.312-1.656-5.521-1.932-3.312,1.1-2.484-1.1s-2.622,3.726-4.416,1.932a8.424,8.424,0,0,1-2.209-3.312h-3.587l-2.209,2.484-4.968-2.484-6.625,3.036-8.107,1.035-4.969,1.587-4.968-2-2.692-.413-2.9.31-.03-.035-5.912,6.013L87.445,82.138l3.848,2.123,1.062,4.113,4.91-.8s2.388-2.653,2.919-2.122a5.529,5.529,0,0,1,.664,4.246c-.531,1.2-2.787,5.44-1.991,7.829a42.214,42.214,0,0,0,2.654,5.706l-4.246,1.725-1.859.787a6.866,6.866,0,0,1-1.829,2.068l-.931,3,.62,4.969-.207,1.863L91.4,120.029l.518,2.07,2.277.518,1.864,3,1.862.828,2.174,5.072-.414,2.588L97.1,131.518l-1.759-3.208L94.2,126.342l-2.381-1.035-2.484-.517-.724,2.38,1.138,2.071,4.037,4.865-1.242,1.035a7.268,7.268,0,0,1-.254,2.065h4.977l8.758-4.777,90.762-.4,4.777-1.991s2.529,7.5,4.777,8.36c.882.337,2.651-1.044,3.583-1.194a29.207,29.207,0,0,1,4.914-.756,29.923,29.923,0,0,1,7.3-2.191c2.8-.452,6.474.05,7.217,2.786.241.886.1,1.841.341,2.724s1.179,1.72,2.013,1.339a5.553,5.553,0,0,0-1.81,2.1l9.326-.216a3.55,3.55,0,0,0,.338,5.819,15.676,15.676,0,0,1,1.689.747c1.361.908,1.392,2.983.635,4.434a23.85,23.85,0,0,1-3.114,3.777c-1.04,1.266-1.827,2.984-1.248,4.514l1.171.051a13.656,13.656,0,0,1,3.474-2.838,19.288,19.288,0,0,1,3.98-.4c1.991-.2,6.22.186,7.963-.8.866-.489,2.387-3.184,2.387-3.184l3.185-5.972,9.156.4H276.8l7.166-7.564,5.175-1.989,1.592,8.359v.012l7.889-2.769.311,1.967-4.036,2.07s-4.244,4.036-3.727,4.76a3.441,3.441,0,0,0,1.656,1.036L298,150.046a18.324,18.324,0,0,0,3.726.414c1.966,0,8.7-3.519,8.7-3.519l-5.8-1.346L300.9,142.9l.414-2.9-1.656-.621s4.657-3.208,1.966-3.208,5.279-1.863,3.519-4.037a7.721,7.721,0,0,0-4.968-2.381l-4.45,1.036-4.659,2.173-8.9,3.933,5.279-3.622,4.141-3.83,4.346-1.138,2.174-2.589,19.563.518,5.9-1.138,6.21-4.244,6.417-.725-2.9,3.83-3,3.105-9.109,10.661,5.278.621,3.21-.621s2.277.518,2.277-.1.517-1.449,1.345-.828-.414,1.345.932,1.449a2.043,2.043,0,0,0,1.325-.471c.568-.4.928-.806,1.056-.047.206,1.243-3.106,2.277-1.036,2.277a26.615,26.615,0,0,1,4.555.518s3.312-2.588,3-2.9a1.274,1.274,0,0,0-.828-.414c-.414-.1-1.656-1.035-1.449-1.967s2.484-3.83,1.76-3.83,2.484-1.656,1.449-2.484-4.555.1-4.555.1-2.587,2.381-2.9,1.553-1.139-2.381-1.139-2.381l-.1-1.551-.724-.725,2.8-1.967.31-1.863.931-1.449-.31-1.76s2.07-.1,2.173-1.345,1.139-4.14.932-4.865-1.76-1.346-2.691-2.38.518-3.21-.207-3.416a25.607,25.607,0,0,1-4.347-1.553,11.82,11.82,0,0,1-3.726-3.623l-.725-3s1.863-1.14.518-3.52-3.519-11.8-3.519-11.8l-7.039,5.9a2.2,2.2,0,0,0-2.174.518,2.667,2.667,0,0,1-2.587,1.346c-1.242-.1-4.347-1.864-4.347-1.864s-1.035-5.589-.519-5.9,2.589-1.967,2.589-1.967l-4.452-2.38-1.863-2.588L304,73.969,301.52,75l-2.9-.206-3-1.242-2.9-.311-2.484,1.45-1.759,3.312L285.269,80.7l1.242,2.794s-.517,2.691-2.38,3.416-4.658,1.449-4.658,2.588,1.449,2.276,1.967,3-.621,7.763-3.933,8.488-11.7,5.382-11.7,5.382a10.279,10.279,0,0,0-.414,2.587c0,1.243-1.345,2.175-1.552,3.727s0,2.174-.207,3.105-2.795,2.691-2.795,2.691-3-.414-3.83,1.242-3.829-1.138-3.829-1.138l-1.035-5.28,5.175-8.072-8.28-1.346-4.969-3.105-2.794-.518V98.914l-1.967-2.071-4.658-1.863-3.312,1.035s-1.035,1.139-1.346.931.1-3.311.1-3.311l1.243-3.934s-4.762,1.967-4.14,0,7.349-9.315,7.349-9.315L244.7,74.694l5.485-1.967s1.656.728,2.174.517c.851-.346,1.966-3.105,1.966-3.105l1.553.828,1.966-2.38,4.969-1.76,7.97-4.45,3.1-.828-4.554,6.727-1.966.828,1.966.725s-.828,3.415,1.346,1.759a72.841,72.841,0,0,1,8.073-4.554,11.328,11.328,0,0,1,1.657,1.242c1.242,1.035,5.692,1.449,4.968.621s-3.1-3-3.1-3,1.164-2.4-.518-2.8c-3.007-.7-4.45-4.14-4.45-4.14l3.933-.932,2.691-.207s1.345,2.38,3.208.931,6.21-4.036,6.21-4.036a4.673,4.673,0,0,0,1.035-2.484c-.1-1.035,7.764-4.244,4.969-5.486a24.488,24.488,0,0,0-5.175-1.656l-2.587-.415s-1.45,0-3.519,2.382-4.245,4.45-4.245,4.45-3.726,3.209-5.8,3.417-4.348-1.243-2.9-2.175,5.59-3.519,3.416-4.14a4.65,4.65,0,0,0-3.933.828s-.932,1.035-1.76.517,1.243-3.1.311-3.312-4.244-.62-3.105-1.448,2.587-.207,3.105-1.968-1.552-6.106-1.552-6.106Z" fill="#fdd66c"/>
    </clipPath>
  </defs>
  <g id="그룹_412" data-name="그룹 412" transform="translate(0 0.001)">
    <g id="그룹_337" data-name="그룹 337">
      <g id="그룹_336" data-name="그룹 336" clip-path="url(#clip-path-2)">
        <rect id="사각형_250" data-name="사각형 250" width="61.968" height="20.964" transform="translate(184.758 28.795)" fill="url(#linear-gradient)"/>
      </g>
    </g>
    <g id="그룹_339" data-name="그룹 339">
      <g id="그룹_338" data-name="그룹 338" clip-path="url(#clip-path-3)">
        <rect id="사각형_251" data-name="사각형 251" width="11.544" height="4.644" transform="translate(246.726 45.912)" fill="url(#linear-gradient)"/>
      </g>
    </g>
    <g id="그룹_341" data-name="그룹 341">
      <g id="그룹_340" data-name="그룹 340" clip-path="url(#clip-path-4)">
        <rect id="사각형_252" data-name="사각형 252" width="23.088" height="6.369" transform="translate(214.88 18.444)" fill="url(#linear-gradient)"/>
      </g>
    </g>
    <g id="그룹_343" data-name="그룹 343">
      <g id="그룹_342" data-name="그룹 342" clip-path="url(#clip-path-5)">
        <rect id="사각형_253" data-name="사각형 253" width="32.613" height="7.485" transform="translate(225.657 21.31)" fill="url(#linear-gradient)"/>
      </g>
    </g>
    <g id="그룹_345" data-name="그룹 345">
      <g id="그룹_344" data-name="그룹 344" clip-path="url(#clip-path-6)">
        <rect id="사각형_254" data-name="사각형 254" width="6.9" height="2.654" transform="translate(248.849 16.321)" fill="url(#linear-gradient)"/>
      </g>
    </g>
    <g id="그룹_347" data-name="그룹 347">
      <g id="그룹_346" data-name="그룹 346" clip-path="url(#clip-path-7)">
        <rect id="사각형_255" data-name="사각형 255" width="17.914" height="10.947" transform="translate(253.626 29.69)" fill="url(#linear-gradient)"/>
      </g>
    </g>
    <g id="그룹_349" data-name="그룹 349">
      <g id="그룹_348" data-name="그룹 348" clip-path="url(#clip-path-8)">
        <rect id="사각형_256" data-name="사각형 256" width="5.408" height="3.743" transform="translate(262.848 21.31)" fill="url(#linear-gradient)"/>
      </g>
    </g>
    <g id="그룹_351" data-name="그룹 351">
      <g id="그룹_350" data-name="그룹 350" clip-path="url(#clip-path-9)">
        <rect id="사각형_257" data-name="사각형 257" width="11.843" height="5.66" transform="translate(269.848 21.31)" fill="url(#linear-gradient)"/>
      </g>
    </g>
    <g id="그룹_353" data-name="그룹 353">
      <g id="그룹_352" data-name="그룹 352" clip-path="url(#clip-path-10)">
        <rect id="사각형_258" data-name="사각형 258" width="10.152" height="5.781" transform="translate(275.62 11.834)" fill="url(#linear-gradient)"/>
      </g>
    </g>
    <g id="그룹_355" data-name="그룹 355">
      <g id="그룹_354" data-name="그룹 354" clip-path="url(#clip-path-11)">
        <rect id="사각형_259" data-name="사각형 259" width="7.365" height="4.449" transform="translate(290.051 14.231)" fill="url(#linear-gradient)"/>
      </g>
    </g>
    <g id="그룹_357" data-name="그룹 357">
      <g id="그룹_356" data-name="그룹 356" clip-path="url(#clip-path-12)">
        <rect id="사각형_260" data-name="사각형 260" width="7.763" height="2.487" transform="translate(286.07 20.004)" fill="url(#linear-gradient)"/>
      </g>
    </g>
    <g id="그룹_359" data-name="그룹 359">
      <g id="그룹_358" data-name="그룹 358" clip-path="url(#clip-path-13)">
        <rect id="사각형_261" data-name="사각형 261" width="7.365" height="3.742" transform="translate(280.099 25.053)" fill="url(#linear-gradient)"/>
      </g>
    </g>
    <g id="그룹_361" data-name="그룹 361">
      <g id="그룹_360" data-name="그룹 360" clip-path="url(#clip-path-14)">
        <rect id="사각형_262" data-name="사각형 262" width="18.61" height="8.731" transform="translate(271.64 29.484)" fill="url(#linear-gradient)"/>
      </g>
    </g>
    <g id="그룹_363" data-name="그룹 363">
      <g id="그룹_362" data-name="그룹 362" clip-path="url(#clip-path-15)">
        <rect id="사각형_263" data-name="사각형 263" width="69.764" height="46.587" transform="translate(281.89 31.337)" fill="url(#linear-gradient)"/>
      </g>
    </g>
    <g id="그룹_365" data-name="그룹 365">
      <g id="그룹_364" data-name="그룹 364" clip-path="url(#clip-path-16)">
        <rect id="사각형_264" data-name="사각형 264" width="30.919" height="8.414" transform="translate(291.311 21.31)" fill="url(#linear-gradient)"/>
      </g>
    </g>
    <g id="그룹_367" data-name="그룹 367">
      <g id="그룹_366" data-name="그룹 366" clip-path="url(#clip-path-17)">
        <rect id="사각형_265" data-name="사각형 265" width="8.89" height="4.663" transform="translate(317.718 31.337)" fill="url(#linear-gradient)"/>
      </g>
    </g>
    <g id="그룹_369" data-name="그룹 369">
      <g id="그룹_368" data-name="그룹 368" clip-path="url(#clip-path-18)">
        <rect id="사각형_266" data-name="사각형 266" width="22.161" height="9.288" transform="translate(302.855 6.635)" fill="url(#linear-gradient)"/>
      </g>
    </g>
    <g id="그룹_371" data-name="그룹 371">
      <g id="그룹_370" data-name="그룹 370" clip-path="url(#clip-path-19)">
        <rect id="사각형_267" data-name="사각형 267" width="86.781" height="21.37" transform="translate(304.714 1.188)" fill="url(#linear-gradient)"/>
      </g>
    </g>
    <g id="그룹_373" data-name="그룹 373">
      <g id="그룹_372" data-name="그룹 372" clip-path="url(#clip-path-20)">
        <rect id="사각형_268" data-name="사각형 268" width="156.579" height="84.129" transform="translate(354.076 -0.001)" fill="#fdd66c"/>
      </g>
    </g>
    <g id="그룹_375" data-name="그룹 375">
      <g id="그룹_374" data-name="그룹 374" clip-path="url(#clip-path-21)">
        <rect id="사각형_269" data-name="사각형 269" width="31.847" height="12.474" transform="translate(461.823 58.651)" fill="url(#linear-gradient)"/>
      </g>
    </g>
    <g id="그룹_377" data-name="그룹 377">
      <g id="그룹_376" data-name="그룹 376" clip-path="url(#clip-path-22)">
        <rect id="사각형_270" data-name="사각형 270" width="39.808" height="14.926" transform="translate(195.639 248.403)" fill="url(#linear-gradient)"/>
      </g>
    </g>
    <g id="그룹_379" data-name="그룹 379">
      <g id="그룹_378" data-name="그룹 378" clip-path="url(#clip-path-23)">
        <rect id="사각형_271" data-name="사각형 271" width="24.533" height="10.07" transform="translate(234.268 262.218)" fill="url(#linear-gradient)"/>
      </g>
    </g>
    <g id="그룹_381" data-name="그룹 381">
      <g id="그룹_380" data-name="그룹 380" clip-path="url(#clip-path-24)">
        <rect id="사각형_272" data-name="사각형 272" width="5.424" height="2.587" transform="translate(261.588 269.402)" fill="url(#linear-gradient)"/>
      </g>
    </g>
    <g id="그룹_383" data-name="그룹 383">
      <g id="그룹_382" data-name="그룹 382" clip-path="url(#clip-path-25)">
        <rect id="사각형_273" data-name="사각형 273" width="1.159" height="0.839" transform="translate(277.436 271.245)" fill="url(#linear-gradient)"/>
      </g>
    </g>
    <g id="그룹_385" data-name="그룹 385">
      <g id="그룹_384" data-name="그룹 384" clip-path="url(#clip-path-26)">
        <rect id="사각형_274" data-name="사각형 274" width="1.012" height="1.004" transform="translate(278.075 274.336)" fill="url(#linear-gradient)"/>
      </g>
    </g>
    <g id="그룹_387" data-name="그룹 387">
      <g id="그룹_386" data-name="그룹 386" clip-path="url(#clip-path-27)">
        <rect id="사각형_275" data-name="사각형 275" width="0.76" height="1.004" transform="translate(280.762 274.336)" fill="url(#linear-gradient)"/>
      </g>
    </g>
    <g id="그룹_389" data-name="그룹 389">
      <g id="그룹_388" data-name="그룹 388" clip-path="url(#clip-path-28)">
        <rect id="사각형_276" data-name="사각형 276" width="130.283" height="66.138" transform="translate(-0.302 39.61)" fill="#fbdc87"/>
      </g>
    </g>
    <g id="그룹_391" data-name="그룹 391">
      <g id="그룹_390" data-name="그룹 390" clip-path="url(#clip-path-29)">
        <rect id="사각형_277" data-name="사각형 277" width="221.065" height="108.088" transform="translate(69.667 130.04)" fill="url(#linear-gradient)"/>
      </g>
    </g>
    <g id="그룹_393" data-name="그룹 393">
      <g id="그룹_392" data-name="그룹 392" clip-path="url(#clip-path-30)">
        <rect id="사각형_278" data-name="사각형 278" width="5.603" height="8.346" transform="translate(173.564 270.828)" fill="url(#linear-gradient)"/>
      </g>
    </g>
    <g id="그룹_395" data-name="그룹 395">
      <g id="그룹_394" data-name="그룹 394" clip-path="url(#clip-path-31)">
        <rect id="사각형_279" data-name="사각형 279" width="104.446" height="82.259" transform="translate(81.458 205.676)" fill="url(#linear-gradient)"/>
      </g>
    </g>
    <g id="그룹_397" data-name="그룹 397">
      <g id="그룹_396" data-name="그룹 396" clip-path="url(#clip-path-32)">
        <rect id="사각형_280" data-name="사각형 280" width="16.578" height="17.839" transform="translate(161.074 272.156)" fill="url(#linear-gradient)"/>
      </g>
    </g>
    <g id="그룹_399" data-name="그룹 399">
      <g id="그룹_398" data-name="그룹 398" clip-path="url(#clip-path-33)">
        <rect id="사각형_281" data-name="사각형 281" width="4.513" height="1.289" transform="translate(169.582 272.156)" fill="url(#linear-gradient)"/>
      </g>
    </g>
    <g id="그룹_401" data-name="그룹 401">
      <g id="그룹_400" data-name="그룹 400" clip-path="url(#clip-path-34)">
        <rect id="사각형_282" data-name="사각형 282" width="11.981" height="9.323" transform="translate(167.466 286.434)" fill="url(#linear-gradient)"/>
      </g>
    </g>
    <g id="그룹_403" data-name="그룹 403">
      <g id="그룹_402" data-name="그룹 402" clip-path="url(#clip-path-35)">
        <rect id="사각형_283" data-name="사각형 283" width="24.322" height="15.533" transform="translate(172.745 280.348)" fill="url(#linear-gradient)"/>
      </g>
    </g>
    <g id="그룹_405" data-name="그룹 405">
      <g id="그룹_404" data-name="그룹 404" clip-path="url(#clip-path-36)">
        <rect id="사각형_284" data-name="사각형 284" width="16.208" height="18.308" transform="translate(179.633 285.616)" fill="url(#linear-gradient)"/>
      </g>
    </g>
    <g id="그룹_407" data-name="그룹 407">
      <g id="그룹_406" data-name="그룹 406" clip-path="url(#clip-path-37)">
        <rect id="사각형_285" data-name="사각형 285" width="12.546" height="12.977" transform="translate(184.248 302.093)" fill="url(#linear-gradient)"/>
      </g>
    </g>
    <g id="그룹_409" data-name="그룹 409">
      <g id="그룹_408" data-name="그룹 408" clip-path="url(#clip-path-38)">
        <rect id="사각형_286" data-name="사각형 286" width="22.105" height="10.148" transform="translate(195.319 309.378)" fill="url(#linear-gradient)"/>
      </g>
    </g>
    <g id="그룹_411" data-name="그룹 411">
      <g id="그룹_410" data-name="그룹 410" clip-path="url(#clip-path-39)">
        <rect id="사각형_287" data-name="사각형 287" width="257.651" height="125.215" transform="translate(87.445 37.121)" fill="#fdd66c"/>
      </g>
    </g>
  </g>
</svg>
