<svg xmlns="http://www.w3.org/2000/svg" width="83.35" height="75.094" viewBox="0 0 83.35 75.094">
  <path id="패스_1614" data-name="패스 1614" d="M-709.387,746.31c3.427-3.6,10.719-3.643,11.56-8.536.676-3.935-3.872-6.892-4.517-10.833a5.973,5.973,0,0,1,2.708-5.912c1.792-1.1,4.641-2.853,3.155-4.34a4.32,4.32,0,0,0-1.745-.733c-2.487-.869-3.26-4.142-2.624-6.7s2.232-4.774,3.045-7.281a13.373,13.373,0,0,0,.421-1.7l-1.114-.353-1.4-.771h-1.054v1.05l1.683.7.141,1.192h-.351l-2.1-.913h-1.4l-.491-1.192-1.192-.77.666-1.019-.457-.455-3.805-1.39,3.735.477,1.474.841,4.419.35,1.514-.9a25.306,25.306,0,0,0-.175-2.678l-4.214-1.751-5.263-1.4-2.664-.7-2.636-.376-.31-.045.491-1.192-1.474-.069-1.4-.282-1.052-.49h-1.613l-1.439.526-.525-.526h-2.245l-1.823.422-1.122,1.333-2.876.42-1.684-.42-1.333,1.051-2.738,1.956-.839,1.2-1.318,1.355-2.328,1.311-1.965,2.735-1.122,1.122-1.885,1.665-1.973.861L-746.9,704.2l-3.192,1.545-.6,1.683.421,2.945.772,2.664,1.8,1.352,1.5-.369,1.867-1,1.289-.842.789-.158.316-.974.975,1.192.1.177.839-.23.029,0,.42,2.757,1.736,1.92-.211,1.053.1,1.315.763.841.9.079.92-.157.132-.868,1.209-.526.948.237.421-.16.814-2.472-.026-1.025.158-1.5.711-.525,1.631-.843.342-.735.656-.712-.183-.894-.815-.761-1.263-.289-.133-1.052-.5-1.026-.026-.894.551-1.132.711-.526,1.289-.524,1.578-1.054,1.841-1.1.709-.789-.683-.657.763-.789,1.524-.921,1.052.08.514.219.223.044.815-.263,1.185.789-.317.868-1.551,1.342-1.658,1.1-1.946,1.341-.209,2.13.5.6.343.211-.054,1.894,1.263.6.763.816,2.131.078,1.394-.394,1.473-.448.894-.025.868-.343h1l.814.078.894-.223.16-.039.709.656.9.394s.145.083.182.1c-.009.044-.262.218-.262.218l-1.761.342v.526l-.08.473-.449.019-.6-.1-.657-.236-1.054.08-1.63-.316-1.209.1-.841.183-.474,1.395.894,1.025.394.422-.16.549-.312,1.24-.921.368-1.1-.578-.787-.763-1.526.683-.526,1.606.068.967-.122.27-.06.049.008.66-.052,1.1-1.342.683-.245.648-.07.3-.763-.184-1.026.472-.42-.737-.37-.1-.579.394-1.052-.077-1.92.525-1.368.63-1.342.106-.811.442-.057.032h-.369l-.394-.553-.211-.5-1.763-.554-.946.29-.868.474-1.078.289-.132-.658-.789-.211-.657-.131-.657-.578-.066-.281.144-.561-.343-.974.816-.762.237-1.025.237-1.185.421-.842-.343-.6-1.1.263-.947,1.051h-.526l-.658.527-.447,1.945-.315.58.552.737.026.63.472.448.041.166.092.386.132.657-.317.946-.6.684-.631-.42-1.237.052-.3.524-.064.239-1.158-.264-.894.316-1.42.974-.552-.263-.448,1.342-1.316,1.578-.711.4-.392.172-.317.16-.657.659-.317.025-1.183.4-.052.868-.789,1.1-.606.265-1.157.183-.158.578-1.525.289-.789-.578-.922-.078-.263.6.158,1.184-.711.394-1.368.026-.446-.4-.947.052-1.211.132-1.051.448.341.737.1.815.974-.106,1.894.737.973.683.053.239.42.867.315.158,1.159,2.155.1,2.028-.631,1.394-.052,1.13-.477.933-.1.172-1.5-.053-.815-.291-.947.263-.5-.4-1.289.158-1.263-.026-1.052-.315-1.578.106-1.157-.028-1.657-.21-.841.814-1.079.554.209.841.026,1.683-.236.263-.032.055.163,1.234-.263,2.1-1.026,1.946-.605,1.526.92.894.184,2.683.578.448.9-.106.63-.078.595-.163.038.03.631.106,1,.446.761.974.578.709.843-.29.816.054.709-.631.842.132,1.184-.291.946.131.632-.025.972-.29.921-1.131,1.42-.394.185-.763.761-1.368.684-.817-.474-.894-.026-.5,1.815-2.366.868-1.211,1.474-.289,1.394-.868,1.026-.843.394-.814.007-.334-.06-.455-.211-.869.4-.762.709-.685,1.132-.052,1.157.079,1.394.211,1.5.42.946-.6.86-1.111.034-.045.869.235,1.6-1.131,1.183.185.948.737.894,1.078.737,1.237.946.894,1.053.894.843.948,1.209.683.946.028.474.157.948,1.261h.6l.842.974,1.1.527.6.657.291,1.1.185,1.052-.711,1.209.5.789,1.052-.709.026-1.078.787-.5-.157-.946-.5-.606-.157-.631.761-1.054.5.264,1,.211.341.5.842.237-.026-.553-.237-.658-.657-.577-1.894-.947-1.631-.632-.526-1.026-.58-.289-1.287-.368-.9-.842-.894-.712-.578-1.314-.605-.711-.71-.552-.946-.6-.263-.974.368-.814-.157-.869h.656l.579-.026.289-.263.526-.263.131.342.185-.186.133-.131.446-.077.317.342-.054.657.422.028,1.263,1.05.842.448.6,1.289.42.1.763.711.422.026.946.263,1.185.972.737.736h.579l.841.763,1.052,1.158.315.683.159,1.394-.237,1.421,1.046,1.272.3.359.974,2.078.816.657.261.552.422.369.378,1.051.279.982.421.983,1-.25a16.021,16.021,0,0,1,.346-2.5l-1.064-.9h1.27a14.029,14.029,0,0,1,1.16-2.849l-.887-1.221.842-.981.982.421v-.7l1.4-.7.045.015a36.811,36.811,0,0,0,2.927-2.753C-710.974,748.59-710.347,747.313-709.387,746.31Z" transform="translate(779.416 -688.141)" fill="#f45a00"/>
</svg>
