<svg xmlns="http://www.w3.org/2000/svg" width="110.703" height="75.093" viewBox="0 0 110.703 75.093">
  <path id="패스_1632" data-name="패스 1632" d="M-600.417,695.583l.912.159-.849-.692-1.225-.378-1-.061-1.477-.189-1.193-.472-2.262-1.036h-2.3l-1.947-.5-2.953-.5-.974-.065-.912-.03-.848-.156-.031.408.6.345s.016-.423.472.032,0,.251,0,.251l-1.32-.251-1.383-.189-.723.032-.313-.221-2.734.127-1.351-.22-.88-.66-.6-.032-.534-.03-.691-.314-1.163.093-1.006.157-1.569-.063-1.384-.6-1.131-.187-1.037-.346-.943.188-.471-.314-.974.031-2.074-.187-1.006-.284-.439.566.439.44-.848.031h-1.288l-1.069.251-.754-.251-.753-.187.5,1.067-.817-.282-1.509-.754-.471-.724-1.759-.69-1.6.251-1.049-.472-.13.488-.235.236-1.759-.345h-1.258l-1.287-.062-.942-.379h-1.572l-.723-.157-.5.5-.691.188-1.053.268-.3-.3.848-.818.879-.469.535-.535-1.164-.566-1.571-.315-1.382.034-.911-.253-1.525-.235-.423-.426h-.661l-1.179.236-.236.236.315.5-1.382.189-.974-.189-.943.408h-.974a13.605,13.605,0,0,0-1.414.19,8.636,8.636,0,0,0-.88.376s-.68.153-.691.347c-.005.1.346.218.346.218s.6.127.219.5-.6,0-.6,0h-.943l-.943.189s-.674-.426-1.1,0,0,.471,0,.471h.251l.315.44s1.063.258,1.1.565c.009.072-.218.188-.218.188l-.88-.408-1.01-.1-.624.033-.6.314-.472-.032a3.3,3.3,0,0,0-.439-.5c-.1-.069-.371-.231-.472-.158s.076.426,0,.536c-.062.089-.354.06-.408.156-.066.117.094.533.094.533l.724.5v.565l.692.693h.69s.032-.158.6-.158-.127.41-.408.41-.425.424-.425.424l.613.612-.471,1.068-.755.408-.88-.219s-.5.157-.5-.282.659,0,.659,0l.722-.628v-.722l-.691-.724-.345-.911-.722-.943s-.569-.239-.644-.384c-.044-.085.188-.212.188-.307a1.956,1.956,0,0,0-.079-.629c-.075-.139-.5-.054-.644-.187-.177-.168-.864-.157-.864-.157s-.805.238-.91.472c-.041.087.094.376.094.376l-.251.6s-.324-.056-.408,0a.748.748,0,0,0-.253.6c.043.129.471.281.471.281l.377.818h.5l1.226.409s.283.44,0,.723a.352.352,0,0,1-.534,0l-3.3-1.414-1.792-.062s-.431.18-.44.314.44.408.44.408l-.251.314-.44-.093-.5-.377-.785.314-1.005.064-1.288.22-.6-.377-.88.407-1.164.5-1.036.1-.19.785h-1l-.66-.283-.032-.471.817-.441-.533-.408-1.572.062.283.566.063.66.566.786-.346-.189-1.256.189-.221.378-.345.031-.629.345.126.221.22.581h-.314l-.442-.141a5.966,5.966,0,0,1-.189.762c-.363,1.123-1.079,2.115-1.365,3.26s.062,2.611,1.176,3a1.94,1.94,0,0,1,.782.328c.666.666-.61,1.452-1.413,1.942a2.682,2.682,0,0,0-1.214,2.651c.29,1.765,2.327,3.089,2.024,4.851-.377,2.194-3.642,2.214-5.177,3.824-.43.45-.711,1.022-1.114,1.5a16.526,16.526,0,0,1-1.31,1.234l.67.244.755.187.007.024-.074.424-.059.057.189.942.439.5-.313.566.628.691.314.629.817-.25.5.5.755.314.629-.692.69.126.6.359.032.018.439.44,1.006-.127.5-.564.88.251.439-.251.045.951.017.37v.817l-.314.753-.274.625-.165.38-.563,1.757,0,0h-1.338l1.589,3.162.093.011v-.471l.127-.5.259-.141.149-.079-.1,1.194.346-.157.376.879,1.54,2.168.347,1.036,1,.692.6,2.2.6,1.131.753.345.283.6.66.974.158.6,1.161,1.6-.164.5-.054.165.314.723.377.848.377,1.319.723.283.817-.6.376-.156,1.006-.158.44-.535,1.1.064.659-.786,1.477-.377.817-.659.063-.755.762-.2.086.008.848-.347.88-.219.314-.661.659-.031.439-.817.693-.094.281-.44-.187-.378.1-.541.242-.213h.315l.156-.5.786-1.255-.188-.5-.566-.754-1.036-.564-.565.094-.472-.722-.5-.849-.282-.88-.282.472-.629.974-.41.439-1.1.127-1.058-.031-.324-.033-.26-.207.135-.295.126-.691-.221-.848-.44.189-.353.662-.086.123-.377-.722.093-.848-.471-.409-.785-.471-.378-.879-.03-.121-.378-.635.282-.627.127-.233.124-.269.69.125.5.157.817.975.033.181.47,1.043.566.158,1.067.816h.566l.88.409,1.036-.251.724-.189.564,1.162,1.447.44.37.016.32.016,1.728.283,1.666-.063.691-.126,1.571-.158.69.756.755.753.722.251.471.69.659.128.693.126-.158.376-.692.032-.313.251.627.438.785.818.379.283,1-.473.062-.629.189-.628.44.755-.158.471.282.408-.094.533.025.106.1.46.219.472.283,1.7.629,1.539.566,1.508.5.754.444,1.463.185.61.708,1.006.486,1.79.974.943.629-.535.88-.6.126-.911.533-.346-.282-1.352.534-1.257.063-1.037-.314-.941-.093-.913.533.127.346-.692.6-.095.127-.69,1.037-.441.376-.5.461-.551.67-.83,1.288-.974-.156-.692.377-.389.063-.02.5-.345.787-.126.974-.125.974-.408.471.031.251.659.3.628.107.222.911,1.194.094-.064.44.158,1.163,2.483-.252,1.35.817.063.5.252.535-.408.345-.314.377-.69.755,1.35.031.534.534,1.352.566,1.382.037,1.518-.1.587.221.911-.127.377-.061,1.067.282.346.345.094.535.565.605,1.109.117.213.5,1.319v.66l.6.66.1.753.6.566,1.256.722.346.158.219-.408-.409-.88-.408-2.481-.361-.908-.613-.256-.942-.784-.692-.22-.064-.943-.376-.406-.126-.787-.629-.251-.282-1.163.6-1.131.032-.723.062-1.256.723.031.064.88,1.006.031.506.48.091.086.282.471.315.378.062.564.471.064.333.545.012.018.724-.094.063.722.063.943.5-.221.345-.5.5-.221.221-.532v-.5l.535.156,1.037-.721.47-.5-.125-.88.283-.377-.5-1.069-.157-.975-1.477-2.073-.659-.659-.566-.724-.5-.44-.221-1.037.376-.755.158-.5.5-.41.443-.4.217-.2h.533l.558.324.2.115s.345,1,.816.88-.063-.441-.063-.974.314-.188,1.037-.188.5-.221.911-.19a.332.332,0,0,0,.377-.372l.314-.35.345.346a.639.639,0,0,0,.6-.253c.221-.314.252-.156.252-.156l1.54-.848.254-.222.72-.627.472-.692.471-.659.094-.816.472-1.509.345-.753.189-1.132s-.189-.566-.5-.629-.376.22-.628,0,.22-.251.6-.66-.158-.66-.5-1.257-.66-.534-.66-.534l-.755-1.131s-.533-.91-.754-.849-.785-.251-.911-.848.315-.5.566-.785a7.457,7.457,0,0,0,.6-.724.53.53,0,0,1,.6-.219s.219-.031-.032-.376-.755-.032-1.132-.315-.532,0-.816.439-.5.158-.974-.282-.063-.535-.379-.755-.784.063-.784.063l-.66-.566.125-.408.6-.063.5-.378-.063-.5.148-.046.481-.145.376-.627.533.03.314.534s-.126.471.126.566.188.095-.094.566.126.44.66.063.378-.629.849-.911a.69.69,0,0,1,.577-.071.906.906,0,0,1,.3.164,5.651,5.651,0,0,1,.974.629c.251.251-.094,1.069-.094,1.069l.659.471a1.477,1.477,0,0,1,.816-.189c.377.063.377.095.6.471s.19.284-.063.755.095.126.535.566-.126.283.031.88a2,2,0,0,0,.566.942A9.3,9.3,0,0,1-620.62,726c.534-.031.189-.66.189-.66a12.127,12.127,0,0,0-.974-1.852c-.378-.472-.472-.723-.787-.723s-.47-.6-1.068-.911-.408-.125-.5-.565,0-.282.6-.817.377-.315.441-.818a1.215,1.215,0,0,0-.127-.785,6.834,6.834,0,0,1,.4-.96c.015-.028.031-.06.047-.088a.9.9,0,0,1,.28-.334c.346-.189.6.313.6.313a1.442,1.442,0,0,0,1.193.316c.6-.188.473-.629.629-1.445a7,7,0,0,1,.691-1.918c.346-.754-.032-.6.158-1.728s.252-1-.032-1.884a2.752,2.752,0,0,0-1.195-1.374l-.188-.889-.5-.911-.691-.661-.5-.313-.88-.471a8.974,8.974,0,0,0-1.1-.158c-.5-.031,0,.282-.252.6s0,0-.565-.282,0,.315-.566.1-.156-.6-.629-.943-1.163.094-1.163.094l-.125-.345.787-1.163-.032-.722s.534-.314.471-.535a1.631,1.631,0,0,1,.158-.722l.187-.629.6-.189,1.193-.219,1.1.126.943-.094.628.252.1-.5,2.073.408.032.282.911.062s-.063.284.314-.125.188-.031.188-.031.943-.063,1.037-.315-.66-.376-.66-.376-.346-.5-.158-.661-.094-.347-.126-.942.408-.19.408-.19l.629.031s.629.189.943-.062.282,0,.5.408.251.377.408.251.125.063.472.283.188.094.376-.094.125-.313.283-.566.282-.062.378-.345-.409-.251-.692-.566.345-.315.629-.282.408.722.471,1,.126.189.409.284.345.282.157.754-.536-.283-.5.25,0,.692.033.974,0,0,.187.314-.03.472-.377.848-.659.1-.659.535.251.282.251.282l.032.785a4.2,4.2,0,0,1,.6.66c0,.1.723.661.723.661l1.225,1.006.722.974,1.195.91a11.28,11.28,0,0,0,1.13,1.038c.472.345.221-.031.379-.5s-.379-.785-.379-.785-.534-1.1,0-1.1,0-.314,0-.943.6-.063.6-.6a.582.582,0,0,0-.564-.566s-.661-.189-.661-.661.283-.281.283-.281-.063-.519-.235-.519-.55-.55-.927-.927-.533,0-.785,0-.566-.565-.566-.565a1.218,1.218,0,0,0-.282-.566c-.22-.219,0-.532,0-.532a1.89,1.89,0,0,1,.707-.143.384.384,0,0,0,.393-.392.7.7,0,0,1,.375.566c0,.377.535,0,.535,0l.221-.629.564.093.849.126.472.188.629-.345a2.183,2.183,0,0,0,.171-.8c0-.426.3-.3.3-.3l.6-.6a.841.841,0,0,1,.69-.346c.472,0,.253.25.253.25h.879s.347.158.347-.283-.472-.47-.472-.47l-.816-.346-.85-.314a1.7,1.7,0,0,1-.895-.392c-.33-.331.2-.2.2-.2l.408-.221a.779.779,0,0,0-.125-.691c-.252-.252.6,0,.6,0h1.192l.849.471,1.382.377.975.346.66-.031.125-.566-.613-.55Zm-96.688,33.3,0,.007v.007Zm2.138-5.233Zm4.534,8.237.042-.386Zm5.585,10.746h0l0-.02Zm17.655-18.792Zm13.3,12.013Zm8.536-2.955h0l.124-.027Zm7.855,5.326v0Z" transform="translate(710.208 -685.529)" fill="#224080"/>
</svg>
