<svg xmlns="http://www.w3.org/2000/svg" width="96.503" height="75.094" viewBox="0 0 96.503 75.094">
  <path id="패스_1605" data-name="패스 1605" d="M-932.589,755.329a6.568,6.568,0,0,0,.133-1.684l.8-1.1-.145-.494s.636-.406.028-.579-.7-.93-1.132-.958-2.35.145-2.35.145a7.375,7.375,0,0,1-1.508.145,1.928,1.928,0,0,1-.843-.407l.668-.667.146-1.161.813-1.247.7-1.943v-.785l.7-.781s.145-.841-1.625-.581-2.264.667-2.436.9-.2.406-.349,1.16a2.29,2.29,0,0,1-.7,1.45c-.406.408-.639.58-1.1.523s-1.77-.232-2.031.029-.9.347-1.074-.059-.726-.2-.986-.405a8.249,8.249,0,0,1-.9-1.392l-.464-1.656.174-.551-.117-1.073.2-2.207.928-2.031.174-1.218s-.117-1.1.552-1.248,1.8-.957,1.421-.928,1.45-.871,1.45-.871l.958-.608.958-.146s.2.376.958.349,1.305,0,1.305,0,.117.494.406.347a2.109,2.109,0,0,1,.986-.145c.2.028.726.087.726.087l-.2-.552s-1.305-.464-.726-.521a9.645,9.645,0,0,1,1.568.058s.174.349.552.029.028-.841.492-.61.783.494,1.161.291,1.306.26,1.306.26-.059.524.232.553a5.694,5.694,0,0,0,1.218-.263l.638.319s.494.408.523.726-.349.7-.232,1.306l.434,2.293a4.988,4.988,0,0,0,.784,1.131c.232.116,1.277-.87,1.277-.87a2.688,2.688,0,0,0,.028-2.554,6.92,6.92,0,0,1-.289-3.6l1.19-1.51a12.237,12.237,0,0,0,1.538-1.015c.232-.26,1.016-1.19,1.275-1.16a2.154,2.154,0,0,0,1.133-.638c.232-.261,1.277.348,1.45-.378s.262-1.1.436-1.189.871-.26.871-.813.115-4.12.434-3.51-.085,1.508.378,1.218.7-2.059,1.045-1.8a.623.623,0,0,0,.9-.291c.174-.29.494-.173.552-.492s-.145-.668.232-.755a9.983,9.983,0,0,0,1.247-.494l1.306-.522,1.044.145,1.075-.929s-.522-.608-.088-1.043,1.567-1.277,1.567-1.277.9.174.9-.116.522-.61.522-.61l.813.089,1.015-.755,2.727-.957.086.551-1.13.581s-1.19,1.132-1.045,1.334a.964.964,0,0,0,.464.29l1.45-1.507a5.214,5.214,0,0,0,1.045.114,10.942,10.942,0,0,0,2.437-.986l-1.624-.377-1.045-.754.116-.813-.465-.174s1.306-.9.552-.9,1.481-.522.987-1.132a2.17,2.17,0,0,0-1.393-.666l-1.248.29-1.306.61-2.494,1.1,1.479-1.017,1.161-1.071,1.219-.32.609-.725,5.483.144,1.654-.318,1.741-1.19,1.8-.2-.813,1.074-.841.871-2.554,2.988,1.479.175.9-.175s.638.145.638-.028.145-.408.377-.233-.117.378.261.406.609-.492.667-.145-.87.638-.29.638a7.382,7.382,0,0,1,1.276.147s.929-.727.842-.813a.35.35,0,0,0-.232-.117c-.116-.03-.464-.291-.406-.551s.7-1.074.493-1.074.7-.464.407-.7-1.277.03-1.277.03-.725.667-.813.436-.319-.668-.319-.668l-.029-.435-.2-.2.784-.551.087-.523.262-.4-.087-.494s.58-.03.608-.377a10.844,10.844,0,0,0,.261-1.363c-.058-.205-.493-.378-.755-.669s.146-.9-.058-.956a7.174,7.174,0,0,1-1.218-.436,3.3,3.3,0,0,1-1.044-1.015l-.2-.841a.686.686,0,0,0,.146-.987,22.69,22.69,0,0,1-.987-3.308l-1.974,1.654a.619.619,0,0,0-.609.146.749.749,0,0,1-.725.377,5.152,5.152,0,0,1-1.218-.523s-.291-1.567-.146-1.654.725-.55.725-.55l-1.247-.668-.522-.726-.667-.7-.7.29-.813-.058-.841-.349-.813-.087-.7.406-.493.93-.9.752.347.785s-.146.755-.667.958-1.307.4-1.307.724.406.639.551.843-.173,2.176-1.1,2.38a20.479,20.479,0,0,0-3.279,1.509,2.9,2.9,0,0,0-.115.725c0,.349-.378.61-.436,1.046s0,.607-.057.869-.785.754-.785.754-.841-.116-1.073.349-1.073-.319-1.073-.319l-.29-1.48,1.45-2.263-2.322-.377-1.392-.872-.783-.145v-.377l-.551-.579-1.306-.523-.929.29s-.29.319-.377.261.029-.929.029-.929l.348-1.1s-1.335.551-1.159,0a17.7,17.7,0,0,1,2.058-2.611l2.844-1.6,1.537-.551s.465.2.611.145c.238-.1.55-.869.55-.869l.436.231.55-.667,1.393-.494,2.233-1.246.871-.233-1.276,1.887-.551.231.551.2s-.233.958.377.494a20.513,20.513,0,0,1,2.264-1.277,3.326,3.326,0,0,1,.464.35c.349.288,1.6.405,1.392.172s-.87-.841-.87-.841.326-.672-.146-.782a2.108,2.108,0,0,1-1.247-1.161l1.1-.262.753-.058s.379.668.9.261,1.741-1.131,1.741-1.131a1.328,1.328,0,0,0,.291-.7c-.029-.289,2.175-1.189,1.392-1.537a6.912,6.912,0,0,0-1.451-.465l-.726-.116s-.406,0-.986.668-1.19,1.248-1.19,1.248a4.673,4.673,0,0,1-1.626.958c-.578.058-1.218-.349-.811-.61s1.567-.986.957-1.161a1.3,1.3,0,0,0-1.1.232s-.262.289-.493.144.347-.87.087-.927-1.19-.175-.871-.407.726-.058.871-.551-.436-1.711-.436-1.711l-.7.319-.581.058s-1.943,1.132-1.943,1.509.175.406.406.638a.783.783,0,0,1,0,.958c-.2.175-1.276.841-1.276.841l-1.392.552s.581-.522.232-.668a7.628,7.628,0,0,0-1.567-.173s.058.261-.262.261-3.6.23-3.8.2a6.957,6.957,0,0,1-1.131-.756,2.4,2.4,0,0,0-.9-.289,7.392,7.392,0,0,0-1.274.251h-.93l-.851.773-.541-.385-1.471.385-1.469.311h-.7l-.541-.542,1.083-.543-1.083-.7h-1.548l-.928-.464-1.547-.541-.93.309-.7-.309s-.735,1.044-1.237.541a2.358,2.358,0,0,1-.62-.928h-1.006l-.619.7-1.392-.7-1.857.851-2.273.289-1.392.446-1.393-.56-.754-.117-.813.087-.7-.813-1.219-.029-.783.174-1.335-.174-1.335-.154-1.132-.426-.753.232-.9-.232-.93-.2s-1.117-.479-1.392-.2-.262.523-1.1.523-1.422-.059-1.422-.059l-1.22-.087-1.13.2-1.045.435-1.19.494-1.566.45-1.1.332-1.22.205-1.16.173-.492.319.348.464.349.552-.174.406h.753l.291.58-.174.232-.9.262-.986.144h-.522l-.435-.26-.2-.408-1.364.525-2.118.144-.435.349v.494l-.146.754.552.377.349-.377h1.856l.725-.29h.522l.638.145s.437.028-.435.436l-.869.4-.9.494h-.609l-.958.174-.725.493a2.841,2.841,0,0,0-1.335,0c-.377.2-2.09,1.334-2.09,1.334s-.754-.405-1.016,0a3.252,3.252,0,0,0-.347,1.1s-.988.32-.783.667-.407.668.434.668.958-.465,1.306-.291-.261.872-.261.872-.581.086-.551.348,1.306,0,1.306,0l.929.115.637.175h.639l-4.846,2.235-1.276.813-.493.347s-.088.349.842,0,9.516-3.771,9.516-3.771l.088-.347,5.135-2.293s.9-.377.667-.146-1.479.841-1.537.987-1.915,1.219-1.858,1.363a21.219,21.219,0,0,0,3.076-.608s.783.116.93-.465.058-.811.492-.9,1.538-.609,1.741-.349.029.754.262.754a2.048,2.048,0,0,1,.985.263.854.854,0,0,0,.813.114c.26-.114.813.2,1.045.2a17.186,17.186,0,0,1,1.681.435s.551-.231.523,0-.145.61.058.785.377.813.667.9.552-.2.813-.058a1.338,1.338,0,0,1,.406.9c0,.175-.7.465-.551.581a5.991,5.991,0,0,1,.436.436s.637.842.435.987-.726.25-.494.384.58.34.609.66-.55.753-.55.753l-.261.841.174,1.393-.059.523-.464.667.145.579.638.145.523.842.521.232.61,1.422-.116.726-.726-.726-.493-.9-.319-.551-.667-.291-.7-.144-.2.667.319.581,1.133,1.362-.349.29a2.073,2.073,0,0,1-.493,1.394c-.551.638-.464,1.45-.812,1.769s-2.525,3.018-2.525,3.018l-.434.61-.437.638-.436,1.277s-1.16,1.132-1.073,1.508-.2.7-.2.929.115,1.218.115,1.218l.522.639a5.4,5.4,0,0,0-.173,1.1c.028.288-.318.638-.2.841a5.548,5.548,0,0,1,.232,1.392c0,.232-.173.724.261.841s1.045.029,1.219.261a4.869,4.869,0,0,0,.784.871,6.17,6.17,0,0,1,.492,1.247l.234,2.409s-.117,1.161.144,1.48.987.928.987,1.189.057.958-.435,1.015-.64.581-.466.726.408.552.581.667.551.668.608.523.319-.61.553-.2.55.928.347,1.219-.319.9-.057,1.044.783.2.87.436.667.841.7,1.132.609.7.552.288-.232-1.507-.232-1.507l-.522-.232-.175-1.19-.26-.347-.464-1.915-.464-.958s.115-1.015-.232-1.219a1.206,1.206,0,0,1-.581-.755c-.03-.2-.435-1.682-.087-1.884a.589.589,0,0,0,.262-.61s.289-.116.406,0a.67.67,0,0,0,.638.144c.233-.085.522-.376.552.059s.319,1.016.231,1.248a9.6,9.6,0,0,0-.086,1.451l.7,1.335.638.755.377.984.552.987-.29.666.986.755,1.248,1.566.928,1.653.146,1.219-.261.928a.813.813,0,0,0-.117.958c.319.493.174.871.523.958s.464-.03.812.347.812,1.045,1.188,1.045a1.4,1.4,0,0,1,.726.261l1.393,1.132,3.713,1.363a1.653,1.653,0,0,0,1.77,0c.957-.581,1.131-.116,1.131-.116l.755.374,1.334,1.338a1.578,1.578,0,0,0,.842.726,1.1,1.1,0,0,0,1.016,0l.579.117s-.29.057-.057.405,1.132.464,1.132.464l1.3.26a.435.435,0,0,1,.522.205c.146.319.319.7.524.637s.376.812.376.812.319.668.464.525.609-.552.609-.552l.784.725.087.434s-.782-.405-.928-.145a2.764,2.764,0,0,0-.2.732l2.167-.391A6.682,6.682,0,0,1-932.589,755.329Z" transform="translate(986.557 -682.33)" fill="#ffbb06"/>
</svg>
