<svg id="그룹_262" data-name="그룹 262" xmlns="http://www.w3.org/2000/svg" width="87.512" height="75.093" viewBox="0 0 87.512 75.093">
  <g id="그룹_261" data-name="그룹 261" transform="translate(0 0)">
    <path id="패스_1615" data-name="패스 1615" d="M-588.892,690.506l.492.28,1.125-.773a7.9,7.9,0,0,1,1.41-.422,7.056,7.056,0,0,1,3.167.632c.231.152.469.69.633.915.1.142.381.391.423.563.114.487-.5,1.494-.353,1.97.134.429,1.322.822,1.266,1.267-.028.238-.7.423.566.776s1.669-1.281,2.181-1.76A1.646,1.646,0,0,1-577,693.6c.3.047,1.48,1.128,1.2-.071s.343-1.253.7-1.265a7.548,7.548,0,0,1,1.2,0,15.794,15.794,0,0,1,1.83.633,33.381,33.381,0,0,1,3.518,1.2c.214.111.553.479.777.563a4.068,4.068,0,0,0,.843.073l1.618.7s1.339,1.126,2.185.985,1.69.843,1.69.843l1.336.422s.423,1.058.915,1.058,1.48,1.056,1.48,1.056.773,1.055.21,1.265-.14.917.212.917a6.783,6.783,0,0,1,1.2-.07c.35.07.35.844.775.7s1.044.292,1.338.493,1.338.915.633,1.267-1.477.07-1.618.7a4.7,4.7,0,0,0,0,1.477l.985.844s.07,1.269.562.987.633.493.633.493.07,1.125.635,1.2a10.317,10.317,0,0,0,1.547,0l.283,1.761.845-.07.775.773.843,1.126-1.266.424a10.756,10.756,0,0,1-1.48-.777,1.382,1.382,0,0,0-.915-.351c-.562,0-1.407.071-2.322.071s-2.958-1.266-2.675-2.181-.916-2.535-.916-2.535l-1.97-.773-1.83-.917-1.128.917-.7,1.125s-.213,1.478-.776,1.618a10.488,10.488,0,0,1-3.308.351,6.236,6.236,0,0,1-1.2-.7,7.725,7.725,0,0,1-1.339-.773c-.307-.315-.457-1.338-.843-1.548a2.506,2.506,0,0,0-2.182.14c-.193.2.157.892,0,1.126-.214.313-1.318.175-1.762.209-.187.016-.632.072-.423-.632s.305-.546.212-.7c-.234-.4.574-1.3.918-1.62.183-.171.815-.191.912-.422.4-.966-.568-1.957-.773-2.605-.227-.713-.987-2.605-1.479-2.605a7.749,7.749,0,0,1-1.972.07c-.267-.1-.588-.641-.844-.773-.494-.259-1.7-.217-2.182-.493-.6-.339-1.547-1.621-2.111-1.76s-.985-.915-1.479-.213-.14,1.13-.422,1.2a1.187,1.187,0,0,1-.915-.352c-.489-.545-1.64-1.937-1.337-2.6.11-.242,1.127-.281,1.057-.073s1.131-.6,1.477-.845c.294-.21,1.69-1.265.562-1.336s-1.97.773-2.533.21-.14-.913-1.057-1.125a7.624,7.624,0,0,1-2.04-.565,4.171,4.171,0,0,1-.494-.985Z" transform="translate(616.669 -688.876)" fill="#2b8633"/>
    <path id="패스_1616" data-name="패스 1616" d="M-573.24,712.38c-.389-.052-1.266-.007-1.548-.28-.181-.175-.058-.789-.212-.986-.216-.282-.979-.428-1.265-.635-.3-.218-.683-1.065-1.057-1.056-.26.006-.444.75-.7.774-.173.017-.4-.36-.563-.422a5.468,5.468,0,0,0-1.2-.07l-.351.985-1.2.142v.635l.07,1.406s-1.2-.281-1.69.07a1.006,1.006,0,0,0-.35.987l.42,1.125-1.125.072-.985.281-.07,1.266.7.424-.635.633-.915-.281s-.382-1.606-.845-1.69c-.331-.061-.759.668-.985.913a4.677,4.677,0,0,0-.985,1.269c-.076.273.144.841.142,1.125,0,.249.023.8-.142.985-.146.164-.663.09-.845.212a9.114,9.114,0,0,0-1.408,1.97l-1.057,1.128-1.828,1.055-1.55-.492-.985.7-1.83.353-1.127,1.057-2.533.21-1.478.844-.847,1.2-1.968.918-.777,1.055-.7-.563-.14,1.266s.28.985-.072,1.41-1.476,1.408-1.476,2.321v2.253a1.825,1.825,0,0,1,.421,1.692c-.21,1.125-.621,1.932-1.057,1.688-.413-.232.4-1.558.074-1.9a1.036,1.036,0,0,0-1.058,0c-.27.308.213,1.209.211,1.619,0,.5-.211,1.549.21,1.971s.5,1.649.707,2.181a3.2,3.2,0,0,1,.563,1.9,11.929,11.929,0,0,0-.142,3.168,23.514,23.514,0,0,1,.635,2.886,4.555,4.555,0,0,1-.775,1.9l-.7,1.9-.845.847s-1.266.211-1.336.844a1.95,1.95,0,0,0,.493,1.267s.633-.142.633.353a2.688,2.688,0,0,0,1.41,1.619c.421.071,1.969.421,2.674-.072s3.45-2.183,3.872-2.533a3.991,3.991,0,0,1,2.745-.7c.985.212,3.378.492,3.378.492s2.747-.422,2.818-.986,1.265-1.69,1.618-1.549a6.584,6.584,0,0,0,1.97-.351s1.337-1.125,2.113-1.125,2.673-.212,2.673-.212a27.463,27.463,0,0,1,2.675-.917c.707-.14.707-.421.707-.421l.14-.282,3.1-.07s2.11-.353,2.533.281A3.361,3.361,0,0,0-575,753.7c.423,0,2.465.773,2.465,1.2s.633,1.478.633,2.182-.633,2.393-.21,2.536.909.395,1.2.282c.222-.09.395-.605.562-.776.537-.543,1.69-1.266,2.393-1.9s2.395-2.465,2.466-1.762a4.505,4.505,0,0,1-1.056,2.466c-.553.64-2.182,1.9-2.253,2.534s.7.463.915.351a17.33,17.33,0,0,0,2.041-1.62s-.742,1.425-.983,1.9c-.089.175-.452.534-.352.7.148.262,1.2.07,1.2.07a5.447,5.447,0,0,1,.422,2.255c0,1.406-.915,2.323-.282,2.815s1.831,1.336,1.831,1.336l1.548.707,2.746.28,1.336-1.127.917-.14.776-.493.35,1.2.915.707.565.351s3.027-.773,3.167-1.69,1.2-.985,1.2-.985a8.441,8.441,0,0,0,2.465-.21c.493-.282,3.1-1.55,2.956-2.253s2.111-3.24,2.111-3.24,2.957-1.97,2.534-2.745,2.605-2.463,2.605-2.463l2.182-1.971,1.338-1.76s1.76-.352,1.69-1.2a7.587,7.587,0,0,1,.915-2.675l1.057-2.393,1.476-3.1s-.211-1.125-.423-1.125,1.056-3.308,1.056-3.308l-.07-1.41s-1.893-2.79-2.6-3.66c-.228-.279-.892-.707-.983-1.055-.1-.384.508-1.184.35-1.55-.192-.448-1.4-.588-1.688-.985-.461-.643-.211-2.43-.635-3.1-.14-.226-.834-.371-.845-.634-.02-.475,1.34-1.2-.07-1.9s-2.393-2.253-3.308-2.323-.423-3.591-.423-3.591.283-2.252,0-2.395a5.217,5.217,0,0,1-.493-3.238c.353-.633-.915-1.2-.915-1.2s-.423-1.691-.915-1.34l-.492.352h0s-.212.705-.775.142,0-2.323,0-2.323l-.845-4.718-.7-1.407s-2.111,2.887-1.9,3.31-.422.773-.422.773l.282,1.055-.705,1.41-.14,1.2-.773,1.268.492,1.127-1.268,1.337-.7,2.673-.635,1.41-.915.421-1.83-.141a5.627,5.627,0,0,0-.845-1.127c-.352-.281-1.972-.915-2.182-1.408s-1.688-.913-1.688-.913-.282-1.762-1.057-1.972-1.618-.07-1.618-.7,1.055-1.762,1.055-1.762-.492-1.336.421-1.406,2.043-2.465,2.043-2.465l-.35-1.055-1.268.21-.775-.7-1.337.633-2.253-.915-1.478-.282-.845-1.125-1.2.21.423.915s.845.777.282,1.2a5.678,5.678,0,0,1-1.9.634s-.353-.985-1.128-.564a14.315,14.315,0,0,0-1.9,1.408v.987c0,.21-.86.623-1.057.915-.1.148-.05.547-.14.7-.105.185-.5.4-.633.562-.2.238-.744.769-.633,1.057.123.328,1.215.094,1.336.423.1.25-.321.794-.563.915C-572.1,712.688-572.872,712.433-573.24,712.38Z" transform="translate(616.052 -697.839)" fill="#2b8633"/>
    <path id="패스_1617" data-name="패스 1617" d="M-584.294,738.98c-.388-.092-.933.753-1.2,1.057-.252.285-.809.888-.847,1.265-.041.417.754,1.149.633,1.548-.1.329-.965.473-1.125.775a2.624,2.624,0,0,0,0,1.618,2.037,2.037,0,0,0,.915.915c.677.195,2.745-.633,2.745-.633l2.325-2.321s3.238-3.734,2.253-3.8a8.588,8.588,0,0,0-2.676.563s-1.762-.141-2.253-.211S-584.027,739.043-584.294,738.98Z" transform="translate(624.113 -678.054)" fill="#2b8633"/>
    <path id="패스_1618" data-name="패스 1618" d="M-547.609,739.509l-.7-.353-1.338.987s-.7.991-1.057,1.125c-.331.124-1.083-.284-1.406-.14-.574.259-1.069,1.561-1.479,2.042a7.9,7.9,0,0,1-1.2,1.2c-.712.457-2.345,1.391-3.167,1.2-.4-.094-.776-.843-1.619.142a6.7,6.7,0,0,1-3.1,1.407,1.394,1.394,0,0,1-1.267,1.83,19.087,19.087,0,0,0-4.788,2.393s-.562.492,0,.775a14.218,14.218,0,0,0,1.9.635s1.2-.352,1.267.071,1.478-.141,1.478-.141a25.9,25.9,0,0,0,3.59-1.832c.9-.717,2.043-2.463,3.448-3.028s4.015-.563,4.365-.843,3.8-3.59,3.8-3.59,1.97-.495,2.463-1.69,1.618-2.6.845-2.465-1.055,1.48-1.688,1.34S-547.609,739.509-547.609,739.509Z" transform="translate(618.961 -677.879)" fill="#2b8633"/>
    <path id="패스_1619" data-name="패스 1619" d="M-550.322,731.775l-.423.845.282,3.8a3.234,3.234,0,0,1-.352,2.533c-.773,1.337-1.125,2.465-1.688,2.747s-2.323.7-2.323,1.476.773.915.913,1.479-1.405,2.251-1.405,2.251-1.9,1.48-.775,1.48a10.668,10.668,0,0,0,2.533-.422l3.663-3.448.915-1.62s.07-.915,1.478-.915.845-.917,1.69-1.127,2.745-2.251,2.112-2.11-2.182,1.265-2.6.985l-1.27-.844s.563-1.69-.07-1.69-1.406.422-1.478-.14,1.2-2.676,1.2-2.676.705-.775-.07-1.125a5.468,5.468,0,0,1-1.618-1.69Z" transform="translate(630.825 -685.069)" fill="#2b8633"/>
    <path id="패스_1620" data-name="패스 1620" d="M-570.192,697.251c.21-.2.869.144,1.16.159a11.729,11.729,0,0,0,1.268-.054c.359-.032,1.425-.21,1.425-.21l.423.422,1.32-.475.528-1.32,1.162-.792-.317-.79,1.373.421-.316,1.056-1.269,1.954-1.213.738-.792.687s-1.386.017-1.848,0a11.2,11.2,0,0,1-1.32-.1c-.366-.074-1.192-.181-1.425-.475C-570.225,698.226-570.414,697.462-570.192,697.251Z" transform="translate(628.676 -684.518)" fill="#2b8633"/>
    <path id="패스_1621" data-name="패스 1621" d="M-567.387,692.427c.318-.264,1.169.434,1.531.635a6.437,6.437,0,0,1,.9.635c.323.282.865.955,1.162,1.266.193.2.792.79.792.79s.29,1.095.051,1.323a.583.583,0,0,1-.578-.053c-.211-.22-.055-1.215-.055-1.215s-.985-.915-1.32-1.213a7.271,7.271,0,0,0-1.266-1.112c-.231-.1-.816.064-1-.1S-567.573,692.585-567.387,692.427Z" transform="translate(630.46 -686.242)" fill="#2b8633"/>
    <path id="패스_1622" data-name="패스 1622" d="M-555.45,714.065c.638,0,1.579,1.109,2.008,1.585a25.717,25.717,0,0,1,1.8,2.852,4.334,4.334,0,0,1-1.058,0,3.509,3.509,0,0,1-1.373-1.058c-.212-.343-.113-1.234-.315-1.584-.265-.452-1.6-.848-1.585-1.373C-555.976,714.318-555.618,714.065-555.45,714.065Z" transform="translate(631.273 -682.012)" fill="#2b8633"/>
    <path id="패스_1623" data-name="패스 1623" d="M-551.634,707.241c-.271.212.041,1.033,0,1.374-.028.214-.315.652-.211.843.121.22.777.136.951.318.325.337.2,1.464.527,1.794.133.131.61.238.74.105.189-.191-.124-.8-.21-1.055-.13-.381-.372-1.219-.707-1.443-.107-.074-.429.052-.525-.035-.206-.187-.148-.818-.177-1.092-.02-.173.072-.565-.034-.7C-551.339,707.273-551.561,707.184-551.634,707.241Z" transform="translate(635.165 -684.002)" fill="#2b8633"/>
    <path id="패스_1624" data-name="패스 1624" d="M-549.769,707.882c-.068.046-.177.169-.247.212-.187.113-.773.1-.807.317-.029.16.336.372.492.423.091.03.329-.115.386-.036.08.109-.168.366-.21.493s-.195.4-.143.528c.071.168.466.417.633.351.195-.07.221-.574.282-.773.072-.226.247-.915.247-.915a2.042,2.042,0,0,1-.352-.422c-.025-.074.066-.275,0-.317S-549.7,707.839-549.769,707.882Z" transform="translate(636.151 -683.622)" fill="#2b8633" opacity="0.4"/>
    <path id="패스_1625" data-name="패스 1625" d="M-550.645,709.807c-.012.228.562.707.562.707l.353-.177s.062-.337,0-.423-.366-.062-.458-.14a1.126,1.126,0,0,1-.14-.282S-550.639,709.7-550.645,709.807Z" transform="translate(636.323 -682.921)" fill="#2b8633" opacity="0.4"/>
    <path id="패스_1626" data-name="패스 1626" d="M-550.383,710.7l-.389.282s0,.777.211.844c.143.048.4-.251.458-.386a2.182,2.182,0,0,0,0-.7Z" transform="translate(636.203 -682.558)" fill="#2b8633" opacity="0.4"/>
    <path id="패스_1627" data-name="패스 1627" d="M-550.353,712.113l.423-.036a2.435,2.435,0,0,1,.07.283c.006.079.033.272-.035.318-.094.058-.352-.054-.423-.141S-550.353,712.113-550.353,712.113Z" transform="translate(636.593 -682.064)" fill="#2b8633" opacity="0.4"/>
    <path id="패스_1628" data-name="패스 1628" d="M-550.256,713.086c.085-.124.6-.1.6-.1v.528s-.093.411-.21.423-.236-.249-.282-.353S-550.326,713.192-550.256,713.086Z" transform="translate(636.672 -681.827)" fill="#2b8633" opacity="0.4"/>
    <path id="패스_1629" data-name="패스 1629" d="M-549.994,713.867s.053.353.14.421a.407.407,0,0,0,.352.037c.1-.078.07-.494.07-.494Z" transform="translate(636.939 -681.502)" fill="#2b8633" opacity="0.4"/>
    <path id="패스_1630" data-name="패스 1630" d="M-606.09,693.673l-2.848-1.628-7.227-.926,7.362,2.689.882.882-1.289,1.968,2.307,1.492.951,2.309h2.714l4.069,1.762h.679l-.273-2.306-3.255-1.357v-2.035h2.035l2.714,1.492,2.157.683a31.832,31.832,0,0,0,.5-6.09l-2.928,1.743Z" transform="translate(616.165 -687.426)" fill="#2b8633"/>
    <path id="패스_1631" data-name="패스 1631" d="M-602.16,692.752l-.814-2.578-2.295-.952a48.613,48.613,0,0,1,.339,5.181Z" transform="translate(626.484 -689.222)" fill="#2b8633"/>
  </g>
</svg>
