<svg xmlns="http://www.w3.org/2000/svg" width="49.879" height="75.093" viewBox="0 0 49.879 75.093">
  <path id="패스_1606" data-name="패스 1606" d="M-846.322,698.517a3.234,3.234,0,0,1-2.226-1.279,1.586,1.586,0,0,0-.973-.743c-.358,0-.486-.357-.767-.486s-.792.308-1.458.077a8.988,8.988,0,0,0-2.124-.588c-.512,0-.563.614-.794.153s.078-.844-.665-1.125-2.073-.947-2.073-.947-.767-.077-1.049.23a1.314,1.314,0,0,0-.333.588l.179-1.356-1.254-.2-.665-.717s.383-.767.179-1.074-.691-.973-.691-.973l-.23-1.28-.461-.9a.849.849,0,0,1-.819-.359c-.23-.435-.639-.9-1.049-.9a4.018,4.018,0,0,1-1.305-.562l-1.791.025-.461-.025-.589-.589-.435-.2-.332-.026a1.416,1.416,0,0,0-.077-1.074c-.282-.538-1.151-.666-1.151-.666l-.333-.23-.665-.026s.333-.537.076-.87a3.088,3.088,0,0,0-.947-.638l-.614-.257s.4-.485.308-.64c-.216-.372-1.714-.129-1.714-.129s-.461.845-.9.717-1.306-.434-1.306-.434l-1.689-.205s-.434-.077-.486-.358l-.051-.282s-1.126-.666-1.024-.127-.409-.588-.409-.588l-.461.434-.793.461-.538.666-.076-1,.537-.436.2-.46-.82-.129-.383.384-1.126.614a6.71,6.71,0,0,0-.793.1c-.154.051-.026.358-.359.358a1.83,1.83,0,0,0-1,.666c-.154.2-.025.46-.205.767a9.58,9.58,0,0,1-1.2,1.169l-.282.546-.435-.546s-.434-.989-1.253-.837a15.3,15.3,0,0,0-1.894.538,1.475,1.475,0,0,1-1.458-.1,10.98,10.98,0,0,1-1.28-1.586s0-.119-.005-.289l-1.912.344-.028.174.1.589h.537a3.978,3.978,0,0,0,.614.435c.154.051.563.051.691.384s.359.819.512.819.512.205.717.179.665-.153.767.154.306.742.563.742.716-.128.716-.281-.383-.46-.128-.666.358-.5.639-.6a3.386,3.386,0,0,1,1,0s.077.444.257.444.332.052.332.2-.23.537-.179.615.384.614.384.614l.358.64.179,1.075-.127,1.1-.1,1.023-.332.64a2.146,2.146,0,0,1-.538.639c-.281.18-.588.282-.588.487s-.154.28-.179.486.385.127.179.333a1.671,1.671,0,0,1-.665.307,3.172,3.172,0,0,1-.487.257c-.255.1-.077.28-.2.69a2.594,2.594,0,0,1-.512.818l.076.411-.307.434-.026.666.23.639.231.231h.512v.435l-.179.408-.588.257-.409.512a2.016,2.016,0,0,0-.282.716c0,.256.485.717.512.921s-.512.64-.23.793,1.125.589,1.125.589l.691.946.691,1.1.46,1.151h.281l.794,1.511.87,2s.333.359.537.615-.026.435,0,.666a16.779,16.779,0,0,0,1.612,1.944,4.362,4.362,0,0,1,1,.308c.511.23,1.151.256,1.381.511s.845.794.845.794l.973.794.588.666.307,1.662.128,2.226v2.432s.486.512.41.818-.384,1.023-.23,1.126a3.484,3.484,0,0,1,.383.973l-.127.51-.025.691.152.538-.307.64.307.538v.588l-.255.742.615,1.382v.87l.256.333-.128,1.075.255.434a6.371,6.371,0,0,0-.383,1.638c.025.512.153.87.025,1.178s-.46.486-.257.793a11.7,11.7,0,0,1,.615,1.381l.359,1.92.383,1.406s-.179.308.358.308.948.614.948.614l.358,1.2.179,1.535v1a1.466,1.466,0,0,0,.358.64,8.688,8.688,0,0,1,.793,1.714s.128.973,0,.947.383.692.383.692l.359.638,1.152,1.791s-.281.281-.128.435,1.586,1.432,1.586,1.432.127.538.793,0a11.561,11.561,0,0,1,1.177-.844l.333.154-.205.666.384.264.666.452v.717s.179.461.358.255.921-.179.921-.179l.793.052s.077-.023.511.181a1.678,1.678,0,0,0,1.049,0s.512.076.384-.181-.665-.255-.665-.255l-1-.462-.409-.076-1.1-.691-.537-.461a6.279,6.279,0,0,0-.436-1.2c-.144-.205-.853-.405-.767-.64.03-.083.076,0-.179-.307a1.212,1.212,0,0,1-.128-1.229c.2-.205.639-.819.537-1.024s.46-.333.614-.615.461-1.074.2-1.227a6.888,6.888,0,0,0-1.228-.359s-1.178-.718-1-1.152.1-.843.486-.87,1.254-.436,1.024-.794-.615-.87-.435-1.022.3-.625.157-.661c-.024-.006-.033-.011,0-.005l0,.005c.1.023.559.1.662-.108.129-.255.077-.792-.793-.563s-.614-.383-.614-.383l-.255-.716s-.308-.921.1-.589a1.641,1.641,0,0,0,1.074.256l.639.1.87-.589-.434-.487s-.026-1.1-.384-1.151.128-.563.461-.333a2.549,2.549,0,0,0,1.1.23l1.152-.1,1.3-.692.465-2.021a2.991,2.991,0,0,1-.716-.334c-.23-.179.282-.691-.1-1s-.9-.179-1.2-.487.076-.663.076-.663.23.356.358.356h.691a1.819,1.819,0,0,1,.743.282c.152.18.613.18.818.129s.486.562.588.28a4.732,4.732,0,0,1,.87-.947l.384-.946.767-1.46s-.486-.767-.152-.971.613-1,.921-.921.434-.051.409-.513.691-.9.691-.9.613-.511.613-.818v-1.28a1.146,1.146,0,0,1-.255-.512v-.2l.1-1.485,1.05-1.1,1.279-.462,1.228-.87,1.05-.153,1-.1s.485-.23.485-.512,1.127-.461.921-.946a1.179,1.179,0,0,1,.179-1.433,3.293,3.293,0,0,0,.538-2.046c-.1-.154.307-.436.41-.666s-.1-1.2,0-1.511.562-1.074.2-1.3a4.153,4.153,0,0,1-.1-2.713c.255-.025.1-.691.563-.895s1.177-1.536,1.177-1.536l1.432-1.612.486-1.535S-845.016,698.671-846.322,698.517Z" transform="translate(895.044 -678.992)" fill="#6dc2ee"/>
</svg>
