<svg xmlns="http://www.w3.org/2000/svg" xmlns:xlink="http://www.w3.org/1999/xlink" wclassth="66.037" height="163.952" viewBox="0 0 66.037 163.952">
  <defs>
    <linearGradient id="linear-gradient" x1="0.5" x2="0.5" y2="1" gradientUnits="objectBoundingBox">
      <stop offset="0" stop-color="#ff8c12"/>
      <stop offset="1" stop-color="#ffbf5e"/>
    </linearGradient>
    <radialGradient id="radial-gradient" cx="0.011" cy="0.085" r="1.463" gradientUnits="objectBoundingBox">
      <stop offset="0" stop-color="#f2f2f3"/>
      <stop offset="0.397" stop-color="#f5f5f6"/>
      <stop offset="0.715" stop-color="#fff"/>
    </radialGradient>
  </defs>
  <g id="pin3" transform="translate(10077.018 12972)">
    <path class="line2" d="M0,0H95.271" transform="translate(-10043.121 -12903.998) rotate(90)" fill="none" stroke="#f45a00" stroke-linecap="round" stroke-linejoin="round" stroke-miterlimit="10" stroke-wclassth="1.358"/>
    <path class="path432" d="M11.118,57.728a33.023,33.023,0,1,1,43.888-.089L33.9,79.319,11.118,57.728Z" transform="translate(-10077.018 -12972)" fill="url(#linear-gradient)"/>
    <path class="path_466" data-name="path 466" d="M38.468,18.871A19.236,19.236,0,1,0,19.6,38.466a19.236,19.236,0,0,0,18.867-19.6Z" transform="translate(-10063.511 -12958.651)" fill="#fff"/>
    <path class="path467" d="M6.22,33.4A19.234,19.234,0,0,1,31.706,4.593,19.234,19.234,0,0,1,6.22,33.4Z" transform="translate(-10062.966 -12958.171)" fill="url(#radial-gradient)"/>
    <path class="path468" d="M7.845,34.981A19.235,19.235,0,0,0,18.524,0a19.3,19.3,0,0,1,2.6,1.866A19.234,19.234,0,0,1,8.471,35.258,19.143,19.143,0,0,1,0,33.474a19.175,19.175,0,0,0,7.845,1.507Z" transform="translate(-10052.381 -12955.443)" fill="#e7ecee"/>
  </g>
</svg>
