<svg xmlns="http://www.w3.org/2000/svg" xmlns:xlink="http://www.w3.org/1999/xlink" wclassth="66.037" height="163.952" viewBox="0 0 66.037 163.952">
  <defs>
    <linearGradient id="linear-gradient" x1="0.49" x2="0.513" y2="1" gradientUnits="objectBoundingBox">
      <stop offset="0" stop-color="#1d7b26"/>
      <stop offset="1" stop-color="#71bb78"/>
    </linearGradient>
    <radialGradient id="radial-gradient" cx="0.01" cy="0.085" r="1.463" gradientUnits="objectBoundingBox">
      <stop offset="0" stop-color="#f2f2f3"/>
      <stop offset="0.397" stop-color="#f5f5f6"/>
      <stop offset="0.715" stop-color="#fff"/>
    </radialGradient>
  </defs>
  <g id="pin5" transform="translate(9663.019 12625)">
    <path class="line5" d="M0,0H95.271" transform="translate(-9629.121 -12556.998) rotate(90)" fill="none" stroke="#03b714" stroke-linecap="round" stroke-linejoin="round" stroke-miterlimit="10" stroke-wclassth="1.358"/>
    <path class="path330" d="M11.118,57.726a33.023,33.023,0,1,1,43.888-.087L33.9,79.318,11.118,57.726Z" transform="translate(-9663.019 -12625)" fill="url(#linear-gradient)"/>
    <path class="path361" d="M38.468,18.871A19.236,19.236,0,1,0,19.6,38.466a19.236,19.236,0,0,0,18.867-19.6Z" transform="translate(-9649.512 -12611.652)" fill="#fff"/>
    <path class="path362" d="M6.22,33.4A19.235,19.235,0,0,1,31.706,4.592,19.235,19.235,0,0,1,6.22,33.4Z" transform="translate(-9648.967 -12611.172)" fill="url(#radial-gradient)"/>
    <path class="path363" d="M7.845,34.981A19.235,19.235,0,0,0,18.524,0a19.306,19.306,0,0,1,2.6,1.864A19.238,19.238,0,0,1,0,33.474a19.174,19.174,0,0,0,7.845,1.507Z" transform="translate(-9638.383 -12608.444)" fill="#e7ecee"/>
  </g>
</svg>
