<svg xmlns="http://www.w3.org/2000/svg" xmlns:xlink="http://www.w3.org/1999/xlink" width="66.037" height="163.272" viewBox="0 0 66.037 163.272">
  <defs>
    <linearGradient id="linear-gradient" x1="0.5" x2="0.5" y2="1" gradientUnits="objectBoundingBox">
      <stop offset="0" stop-color="#1e3c7c"/>
      <stop offset="1" stop-color="#7e9bdb"/>
    </linearGradient>
    <radialGradient id="radial-gradient" cx="0.011" cy="0.085" r="1.463" gradientUnits="objectBoundingBox">
      <stop offset="0" stop-color="#f2f2f3"/>
      <stop offset="0.397" stop-color="#f5f5f6"/>
      <stop offset="0.715" stop-color="#fff"/>
    </radialGradient>
  </defs>
  <g id="그룹_208" data-name="그룹 208" transform="translate(-912.13 -2125.567)">
    <path id="선_4" data-name="선 4" d="M0,0H95.271" transform="translate(946.027 2193.568) rotate(90)" fill="none" stroke="#0036aa" stroke-miterlimit="10" stroke-width="1.358"/>
    <path id="패스_364" data-name="패스 364" d="M11.118,57.726a33.023,33.023,0,1,1,43.888-.087L33.9,79.318,11.118,57.726Z" transform="translate(912.13 2125.567)" fill="url(#linear-gradient)"/>
    <g id="그룹_109" data-name="그룹 109" transform="translate(925.637 2138.914)">
      <g id="그룹_107" data-name="그룹 107">
        <g id="그룹_106" data-name="그룹 106">
          <g id="그룹_105" data-name="그룹 105">
            <path id="패스_404" data-name="패스 404" d="M38.466,18.871A19.235,19.235,0,1,0,19.6,38.468a19.235,19.235,0,0,0,18.866-19.6Z" fill="#fff"/>
          </g>
        </g>
      </g>
      <path id="패스_405" data-name="패스 405" d="M6.22,33.4A19.235,19.235,0,0,1,31.706,4.592,19.235,19.235,0,0,1,6.22,33.4Z" transform="translate(0.545 0.482)" fill="url(#radial-gradient)"/>
      <g id="그룹_108" data-name="그룹 108" transform="translate(11.128 3.208)">
        <path id="패스_406" data-name="패스 406" d="M7.847,34.982A19.235,19.235,0,0,0,18.524,0a19.467,19.467,0,0,1,2.6,1.866A19.238,19.238,0,0,1,0,33.475a19.182,19.182,0,0,0,7.847,1.507Z" fill="#e7ecee"/>
      </g>
    </g>
  </g>
</svg>
