<svg xmlns="http://www.w3.org/2000/svg" xmlns:xlink="http://www.w3.org/1999/xlink" width="66.037" height="163.952" viewBox="0 0 66.037 163.952">
  <defs>
    <linearGradient id="linear-gradient" x1="0.49" x2="0.513" y2="1" gradientUnits="objectBoundingBox">
      <stop offset="0" stop-color="#1d7b26"/>
      <stop offset="1" stop-color="#71bb78"/>
    </linearGradient>
    <radialGradient id="radial-gradient" cx="0.01" cy="0.085" r="1.463" gradientUnits="objectBoundingBox">
      <stop offset="0" stop-color="#f2f2f3"/>
      <stop offset="0.397" stop-color="#f5f5f6"/>
      <stop offset="0.715" stop-color="#fff"/>
    </radialGradient>
  </defs>
  <g id="그룹_210" data-name="그룹 210" transform="translate(-1253.781 -2265.051)">
    <path id="선_3" data-name="선 3" d="M0,0H95.271" transform="translate(1287.679 2333.053) rotate(90)" fill="none" stroke="#03b714" stroke-linecap="round" stroke-linejoin="round" stroke-miterlimit="10" stroke-width="1.358"/>
    <path id="패스_330" data-name="패스 330" d="M11.118,57.726a33.023,33.023,0,1,1,43.888-.087L33.9,79.318,11.118,57.726Z" transform="translate(1253.781 2265.051)" fill="url(#linear-gradient)"/>
    <g id="그룹_100" data-name="그룹 100" transform="translate(1267.288 2278.398)">
      <g id="그룹_98" data-name="그룹 98">
        <g id="그룹_97" data-name="그룹 97">
          <g id="그룹_96" data-name="그룹 96">
            <path id="패스_361" data-name="패스 361" d="M38.468,18.871A19.236,19.236,0,1,0,19.6,38.466a19.236,19.236,0,0,0,18.867-19.6Z" fill="#fff"/>
          </g>
        </g>
      </g>
      <path id="패스_362" data-name="패스 362" d="M6.22,33.4A19.235,19.235,0,0,1,31.706,4.592,19.235,19.235,0,0,1,6.22,33.4Z" transform="translate(0.545 0.48)" fill="url(#radial-gradient)"/>
      <g id="그룹_99" data-name="그룹 99" transform="translate(11.129 3.208)">
        <path id="패스_363" data-name="패스 363" d="M7.845,34.981A19.235,19.235,0,0,0,18.524,0a19.306,19.306,0,0,1,2.6,1.864A19.238,19.238,0,0,1,0,33.474a19.174,19.174,0,0,0,7.845,1.507Z" fill="#e7ecee"/>
      </g>
    </g>
  </g>
</svg>
