<svg xmlns="http://www.w3.org/2000/svg" xmlns:xlink="http://www.w3.org/1999/xlink" width="919.09" height="506.003" viewBox="0 0 919.09 506.003">
  <defs>
    <linearGradient id="linear-gradient" x1="0.5" x2="0.5" y2="1" gradientUnits="objectBoundingBox">
      <stop offset="0" stop-color="#4db4e9"/>
      <stop offset="1" stop-color="#b5e3fb"/>
    </linearGradient>
    <radialGradient id="radial-gradient" cx="0.01" cy="0.085" r="1.463" gradientUnits="objectBoundingBox">
      <stop offset="0" stop-color="#f2f2f3"/>
      <stop offset="0.397" stop-color="#f5f5f6"/>
      <stop offset="0.715" stop-color="#fff"/>
    </radialGradient>
    <linearGradient id="linear-gradient-2" x1="0.49" x2="0.513" y2="1" gradientUnits="objectBoundingBox">
      <stop offset="0" stop-color="#1d7b26"/>
      <stop offset="1" stop-color="#71bb78"/>
    </linearGradient>
    <linearGradient id="linear-gradient-3" x1="0.5" x2="0.5" y2="1" gradientUnits="objectBoundingBox">
      <stop offset="0" stop-color="#1e3c7c"/>
      <stop offset="1" stop-color="#7e9bdb"/>
    </linearGradient>
    <radialGradient id="radial-gradient-3" cx="0.011" cy="0.085" r="1.463" xlink:href="#radial-gradient"/>
    <linearGradient id="linear-gradient-4" x1="0.5" x2="0.5" y2="1" gradientUnits="objectBoundingBox">
      <stop offset="0" stop-color="#ffba00"/>
      <stop offset="1" stop-color="#ffe397"/>
    </linearGradient>
    <radialGradient id="radial-gradient-4" cx="0.01" cy="0.085" r="1.463" xlink:href="#radial-gradient"/>
    <linearGradient id="linear-gradient-5" x1="0.5" x2="0.5" y2="1" gradientUnits="objectBoundingBox">
      <stop offset="0" stop-color="#ff8c12"/>
      <stop offset="1" stop-color="#ffbf5e"/>
    </linearGradient>
  </defs>
  <g id="pin_all" transform="translate(7755.516 13876.977)">
    <g id="pin_skyblue" transform="translate(-8135.326 -15626.293)">
      <path id="선_2" data-name="선 2" d="M0,0H95.271" transform="translate(582.845 2119.436) rotate(90)" fill="none" stroke="#006da7" stroke-linecap="round" stroke-linejoin="round" stroke-miterlimit="10" stroke-width="1.164"/>
      <path id="패스_281" data-name="패스 281" d="M11.119,57.726a33.025,33.025,0,1,1,43.888-.089L33.9,79.318,11.119,57.726Z" transform="translate(548.947 2051.436)" fill="url(#linear-gradient)"/>
      <g id="그룹_91" data-name="그룹 91" transform="translate(562.455 2064.782)">
        <g id="그룹_89" data-name="그룹 89">
          <g id="그룹_88" data-name="그룹 88">
            <g id="그룹_87" data-name="그룹 87">
              <path id="패스_327" data-name="패스 327" d="M38.468,18.871A19.236,19.236,0,1,0,19.6,38.466a19.237,19.237,0,0,0,18.867-19.6Z" fill="#fff"/>
            </g>
          </g>
        </g>
        <path id="패스_328" data-name="패스 328" d="M6.22,33.4A19.234,19.234,0,0,1,31.706,4.593,19.235,19.235,0,0,1,6.22,33.4Z" transform="translate(0.545 0.48)" fill="url(#radial-gradient)"/>
        <g id="그룹_90" data-name="그룹 90" transform="translate(11.129 3.208)">
          <path id="패스_329" data-name="패스 329" d="M7.847,34.981A19.235,19.235,0,0,0,18.524,0a19.209,19.209,0,0,1,2.6,1.866A19.234,19.234,0,0,1,8.471,35.258,19.142,19.142,0,0,1,0,33.474a19.177,19.177,0,0,0,7.847,1.507Z" fill="#e7ecee"/>
        </g>
      </g>
    </g>
    <g id="pin_green" transform="translate(-8156.243 -15799.977)">
      <path id="선_3" data-name="선 3" d="M0,0H95.271" transform="translate(1287.679 2333.053) rotate(90)" fill="none" stroke="#036b0c" stroke-linecap="round" stroke-linejoin="round" stroke-miterlimit="10" stroke-width="1.358"/>
      <path id="패스_330" data-name="패스 330" d="M11.118,57.726a33.023,33.023,0,1,1,43.888-.087L33.9,79.318,11.118,57.726Z" transform="translate(1253.781 2265.051)" fill="url(#linear-gradient-2)"/>
      <g id="그룹_100" data-name="그룹 100" transform="translate(1267.288 2278.398)">
        <g id="그룹_98" data-name="그룹 98">
          <g id="그룹_97" data-name="그룹 97">
            <g id="그룹_96" data-name="그룹 96">
              <path id="패스_361" data-name="패스 361" d="M38.468,18.871A19.236,19.236,0,1,0,19.6,38.466a19.236,19.236,0,0,0,18.867-19.6Z" fill="#fff"/>
            </g>
          </g>
        </g>
        <path id="패스_362" data-name="패스 362" d="M6.22,33.4A19.235,19.235,0,0,1,31.706,4.592,19.235,19.235,0,0,1,6.22,33.4Z" transform="translate(0.545 0.48)" fill="url(#radial-gradient)"/>
        <g id="그룹_99" data-name="그룹 99" transform="translate(11.129 3.208)">
          <path id="패스_363" data-name="패스 363" d="M7.845,34.981A19.235,19.235,0,0,0,18.524,0a19.306,19.306,0,0,1,2.6,1.864A19.238,19.238,0,0,1,0,33.474a19.174,19.174,0,0,0,7.845,1.507Z" fill="#e7ecee"/>
        </g>
      </g>
    </g>
    <g id="pin_blue" transform="translate(-7915.11 -16002.543)">
      <path id="선_4" data-name="선 4" d="M0,0H95.271" transform="translate(946.027 2193.568) rotate(90)" fill="none" stroke="#1e3c7c" stroke-miterlimit="10" stroke-width="1.358"/>
      <path id="패스_364" data-name="패스 364" d="M11.118,57.726a33.023,33.023,0,1,1,43.888-.087L33.9,79.318,11.118,57.726Z" transform="translate(912.13 2125.567)" fill="url(#linear-gradient-3)"/>
      <g id="그룹_109" data-name="그룹 109" transform="translate(925.637 2138.914)">
        <g id="그룹_107" data-name="그룹 107">
          <g id="그룹_106" data-name="그룹 106">
            <g id="그룹_105" data-name="그룹 105">
              <path id="패스_404" data-name="패스 404" d="M38.466,18.871A19.235,19.235,0,1,0,19.6,38.468a19.235,19.235,0,0,0,18.866-19.6Z" fill="#fff"/>
            </g>
          </g>
        </g>
        <path id="패스_405" data-name="패스 405" d="M6.22,33.4A19.235,19.235,0,0,1,31.706,4.592,19.235,19.235,0,0,1,6.22,33.4Z" transform="translate(0.545 0.482)" fill="url(#radial-gradient-3)"/>
        <g id="그룹_108" data-name="그룹 108" transform="translate(11.128 3.208)">
          <path id="패스_406" data-name="패스 406" d="M7.847,34.982A19.235,19.235,0,0,0,18.524,0a19.467,19.467,0,0,1,2.6,1.866A19.238,19.238,0,0,1,0,33.475a19.182,19.182,0,0,0,7.847,1.507Z" fill="#e7ecee"/>
        </g>
      </g>
    </g>
    <g id="pin_yellow" transform="translate(-8519.393 -16113.23)">
      <path id="선_5" data-name="선 5" d="M0,0H95.271" transform="translate(797.774 2304.256) rotate(90)" fill="none" stroke="#ffba00" stroke-linecap="round" stroke-linejoin="round" stroke-miterlimit="10" stroke-width="1.358"/>
      <path id="패스_407" data-name="패스 407" d="M11.119,57.728a33.024,33.024,0,1,1,43.888-.089L33.9,79.319,11.119,57.728Z" transform="translate(763.877 2236.254)" fill="url(#linear-gradient-4)"/>
      <g id="그룹_118" data-name="그룹 118" transform="translate(777.385 2249.602)">
        <g id="그룹_116" data-name="그룹 116">
          <g id="그룹_115" data-name="그룹 115">
            <g id="그룹_114" data-name="그룹 114">
              <path id="패스_429" data-name="패스 429" d="M38.466,18.871A19.235,19.235,0,1,0,19.6,38.466a19.235,19.235,0,0,0,18.866-19.6Z" fill="#fff"/>
            </g>
          </g>
        </g>
        <path id="패스_430" data-name="패스 430" d="M6.22,33.4A19.234,19.234,0,0,1,31.706,4.593,19.234,19.234,0,0,1,6.22,33.4Z" transform="translate(0.545 0.48)" fill="url(#radial-gradient-4)"/>
        <g id="그룹_117" data-name="그룹 117" transform="translate(11.129 3.208)">
          <path id="패스_431" data-name="패스 431" d="M7.845,34.981A19.234,19.234,0,0,0,18.522,0a19.2,19.2,0,0,1,2.6,1.866A19.235,19.235,0,0,1,8.471,35.258,19.142,19.142,0,0,1,0,33.474a19.17,19.17,0,0,0,7.845,1.507Z" fill="#e7ecee"/>
        </g>
      </g>
    </g>
    <g id="pin_orange" transform="translate(-8576.366 -15901.637)">
      <path id="선_6" data-name="선 6" d="M0,0H95.271" transform="translate(1254.302 2105.002) rotate(90)" fill="none" stroke="#ff6f00" stroke-linecap="round" stroke-linejoin="round" stroke-miterlimit="10" stroke-width="1.358"/>
      <path id="패스_432" data-name="패스 432" d="M11.118,57.728a33.023,33.023,0,1,1,43.888-.089L33.9,79.319,11.118,57.728Z" transform="translate(1220.405 2037)" fill="url(#linear-gradient-5)"/>
      <g id="그룹_127" data-name="그룹 127" transform="translate(1233.912 2050.349)">
        <g id="그룹_125" data-name="그룹 125">
          <g id="그룹_124" data-name="그룹 124">
            <g id="그룹_123" data-name="그룹 123">
              <path id="패스_466" data-name="패스 466" d="M38.468,18.871A19.236,19.236,0,1,0,19.6,38.466a19.236,19.236,0,0,0,18.867-19.6Z" fill="#fff"/>
            </g>
          </g>
        </g>
        <path id="패스_467" data-name="패스 467" d="M6.22,33.4A19.234,19.234,0,0,1,31.706,4.593,19.234,19.234,0,0,1,6.22,33.4Z" transform="translate(0.545 0.48)" fill="url(#radial-gradient)"/>
        <g id="그룹_126" data-name="그룹 126" transform="translate(11.129 3.208)">
          <path id="패스_468" data-name="패스 468" d="M7.845,34.981A19.235,19.235,0,0,0,18.524,0a19.3,19.3,0,0,1,2.6,1.866A19.234,19.234,0,0,1,8.471,35.258,19.143,19.143,0,0,1,0,33.474a19.175,19.175,0,0,0,7.845,1.507Z" fill="#e7ecee"/>
        </g>
      </g>
    </g>
  </g>
</svg>
