<svg xmlns="http://www.w3.org/2000/svg" xmlns:xlink="http://www.w3.org/1999/xlink" width="50" height="50" viewBox="0 0 50 50">
  <defs>
    <linearGradient id="linear-gradient" x1="0.5" x2="0.5" y2="1" gradientUnits="objectBoundingBox">
      <stop offset="0" stop-color="#1e3c7c"/>
      <stop offset="1" stop-color="#71bb78"/>
    </linearGradient>
  </defs>
  <g id="그룹_125" data-name="그룹 125" transform="translate(-1499 -4433)">
    <path id="타원_5" data-name="타원 5" d="M25,0A25,25,0,1,1,0,25,25,25,0,0,1,25,0Z" transform="translate(1499 4433)" fill="url(#linear-gradient)"/>
    <g id="그룹_121" data-name="그룹 121" transform="translate(2.458 4158.052)">
      <g id="그룹_120" data-name="그룹 120" transform="translate(1507.54 284.946)">
        <path id="패스_185" data-name="패스 185" d="M1521.9,287.533c3.833,0,4.288.014,5.8.083a7.941,7.941,0,0,1,2.666.495,4.753,4.753,0,0,1,2.725,2.725,7.943,7.943,0,0,1,.494,2.666c.069,1.514.084,1.968.084,5.8s-.014,4.288-.084,5.8a7.943,7.943,0,0,1-.494,2.666,4.753,4.753,0,0,1-2.725,2.725,7.951,7.951,0,0,1-2.666.495c-1.514.069-1.968.083-5.8.083s-4.288-.015-5.8-.083a7.954,7.954,0,0,1-2.666-.495,4.756,4.756,0,0,1-2.725-2.725,7.948,7.948,0,0,1-.494-2.666c-.069-1.514-.084-1.968-.084-5.8s.015-4.288.084-5.8a7.947,7.947,0,0,1,.494-2.666,4.756,4.756,0,0,1,2.725-2.725,7.945,7.945,0,0,1,2.666-.495c1.514-.069,1.968-.083,5.8-.083m0-2.587c-3.9,0-4.389.017-5.92.086a10.544,10.544,0,0,0-3.485.667,7.342,7.342,0,0,0-4.2,4.2,10.539,10.539,0,0,0-.667,3.485c-.07,1.531-.086,2.021-.086,5.92s.017,4.388.086,5.92a10.539,10.539,0,0,0,.667,3.485,7.341,7.341,0,0,0,4.2,4.2,10.542,10.542,0,0,0,3.485.667c1.531.07,2.02.086,5.92.086s4.388-.017,5.919-.086a10.541,10.541,0,0,0,3.486-.667,7.34,7.34,0,0,0,4.2-4.2,10.525,10.525,0,0,0,.668-3.485c.07-1.531.086-2.021.086-5.92s-.016-4.388-.086-5.92a10.526,10.526,0,0,0-.668-3.485,7.34,7.34,0,0,0-4.2-4.2,10.543,10.543,0,0,0-3.486-.667c-1.531-.07-2.02-.086-5.919-.086Z" transform="translate(-1507.54 -284.946)" fill="#fff"/>
        <path id="패스_186" data-name="패스 186" d="M1535.588,305.622a7.373,7.373,0,1,0,7.373,7.373A7.373,7.373,0,0,0,1535.588,305.622Zm0,12.159a4.786,4.786,0,1,1,4.786-4.786A4.786,4.786,0,0,1,1535.588,317.781Z" transform="translate(-1521.23 -298.637)" fill="#fff"/>
        <circle id="타원_8" data-name="타원 8" cx="1.723" cy="1.723" r="1.723" transform="translate(20.299 4.971)" fill="#fff"/>
      </g>
    </g>
  </g>
</svg>
