<svg xmlns="http://www.w3.org/2000/svg" xmlns:xlink="http://www.w3.org/1999/xlink" width="50" height="50" viewBox="0 0 50 50">
  <defs>
    <linearGradient id="linear-gradient" x1="0.5" x2="0.5" y2="1" gradientUnits="objectBoundingBox">
      <stop offset="0" stop-color="#1e3c7c"/>
      <stop offset="1" stop-color="#71bb78"/>
    </linearGradient>
  </defs>
  <g id="그룹_124" data-name="그룹 124" transform="translate(-1429 -4433)">
    <path id="타원_5" data-name="타원 5" d="M25,0A25,25,0,1,1,0,25,25,25,0,0,1,25,0Z" transform="translate(1429 4433)" fill="url(#linear-gradient)"/>
    <g id="그룹_122" data-name="그룹 122" transform="translate(30.22 3571.245)">
      <path id="패스_187" data-name="패스 187" d="M1444.186,905.964c-.23.653-.459,1.307-.693,1.958-.039.108-.022.137.094.132.177-.008.355,0,.533,0h1.145l-.907-2.575Z" transform="translate(-23.606 -22.468)" fill="#fff"/>
      <path id="패스_188" data-name="패스 188" d="M1438.967,880.41a12.05,12.05,0,0,0-4.094-5,17.58,17.58,0,0,0-9.043-3.3,19.5,19.5,0,0,0-5.242.23,17.479,17.479,0,0,0-6.506,2.52,13.037,13.037,0,0,0-4.48,4.709,9.943,9.943,0,0,0-1.143,6.422,10.671,10.671,0,0,0,2.447,5.253,14.494,14.494,0,0,0,4.672,3.648c.12.06.131.115.1.231q-.57,1.973-1.13,3.949c-.149.522-.307,1.041-.42,1.571-.064.3.115.481.418.44a.759.759,0,0,0,.273-.094c.238-.135.48-.266.711-.412,1.9-1.206,3.746-2.5,5.59-3.8a.48.48,0,0,1,.372-.091,18.714,18.714,0,0,0,2.8.169,19.456,19.456,0,0,0,3.068-.267,17.743,17.743,0,0,0,6.027-2.129,13.31,13.31,0,0,0,4.828-4.543A9.9,9.9,0,0,0,1438.967,880.41Zm-22.524,2.1c-.132,0-.158.041-.158.164q.005,2.575,0,5.149a.887.887,0,0,1-.624.914.9.9,0,0,1-1.2-.864c-.005-.866,0-1.733,0-2.6s0-1.722,0-2.583c0-.136-.023-.186-.173-.181-.4.012-.807.006-1.211,0a.889.889,0,1,1-.009-1.776q2.3-.007,4.6,0a.89.89,0,0,1,.249,1.751,1.017,1.017,0,0,1-.272.026C1417.25,882.518,1416.846,882.524,1416.443,882.515Zm7.8,5.628a.578.578,0,0,1-.4.534,1.4,1.4,0,0,1-.568.1.743.743,0,0,1-.753-.54c-.1-.307-.231-.6-.339-.9a.169.169,0,0,0-.192-.137c-.414.008-.829,0-1.244,0s-.839,0-1.259,0a.153.153,0,0,0-.174.119c-.107.3-.224.592-.338.888a.813.813,0,0,1-.983.567c-.636-.094-.855-.418-.72-1.069a7.883,7.883,0,0,1,.407-1.17q.919-2.433,1.845-4.863a1.333,1.333,0,0,1,1.018-.9,1.289,1.289,0,0,1,1.4.848c.343.886.676,1.776,1.014,2.664q.569,1.5,1.138,3A1.933,1.933,0,0,1,1424.247,888.143Zm4.338.5q-1.533.019-3.067,0a.824.824,0,0,1-.791-.839c0-1.028,0-2.056,0-3.083s0-2.045,0-3.067a.91.91,0,0,1,.835-.908.929.929,0,0,1,.988.682,1.26,1.26,0,0,1,.027.336q0,2.526,0,5.053c0,.144.037.179.179.177q.888-.012,1.776,0a.842.842,0,0,1,.85.782A.828.828,0,0,1,1428.586,888.644Zm6.744-.125a.9.9,0,0,1-1.338-.14c-.633-.83-1.259-1.665-1.888-2.5a.509.509,0,0,0-.049-.064c-.074-.071-.094-.211-.209-.218-.089-.006-.3.317-.3.422,0,.625,0,1.249,0,1.873a.89.89,0,0,1-.749.865.9.9,0,0,1-.979-.519.931.931,0,0,1-.083-.391q0-3.093,0-6.185a.906.906,0,1,1,1.812-.007c.005.592,0,1.184,0,1.776v.124l.054.037a1.071,1.071,0,0,1,.1-.144q1.163-1.167,2.329-2.331a.765.765,0,0,1,1-.126.883.883,0,0,1,.418.981.816.816,0,0,1-.226.347c-.636.635-1.27,1.273-1.91,1.9-.089.088-.084.138-.013.232q1.065,1.4,2.12,2.807A.909.909,0,0,1,1435.329,888.519Z" transform="translate(0 0)" fill="#fff"/>
    </g>
  </g>
</svg>
