<?xml version="1.0" encoding="UTF-8"?>
<svg id="Layer_2" data-name="Layer 2" xmlns="http://www.w3.org/2000/svg" xmlns:xlink="http://www.w3.org/1999/xlink" viewBox="0 0 725.38 170.67">
  <defs>
    <style>
      .cls-1 {
        fill: #f9c539;
      }

      .cls-1, .cls-2, .cls-3, .cls-4, .cls-5, .cls-6, .cls-7, .cls-8, .cls-9, .cls-10, .cls-11, .cls-12, .cls-13, .cls-14, .cls-15, .cls-16, .cls-17, .cls-18 {
        stroke-width: 0px;
      }

      .cls-2 {
        fill: url(#linear-gradient);
      }

      .cls-3 {
        fill: url(#linear-gradient-6);
      }

      .cls-4 {
        fill: #6eba77;
      }

      .cls-5 {
        fill: #f59b1a;
      }

      .cls-6 {
        fill: #c47613;
      }

      .cls-7 {
        fill: url(#linear-gradient-5);
      }

      .cls-8 {
        fill: #00a365;
      }

      .cls-9 {
        fill: #2b4e9d;
      }

      .cls-10 {
        fill: #cc951a;
      }

      .cls-11 {
        fill: url(#linear-gradient-2);
      }

      .cls-12 {
        fill: url(#linear-gradient-7);
      }

      .cls-13 {
        fill: url(#linear-gradient-3);
      }

      .cls-14 {
        fill: url(#linear-gradient-9);
      }

      .cls-15 {
        fill: url(#linear-gradient-8);
      }

      .cls-16 {
        fill: url(#linear-gradient-10);
      }

      .cls-17 {
        fill: url(#linear-gradient-4);
      }

      .cls-18 {
        fill: #194185;
      }
    </style>
    <linearGradient id="linear-gradient" x1="68.63" y1="0" x2="68.63" y2="170.67" gradientUnits="userSpaceOnUse">
      <stop offset="0" stop-color="#1e3c7c"/>
      <stop offset="1" stop-color="#6eba77"/>
    </linearGradient>
    <linearGradient id="linear-gradient-2" x1="68.62" y1="165.06" x2="68.62" y2="68.58" xlink:href="#linear-gradient"/>
    <linearGradient id="linear-gradient-3" x1="68.56" y1="59.45" x2="68.56" y2="77.71" xlink:href="#linear-gradient"/>
    <linearGradient id="linear-gradient-4" x1="453.65" y1="38.54" x2="453.65" y2="135.93" xlink:href="#linear-gradient"/>
    <linearGradient id="linear-gradient-5" x1="229.65" y1="41.31" x2="229.65" y2="64.04" xlink:href="#linear-gradient"/>
    <linearGradient id="linear-gradient-6" x1="229.65" y1="41.31" x2="229.65" y2="136.3" xlink:href="#linear-gradient"/>
    <linearGradient id="linear-gradient-7" x1="355.74" y1="4.36" x2="355.74" y2="133.53" xlink:href="#linear-gradient"/>
    <linearGradient id="linear-gradient-8" x1="621.28" y1="6.96" x2="621.28" y2="136.13" xlink:href="#linear-gradient"/>
    <linearGradient id="linear-gradient-9" x1="680.66" y1="41.31" x2="680.66" xlink:href="#linear-gradient"/>
    <linearGradient id="linear-gradient-10" x1="556.73" y1="38.54" x2="556.73" y2="135.93" xlink:href="#linear-gradient"/>
  </defs>
  <g id="Layer_1-2" data-name="Layer 1">
    <g>
      <g>
        <path class="cls-2" d="m109.83,91.8c3.79-3.68,7.63-7.46,11.26-11.39,3.44-3.73,5.75-7.13,7.27-10.68l.07-.15c.04-.07.09-.14.13-.22,12.44-25.07,8.54-49.51,6.28-58.86-.95-3.95-4.47-6.7-8.54-6.7-1.43,0-2.87.36-4.15,1.03-12.03,6.34-22.09,14.39-30.31,22.55-3.7-3.82-7.5-7.67-11.45-11.32-3.73-3.44-7.13-5.75-10.68-7.27l-.44-.2c-1.98-.9-3.23-1.46-4.15-1.82C54.64,2.28,43.32,0,31.4,0,22.39,0,15.05,1.32,10.48,2.42c-2.64.64-4.8,2.43-5.92,4.9-1.13,2.5-1.04,5.34.25,7.79,6.33,12,14.35,22.04,22.49,30.25-3.79,3.68-7.63,7.46-11.26,11.39-3.44,3.73-5.75,7.13-7.28,10.69l-.21.47c-1.18,2.59-1.79,3.96-2.1,4.96C-3.24,96.16.3,118.06,2.41,126.78c.95,3.95,4.47,6.7,8.54,6.7,1.43,0,2.87-.36,4.15-1.03,12.03-6.34,22.09-14.39,30.31-22.55,3.66,3.77,7.42,7.59,11.33,11.19.85.78,1.67,1.48,2.49,2.15v38.38c0,4.98,4.22,9.03,9.4,9.03s9.4-4.05,9.4-9.03v-28.88c8.79,2.99,18.1,4.52,27.82,4.52,9.01,0,16.35-1.31,20.93-2.42,2.64-.64,4.8-2.43,5.92-4.9,1.13-2.5,1.04-5.34-.25-7.78-6.36-12.06-14.43-22.14-22.61-30.37Z"/>
        <path class="cls-11" d="m68.62,165.06c-2.09,0-3.79-1.54-3.79-3.42v-89.64c0-1.89,1.7-3.42,3.79-3.42s3.79,1.53,3.79,3.42v89.64c0,1.89-1.7,3.42-3.79,3.42Z"/>
        <path class="cls-8" d="m40.38,40.56c-.11.02-.2.11-.29.19-6.65,6.56-13.6,12.93-19.93,19.8-2.51,2.72-4.8,5.72-6.26,9.12-.14.32-2.14,4.64-2.13,4.98,0,.7,2.99-2.42,3.62-3,.27-.24.28-.85.48-1.16.64,1.49,1.09,2.85,2.28,4.04l22.23,22.23,28.19-28.19c-7.27-7.27-14.55-14.54-21.82-21.81-2.01-2.01-4.03-4.01-6.02-6.04-.07-.07-.15-.15-.25-.16-.03,0-.06,0-.09,0Z"/>
        <path class="cls-18" d="m40.55,96.76c.02.11.11.2.19.29,6.56,6.65,12.93,13.6,19.8,19.93,2.72,2.51,5.72,4.8,9.12,6.26.32.14,4.64,2.14,4.98,2.13.7,0-2.42-2.99-3-3.62-.24-.27-.85-.28-1.16-.48,1.49-.64,2.85-1.09,4.04-2.28l22.23-22.23-28.19-28.19c-7.27,7.27-14.54,14.55-21.81,21.82-2.01,2.01-4.01,4.03-6.04,6.02-.07.07-.15.15-.16.25,0,.03,0,.06,0,.09Z"/>
        <path class="cls-10" d="m96.74,96.59c.11-.02.2-.11.29-.19,6.65-6.56,13.6-12.93,19.93-19.8,2.51-2.72,4.8-5.72,6.26-9.12.14-.32,2.14-4.64,2.13-4.98,0-.7-2.99,2.42-3.62,3-.27.24-.28.85-.48,1.16-.64-1.49-1.09-2.85-2.28-4.04l-22.23-22.23-28.19,28.19c7.27,7.27,14.55,14.54,21.82,21.81,2.01,2.01,4.03,4.01,6.02,6.04.07.07.15.15.25.16.03,0,.06,0,.09,0Z"/>
        <path class="cls-6" d="m96.57,40.39c-.02-.11-.11-.2-.19-.29-6.56-6.65-12.93-13.6-19.8-19.93-2.72-2.51-5.72-4.8-9.12-6.26-.32-.14-4.64-2.14-4.98-2.13-.7,0,2.42,2.99,3,3.62.24.27.85.28,1.16.48-1.49.64-2.85,1.09-4.04,2.28l-22.23,22.23,28.19,28.19c7.27-7.27,14.54-14.55,21.81-21.82,2.01-2.01,4.01-4.03,6.04-6.02.07-.07.15-.15.16-.25,0-.03,0-.06,0-.09Z"/>
        <path class="cls-5" d="m70.09,16.61c3.92,5.86,13.43,24.56-1.46,52.03,0,0-38.72-17.96-58.85-56.15-.97-1.85,0-4.12,2.03-4.61,8.81-2.13,31.64-5.77,55.05,5.85,1.32.65,2.43,1.66,3.25,2.88Z"/>
        <path class="cls-4" d="m16.59,67.17c5.86-3.92,24.56-13.43,52.03,1.46,0,0-17.96,38.72-56.15,58.85-1.85.97-4.12,0-4.61-2.03-2.13-8.81-5.77-31.64,5.85-55.05.65-1.32,1.66-2.43,2.88-3.25Z"/>
        <path class="cls-9" d="m67.16,120.67c-3.92-5.86-13.43-24.56,1.46-52.03,0,0,38.72,17.96,58.85,56.15.97,1.85,0,4.12-2.03,4.61-8.81,2.13-31.64,5.77-55.05-5.85-1.32-.65-2.43-1.66-3.25-2.88Z"/>
        <path class="cls-1" d="m120.65,70.1c-5.86,3.92-24.56,13.43-52.03-1.46,0,0,17.96-38.72,56.15-58.85,1.85-.97,4.12,0,4.61,2.03,2.13,8.81,5.77,31.64-5.85,55.05-.65,1.32-1.66,2.43-2.88,3.25Z"/>
        <circle class="cls-13" cx="68.56" cy="68.58" r="9.13"/>
      </g>
      <g>
        <path class="cls-17" d="m496.15,62.01c-5.73-9.24-14.97-17.56-28.27-21.44-4.99-1.48-9.42-2.03-14.41-2.03-26.61,0-49.71,20.88-49.71,48.78s24.02,48.6,49.89,48.6c7.95,0,15.52-1.66,23.1-5.36,5.91-2.96,6.28-7.02,6.28-9.43,0-1.11-.37-2.4-.92-4.06-.92-3.51-5.36-7.58-10.53-7.58-1.66,0-3.51.37-5.17,1.29-4.07,2.03-8.32,3.14-12.75,3.14-9.43,0-17.74-4.62-22.73-12.01-5.18-7.21-4.8-13.12-4.8-14.78,0-3.7.92-7.58,2.96-11.46,4.99-9.79,14.41-14.78,24.58-14.78s20.14,5.17,24.58,15.52c0,.02,0,.04,0,.05h-23.31c-7.58,0-11.27,5.54-11.27,11.27s3.69,11.46,11.27,11.46h37.36s.09,0,.14,0c5.81-.06,9.42-3.68,10.65-8.02.32-1.47.43-2.85.46-3.91.01-.49.02-.92.02-1.23,0-5.91-1.66-14.78-7.39-24.02Z"/>
        <circle class="cls-7" cx="229.65" cy="52.68" r="11.36"/>
        <path class="cls-3" d="m151.58,52.59c0-7.58,5.54-11.27,11.27-11.27s11.27,3.7,11.27,11.27v39.73c0,14.41,10.9,21.44,21.99,21.44s22.18-7.39,22.18-21.44v-15.12c0-7.39,5.73-11.27,11.46-11.27s11.27,3.7,11.27,11.27v15.12c0,14.23,10.72,21.62,21.81,21.62s22.18-7.39,22.18-21.62v-39.73c0-7.39,5.73-11.27,11.46-11.27s11.27,3.7,11.27,11.27v39.73c0,30.49-21.62,43.98-43.24,43.98-12.75,0-25.5-4.62-34.19-13.31-7.94,8.69-19.96,13.12-32.52,13.12-22.73,0-46.2-14.78-46.2-43.8v-39.73Z"/>
        <path class="cls-12" d="m322.48,4.36c5.73,0,11.27,3.69,11.27,11.27v32.89c7.95-6.84,17.19-9.98,26.24-9.98,20.7,0,40.47,16.45,40.47,43.8v39.92c0,7.39-5.54,11.27-11.27,11.27s-11.46-3.88-11.46-11.27v-39.92c0-14.04-11.09-21.44-21.99-21.44s-21.99,7.39-21.99,21.44v39.92c0,7.39-5.73,11.27-11.46,11.27s-11.27-3.7-11.27-11.27V15.63c0-7.39,5.73-11.27,11.46-11.27Z"/>
        <path class="cls-15" d="m621.38,6.96c5.73,0,11.27,3.69,11.27,11.27v106.63c0,7.39-5.54,11.27-11.27,11.27s-11.46-3.88-11.46-11.27V18.23c0-7.58,5.73-11.27,11.46-11.27Z"/>
        <path class="cls-14" d="m635.94,52.59c0-7.39,5.73-11.27,11.46-11.27s11.27,3.7,11.27,11.27v39.73c0,14.41,10.72,21.44,21.81,21.44s22.18-7.39,22.18-21.44v-39.73c0-7.39,5.73-11.27,11.46-11.27s11.27,3.7,11.27,11.27v68c0,24.21-18.11,50.08-49.89,50.08-7.95,0-16.63-1.48-26.24-5.17-6.47-2.4-7.21-6.84-7.21-9.98,0-1.85.37-5.55,4.25-9.24,1.85-1.85,4.06-2.77,6.84-2.77,1.66,0,3.51.37,5.17,1.29,5.36,2.77,10.53,3.88,15.52,3.88,12.01,0,21.44-7.02,25.87-15.71-5.91,2.22-12.01,3.33-18.11,3.33-23.65,0-45.64-16.08-45.64-43.98v-39.73Z"/>
        <path class="cls-16" d="m599.24,62.01c-5.73-9.24-14.97-17.56-28.27-21.44-4.99-1.48-9.42-2.03-14.41-2.03-26.61,0-49.71,20.88-49.71,48.78s24.02,48.6,49.89,48.6c7.95,0,15.52-1.66,23.1-5.36,5.91-2.96,6.28-7.02,6.28-9.43,0-1.11-.37-2.4-.92-4.06-.92-3.51-5.36-7.58-10.53-7.58-1.66,0-3.51.37-5.17,1.29-4.07,2.03-8.32,3.14-12.75,3.14-9.43,0-17.74-4.62-22.73-12.01-5.18-7.21-4.8-13.12-4.8-14.78,0-3.7.92-7.58,2.96-11.46,4.99-9.79,14.41-14.78,24.58-14.78s20.14,5.17,24.58,15.52c0,.02,0,.04,0,.05h-23.31c-7.58,0-11.27,5.54-11.27,11.27s3.69,11.46,11.27,11.46h37.36s.09,0,.14,0c5.81-.06,9.42-3.68,10.65-8.02.32-1.47.43-2.85.46-3.91.01-.49.02-.92.02-1.23,0-5.91-1.66-14.78-7.39-24.02Z"/>
      </g>
    </g>
  </g>
</svg>