<?xml version="1.0" encoding="UTF-8"?>
<svg id="Layer_2" data-name="Layer 2" xmlns="http://www.w3.org/2000/svg" xmlns:xlink="http://www.w3.org/1999/xlink" viewBox="0 0 278.23 258.24">
  <defs>
    <style>
      .cls-1 {
        fill: #f9c539;
      }

      .cls-1, .cls-2, .cls-3, .cls-4, .cls-5, .cls-6, .cls-7, .cls-8, .cls-9, .cls-10, .cls-11, .cls-12, .cls-13, .cls-14, .cls-15, .cls-16, .cls-17, .cls-18 {
        stroke-width: 0px;
      }

      .cls-2 {
        fill: url(#linear-gradient);
      }

      .cls-3 {
        fill: url(#linear-gradient-6);
      }

      .cls-4 {
        fill: #6eba77;
      }

      .cls-5 {
        fill: #f59b1a;
      }

      .cls-6 {
        fill: #c47613;
      }

      .cls-7 {
        fill: url(#linear-gradient-5);
      }

      .cls-8 {
        fill: #00a365;
      }

      .cls-9 {
        fill: #2b4e9d;
      }

      .cls-10 {
        fill: #cc951a;
      }

      .cls-11 {
        fill: url(#linear-gradient-2);
      }

      .cls-12 {
        fill: url(#linear-gradient-7);
      }

      .cls-13 {
        fill: url(#linear-gradient-3);
      }

      .cls-14 {
        fill: url(#linear-gradient-9);
      }

      .cls-15 {
        fill: url(#linear-gradient-8);
      }

      .cls-16 {
        fill: url(#linear-gradient-10);
      }

      .cls-17 {
        fill: url(#linear-gradient-4);
      }

      .cls-18 {
        fill: #194185;
      }
    </style>
    <linearGradient id="linear-gradient" x1="138.97" y1="0" x2="138.97" y2="170.67" gradientUnits="userSpaceOnUse">
      <stop offset="0" stop-color="#1e3c7c"/>
      <stop offset="1" stop-color="#6eba77"/>
    </linearGradient>
    <linearGradient id="linear-gradient-2" x1="138.97" y1="165.06" x2="138.97" y2="68.58" xlink:href="#linear-gradient"/>
    <linearGradient id="linear-gradient-3" x1="138.9" y1="59.45" x2="138.9" y2="77.71" xlink:href="#linear-gradient"/>
    <linearGradient id="linear-gradient-4" x1="146.47" y1="194.18" x2="146.47" y2="241.4" xlink:href="#linear-gradient"/>
    <linearGradient id="linear-gradient-5" x1="37.86" y1="195.52" x2="37.86" y2="206.54" xlink:href="#linear-gradient"/>
    <linearGradient id="linear-gradient-6" x1="37.86" y1="195.52" x2="37.86" y2="241.58" xlink:href="#linear-gradient"/>
    <linearGradient id="linear-gradient-7" x1="99" y1="177.6" x2="99" y2="240.23" xlink:href="#linear-gradient"/>
    <linearGradient id="linear-gradient-8" x1="227.76" y1="178.86" x2="227.76" y2="241.5" xlink:href="#linear-gradient"/>
    <linearGradient id="linear-gradient-9" x1="256.55" y1="195.52" x2="256.55" y2="258.24" xlink:href="#linear-gradient"/>
    <linearGradient id="linear-gradient-10" x1="196.46" y1="194.18" x2="196.46" y2="241.4" xlink:href="#linear-gradient"/>
  </defs>
  <g id="Layer_1-2" data-name="Layer 1">
    <g>
      <g>
        <path class="cls-2" d="m180.17,91.8c3.79-3.68,7.63-7.46,11.26-11.39,3.44-3.73,5.75-7.13,7.27-10.68l.07-.15c.04-.07.09-.14.13-.22,12.44-25.07,8.54-49.51,6.28-58.86-.95-3.95-4.47-6.7-8.54-6.7-1.43,0-2.87.36-4.15,1.03-12.03,6.34-22.09,14.39-30.31,22.55-3.7-3.82-7.5-7.67-11.45-11.32-3.73-3.44-7.13-5.75-10.68-7.27l-.44-.2c-1.98-.9-3.23-1.46-4.15-1.82C124.98,2.28,113.67,0,101.75,0c-9.01,0-16.35,1.32-20.93,2.42-2.64.64-4.8,2.43-5.92,4.9-1.13,2.5-1.04,5.34.25,7.79,6.33,12,14.35,22.04,22.49,30.25-3.79,3.68-7.63,7.46-11.26,11.39-3.44,3.73-5.75,7.13-7.28,10.69l-.21.47c-1.18,2.59-1.79,3.96-2.1,4.96-9.68,23.29-6.14,45.19-4.04,53.91.95,3.95,4.47,6.7,8.54,6.7,1.43,0,2.87-.36,4.15-1.03,12.03-6.34,22.09-14.39,30.31-22.55,3.66,3.77,7.42,7.59,11.33,11.19.85.78,1.67,1.48,2.49,2.15v38.38c0,4.98,4.22,9.03,9.4,9.03s9.4-4.05,9.4-9.03v-28.88c8.79,2.99,18.1,4.52,27.82,4.52,9.01,0,16.35-1.31,20.93-2.42,2.64-.64,4.8-2.43,5.92-4.9,1.13-2.5,1.04-5.34-.25-7.78-6.36-12.06-14.43-22.14-22.61-30.37Z"/>
        <path class="cls-11" d="m138.97,165.06c-2.09,0-3.79-1.54-3.79-3.42v-89.64c0-1.89,1.7-3.42,3.79-3.42s3.79,1.53,3.79,3.42v89.64c0,1.89-1.7,3.42-3.79,3.42Z"/>
        <path class="cls-8" d="m110.72,40.56c-.11.02-.2.11-.29.19-6.65,6.56-13.6,12.93-19.93,19.8-2.51,2.72-4.8,5.72-6.26,9.12-.14.32-2.14,4.64-2.13,4.98,0,.7,2.99-2.42,3.62-3,.27-.24.28-.85.48-1.16.64,1.49,1.09,2.85,2.28,4.04l22.23,22.23,28.19-28.19c-7.27-7.27-14.55-14.54-21.82-21.81-2.01-2.01-4.03-4.01-6.02-6.04-.07-.07-.15-.15-.25-.16-.03,0-.06,0-.09,0Z"/>
        <path class="cls-18" d="m110.89,96.76c.02.11.11.2.19.29,6.56,6.65,12.93,13.6,19.8,19.93,2.72,2.51,5.72,4.8,9.12,6.26.32.14,4.64,2.14,4.98,2.13.7,0-2.42-2.99-3-3.62-.24-.27-.85-.28-1.16-.48,1.49-.64,2.85-1.09,4.04-2.28l22.23-22.23-28.19-28.19c-7.27,7.27-14.54,14.55-21.81,21.82-2.01,2.01-4.01,4.03-6.04,6.02-.07.07-.15.15-.16.25,0,.03,0,.06,0,.09Z"/>
        <path class="cls-10" d="m167.09,96.59c.11-.02.2-.11.29-.19,6.65-6.56,13.6-12.93,19.93-19.8,2.51-2.72,4.8-5.72,6.26-9.12.14-.32,2.14-4.64,2.13-4.98,0-.7-2.99,2.42-3.62,3-.27.24-.28.85-.48,1.16-.64-1.49-1.09-2.85-2.28-4.04l-22.23-22.23-28.19,28.19c7.27,7.27,14.55,14.54,21.82,21.81,2.01,2.01,4.03,4.01,6.02,6.04.07.07.15.15.25.16.03,0,.06,0,.09,0Z"/>
        <path class="cls-6" d="m166.92,40.39c-.02-.11-.11-.2-.19-.29-6.56-6.65-12.93-13.6-19.8-19.93-2.72-2.51-5.72-4.8-9.12-6.26-.32-.14-4.64-2.14-4.98-2.13-.7,0,2.42,2.99,3,3.62.24.27.85.28,1.16.48-1.49.64-2.85,1.09-4.04,2.28l-22.23,22.23,28.19,28.19c7.27-7.27,14.54-14.55,21.81-21.82,2.01-2.01,4.01-4.03,6.04-6.02.07-.07.15-.15.16-.25,0-.03,0-.06,0-.09Z"/>
        <path class="cls-5" d="m140.43,16.61c3.92,5.86,13.43,24.56-1.46,52.03,0,0-38.72-17.96-58.85-56.15-.97-1.85,0-4.12,2.03-4.61,8.81-2.13,31.64-5.77,55.05,5.85,1.32.65,2.43,1.66,3.25,2.88Z"/>
        <path class="cls-4" d="m86.93,67.17c5.86-3.92,24.56-13.43,52.03,1.46,0,0-17.96,38.72-56.15,58.85-1.85.97-4.12,0-4.61-2.03-2.13-8.81-5.77-31.64,5.85-55.05.65-1.32,1.66-2.43,2.88-3.25Z"/>
        <path class="cls-9" d="m137.5,120.67c-3.92-5.86-13.43-24.56,1.46-52.03,0,0,38.72,17.96,58.85,56.15.97,1.85,0,4.12-2.03,4.61-8.81,2.13-31.64,5.77-55.05-5.85-1.32-.65-2.43-1.66-3.25-2.88Z"/>
        <path class="cls-1" d="m191,70.1c-5.86,3.92-24.56,13.43-52.03-1.46,0,0,17.96-38.72,56.15-58.85,1.85-.97,4.12,0,4.61,2.03,2.13,8.81,5.77,31.64-5.85,55.05-.65,1.32-1.66,2.43-2.88,3.25Z"/>
        <circle class="cls-13" cx="138.9" cy="68.58" r="9.13"/>
      </g>
      <g>
        <path class="cls-17" d="m167.08,205.56c-2.78-4.48-7.26-8.51-13.71-10.39-2.42-.72-4.57-.99-6.99-.99-12.9,0-24.1,10.13-24.1,23.66s11.65,23.57,24.19,23.57c3.85,0,7.53-.81,11.2-2.6,2.87-1.43,3.05-3.41,3.05-4.57,0-.54-.18-1.16-.45-1.97-.45-1.7-2.6-3.67-5.11-3.67-.81,0-1.7.18-2.51.63-1.97.99-4.03,1.52-6.18,1.52-4.57,0-8.6-2.24-11.02-5.82-2.51-3.49-2.33-6.36-2.33-7.17,0-1.79.45-3.67,1.43-5.56,2.42-4.75,6.99-7.17,11.92-7.17s9.77,2.51,11.92,7.53c0,0,0,.02,0,.03h-11.3c-3.67,0-5.47,2.69-5.47,5.47s1.79,5.56,5.47,5.56h18.11s.04,0,.07,0c2.82-.03,4.57-1.78,5.17-3.89.15-.71.21-1.38.22-1.9,0-.24,0-.45,0-.6,0-2.87-.81-7.17-3.58-11.65Z"/>
        <circle class="cls-7" cx="37.86" cy="201.03" r="5.51"/>
        <path class="cls-3" d="m0,200.99c0-3.67,2.69-5.47,5.47-5.47s5.47,1.79,5.47,5.47v19.26c0,6.99,5.29,10.39,10.66,10.39s10.75-3.58,10.75-10.39v-7.33c0-3.58,2.78-5.47,5.56-5.47s5.47,1.79,5.47,5.47v7.33c0,6.9,5.2,10.48,10.57,10.48s10.75-3.58,10.75-10.48v-19.26c0-3.58,2.78-5.47,5.55-5.47s5.47,1.79,5.47,5.47v19.26c0,14.78-10.48,21.33-20.97,21.33-6.18,0-12.36-2.24-16.58-6.45-3.85,4.21-9.68,6.36-15.77,6.36-11.02,0-22.4-7.17-22.4-21.24v-19.26Z"/>
        <path class="cls-12" d="m82.87,177.6c2.78,0,5.47,1.79,5.47,5.47v15.95c3.85-3.32,8.33-4.84,12.72-4.84,10.04,0,19.62,7.97,19.62,21.24v19.35c0,3.58-2.69,5.47-5.47,5.47s-5.56-1.88-5.56-5.47v-19.35c0-6.81-5.38-10.39-10.66-10.39s-10.66,3.58-10.66,10.39v19.35c0,3.58-2.78,5.47-5.56,5.47s-5.47-1.79-5.47-5.47v-51.7c0-3.58,2.78-5.47,5.56-5.47Z"/>
        <path class="cls-15" d="m227.8,178.86c2.78,0,5.47,1.79,5.47,5.47v51.7c0,3.58-2.69,5.47-5.47,5.47s-5.56-1.88-5.56-5.47v-51.7c0-3.67,2.78-5.47,5.56-5.47Z"/>
        <path class="cls-14" d="m234.86,200.99c0-3.58,2.78-5.47,5.56-5.47s5.47,1.79,5.47,5.47v19.26c0,6.99,5.2,10.39,10.57,10.39s10.75-3.58,10.75-10.39v-19.26c0-3.58,2.78-5.47,5.56-5.47s5.47,1.79,5.47,5.47v32.97c0,11.74-8.78,24.28-24.19,24.28-3.85,0-8.06-.72-12.72-2.51-3.14-1.17-3.5-3.32-3.5-4.84,0-.9.18-2.69,2.06-4.48.9-.9,1.97-1.34,3.32-1.34.81,0,1.7.18,2.51.63,2.6,1.34,5.11,1.88,7.53,1.88,5.82,0,10.39-3.41,12.54-7.62-2.87,1.08-5.82,1.61-8.78,1.61-11.47,0-22.13-7.8-22.13-21.33v-19.26Z"/>
        <path class="cls-16" d="m217.07,205.56c-2.78-4.48-7.26-8.51-13.71-10.39-2.42-.72-4.57-.99-6.99-.99-12.9,0-24.1,10.13-24.1,23.66s11.65,23.57,24.19,23.57c3.85,0,7.53-.81,11.2-2.6,2.87-1.43,3.05-3.41,3.05-4.57,0-.54-.18-1.16-.45-1.97-.45-1.7-2.6-3.67-5.11-3.67-.81,0-1.7.18-2.51.63-1.97.99-4.03,1.52-6.18,1.52-4.57,0-8.6-2.24-11.02-5.82-2.51-3.49-2.33-6.36-2.33-7.17,0-1.79.45-3.67,1.43-5.56,2.42-4.75,6.99-7.17,11.92-7.17s9.77,2.51,11.92,7.53c0,0,0,.02,0,.03h-11.3c-3.67,0-5.47,2.69-5.47,5.47s1.79,5.56,5.47,5.56h18.11s.04,0,.07,0c2.82-.03,4.57-1.78,5.17-3.89.15-.71.21-1.38.22-1.9,0-.24,0-.45,0-.6,0-2.87-.81-7.17-3.58-11.65Z"/>
      </g>
    </g>
  </g>
</svg>