<svg id="office-monthly-calendar" xmlns="http://www.w3.org/2000/svg" width="12.88" height="13.029" viewBox="0 0 12.88 13.029">
  <g id="그룹_51" data-name="그룹 51" transform="translate(0)">
    <path id="패스_91" data-name="패스 91" d="M15.263,45.333H13.915a.45.45,0,0,0,0,.9h.9V56.286H3.732V46.233h1.2a.45.45,0,0,0,0-.9H3.282a.451.451,0,0,0-.449.45V56.736a.451.451,0,0,0,.449.45H15.263a.451.451,0,0,0,.449-.45V45.783A.451.451,0,0,0,15.263,45.333Z" transform="translate(-2.833 -44.157)" fill="#ababab"/>
    <path id="패스_92" data-name="패스 92" d="M205.691,45.333h-1.25a.441.441,0,0,0,0,.882h1.25a.441.441,0,0,0,0-.882Z" transform="translate(-198.664 -44.157)" fill="#ababab"/>
    <path id="패스_93" data-name="패스 93" d="M89.3,351.333H88.274a.442.442,0,0,0-.441.441v.735a.442.442,0,0,0,.441.441H89.3a.442.442,0,0,0,.441-.441v-.735A.442.442,0,0,0,89.3,351.333Z" transform="translate(-85.579 -342.023)" fill="#ababab"/>
    <path id="패스_94" data-name="패스 94" d="M208.377,351.333h-1.1a.442.442,0,0,0-.441.441v.735a.442.442,0,0,0,.441.441h1.1a.442.442,0,0,0,.441-.441v-.735A.442.442,0,0,0,208.377,351.333Z" transform="translate(-201.423 -342.023)" fill="#ababab"/>
    <path id="패스_95" data-name="패스 95" d="M89.745,258.274a.442.442,0,0,0-.441-.441H88.274a.442.442,0,0,0-.441.441v.735a.442.442,0,0,0,.441.441H89.3a.442.442,0,0,0,.441-.441Z" transform="translate(-85.579 -251.001)" fill="#ababab"/>
    <path id="패스_96" data-name="패스 96" d="M208.818,258.274a.442.442,0,0,0-.441-.441h-1.1a.442.442,0,0,0-.441.441v.735a.442.442,0,0,0,.441.441h1.1a.442.442,0,0,0,.441-.441Z" transform="translate(-201.423 -251.001)" fill="#ababab"/>
    <path id="패스_97" data-name="패스 97" d="M330.136,257.833h-1.029a.442.442,0,0,0-.441.441v.735a.442.442,0,0,0,.441.441h1.029a.442.442,0,0,0,.441-.441v-.735A.442.442,0,0,0,330.136,257.833Z" transform="translate(-320.027 -251.001)" fill="#ababab"/>
    <path id="패스_98" data-name="패스 98" d="M87.833,161.941v.735a.442.442,0,0,0,.441.441H89.3a.442.442,0,0,0,.441-.441v-.735a.442.442,0,0,0-.441-.441H88.274A.442.442,0,0,0,87.833,161.941Z" transform="translate(-85.579 -157.221)" fill="#ababab"/>
    <path id="패스_99" data-name="패스 99" d="M208.818,161.941a.442.442,0,0,0-.441-.441h-1.1a.442.442,0,0,0-.441.441v.735a.442.442,0,0,0,.441.441h1.1a.442.442,0,0,0,.441-.441Z" transform="translate(-201.423 -157.221)" fill="#ababab"/>
    <path id="패스_100" data-name="패스 100" d="M330.578,161.941a.442.442,0,0,0-.441-.441h-1.029a.442.442,0,0,0-.441.441v.735a.442.442,0,0,0,.441.441h1.029a.442.442,0,0,0,.441-.441Z" transform="translate(-320.027 -157.221)" fill="#ababab"/>
    <path id="패스_101" data-name="패스 101" d="M122.715,2.941a.442.442,0,0,0,.441-.441V.441A.442.442,0,0,0,122.715,0h-.441a.442.442,0,0,0-.441.441V2.5a.442.442,0,0,0,.441.441Z" transform="translate(-118.681 0)" fill="#ababab"/>
    <path id="패스_102" data-name="패스 102" d="M318.215,0h-.441a.442.442,0,0,0-.441.441V2.5a.442.442,0,0,0,.441.441h.441a.442.442,0,0,0,.441-.441V.441A.442.442,0,0,0,318.215,0Z" transform="translate(-309.004)" fill="#ababab"/>
  </g>
</svg>
