<svg xmlns="http://www.w3.org/2000/svg" width="30" height="30" viewBox="0 0 30 30">
  <g id="그룹_1179" data-name="그룹 1179" transform="translate(-460 -760)">
    <rect id="사각형_603" data-name="사각형 603" width="30" height="30" rx="15" transform="translate(460 760)" fill="#f9ebbf"/>
    <path id="패스_2520" data-name="패스 2520" d="M108.645,18.394l9.362,4.865a.661.661,0,0,0,.849-.96l-2.188-3.185a1.385,1.385,0,0,0,.148-.227l.465-.9a1.378,1.378,0,0,0-2.359-1.418l-.975-1.42.382-.736a1.378,1.378,0,0,0-2.073-1.724l-.29-.422C114.5,7.031,116.156,1.09,114.3.126s-6.057,3.751-8.917,8.865L104.663,9a1.379,1.379,0,0,0-2.593-.811l-.438.842-1.71.018a1.38,1.38,0,0,0-.61-1.81,1.382,1.382,0,0,0-1.863.588l-.465.9a1.369,1.369,0,0,0-.121.359l-3.644.037a.661.661,0,0,0-.3,1.247l9.365,4.866a25.719,25.719,0,0,0-1.455,5.69c-.093.557-.183,1.088-.284,1.568l-4.9,1.55a.661.661,0,0,0,.234,1.289,11.078,11.078,0,0,1,8.438,4.426.661.661,0,0,0,1.143-.615l-1.547-4.892c.172-.19.353-.387.541-.593a36.066,36.066,0,0,0,4.19-5.26m-9.877,6.043,2.541-.8a.663.663,0,0,0,.444-.476c.145-.611.26-1.294.382-2.018a22.843,22.843,0,0,1,1.6-5.938.661.661,0,0,0-.3-.86l-7.564-3.93L97.3,10.4a1.393,1.393,0,0,0,.268.187,1.367,1.367,0,0,0,1.565-.207l2.468-.026a1.367,1.367,0,0,0,.588.594,1.367,1.367,0,0,0,1.053.091,1.366,1.366,0,0,0,.81-.681l.016-.03,1.712-.018a.658.658,0,0,0,.572-.344c3.134-5.741,6.467-8.591,7.325-8.649.355.658-.019,4.544-3.07,10.719a.658.658,0,0,0,.048.666l.824,1.2-.071.139a1.381,1.381,0,0,0,1.224,2.018,1.416,1.416,0,0,0,.3-.036l1.31,1.907a1.377,1.377,0,0,0,1.162,1.691l.857,1.248-7.565-3.93a.66.66,0,0,0-.874.25,32.714,32.714,0,0,1-4.351,5.574c-.289.315-.56.61-.805.887a.661.661,0,0,0-.136.639l.83,2.624a12.665,12.665,0,0,0-4.6-2.473M97.922,9.209l.464-.895a.327.327,0,0,1,.289-.175.319.319,0,0,1,.149.036.325.325,0,0,1,.139.438l-.465.895a.32.32,0,0,1-.19.16.325.325,0,0,1-.408-.212.322.322,0,0,1,.022-.248m5.085-.534a.326.326,0,0,1,.438-.139.327.327,0,0,1,.139.438l-.465.895a.325.325,0,1,1-.576-.3Zm10,4.8a.344.344,0,0,1,.1-.015.33.33,0,0,1,.15.036.324.324,0,0,1,.16.19.32.32,0,0,1-.022.247l-.464.895a.325.325,0,0,1-.577-.3l.465-.9a.322.322,0,0,1,.19-.16m2.3,4.628.465-.895a.316.316,0,0,1,.19-.16.324.324,0,0,1,.247.021.324.324,0,0,1,.139.438l-.465.895a.319.319,0,0,1-.19.16.324.324,0,0,1-.408-.212.322.322,0,0,1,.021-.248" transform="translate(369.23 760)" fill="#272525"/>
  </g>
</svg>
