<svg xmlns="http://www.w3.org/2000/svg" width="31" height="30.001" viewBox="0 0 31 30.001">
  <g id="그룹_1183" data-name="그룹 1183" transform="translate(-1540 -759.999)">
    <rect id="사각형_607" data-name="사각형 607" width="30" height="30" rx="15" transform="translate(1540 760)" fill="#f9ebbf"/>
    <path id="패스_2530" data-name="패스 2530" d="M219.125,148.827l1.442,0a15.012,15.012,0,0,0,0-30l-1.429,0-.014.008a15.015,15.015,0,0,0,0,29.988m-9.068-5.287a16.77,16.77,0,0,1,3.071-1.765,17.96,17.96,0,0,0,4.274,5.678,13.9,13.9,0,0,1-7.346-3.912m9.291,4.006a17.164,17.164,0,0,1-5.14-6.206,17.338,17.338,0,0,1,5.14-1.022Zm0-8.388a18.514,18.514,0,0,0-5.608,1.118,17.1,17.1,0,0,1-1.2-5.369l6.807,0Zm0-5.416-6.844,0a17.318,17.318,0,0,1,.935-5.554,18.241,18.241,0,0,0,5.909,1.252Zm2.906,13.747a17.938,17.938,0,0,0,4.419-5.923,16.865,16.865,0,0,1,3.3,1.793,13.849,13.849,0,0,1-7.723,4.13m8.491-5.008a17.915,17.915,0,0,0-3.624-1.985,18.324,18.324,0,0,0,1.2-5.6l5.419,0a13.729,13.729,0,0,1-2.994,7.585m.433-16.723a13.719,13.719,0,0,1,2.6,7.977l-5.429,0a18.476,18.476,0,0,0-.949-5.778,18.318,18.318,0,0,0,3.773-2.2m-.716-.913A17.157,17.157,0,0,1,227,126.87a18.165,18.165,0,0,0-4.75-6.692,13.788,13.788,0,0,1,8.21,4.667m-9.954-4.6a17.043,17.043,0,0,1,5.415,7.058,17.112,17.112,0,0,1-5.415,1Zm0,9.217a18.237,18.237,0,0,0,5.814-1.07,17.342,17.342,0,0,1,.872,5.35l-6.685,0Zm0,5.444,6.648,0a17.14,17.14,0,0,1-1.126,5.193,18.507,18.507,0,0,0-5.522-.948Zm0,5.4a17.343,17.343,0,0,1,5.068.86,17.14,17.14,0,0,1-5.068,6.26Zm-1.161-20.184v8.162a17.08,17.08,0,0,1-5.492-1.175,17.07,17.07,0,0,1,5.492-6.986m-1.943.094a18.184,18.184,0,0,0-4.614,6.431,17.084,17.084,0,0,1-3.22-2,13.829,13.829,0,0,1,7.835-4.433m-8.568,5.333a18.344,18.344,0,0,0,3.532,2.183,18.466,18.466,0,0,0-1.025,6.017l-5.268,0a13.7,13.7,0,0,1,2.762-8.2m-2.718,9.364,5.261,0a18.3,18.3,0,0,0,1.283,5.8,17.9,17.9,0,0,0-3.387,1.963,13.7,13.7,0,0,1-3.157-7.764" transform="translate(1335.088 641.168)" fill="#272525"/>
    <circle id="타원_11" data-name="타원 11" cx="4" cy="4" r="4" transform="translate(1563 781)" fill="#f9ebbf"/>
  </g>
</svg>
