<svg xmlns="http://www.w3.org/2000/svg" width="30" height="30.001" viewBox="0 0 30 30.001">
  <g id="그룹_1182" data-name="그룹 1182" transform="translate(-1270 -760)">
    <rect id="사각형_606" data-name="사각형 606" width="30" height="30" rx="15" transform="translate(1270 760)" fill="#f9ebbf"/>
    <g id="그룹_1126" data-name="그룹 1126" transform="translate(-512.096 -228.57)">
      <path id="패스_2528" data-name="패스 2528" d="M154.089,251.173h.109c7.953-.058,14.378-6.835,14.318-15.107a15.188,15.188,0,0,0-4.29-10.56,14.06,14.06,0,0,0-10.234-4.333c-7.951.058-14.375,6.833-14.32,15.1a15.216,15.216,0,0,0,4.292,10.563,14.034,14.034,0,0,0,10.124,4.332M154,222.587h.093a12.644,12.644,0,0,1,9.116,3.905,13.783,13.783,0,0,1,3.889,9.583c.054,7.492-5.74,13.631-12.915,13.684a12.624,12.624,0,0,1-9.209-3.9,13.8,13.8,0,0,1-3.89-9.587c-.051-7.491,5.744-13.628,12.916-13.681" transform="translate(1643 767.398)" fill="#272525"/>
      <path id="패스_2529" data-name="패스 2529" d="M150.436,247.049h7.317v-7.093h6.806v-7.567h-6.806V225.3h-7.317v7.089H143.63v7.567h6.806Zm-1.817-8.518h-3.565v-4.716h6.806v-7.09h4.467v7.09h6.806v4.716h-6.806v7.093H151.86V238.53Z" transform="translate(1643 767.398)" fill="#272525"/>
    </g>
  </g>
</svg>
