<svg xmlns="http://www.w3.org/2000/svg" width="42.279" height="30" viewBox="0 0 42.279 30">
  <g id="그룹_1180" data-name="그룹 1180" transform="translate(-723.86 -760)">
    <rect id="사각형_604" data-name="사각형 604" width="30" height="30" rx="15" transform="translate(730 760)" fill="#f9ebbf"/>
    <g id="그룹_1127" data-name="그룹 1127" transform="translate(-1091.871 -403.631)">
      <path id="패스_2521" data-name="패스 2521" d="M186.776,421.346a.815.815,0,0,0,.8.317l6.1-1.1,4.363,4.4a.811.811,0,0,0,.578.241.8.8,0,0,0,.259-.042.814.814,0,0,0,.549-.662l.839-6.138,5.532-2.79a.815.815,0,0,0-.013-1.462l-5.578-2.694-.943-6.124a.815.815,0,0,0-1.4-.439l-4.286,4.473-6.115-1a.816.816,0,0,0-.85,1.191l2.93,5.458-2.836,5.509a.817.817,0,0,0,.069.858m4.413-6a.815.815,0,0,0-.006-.759l-2.351-4.381,4.907.8a.817.817,0,0,0,.719-.241l3.441-3.589.756,4.914a.813.813,0,0,0,.452.609l4.477,2.163-4.439,2.238a.812.812,0,0,0-.441.618l-.674,4.926-3.5-3.53a.813.813,0,0,0-.578-.242.879.879,0,0,0-.145.013l-4.893.882Z" transform="translate(1643.947 768.427)" fill="#272525"/>
      <path id="패스_2522" data-name="패스 2522" d="M208.978,400.985l-1.48,1.773-2.3-.214a.816.816,0,0,0-.766,1.246l1.228,1.955-.913,2.12a.815.815,0,0,0,.948,1.113l2.239-.564,1.734,1.524a.815.815,0,0,0,.538.2.825.825,0,0,0,.311-.062.815.815,0,0,0,.5-.7l.156-2.3,1.985-1.179a.815.815,0,0,0-.112-1.457l-2.143-.859-.507-2.253a.816.816,0,0,0-1.421-.344m.6,5.555-.073,1.083-.816-.717a.815.815,0,0,0-.538-.2.745.745,0,0,0-.2.026l-1.053.264.43-1a.814.814,0,0,0-.059-.756l-.577-.919,1.081.1a.819.819,0,0,0,.7-.289l.7-.833.238,1.058a.819.819,0,0,0,.492.579l1.008.4-.934.555a.814.814,0,0,0-.4.646" transform="translate(1644.449 767.633)" fill="#272525"/>
      <path id="패스_2523" data-name="패스 2523" d="M175.732,404.92l-.83,3.94a.815.815,0,0,0,1.149.9l3.633-1.739,3.491,2.007a.816.816,0,0,0,1.215-.815l-.532-3.991,2.988-2.7a.815.815,0,0,0-.4-1.407l-3.96-.728-1.646-3.675a.815.815,0,0,0-1.461-.056l-1.917,3.542-4,.429a.815.815,0,0,0-.5,1.372Zm2.961-3.566,1.335-2.466,1.145,2.559a.817.817,0,0,0,.6.469l2.758.507-2.081,1.881a.817.817,0,0,0-.261.712l.37,2.779-2.431-1.4a.82.82,0,0,0-.758-.029l-2.529,1.211.577-2.744a.817.817,0,0,0-.207-.73l-1.932-2.031,2.787-.3a.811.811,0,0,0,.63-.422" transform="translate(1643 767.398)" fill="#272525"/>
    </g>
  </g>
</svg>
