<svg xmlns="http://www.w3.org/2000/svg" width="34.891" height="30.001" viewBox="0 0 34.891 30.001">
  <g id="그룹_1181" data-name="그룹 1181" transform="translate(-997.555 -759.999)">
    <rect id="사각형_605" data-name="사각형 605" width="30" height="30" rx="15" transform="translate(1000 760)" fill="#f9ebbf"/>
    <g id="그룹_1125" data-name="그룹 1125" transform="translate(-645.445 -114.488)">
      <path id="패스_2524" data-name="패스 2524" d="M10.364,120.357H26.848a.665.665,0,0,0,.659-.736l-.995-9.015a.664.664,0,0,0-.658-.59h-14.5a.663.663,0,0,0-.658.59l-.994,9.015a.663.663,0,0,0,.658.736m7.994-7.076h2.794v.691H16.514v-.691Zm.658-.662H18.69v-1.077h.327Zm-.99-1.277v1.277H16.182a.331.331,0,0,0-.331.331V114.3a.331.331,0,0,0,.331.331h5.3a.331.331,0,0,0,.331-.331V112.95a.331.331,0,0,0-.331-.331h-1.8v-1.277h5.58l.848,7.69h-15l.847-7.69Z" transform="translate(1641.768 766.445)" fill="#272525"/>
      <path id="패스_2525" data-name="패스 2525" d="M24.393,125.286a3.34,3.34,0,1,0,3.34-3.34,3.344,3.344,0,0,0-3.34,3.34m3.34-2.014a2.014,2.014,0,1,1-2.014,2.014,2.017,2.017,0,0,1,2.014-2.014" transform="translate(1641.155 766.225)" fill="#272525"/>
      <path id="패스_2526" data-name="패스 2526" d="M9.885,121.946a3.34,3.34,0,1,0,3.339,3.34,3.344,3.344,0,0,0-3.339-3.34m0,5.355a2.014,2.014,0,1,1,2.013-2.015A2.017,2.017,0,0,1,9.885,127.3" transform="translate(1642.505 766.225)" fill="#272525"/>
      <path id="패스_2527" data-name="패스 2527" d="M34.206,128.856a24.391,24.391,0,0,0-.834-5.555,5.744,5.744,0,0,0-2.9-4.226.611.611,0,0,0-.245-.052h-2l-.206-1.381h1a.767.767,0,0,0,0-1.534H27.792l-1.261-8.495a.613.613,0,0,0-.607-.524H8.665a.614.614,0,0,0-.607.524l-1.284,8.648H5.334a.614.614,0,0,0,0,1.228H6.592l-.228,1.534h-2a.618.618,0,0,0-.246.052,5.744,5.744,0,0,0-2.9,4.226c-.737,3.556-.827,4-.837,5.906a2.137,2.137,0,0,0-.38,1.22,2.112,2.112,0,0,0,2.091,2.13H6.257v2.076c0,1.378,1.449,2.457,3.3,2.457s3.3-1.079,3.3-2.457v-2.076h8.988v2.076c0,1.378,1.449,2.457,3.3,2.457s3.3-1.079,3.3-2.457v-2.076H32.8a2.112,2.112,0,0,0,2.091-2.13,2.141,2.141,0,0,0-.685-1.571M2.418,123.55a4.746,4.746,0,0,1,2.09-3.3H6.893a.614.614,0,0,0,.608-.523l1.694-11.41h16.2l1.695,11.41a.613.613,0,0,0,.607.523h2.384a4.745,4.745,0,0,1,2.09,3.3,28.2,28.2,0,0,1,.794,4.756c-.055,0-.109-.008-.165-.008H2.091a2.079,2.079,0,0,0-.468.056,27.567,27.567,0,0,1,.8-4.8m9.207,11.082c0,.582-.851,1.23-2.07,1.23s-2.071-.648-2.071-1.23v-2.076h4.142Zm15.582,0c0,.582-.851,1.23-2.07,1.23s-2.071-.648-2.071-1.23v-2.076h4.142Zm5.593-3.3H2.091a.9.9,0,0,1,0-1.805H32.8a.9.9,0,0,1,0,1.805" transform="translate(1643 767.398)" fill="#272525"/>
    </g>
  </g>
</svg>
